<svg xmlns="http://www.w3.org/2000/svg" width="32" height="32" viewBox="0 0 32 32">
    <g fill="none" fill-rule="nonzero" transform="translate(4 4)">
        <circle cx="12" cy="12" r="11.5" fill="#FFF"/>
        <path fill="#949A9C" d="M12 1c6.075 0 11 4.925 11 11s-4.925 11-11 11S1 18.075 1 12 5.925 1 12 1zm0-1C5.373 0 0 5.373 0 12s5.373 12 12 12 12-5.373 12-12A12 12 0 0 0 12 0z"/>
        <path fill="#FFF" stroke="#949A9C" stroke-linecap="round" d="M7 17l9.657-9.657"/>
        <circle cx="15" cy="16" r="1.5" fill="#FFF" stroke="#949A9C"/>
        <circle cx="9" cy="8" r="1.5" fill="#FFF" stroke="#949A9C"/>
    </g>
</svg>
