<svg xmlns="http://www.w3.org/2000/svg" width="27" height="27" viewBox="0 0 27 27">
    <g fill="none" fill-rule="evenodd">
        <path fill="#FBD020" d="M25.37 9.295a12.085 12.085 0 0 0-1.09-2.725A12.089 12.089 0 0 0 21.3 2.99 12.18 12.18 0 0 0 17.01.741a12.252 12.252 0 0 0-7.304.116 12.307 12.307 0 0 0-3.599 1.889l.01-.013C2.728 5.212.528 9.198.528 13.693c0 1.534.257 3.008.729 4.383.236.745.545 1.467.927 2.162a12.098 12.098 0 0 0 2.982 3.58 12.191 12.191 0 0 0 4.288 2.25 12.244 12.244 0 0 0 7.305-.116 12.291 12.291 0 0 0 4.739-2.872l.004-.002c2.712-2.487 4.41-6.043 4.41-9.993 0-1.316-.19-2.587-.54-3.79"/>
        <path fill="#FFFFFE" d="M15.151 8.07c.909-2.121.438-4.69-1.795-4.98-1.49-.192-2.778.95-3.23 2.142-.538 1.423-.355 2.754-.183 3.683.184.997.675 1.476 1.245 1.72.833.358 1.697.075 2.313-.411a5.596 5.596 0 0 0 1.65-2.154M14.666 22.982a.388.388 0 0 1-.17-.04.393.393 0 0 1-.198-.447c.005-.022.033-.118.067-.203.292-.727 1.687-4.06 1.738-4.182.06-.14.1-.35-.048-.55a.516.516 0 0 0-.397-.207l-.01-.001h-.012a.526.526 0 0 0-.31.105c-.113.087-.156.168-.206.26l-.023.043-.03.057-1.984 3.933a1.9 1.9 0 0 1-.162.273.458.458 0 0 1-.17.143.385.385 0 0 1-.34-.001.395.395 0 0 1-.205-.418.7.7 0 0 1 .031-.112c.026-.077.072-.192.074-.197.14-.355 1.616-4.153 1.707-4.411a.511.511 0 0 0-.487-.693.52.52 0 0 0-.399.19c-.092.139-.887 1.74-1.415 2.803-.481.97-.756 1.523-.796 1.587l-.01.02c-.017.033-.039.078-.07.121-.078.108-.166.169-.27.185a.378.378 0 0 1-.2-.017.383.383 0 0 1-.25-.344c-.003-.086.031-.233.12-.507l.01-.031.002-.007c.466-1.42 1.427-4.05 1.817-4.78.035-.069.3-.745.99-1.072.39-.184.744-.272 1.312-.204.774.094 1.598.542 1.84.665.66.335 1.265.801 1.473 1.171.33.591.354 1.433-.157 2.461-.627 1.265-2.315 3.946-2.33 3.968-.066.103-.194.285-.302.363a.39.39 0 0 1-.23.076"/>
        <path fill="#343534" d="M18.756 16.04c-.134-1.074-.77-2.45-2.624-3.42-.055-.029-1.253-.74-3.093-.994-.715-.1-1.953-.143-3.093.03-1.347.204-2.219.562-2.509.72a.645.645 0 0 0-.242.9c.127.21.43.418.833.259 0 0 .356-.166.831-.332a9.156 9.156 0 0 1 2.936-.493c2.105 0 3.677.553 4.687 1.36.61.488 1.023 1.145 1.182 1.718.217.78.278 1.582-.283 2.716-.596 1.206-2.28 3.889-2.32 3.951-.046.072-.173.256-.261.32a.22.22 0 0 1-.233.022.229.229 0 0 1-.11-.267c.003-.01.028-.098.06-.178.295-.734 1.701-4.102 1.737-4.179.11-.235.122-.498-.038-.73a.661.661 0 0 0-.198-.187.658.658 0 0 0-.344-.102s-.243-.02-.456.158c-.158.132-.204.26-.266.373l-.03.057-1.987 3.94c-.03.07-.116.206-.144.242a.307.307 0 0 1-.112.096.222.222 0 0 1-.197-.001.231.231 0 0 1-.114-.248.619.619 0 0 1 .024-.084c.025-.073.071-.19.071-.19.141-.356 1.612-4.15 1.71-4.417a.679.679 0 0 0-.564-.932.682.682 0 0 0-.643.31c-.094.137-2.089 4.218-2.184 4.37-.015.025-.04.084-.075.133-.053.075-.105.11-.161.119a.221.221 0 0 1-.261-.208c-.005-.11.116-.46.124-.488.456-1.391 1.415-4.022 1.805-4.755.25-.469.68-.742 1.22-.738.69.004 1.241.358 1.614.562.048.026.11.058.172.084a.493.493 0 0 0 .623-.217c.055-.1.076-.239.03-.375-.066-.196-.25-.294-.283-.314-.569-.337-1.5-.573-1.919-.597-.112-.007-.276-.024-.483.004a1.8 1.8 0 0 0-1.301.809c-.515.765-1.982 5.101-2.28 6.09-.111.364-.027.597.093.767.122.172.3.277.419.312a.816.816 0 0 0 .798-.163c.097-.083.225-.248.316-.445 0 0 1.986-4.277 2.12-4.458a.124.124 0 0 1 .182-.019.121.121 0 0 1 .032.136c-.523 1.47-1.728 4.292-1.811 4.532-.062.18-.129.337-.147.485a.806.806 0 0 0 .316.752.834.834 0 0 0 .514.166c.327-.013.56-.183.715-.433.055-.09.097-.18.134-.249 0 0 2.04-4.198 2.168-4.37a.128.128 0 0 1 .075-.045.127.127 0 0 1 .134.069.12.12 0 0 1 .005.09c-.289.845-1.79 4.24-1.846 4.394-.031.087-.083.207-.107.294a.81.81 0 0 0 .271.842.837.837 0 0 0 .627.177c.232-.037.46-.176.64-.39.193-.23.383-.509.442-.598 0 0 1.489-2.17 2.248-3.46.731-1.245.934-2.302.81-3.283"/>
        <path fill="#343534" d="M15.276 4.095c-.438-.714-1.344-1.282-2.475-1.187-1.08.09-2 .767-2.507 1.432-.647.85-1.088 1.937-1.128 3.489-.017.644.068 1.37.22 2.18.152.816.395 1.567.553 2.798.018.138.106 1.275-.212 2.372a13.86 13.86 0 0 1-.575 1.601c-.338.773-.73 1.711-1.228 2.384-.153.207-.316.268-.513.224a.423.423 0 0 1-.189-.11c-.118-.127-.187-.302-.099-.638.223-.844 1.02-2.363 1.377-2.98.133-.218.273-.444.422-.676.012-.02.018-.03.032-.05a.37.37 0 0 0-.105-.523.377.377 0 0 0-.52.114l-.07.107c-.863 1.354-1.656 2.84-1.993 3.726-.307.805-.227 1.256-.034 1.6.197.355.468.561.821.683.171.06.425.086.575.068.667-.082 1.022-.444 1.39-1.113.712-1.298 1.29-2.725 1.621-4.015.332-1.289.332-2.16.295-2.769-.033-.537-.152-1.087-.306-1.662-.09-.336-.213-.875-.379-1.642-.522-2.423.021-3.915.64-4.717.28-.363.65-.64.916-.775 1.386-.702 2.755.069 2.88 1.455.2 2.178-1.46 3.488-1.935 3.852a2.799 2.799 0 0 0-.108.089.573.573 0 0 0-.212.454.58.58 0 0 0 .926.456c.21-.13.436-.32.668-.55.448-.44.81-.928 1.117-1.492.834-1.539.782-3.13.135-4.185M19.938 6.465a.743.743 0 1 0-1.4-.34c-.042.07-.057.127-.057.127l-.005.01-2.08 5.431a.377.377 0 0 0 .37.519.397.397 0 0 0 .326-.208s2.744-5.159 2.776-5.23c.044-.094.07-.199.07-.31"/>
        <path fill="#FFFFFE" d="M25.522 12.009c-.18-1.573-.66-3.08-1.426-4.477a12.232 12.232 0 0 0-3.015-3.62 12.32 12.32 0 0 0-4.338-2.275 12.396 12.396 0 0 0-7.387.117 12.442 12.442 0 0 0-3.45 1.768 12.249 12.249 0 0 0-2.658 2.647C5.422 2.597 9.352.408 13.545.407c1.13 0 2.279.16 3.418.493 5.364 1.572 8.791 6.521 8.618 11.815-.013-.235-.032-.47-.059-.706zm-.794 4.739l-.005.017-.005.017a11.793 11.793 0 0 1-1.92 3.762A12.049 12.049 0 0 1 9.84 24.767a11.9 11.9 0 0 1-8.554-10.526 11.717 11.717 0 0 1 .237-3.352l.151-.615c.021-.075.042-.151.065-.227l.005-.018.004-.015A11.808 11.808 0 0 1 3.536 6.41a12.047 12.047 0 0 1 13.1-4.416c5.002 1.466 8.312 5.882 8.57 10.765.07 1.312-.08 2.657-.478 3.989zM12.918 26.4c-1.13 0-2.278-.159-3.417-.492a11.967 11.967 0 0 1-8.268-8.563l-.218-1.078a11.737 11.737 0 0 1-.125-2.35 12.117 12.117 0 0 0 1.491 5.31 12.228 12.228 0 0 0 3.016 3.622 12.32 12.32 0 0 0 4.338 2.275 12.388 12.388 0 0 0 7.387-.117 12.456 12.456 0 0 0 3.449-1.768 12.255 12.255 0 0 0 2.736-2.753c-2.154 3.663-6.137 5.914-10.389 5.914zM25.562 9.23a12.219 12.219 0 0 0-1.107-2.767 12.28 12.28 0 0 0-3.03-3.636A12.368 12.368 0 0 0 17.07.542a12.45 12.45 0 0 0-7.42.117 12.504 12.504 0 0 0-3.655 1.919l.011-.012C2.562 5.083.328 9.132.328 13.698c0 1.558.26 3.055.74 4.451.24.757.553 1.49.941 2.197a12.361 12.361 0 0 0 7.385 5.92 12.442 12.442 0 0 0 7.419-.117 12.496 12.496 0 0 0 4.814-2.916l.004-.003c2.755-2.526 4.48-6.138 4.48-10.15a13.71 13.71 0 0 0-.55-3.85z"/>
    </g>
</svg>
