<?xml version="1.0" encoding="UTF-8"?>
<!DOCTYPE svg PUBLIC "-//W3C//DTD SVG 1.1//EN" "http://www.w3.org/Graphics/SVG/1.1/DTD/svg11.dtd">
<!-- Creator: CorelDRAW X7 -->
<svg xmlns="http://www.w3.org/2000/svg" xml:space="preserve" width="34.7692mm" height="45.1487mm" version="1.1" style="shape-rendering:geometricPrecision; text-rendering:geometricPrecision; image-rendering:optimizeQuality; fill-rule:evenodd; clip-rule:evenodd"
viewBox="0 0 1313 1706"
 xmlns:xlink="http://www.w3.org/1999/xlink">
 <defs>
  <style type="text/css">
   <![CDATA[
    .str2 {stroke:#2B2A29;stroke-width:7.55542}
    .str0 {stroke:#FEFEFE;stroke-width:2.87861}
    .str1 {stroke:#F99746;stroke-width:2.87861}
    .fil55 {fill:none}
    .fil59 {fill:#FEFEFE}
    .fil60 {fill:#D9DADA}
    .fil7 {fill:#EBECEC;fill-rule:nonzero}
    .fil56 {fill:#2B2A29;fill-rule:nonzero}
    .fil10 {fill:#2B2A29;fill-rule:nonzero}
    .fil9 {fill:black;fill-rule:nonzero}
    .fil23 {fill:#016228;fill-rule:nonzero}
    .fil24 {fill:#01AF5D;fill-rule:nonzero}
    .fil22 {fill:#05893D;fill-rule:nonzero}
    .fil50 {fill:#0AA049;fill-rule:nonzero}
    .fil49 {fill:#0AAE49;fill-rule:nonzero}
    .fil39 {fill:#0ABA49;fill-rule:nonzero}
    .fil57 {fill:#33A848;fill-rule:nonzero}
    .fil11 {fill:#54AA4D;fill-rule:nonzero}
    .fil25 {fill:#69C660;fill-rule:nonzero}
    .fil17 {fill:#8C421D;fill-rule:nonzero}
    .fil45 {fill:#AA1613;fill-rule:nonzero}
    .fil38 {fill:#C14436;fill-rule:nonzero}
    .fil26 {fill:#C6DD7C;fill-rule:nonzero}
    .fil19 {fill:#C8822A;fill-rule:nonzero}
    .fil18 {fill:#D49538;fill-rule:nonzero}
    .fil51 {fill:#D86757;fill-rule:nonzero}
    .fil46 {fill:#E2952B;fill-rule:nonzero}
    .fil48 {fill:#E2AA2B;fill-rule:nonzero}
    .fil54 {fill:#E2B12B;fill-rule:nonzero}
    .fil47 {fill:#E2C82B;fill-rule:nonzero}
    .fil37 {fill:#E44436;fill-rule:nonzero}
    .fil52 {fill:#E48364;fill-rule:nonzero}
    .fil13 {fill:#E8DDC4;fill-rule:nonzero}
    .fil31 {fill:#EBE6CF;fill-rule:nonzero}
    .fil5 {fill:#ED7C2A;fill-rule:nonzero}
    .fil3 {fill:#EFA16E;fill-rule:nonzero}
    .fil32 {fill:#EFEBD8;fill-rule:nonzero}
    .fil36 {fill:#F26036;fill-rule:nonzero}
    .fil35 {fill:#F27E36;fill-rule:nonzero}
    .fil8 {fill:#F2F6FF;fill-rule:nonzero}
    .fil41 {fill:#F4BA1F;fill-rule:nonzero}
    .fil42 {fill:#F4C33D;fill-rule:nonzero}
    .fil44 {fill:#F4D13D;fill-rule:nonzero}
    .fil43 {fill:#F6DF70;fill-rule:nonzero}
    .fil29 {fill:#F7F4E2;fill-rule:nonzero}
    .fil2 {fill:#F99746;fill-rule:nonzero}
    .fil1 {fill:#FFB17C;fill-rule:nonzero}
    .fil4 {fill:#FFC197;fill-rule:nonzero}
    .fil58 {fill:#FFD3B6;fill-rule:nonzero}
    .fil14 {fill:#FFFFF4;fill-rule:nonzero}
    .fil6 {fill:white;fill-rule:nonzero}
    .fil27 {fill:black;fill-rule:nonzero;fill-opacity:0.149020}
    .fil20 {fill:white;fill-rule:nonzero;fill-opacity:0.168627}
    .fil30 {fill:#BFBA90;fill-rule:nonzero;fill-opacity:0.180392}
    .fil12 {fill:#9EA7C3;fill-rule:nonzero;fill-opacity:0.239216}
    .fil21 {fill:#CFB893;fill-rule:nonzero;fill-opacity:0.239216}
    .fil53 {fill:#F6DFE2;fill-rule:nonzero;fill-opacity:0.368627}
    .fil0 {fill:#54AA4D;fill-rule:nonzero;fill-opacity:0.400000}
    .fil28 {fill:#F4F6DF;fill-rule:nonzero;fill-opacity:0.501961}
    .fil34 {fill:#EBECEC;fill-rule:nonzero;fill-opacity:0.509804}
    .fil16 {fill:#DFCFAC;fill-rule:nonzero;fill-opacity:0.529412}
    .fil15 {fill:#E8DDC4;fill-rule:nonzero;fill-opacity:0.529412}
    .fil40 {fill:#C14436;fill-rule:nonzero;fill-opacity:0.560784}
    .fil33 {fill:white;fill-rule:nonzero;fill-opacity:0.560784}
   ]]>
  </style>
    <clipPath id="id0">
     <path d="M839 41l36 0c6,0 11,5 11,11l0 0c0,6 -5,11 -11,11l-36 0c-7,0 -12,-5 -12,-11l0 0c0,-6 5,-11 12,-11z"/>
    </clipPath>
 </defs>
 <g id="Layer_x0020_1">
  <metadata id="CorelCorpID_0Corel-Layer"/>
  <g id="_547284720">
   <path class="fil0" d="M371 346c-9,21 -52,23 -96,4 -44,-19 -73,-52 -64,-73 10,-21 53,-23 97,-4 44,19 72,51 63,73z"/>
   <path class="fil1" d="M825 635c0,0 -73,145 -146,245 -30,40 -59,72 -84,86 -25,13 -46,34 -63,57 -45,60 -65,134 -65,134l-188 -285c0,0 6,-278 29,-324 33,-68 48,-205 61,-232 10,-21 36,-125 39,-133 1,-3 10,-8 21,-8 10,0 26,9 30,27 20,93 -5,155 -4,158 7,71 -15,125 0,139 1,0 2,0 3,-1 26,-17 187,-251 207,-256 21,-6 160,393 160,393z"/>
   <path class="fil2" d="M523 1101c0,0 -2,126 -10,296l-474 0c108,-231 203,-425 203,-425 0,0 270,8 281,129z"/>
   <path class="fil3" d="M679 880c-30,40 -59,72 -84,86 -25,13 -46,34 -63,57 -20,-9 -42,-20 -64,-31 -27,-13 -28,-51 -2,-65 0,0 0,0 1,-1 24,-14 50,-64 50,-64l162 18z"/>
   <path class="fil4" d="M407 187l-16 62c0,0 14,5 22,1 9,-4 16,-59 -6,-63z"/>
   <path class="fil5" d="M196 1067c0,0 92,89 155,124l47 -34 0 50c0,0 93,16 123,0l0 -136 -262 -131 -63 127z"/>
   <path class="fil6" d="M540 1196c-36,7 -113,-21 -113,-21l12 -121 -88 100c-44,-16 -114,-60 -155,-87 -21,-13 -35,-22 -35,-22 59,-95 118,-183 118,-183 17,35 58,65 102,89 74,40 157,63 157,63 0,72 2,182 2,182z"/>
   <path class="fil3" d="M459 688c0,0 -13,-112 -25,-134 -12,-22 -22,-66 -4,-99 18,-33 25,-95 25,-95 7,71 -15,125 0,139 1,0 2,0 3,-1l1 190z"/>
   <g>
    <polygon class="fil2" points="166,215 0,206 121,154 122,179 160,193 "/>
    <polygon class="fil7" points="0,206 148,163 281,182 "/>
    <polygon class="fil6" points="121,154 0,206 105,108 "/>
   </g>
   <path class="fil8" d="M540 1196c-36,7 -113,-21 -113,-21l12 -121 -88 100c-44,-16 -114,-60 -155,-87 106,-11 185,-116 185,-116 74,40 157,63 157,63 0,72 2,182 2,182z"/>
   <path class="fil2" d="M293 1086c0,-8 7,-15 15,-15 8,1 14,7 14,15 0,8 -6,15 -14,15 -8,0 -15,-7 -15,-15z"/>
   <path class="fil1" d="M989 145l-58 85 -57 84c-4,4 -8,6 -12,5 -14,-1 -31,-21 -44,-32l-2 -1c-17,-14 -19,-41 -5,-58l87 -106 0 0 26 -31c15,-17 41,-20 58,-5l2 1c17,14 19,40 5,58z"/>
   <path class="fil3" d="M931 230l-57 84c-4,4 -8,6 -12,5l36 -197c0,1 7,90 33,108z"/>
   <g>
    <g>
     <path class="fil9" d="M871 1082l-424 0c-41,0 -75,-34 -75,-76l0 -930c0,-42 34,-76 75,-76l424 0c42,0 76,34 76,76l0 930c0,42 -34,76 -76,76z"/>
     <g>
      <path class="fil6" d="M918 83l0 909c0,31 -25,56 -56,56l-406 0c-31,0 -56,-25 -56,-56l0 -909c0,-31 25,-56 56,-56l406 0c31,0 56,25 56,56z"/>
     </g>
     <path class="fil9" d="M744 61l-170 0c-14,0 -25,-12 -25,-26l0 -3c0,-14 11,-26 25,-26l170 0c14,0 25,12 25,26l0 3c0,14 -11,26 -25,26z"/>
    </g>
    <g>
     <path class="fil10 str0" d="M479 84l-6 4 -6 -4c1,-2 3,-3 6,-3 2,0 4,1 6,3z"/>
     <g>
      <path class="fil10 str0" d="M473 71c-6,0 -11,2 -14,7l3 2c3,-3 7,-5 11,-5 4,0 8,2 10,5l4 -2c-3,-5 -8,-7 -14,-7z"/>
     </g>
     <g>
      <path class="fil10 str0" d="M473 51c-12,0 -23,6 -30,16l4 2c6,-8 15,-13 26,-13 11,0 20,5 26,13l4 -2c-7,-10 -18,-16 -30,-16z"/>
     </g>
     <g>
      <path class="fil10 str0" d="M473 62c-9,0 -17,4 -21,11l3 2c4,-5 11,-9 18,-9 7,0 13,4 17,9l4 -2c-5,-7 -12,-11 -21,-11z"/>
     </g>
    </g>
    <g>
     <path class="fil11" d="M665 841l-112 0c-9,0 -16,-7 -16,-16l0 -1c0,-9 7,-16 16,-16l112 0c9,0 16,7 16,16l0 1c0,9 -7,16 -16,16z"/>
     <path class="fil11" d="M765 841l-51 0c-9,0 -16,-8 -16,-17 0,-9 7,-16 16,-16l51 0c9,0 16,7 16,16 0,9 -7,17 -16,17z"/>
    </g>
    <g>
     <path class="fil12" d="M867 383c0,-52 -97,-96 -218,-97 0,0 0,0 0,0 0,0 0,0 0,0 -2,0 -3,0 -5,0 0,0 -1,0 -1,0 -1,0 -1,0 -2,0 -117,0 -212,41 -212,91 0,4 0,7 1,10 6,51 100,92 216,94 114,1 207,-36 219,-86 1,-4 2,-8 2,-12z"/>
     <g>
      <g>
       <g>
        <path class="fil13" d="M860 379c0,54 -97,96 -216,95 -118,-2 -214,-46 -213,-100 0,-54 97,-96 216,-95 118,1 214,46 213,100z"/>
        <path class="fil6" d="M861 376c0,52 -97,93 -216,91 -119,-1 -215,-44 -215,-96 1,-52 98,-93 217,-92 119,1 215,45 214,97z"/>
        <path class="fil14" d="M853 374c0,49 -94,88 -208,87 -115,-1 -207,-42 -207,-92 1,-49 94,-88 209,-87 114,2 207,43 206,92z"/>
       </g>
       <path class="fil15" d="M782 367c-1,28 -62,50 -137,49 -75,-1 -136,-24 -135,-52 0,-28 61,-50 136,-49 75,1 136,24 136,52z"/>
       <path class="fil16" d="M778 367c-1,26 -60,46 -132,45 -73,-1 -131,-22 -131,-48 1,-26 60,-46 132,-45 73,1 131,22 131,48z"/>
      </g>
      <g>
       <path class="fil15" d="M432 363c0,0 0,15 20,22 20,8 26,5 31,-3 5,-7 27,-18 27,-18l1 -8 -79 7z"/>
       <g>
        <g>
         <path class="fil17" d="M523 357c0,0 -13,1 -28,11 -16,11 -15,15 -19,17 -4,1 -25,2 -39,-13 -13,-16 -8,-45 -2,-53 5,-8 72,10 72,10l16 28z"/>
         <path class="fil18" d="M525 331c-1,-1 -23,5 -35,12 -13,7 -15,12 -22,17 -7,4 -22,-2 -30,-13 -8,-11 -10,-28 9,-45 20,-17 50,-19 63,-17 13,3 15,46 15,46z"/>
        </g>
        <g>
         <path class="fil19" d="M465 337c0,2 3,3 7,3 4,0 6,-1 7,-3 0,-2 -3,-4 -7,-4 -4,0 -7,2 -7,4z"/>
         <path class="fil19" d="M455 310c0,1 2,2 5,2 2,0 4,-1 4,-2 0,-2 -2,-3 -4,-3 -3,0 -5,1 -5,3z"/>
         <path class="fil19" d="M453 327c0,1 2,2 4,2 2,0 4,-1 4,-2 0,-1 -2,-2 -4,-2 -2,0 -4,1 -4,2z"/>
         <path class="fil19" d="M480 304c0,1 2,2 4,2 2,0 4,-1 4,-2 0,-2 -2,-3 -4,-3 -2,0 -4,1 -4,3z"/>
         <path class="fil19" d="M476 322c0,2 2,3 6,3 3,0 6,-1 6,-3 0,-2 -3,-3 -6,-3 -3,0 -6,1 -6,3z"/>
         <path class="fil19" d="M444 341c0,2 3,3 6,3 3,0 6,-1 6,-3 0,-2 -3,-4 -6,-4 -3,0 -6,2 -6,4z"/>
        </g>
        <path class="fil20" d="M434 320c1,-1 1,-2 1,-4 3,-4 6,-8 10,-12 3,11 11,38 35,47 0,0 3,19 4,26 -5,4 -5,6 -8,8 -4,1 -23,2 -36,-11l1 -23c0,0 -13,-12 -7,-31z"/>
       </g>
      </g>
      <g>
       <path class="fil21" d="M647 443c0,0 -9,5 -5,10 4,5 20,-1 34,-7 15,-6 45,-15 63,-17 18,-2 76,3 76,3l14 -5 -98 -8 -84 24z"/>
       <g>
        <g>
         <path class="fil22" d="M847 402c0,0 1,-11 -16,-19 -16,-8 -44,28 -44,28l60 -9z"/>
         <path class="fil23" d="M852 416c0,0 7,-8 9,-20 0,0 -37,12 -85,1l-20 15 80 11 16 -7z"/>
         <path class="fil24" d="M780 415c0,0 36,-10 56,-31 0,0 2,-7 -11,-13 -13,-6 -58,38 -58,38l13 6z"/>
         <path class="fil25" d="M772 412c0,0 28,-6 63,-43 0,0 2,-7 -7,-13 -8,-7 -75,52 -75,52l19 4z"/>
         <path class="fil11" d="M852 429c-1,1 -85,-3 -100,-5 -14,-3 -33,0 -33,0l7 -19c0,0 17,-4 28,-11 11,-7 53,-34 73,-59 0,0 9,10 8,19 0,0 -21,33 -71,55 0,0 60,12 105,1 0,0 -6,12 -17,19z"/>
         <path class="fil26" d="M647 450l-4 -36c9,1 56,2 111,-20 0,0 -12,9 -27,13 0,0 13,0 26,-7 0,0 -10,10 -27,11 0,0 22,1 30,-4 0,0 -12,9 -30,10 0,0 22,-3 35,-1 0,0 -14,0 -35,6 0,0 18,-3 35,3 0,0 -19,-2 -43,2 -24,4 -53,19 -71,23z"/>
        </g>
        <path class="fil27" d="M862 420c-21,6 -75,3 -95,-1 -21,-5 -52,-1 -73,7 -18,7 -42,10 -48,11l1 13c18,-4 47,-19 71,-23 24,-4 43,-2 43,-2 0,0 0,0 0,0 25,2 90,5 91,4 4,-3 7,-6 10,-9z"/>
        <g>
         <path class="fil28" d="M649 418c0,0 -7,6 3,8 10,2 47,-11 60,-12 14,-2 23,-4 19,-7 -4,-3 -24,6 -46,8 -22,2 -36,3 -36,3z"/>
        </g>
       </g>
      </g>
      <g>
       <g>
        <path class="fil6" d="M452 256c0,4 -2,7 -6,7 -3,0 -6,-4 -5,-8 0,-4 2,-7 5,-7 4,0 6,4 6,8z"/>
        <path class="fil29" d="M801 282c0,0 -93,9 -154,15 -61,-5 -154,-12 -154,-12 0,0 1,33 13,55 4,8 8,16 14,23 4,5 18,24 50,33 37,11 117,15 159,1 26,-8 42,-29 52,-44 3,-5 6,-10 8,-16 11,-23 12,-55 12,-55z"/>
        <path class="fil30" d="M666 406c23,-1 46,-4 63,-9 26,-8 42,-29 52,-44 3,-5 6,-10 8,-16 10,-20 11,-47 11,-54 -8,1 -95,9 -152,15 -61,-5 -154,-12 -154,-11 0,0 -1,-1 0,2 0,1 0,2 0,3 0,2 0,4 1,6 11,11 32,31 139,38 29,3 55,0 67,0 7,1 18,2 19,10 2,14 -6,51 -54,60z"/>
        <path class="fil13" d="M810 278c-16,30 -68,50 -161,52 -88,3 -147,-18 -164,-48l325 -4z"/>
        <path class="fil14" d="M643 199l1 126c0,0 128,1 160,-47 0,0 18,5 36,-1 24,-8 26,-40 2,-49 -24,-10 -43,3 -43,3 0,0 -45,-35 -156,-32zm163 45l0 0c0,0 14,-5 21,-2 8,3 8,14 2,18 -6,5 -22,-1 -22,-1 0,0 2,-6 -1,-15z"/>
        <path class="fil31" d="M834 251c0,0 -5,-7 -16,-7 -11,0 -11,2 -11,2l-2 -5c0,0 11,-5 21,-3 10,2 8,13 8,13z"/>
        <path class="fil32" d="M859 253c0,0 -4,19 -27,23 -23,3 -27,-2 -27,-2 0,0 0,3 -3,6 0,0 12,3 30,1 17,-3 28,-15 27,-28z"/>
        <path class="fil14" d="M494 234c0,0 -19,-12 -42,-2 -24,10 -22,41 3,49 18,6 36,0 36,0 32,48 154,44 154,44l-1 -126c-111,-1 -150,35 -150,35zm-6 29l0 0c0,0 -17,5 -23,1 -6,-4 -6,-15 1,-18 8,-3 22,1 22,1 -3,10 0,16 0,16z"/>
        <path class="fil31" d="M792 256c0,25 -65,46 -145,47 -81,1 -146,-19 -146,-44 0,-26 65,-47 145,-48 80,-1 146,19 146,45z"/>
        <path class="fil31 str1" d="M460 254c0,0 4,-6 16,-6 11,0 11,2 11,2l2 -5c0,0 -9,-5 -19,-3 -10,3 -10,12 -10,12z"/>
        <path class="fil32" d="M435 257c0,0 4,20 28,23 19,2 27,-2 27,-2 0,0 0,2 2,5 0,0 -11,4 -29,2 -18,-3 -28,-15 -28,-28z"/>
        <path class="fil33" d="M521 349c0,0 -8,-16 7,-15 11,0 16,8 26,19 7,8 19,22 20,30 1,9 -18,2 -29,-7 -18,-16 -24,-27 -24,-27z"/>
        <path class="fil6" d="M509 292c0,0 -4,-9 3,-10 8,-1 5,7 40,16 35,8 52,9 55,9 4,0 12,1 11,6 -1,5 -21,6 -46,1 -25,-5 -49,-10 -63,-22z"/>
       </g>
       <g>
        <g>
         <path class="fil34" d="M642 220c0,0 -14,-23 2,-47 17,-25 -9,-61 -16,-72 0,0 19,11 29,35 10,25 -1,37 -6,47 -5,10 -12,24 -9,37z"/>
         <path class="fil34" d="M669 219c0,0 -9,-20 7,-38 16,-18 0,-50 -4,-59 0,0 13,11 18,32 5,21 -5,29 -10,36 -5,8 -12,18 -11,29z"/>
         <path class="fil34" d="M618 222c0,0 -12,-18 0,-39 12,-20 -10,-48 -16,-57 0,0 16,8 25,28 9,19 0,29 -3,38 -4,8 -9,20 -6,30z"/>
        </g>
        <g>
         <path class="fil35" d="M509 274c20,17 74,30 138,29 64,-1 118,-14 137,-32 -20,-18 -74,-30 -138,-30 -64,1 -118,14 -137,33z"/>
         <path class="fil36" d="M759 270c0,13 -52,25 -116,26 -64,0 -116,-10 -116,-24 0,-13 52,-25 116,-25 64,-1 116,9 116,23z"/>
         <path class="fil37" d="M703 269c0,11 -37,20 -83,21 -46,0 -83,-8 -83,-19 0,-11 37,-20 83,-21 46,0 83,8 83,19z"/>
         <g>
          <path class="fil38" d="M714 266c0,0 -2,1 -5,1 -2,0 -4,-1 -4,-1 0,-1 2,-1 4,-1 3,0 5,0 5,1z"/>
          <path class="fil39" d="M715 262c0,0 -3,4 -8,4 -5,0 1,-5 8,-4z"/>
         </g>
         <g>
          <path class="fil38" d="M570 263c0,1 -2,2 -5,2 -2,1 -4,1 -4,0 0,0 2,-1 4,-2 2,0 4,0 5,0z"/>
          <path class="fil39" d="M570 259c0,0 -2,5 -7,6 -5,2 0,-5 7,-6z"/>
         </g>
         <g>
          <path class="fil38" d="M673 284c0,0 -2,1 -4,1 -3,0 -5,-1 -5,-1 0,-1 2,-1 5,-1 2,0 4,0 4,1z"/>
          <path class="fil39" d="M661 280c0,0 5,-1 10,1 4,3 -4,4 -10,-1z"/>
         </g>
         <g>
          <path class="fil38" d="M606 280c0,1 -2,1 -4,1 -3,1 -5,0 -5,0 0,-1 2,-2 5,-2 2,0 4,1 4,1z"/>
          <path class="fil39" d="M595 277c0,0 4,-2 9,1 4,3 -4,4 -9,-1z"/>
         </g>
         <path class="fil40" d="M761 273c0,0 -7,8 -38,11 -31,4 -19,-4 -15,-5 4,-1 17,-5 17,-5l36 -1z"/>
         <g>
          <path class="fil41" d="M705 283c0,0 9,-19 29,-22 20,-2 27,12 27,12 0,0 -19,12 -56,10z"/>
          <path class="fil42" d="M718 283c20,-1 34,-6 40,-9 -3,-3 -11,-10 -23,-7 -12,3 -16,12 -17,16z"/>
          <path class="fil43" d="M727 282c11,-1 19,-3 25,-5 -3,-3 -8,-6 -14,-4 -7,1 -10,5 -11,9z"/>
         </g>
         <path class="fil40" d="M682 249c0,0 -5,0 -4,2 0,1 11,4 25,5 15,1 28,-1 30,-2 1,-2 -9,-1 -9,-1l-42 -4z"/>
         <g>
          <path class="fil41" d="M681 251c0,0 9,-14 26,-14 17,1 24,17 24,17 0,0 -21,5 -50,-3z"/>
          <path class="fil44" d="M693 254c15,2 28,1 34,0 -2,-4 -9,-11 -19,-10 -10,0 -14,8 -15,10z"/>
          <path class="fil43" d="M722 255c-3,-4 -9,-8 -14,-7 -5,1 -6,4 -7,7 9,1 16,0 21,0z"/>
         </g>
         <path class="fil40" d="M626 296c0,0 -4,0 -4,2 1,1 12,3 26,3 15,-1 28,-3 29,-5 1,-2 -8,0 -8,0l-43 0z"/>
         <g>
          <path class="fil41" d="M625 297c0,0 9,-14 25,-15 17,-1 26,14 26,14 0,0 -21,7 -51,1z"/>
          <path class="fil44" d="M638 299c15,2 27,0 34,-2 -3,-4 -10,-10 -20,-9 -10,1 -13,9 -14,11z"/>
          <path class="fil43" d="M667 298c-3,-4 -9,-8 -15,-6 -4,2 -6,5 -6,8 9,0 16,-1 21,-2z"/>
         </g>
         <g>
          <path class="fil40" d="M583 291c0,0 4,1 4,3 -1,1 -12,1 -26,-2 -15,-3 -27,-8 -28,-10 -1,-2 8,2 8,2l42 7z"/>
          <g>
           <path class="fil41" d="M584 293c0,0 -6,-16 -22,-20 -16,-4 -28,10 -28,10 0,0 20,11 50,10z"/>
           <path class="fil44" d="M571 293c-15,-2 -27,-6 -33,-8 4,-4 12,-9 21,-6 10,3 12,11 12,14z"/>
           <path class="fil43" d="M543 286c3,-3 10,-5 15,-3 4,3 5,6 5,9 -9,-2 -16,-4 -20,-6z"/>
          </g>
         </g>
         <path class="fil40" d="M576 263c0,0 -6,1 -6,3 1,2 29,1 31,0 3,0 0,-6 0,-6l-25 3z"/>
         <path class="fil41" d="M573 265c0,0 8,-14 22,-16 15,-2 21,11 21,11 0,0 -17,7 -43,5z"/>
         <path class="fil44" d="M583 266c20,-1 33,-6 33,-6 0,0 -3,-7 -11,-10 -12,2 -20,13 -22,16z"/>
         <path class="fil38" d="M650 276c0,0 -3,0 -3,2 0,2 6,1 10,1 3,0 15,1 22,0 7,0 14,-4 15,-5 1,-2 0,-3 -2,-4 -2,0 -42,6 -42,6z"/>
         <path class="fil45" d="M586 282c0,0 1,-1 2,-1 1,0 2,1 2,2 0,1 -3,0 -5,1 0,0 -1,-2 1,-2z"/>
         <path class="fil45" d="M593 270c0,0 0,-1 1,-1 1,0 1,1 1,2 0,0 -2,-1 -3,0 0,0 0,-1 1,-1z"/>
         <path class="fil46" d="M610 293c0,0 0,-1 1,-1 1,0 1,1 1,1 0,1 -2,0 -3,1 0,0 0,-1 1,-1z"/>
         <path class="fil46" d="M555 268c0,0 1,-1 1,-1 1,0 2,1 2,1 0,1 -2,0 -4,1 0,0 0,-1 1,-1z"/>
         <path class="fil47" d="M767 267c0,0 1,-1 2,0 0,0 1,1 1,1 0,0 -2,0 -3,0 0,0 -1,-1 0,-1z"/>
         <path class="fil47" d="M605 274c0,0 0,-1 1,-1 1,0 1,1 1,2 0,0 -2,0 -3,0 0,0 0,-1 1,-1z"/>
         <path class="fil47" d="M534 271c0,0 -2,-1 -3,-1 -1,0 -2,1 -2,2 0,1 4,0 5,1 0,0 1,-2 0,-2z"/>
         <path class="fil47" d="M748 284c0,0 -2,-1 -3,-1 -1,0 -2,1 -2,2 0,1 4,0 5,1 0,0 1,-2 0,-2z"/>
         <path class="fil46" d="M697 265c0,0 1,-1 1,0 1,0 2,0 2,1 0,0 -2,0 -4,0 0,0 0,-1 1,-1z"/>
         <path class="fil48" d="M699 288c0,0 1,-1 2,-1 0,1 1,1 1,2 0,0 -2,0 -3,0 0,0 -1,-1 0,-1z"/>
         <path class="fil45" d="M573 272c0,0 0,-1 1,-1 1,1 1,1 1,2 0,0 -2,0 -3,0 0,0 0,-1 1,-1z"/>
         <path class="fil45" d="M722 260c0,0 1,-1 1,0 1,0 2,0 2,1 0,0 -2,0 -3,0 0,0 -1,-1 0,-1z"/>
         <path class="fil45" d="M691 283c0,0 1,-2 2,-2 1,1 2,2 2,3 0,0 -3,0 -5,0 0,0 -1,-1 1,-1z"/>
         <path class="fil39" d="M683 290c0,0 7,-2 9,0 2,2 0,2 -2,1 -3,-1 -5,-1 -7,-1z"/>
         <path class="fil38" d="M614 283c0,0 -8,1 -4,2 3,1 10,1 15,1 5,0 14,-2 16,-4 1,-2 -2,-5 -4,-5 -3,0 -23,6 -23,6z"/>
         <path class="fil38" d="M642 269c0,0 9,-2 13,-2 3,0 10,0 7,-2 -3,-3 -13,-5 -16,-4 -3,1 -4,8 -4,8z"/>
         <g>
          <g>
           <path class="fil49" d="M646 258c0,0 -6,0 -7,-6 -1,-7 6,-11 6,-11 0,0 1,2 1,5 0,0 2,-6 5,-7 2,-1 3,4 3,4 0,0 2,-1 4,0 2,0 -1,4 -1,4 0,0 -5,2 -3,3 2,2 3,-4 8,-5 5,-2 8,0 8,0l-2 2c0,0 6,-1 10,0 0,0 -2,6 -4,7 -2,1 -5,0 -5,1 1,1 3,-1 6,0 3,0 4,1 4,1 0,0 -1,4 -7,7 -5,2 -10,3 -14,2 -5,0 -12,-1 -12,-7z"/>
           <path class="fil50" d="M636 257c0,0 4,-1 1,-6 -4,-5 -3,-7 -3,-11 0,-3 -1,-4 -1,-4 0,0 -1,2 -3,3 -2,2 -3,4 -3,4 0,0 -2,-6 -4,-7 0,0 -1,2 -2,3 -2,1 -4,3 -4,5 0,1 0,3 2,5 1,2 0,5 -3,2 -2,-4 -5,-10 -10,-10 -4,-1 -8,2 -11,4 -2,3 -9,4 -9,4 0,0 2,2 4,4 2,2 7,4 8,5 2,1 3,3 3,3 0,0 -3,0 -6,1 0,0 1,2 3,3 1,2 6,1 6,1 0,0 -2,2 -2,4 0,0 5,2 7,0 2,-1 5,-2 5,-2 0,0 -1,2 -1,3 0,0 6,-1 9,-1 2,0 7,-1 11,-3 3,-2 3,-10 3,-10z"/>
           <path class="fil39" d="M644 269c0,0 5,-1 3,-7 -2,-7 -9,-8 -9,-8 0,0 -1,2 0,5 0,0 -4,-5 -6,-5 -3,0 -1,5 -1,5 0,0 -3,1 -5,2 -2,1 0,2 2,3 3,1 7,0 5,2 -1,2 -4,-3 -9,-2 -6,0 -8,3 -8,3l3 2c0,0 -6,1 -9,4 0,0 4,4 6,4 3,0 5,-1 5,0 0,1 -3,0 -5,2 -3,1 -3,3 -3,3 0,0 2,2 8,3 6,0 11,-2 15,-4 4,-2 10,-6 8,-12z"/>
          </g>
          <g>
           <path class="fil39" d="M602 263c10,0 14,-4 14,-5 4,2 7,4 8,4 2,-1 -2,-2 -5,-3 -2,-2 -5,-4 -9,-6 0,-1 0,-5 -3,-8 0,0 3,3 2,8 -4,-3 -9,-5 -13,-3 0,0 5,-1 11,2 2,1 5,4 9,6 -3,4 -14,5 -14,5z"/>
           <path class="fil39" d="M625 260c0,0 0,1 1,0 0,0 1,-2 0,-5 7,-5 5,-12 5,-12 1,7 -3,10 -5,11 0,-3 -1,-7 -3,-10 0,0 4,5 2,16z"/>
           <path class="fil39" d="M638 269c-1,0 -2,1 -4,3 -6,-5 -13,-5 -13,-5 7,0 11,4 12,5 -2,0 -3,1 -5,1 -7,1 -14,0 -14,0 0,0 7,2 14,1 3,0 5,-2 7,-3 0,2 -2,11 -17,10 0,0 8,2 13,-3 3,-2 4,-5 5,-7 1,-1 2,-2 2,-2 0,0 0,0 0,0z"/>
           <path class="fil39" d="M640 257c1,1 3,4 1,8 0,0 -1,-1 -3,-2 -2,-1 -6,-6 -6,-6 0,0 2,3 4,5 -1,0 -4,1 -7,0 0,0 3,2 8,0l0 0c0,1 0,1 1,1 3,2 4,5 4,5 0,0 0,0 0,0 0,-1 0,-1 0,-2 0,-1 2,-5 -2,-9z"/>
           <path class="fil39" d="M640 257c0,0 0,0 0,0 0,0 0,0 0,0z"/>
           <path class="fil39" d="M670 257c0,0 -5,0 -8,-3 7,-3 13,-5 13,-5 0,0 -4,1 -9,2 -2,1 -5,3 -7,3 0,-1 2,-6 7,-8 0,0 -6,1 -8,9 -1,0 -2,0 -3,0 -1,1 -3,1 -5,1 0,-1 0,-3 -1,-6 0,0 0,0 0,0 2,-3 7,-6 7,-6 -4,2 -6,4 -6,5 0,-3 1,-6 1,-6 -2,4 -2,8 -2,10 -6,0 -6,-7 -6,-7 0,7 5,8 6,8 0,1 1,2 1,2 -2,0 -3,1 -3,1 0,0 -1,0 0,0 0,1 1,0 1,0 0,0 2,0 5,0 0,0 3,4 10,4l1 0c0,0 -6,0 -10,-5 2,0 5,-1 7,-2 0,0 2,3 9,3z"/>
          </g>
         </g>
         <g>
          <path class="fil51" d="M649 273c0,0 0,3 0,4 1,1 6,0 9,1 2,0 12,0 19,0 7,0 14,-5 15,-6 1,0 1,-7 -1,-8 -1,-2 -42,9 -42,9z"/>
          <path class="fil52" d="M655 266c0,0 12,-9 22,-9 10,-1 17,5 14,11 -4,5 -21,6 -26,6 -6,-1 -12,2 -16,0 -3,-2 6,-8 6,-8z"/>
          <path class="fil53" d="M665 263c0,0 4,-2 6,-2 1,0 3,2 -1,4 -4,1 -7,0 -5,-2z"/>
          <path class="fil53" d="M671 268c0,0 5,-2 8,-1 2,1 3,3 -2,3 -5,1 -9,-1 -6,-2z"/>
          <path class="fil53" d="M680 262c0,0 3,-1 4,-1 1,1 2,2 -1,3 -3,0 -6,0 -3,-2z"/>
          <path class="fil53" d="M660 268c0,0 3,0 5,0 2,0 2,1 -1,2 -3,0 -6,1 -6,1 -2,0 1,-2 2,-3z"/>
         </g>
         <path class="fil54" d="M523 278c0,0 1,-1 2,-1 0,0 1,1 1,1 0,1 -2,0 -3,1 0,0 0,-1 0,-1z"/>
        </g>
       </g>
      </g>
     </g>
    </g>
    <g>
     <rect class="fil55 str2" x="522" y="681" width="274.219" height="90.2455" rx="8" ry="11"/>
     <path class="fil56" d="M570 750c-7,0 -12,-2 -16,-7 -4,-4 -6,-10 -6,-16 0,-8 2,-14 6,-18 4,-5 10,-7 17,-7 6,0 11,2 15,7 4,4 6,9 6,16 0,8 -2,14 -6,18 -4,5 -9,7 -16,7zm0 -41c-4,0 -7,1 -10,5 -3,3 -4,7 -4,12 0,5 1,9 4,12 2,4 6,5 10,5 4,0 8,-1 10,-4 3,-3 4,-7 4,-13 0,-5 -1,-10 -3,-13 -3,-3 -6,-4 -11,-4z"/>
     <path id="1" class="fil56" d="M639 749l-9 0 -7 -12c-1,-1 -1,-2 -2,-3 -1,-1 -1,-2 -2,-2 -1,-1 -1,-1 -2,-1 -1,-1 -2,-1 -3,-1l-3 0 0 19 -7 0 0 -46 15 0c2,0 4,0 6,1 2,0 3,1 5,2 1,1 2,2 3,4 1,1 1,3 1,5 0,2 0,3 -1,5 0,1 -1,2 -2,3 -1,2 -2,2 -3,3 -1,1 -3,2 -4,2l0 0c0,1 1,1 2,2 0,0 1,1 2,1 0,1 1,2 1,2 1,1 1,2 2,3l8 13zm-28 -40l0 15 7 0c1,0 2,0 3,0 1,-1 2,-1 2,-2 1,-1 2,-2 2,-3 1,-1 1,-2 1,-3 0,-2 -1,-4 -2,-5 -2,-1 -4,-2 -6,-2l-7 0z"/>
     <path id="2" class="fil56" d="M648 749l0 -46 13 0c17,0 26,7 26,22 0,8 -3,13 -8,18 -4,4 -11,6 -19,6l-12 0zm7 -40l0 34 6 0c6,0 10,-2 13,-5 3,-3 4,-7 4,-12 0,-11 -5,-17 -16,-17l-7 0z"/>
     <polygon id="3" class="fil56" points="724,749 698,749 698,703 723,703 723,709 705,709 705,722 721,722 721,729 705,729 705,743 724,743 "/>
     <path id="4" class="fil56" d="M771 749l-9 0 -8 -12c-1,-1 -1,-2 -2,-3 0,-1 -1,-2 -2,-2 0,-1 -1,-1 -2,-1 -1,-1 -2,-1 -3,-1l-3 0 0 19 -7 0 0 -46 15 0c2,0 4,0 6,1 2,0 3,1 5,2 1,1 2,2 3,4 1,1 1,3 1,5 0,2 0,3 -1,5 0,1 -1,2 -2,3 -1,2 -2,2 -3,3 -1,1 -3,2 -4,2l0 0c1,1 1,1 2,2 1,0 1,1 2,1 0,1 1,2 1,2 1,1 2,2 2,3l9 13zm-29 -40l0 15 7 0c1,0 2,0 3,0 1,-1 2,-1 3,-2 0,-1 1,-2 1,-3 1,-1 1,-2 1,-3 0,-2 -1,-4 -2,-5 -1,-1 -4,-2 -6,-2l-7 0z"/>
    </g>
    <g>
     <g>
      <path class="fil57" d="M703 938c0,24 -20,44 -44,44 -24,0 -43,-20 -43,-44 0,-24 19,-43 43,-43 24,0 44,19 44,43z"/>
     </g>
     <g>
      <g>
       <g>
        <path class="fil6" d="M659 965c-1,0 -2,0 -2,-1 -3,-1 -4,-4 -3,-7l21 -41c1,-2 5,-3 8,-2 2,2 3,5 2,8l-21 40c-1,2 -3,3 -5,3z"/>
       </g>
       <g>
        <path class="fil6" d="M659 965c-1,0 -2,-1 -4,-2l-23 -21c-2,-2 -2,-5 0,-7 2,-3 5,-3 7,-1l24 21c2,2 2,6 0,8 -1,1 -2,2 -4,2z"/>
       </g>
      </g>
     </g>
    </g>
    <g>
     <path class="fil11" d="M582 575l-115 0c-3,0 -6,-5 -6,-12 0,-6 3,-12 6,-12l115 0c4,0 6,6 6,12 0,7 -2,12 -6,12z"/>
     <path class="fil11" d="M582 615l-115 0c-3,0 -6,-5 -6,-12 0,-7 3,-12 6,-12l115 0c4,0 6,5 6,12 0,7 -2,12 -6,12z"/>
     <path class="fil11" d="M845 575l-230 0c-7,0 -13,-5 -13,-12 0,-6 6,-12 13,-12l230 0c7,0 12,6 12,12 0,7 -5,12 -12,12z"/>
     <path class="fil11" d="M845 615l-230 0c-7,0 -13,-5 -13,-12 0,-7 6,-12 13,-12l230 0c7,0 12,5 12,12 0,7 -5,12 -12,12z"/>
    </g>
   </g>
   <g>
    <path class="fil1" d="M960 467l-9 3 -58 23c-1,0 -3,1 -4,1 -20,5 -40,-5 -47,-24l-1 -3c-8,-20 2,-43 23,-51l54 -21 4 -1 9 -3c20,-8 43,2 51,23l1 2c8,20 -2,43 -23,51z"/>
    <path class="fil58" d="M913 468c-10,4 -28,11 -37,12 -3,0 -8,-1 -12,-6 -3,-3 -6,-7 -8,-13 -1,-3 -1,-6 -2,-9 0,-3 0,-6 1,-10 0,-3 2,-6 5,-7 0,0 0,0 0,0 10,-5 24,-11 36,-14 8,-2 16,1 19,9l1 3 6 17c3,7 -1,15 -9,18z"/>
    <path class="fil4" d="M913 468c-10,4 -28,11 -37,12 -3,0 -8,-1 -12,-6 -1,-1 -1,-2 -2,-4 -1,-2 -1,-5 -2,-8 0,-3 0,-7 1,-10 0,-3 2,-6 5,-7 0,0 0,0 0,0 10,-5 24,-11 36,-14 5,-2 10,-1 14,2l6 17c3,7 -1,15 -9,18z"/>
   </g>
   <g>
    <path class="fil1" d="M934 549l-46 13c-13,3 -27,-5 -31,-19l-2 -5c-3,-13 5,-28 19,-31l45 -13c13,-3 28,5 31,19l2 5c3,13 -5,28 -18,31z"/>
    <path class="fil58" d="M909 547c-8,2 -23,6 -31,7 -3,0 -8,-3 -12,-10 -1,-2 -2,-4 -2,-7 -1,-2 -1,-4 -2,-6 0,-3 1,-5 2,-8 0,-2 2,-4 5,-5 0,0 0,0 0,0 8,-3 20,-7 30,-8 7,-2 13,2 15,7l1 4 3 13c2,5 -2,11 -9,13z"/>
    <path class="fil4" d="M909 547c-8,2 -23,6 -31,7 -3,0 -8,-3 -12,-10 -1,-2 -1,-4 -1,-6 0,-3 0,-6 1,-8 1,-2 2,-4 5,-5 0,0 0,0 0,0 9,-3 20,-7 30,-9 6,-1 11,1 14,5l3 13c2,5 -2,11 -9,13z"/>
   </g>
   <g>
    <path class="fil1" d="M959 381c-1,0 -1,0 -1,0l-59 15c-26,7 -53,-7 -60,-31l-4 -12c-6,-23 8,-47 32,-55l20 -5 39 -10c26,-7 53,7 60,31l3 13c7,22 -7,46 -30,54z"/>
    <path class="fil58" d="M932 364l-29 13c0,0 0,0 0,0 -1,1 -3,1 -4,1 0,0 -1,0 -1,0 0,0 -1,0 -1,0 -3,0 -5,-3 -4,-6 3,-6 4,-13 2,-20l-1 -2c0,0 0,0 0,0l-2 -8c-2,-7 -6,-12 -11,-16 0,-1 -1,-1 -1,-2 -6,-4 -5,-12 2,-14 0,0 0,0 0,0l32 -5c8,-2 15,4 17,12l3 9 5 20c2,7 0,16 -7,18z"/>
    <path class="fil4" d="M932 364l-29 13c0,0 0,0 0,0 -1,0 -3,1 -6,1 -3,0 -5,-3 -4,-6 3,-6 4,-13 2,-20l-1 -2c0,0 0,0 0,0l-2 -8c-2,-7 -6,-12 -11,-16 1,-2 3,-3 5,-4 0,0 0,0 0,0l32 -4c6,-2 13,2 16,8l5 20c2,7 0,16 -7,18z"/>
   </g>
   <g>
    <path class="fil6" d="M1285 286c1,-2 1,-3 0,-5 0,-2 -1,-3 -2,-4 -1,-2 -3,-3 -5,-5 -2,-1 -4,-2 -7,-4 -5,-2 -9,-4 -13,-7 -4,-2 -7,-5 -10,-8 -3,-3 -4,-6 -6,-10 -1,-3 -1,-7 -1,-12 1,-4 2,-8 4,-11 2,-3 4,-6 7,-8 3,-2 7,-4 10,-5 4,-1 9,-2 13,-1l2 -16 13 2 -2 15c4,1 8,3 12,5 3,2 6,5 8,8 2,3 4,7 5,11 1,4 1,8 0,13l-22 -2c0,-6 0,-11 -3,-14 -2,-3 -5,-5 -9,-5 -3,-1 -5,-1 -7,0 -1,0 -3,1 -4,2 -1,1 -2,2 -3,4 -1,1 -1,3 -1,5 0,1 0,3 0,5 0,1 1,3 2,4 1,1 3,3 5,4 2,1 4,3 7,4 5,3 9,5 13,8 4,2 7,5 10,8 3,3 5,6 6,10 1,3 1,7 1,12 -1,4 -2,8 -4,11 -2,3 -4,6 -7,8 -3,2 -6,4 -10,5 -4,1 -9,1 -14,1l-1 15 -13 -2 2 -14c-4,-1 -8,-3 -12,-4 -4,-2 -7,-5 -10,-8 -3,-3 -5,-7 -6,-11 -2,-4 -2,-10 -1,-15l22 2c0,4 0,7 1,9 0,2 1,4 3,6 1,2 3,3 5,4 2,0 4,1 6,1 3,0 5,0 7,0 2,0 3,-1 5,-2 1,-1 2,-2 3,-4 1,-1 1,-3 1,-5z"/>
   </g>
   <g>
    <path class="fil2" d="M914 1518c0,0 0,39 6,188l389 -52c-94,-202 -149,-249 -149,-249 0,0 -236,8 -246,113z"/>
    <g>
     <path class="fil1" d="M1176 1482l-304 -23c-15,-9 -90,-61 -121,-99 -7,-8 -31,-79 -50,-136 -12,-35 -21,-66 -23,-73 0,-2 -1,-7 -1,-14l0 0c-1,-23 1,-68 2,-104l0 0 0 0c0,-2 0,-3 0,-5l0 0c0,0 0,0 0,0 0,-7 0,-12 0,-18 1,-13 1,-23 1,-27l1 -2c0,0 0,0 0,0 0,0 15,-8 34,6 5,4 9,12 13,23 3,6 5,14 7,23 9,31 15,69 18,80 6,16 68,88 71,93 0,0 1,0 1,0l0 -114 -47 -125 -19 -52 -10 -26c0,0 -15,-24 -27,-53 -6,-13 -11,-27 -14,-40 -1,-3 -1,-6 -2,-9 0,0 0,0 0,0 -2,-11 -2,-22 1,-30 4,-15 15,-18 22,-17 1,0 2,0 3,0 1,0 1,0 2,0 1,1 3,1 4,2 0,0 0,0 0,0 2,1 4,3 5,5 0,0 7,8 16,20 5,8 12,17 19,25 11,16 22,30 25,34 16,23 60,97 60,97l51 2c8,0 15,3 21,9 18,17 57,53 62,59 0,1 30,16 54,29 16,7 48,32 48,32 7,6 12,12 14,17 11,24 41,230 55,332 4,33 7,78 8,79z"/>
     <path class="fil3" d="M863 923c0,0 47,77 53,80 6,3 31,8 33,0 3,-8 -86,-80 -86,-80z"/>
     <path class="fil3" d="M1099 1054c0,0 0,0 0,0 0,0 -32,-25 -48,-32 -22,-12 -49,-25 -53,-29 5,6 40,46 53,49 12,2 39,10 48,12z"/>
     <path class="fil3" d="M825 1206l0 -114c0,0 27,45 29,70 2,25 -11,65 -29,44z"/>
     <path class="fil58" d="M726 787c-4,-7 -11,-19 -13,-26 -1,-2 -1,-6 1,-10 2,-3 4,-5 7,-8 2,-1 4,-2 5,-2 3,-1 5,-2 7,-2 2,0 4,1 5,4 0,0 0,0 0,0 5,6 11,16 15,24 3,6 2,13 -2,16l-2 1 -10 7c-4,3 -10,1 -13,-4z"/>
     <path class="fil4" d="M726 787c-4,-7 -11,-19 -13,-26 -1,-2 -1,-6 1,-10 1,-1 2,-1 2,-2 2,-1 4,-2 5,-3 2,0 5,-1 7,-1 2,0 4,1 5,3 0,0 0,0 0,0 5,7 11,17 15,25 2,4 2,8 1,11l-10 7c-4,3 -10,1 -13,-4z"/>
     <path class="fil3" d="M1023 1412l-91 47 -60 0c-15,-9 -90,-61 -121,-99 -7,-8 -31,-79 -50,-136l0 0c3,8 55,119 69,131 15,13 93,86 114,85 21,0 132,-26 139,-27 0,0 0,-1 0,-1z"/>
     <path class="fil3" d="M679 1028c0,0 0,0 0,0 5,-2 13,-4 17,3 6,9 -16,96 -19,106l2 -109z"/>
     <path class="fil4" d="M681 981l-2 52c0,0 11,2 17,-2 6,-5 3,-50 -15,-50z"/>
    </g>
    <g>
     <path class="fil5" d="M1215 1559c0,0 -107,78 -177,105l-44 -41 -7 51c0,0 -98,4 -126,-17l19 -139 288 -99 47 140z"/>
     <path class="fil6" d="M843 1643c36,12 119,-6 119,-6l4 -126 77 116c48,-11 126,-46 172,-68 24,-11 39,-19 39,-19 -47,-105 -96,-204 -96,-204 -22,33 -69,58 -118,77 -81,31 -169,46 -169,46 -10,74 -28,184 -28,184z"/>
     <path class="fil8" d="M843 1643c36,12 119,-6 119,-6l4 -126 77 116c48,-11 126,-46 172,-68 -107,-27 -175,-146 -175,-146 -81,31 -169,46 -169,46 -10,74 -28,184 -28,184z"/>
     <path class="fil2" d="M1112 1564c1,-8 -4,-16 -13,-17 -8,-1 -16,5 -17,13 -1,9 5,16 13,17 9,1 16,-5 17,-13z"/>
    </g>
   </g>
   <g>
    <polygon class="fil2" points="1100,777 1265,801 1155,726 1150,750 1110,757 "/>
    <polygon class="fil7" points="1265,801 1128,730 993,723 "/>
    <polygon class="fil6" points="1155,726 1265,801 1180,684 "/>
   </g>
   <path class="fil0" d="M1050 932c-48,29 -109,29 -124,-5 -9,-22 29,-33 79,-59 50,-25 91,-56 110,-42 15,11 -8,73 -65,106z"/>
   <g>
    <rect class="fil59" x="581" y="32" width="111.124" height="9.37662" rx="7" ry="5"/>
    <rect class="fil59" x="702" y="32" width="35.644" height="9.37662" rx="2" ry="5"/>
   </g>
   <g>
   </g>
   <g style="clip-path:url(#id0)">
    <g id="_547284552">
     <path class="fil60" d="M886 52c0,-6 -5,-11 -11,-11l-21 0 0 22 21 0c6,0 11,-5 11,-11z"/>
    </g>
   </g>
   <g>
    <path class="fil56" d="M875 43l-36 0 0 -4 36 0 0 0 0 4zm13 9l-4 0 0 0 0 0 0 -1 0 0 0 -1 0 0 0 -1 0 0 -1 0 0 -1 0 0 0 -1 0 0 -1 0 0 -1 0 0 -1 0 0 -1 0 0 -1 0 0 -1 0 0 -1 0 0 0 -1 0 0 -1 0 0 -1 0 0 0 -1 0 0 0 -1 0 0 0 0 -4 0 0 1 0 1 0 0 0 1 1 1 0 0 0 1 0 1 0 0 1 1 0 0 0 1 1 0 0 1 1 0 0 1 0 0 1 0 0 1 1 0 0 0 1 1 1 0 0 0 1 0 0 1 1 0 1 0 0 0 1 0 1 0 0 0 0zm-4 0l0 0 4 0 0 0 0 0 -4 0zm-9 13l0 -3 0 0 0 0 1 0 0 -1 1 0 0 0 1 0 0 0 0 0 1 0 0 -1 1 0 0 0 0 0 1 -1 0 0 0 0 1 0 0 -1 0 0 1 -1 0 0 0 0 0 -1 0 0 1 -1 0 0 0 0 0 -1 0 0 0 -1 0 0 0 -1 4 0 0 1 0 1 0 0 0 1 0 1 -1 0 0 1 0 0 0 1 -1 0 0 1 0 1 -1 0 0 1 0 0 -1 1 0 0 -1 0 0 1 -1 0 0 0 -1 1 0 0 -1 0 -1 1 0 0 -1 0 -1 0 0 0 -1 0 -1 0 0 0 0 0zm-36 -3l36 0 0 3 -36 0 0 0 0 -3zm-14 -10l4 0 0 0 0 1 0 0 0 1 0 0 0 1 1 0 0 0 0 1 0 0 0 1 1 0 0 0 0 1 0 0 1 1 0 0 0 0 1 0 0 1 0 0 1 0 0 0 0 1 1 0 0 0 1 0 0 0 1 0 0 0 1 1 0 0 1 0 0 3 -1 0 -1 0 0 0 -1 0 -1 0 0 0 -1 0 -1 -1 0 0 -1 0 0 -1 -1 0 0 0 -1 -1 0 0 -1 0 0 -1 -1 0 0 -1 0 0 -1 -1 0 -1 0 0 -1 -1 0 0 0 -1 0 0 0 -1 0 -1 -1 0 0 -1 0 -1 0 0zm4 0l0 0 -4 0 0 0 0 0 4 0zm10 -13l0 4 0 0 -1 0 0 0 -1 0 0 0 -1 0 0 0 -1 0 0 1 -1 0 0 0 0 0 -1 0 0 1 0 0 -1 0 0 1 0 0 -1 0 0 1 0 0 0 0 -1 1 0 0 0 1 0 0 0 0 -1 1 0 0 0 1 0 0 0 1 0 0 -4 0 0 0 0 -1 1 -1 0 0 0 -1 0 -1 0 0 0 -1 1 0 0 -1 0 -1 1 0 0 -1 0 0 1 -1 0 0 1 0 0 -1 1 0 0 -1 1 0 0 0 1 -1 0 0 1 0 1 0 0 0 1 -1 1 0 0 0 1 0 1 0 0 0z"/>
   </g>
  </g>
 </g>
</svg>
