<?xml version="1.0" encoding="UTF-8"?>
<!DOCTYPE svg PUBLIC "-//W3C//DTD SVG 1.1//EN" "http://www.w3.org/Graphics/SVG/1.1/DTD/svg11.dtd">
<!-- Creator: CorelDRAW X7 -->
<svg xmlns="http://www.w3.org/2000/svg" xml:space="preserve" width="70.9128mm" height="38.6399mm" version="1.1" style="shape-rendering:geometricPrecision; text-rendering:geometricPrecision; image-rendering:optimizeQuality; fill-rule:evenodd; clip-rule:evenodd"
viewBox="0 0 4137 2254"
 xmlns:xlink="http://www.w3.org/1999/xlink">
 <defs>
  <style type="text/css">
   <![CDATA[
    .str0 {stroke:#1D1D1E;stroke-width:5.92135;stroke-linecap:round;stroke-linejoin:round}
    .fil9 {fill:none}
    .fil1 {fill:#FCEBE8}
    .fil4 {fill:#F7B588}
    .fil10 {fill:#EB5E52}
    .fil8 {fill:#F3A31E}
    .fil7 {fill:#F6C86F}
    .fil13 {fill:#F2F2F1}
    .fil5 {fill:#E07850}
    .fil11 {fill:#D8E4EC}
    .fil12 {fill:#B64A41}
    .fil17 {fill:#8DC049}
    .fil14 {fill:#6699B8}
    .fil16 {fill:#6B9638}
    .fil3 {fill:#4581A8}
    .fil15 {fill:#386381}
    .fil2 {fill:#1D1D1E}
    .fil6 {fill:#F77B16}
    .fil43 {fill:#FFAB66}
    .fil0 {fill:#FFC59C}
    .fil20 {fill:#FDF2AC;fill-rule:nonzero}
    .fil40 {fill:#FADFA9;fill-rule:nonzero}
    .fil30 {fill:#FACF39;fill-rule:nonzero}
    .fil28 {fill:#F4AD07;fill-rule:nonzero}
    .fil22 {fill:#EE8D1D;fill-rule:nonzero}
    .fil18 {fill:#F9EFC7;fill-rule:nonzero}
    .fil19 {fill:#F7E1B6;fill-rule:nonzero}
    .fil27 {fill:#D86E28;fill-rule:nonzero}
    .fil21 {fill:#D97825;fill-rule:nonzero}
    .fil29 {fill:#DA901F;fill-rule:nonzero}
    .fil38 {fill:#C22D28;fill-rule:nonzero}
    .fil23 {fill:#C06B28;fill-rule:nonzero}
    .fil25 {fill:#B3492A;fill-rule:nonzero}
    .fil26 {fill:#983427;fill-rule:nonzero}
    .fil37 {fill:#952F2B;fill-rule:nonzero}
    .fil24 {fill:#853024;fill-rule:nonzero}
    .fil36 {fill:#792822;fill-rule:nonzero}
    .fil33 {fill:#ACC848;fill-rule:nonzero}
    .fil42 {fill:url(#id0);fill-rule:nonzero}
    .fil34 {fill:url(#id1);fill-rule:nonzero}
    .fil39 {fill:url(#id2);fill-rule:nonzero}
    .fil32 {fill:url(#id3);fill-rule:nonzero}
    .fil31 {fill:url(#id4);fill-rule:nonzero}
    .fil35 {fill:url(#id5);fill-rule:nonzero}
    .fil41 {fill:url(#id6);fill-rule:nonzero}
   ]]>
  </style>
  <linearGradient id="id0" gradientUnits="userSpaceOnUse" x1="619.081" y1="1938.17" x2="487.633" y2="1905.7">
   <stop offset="0" style="stop-opacity:1; stop-color:#F5B9A8"/>
   <stop offset="1" style="stop-opacity:1; stop-color:#E85444"/>
  </linearGradient>
  <linearGradient id="id1" gradientUnits="userSpaceOnUse" x1="562.079" y1="1963.6" x2="412.044" y2="1902.8">
   <stop offset="0" style="stop-opacity:1; stop-color:#567635"/>
   <stop offset="1" style="stop-opacity:1; stop-color:#549D3C"/>
  </linearGradient>
  <linearGradient id="id2" gradientUnits="userSpaceOnUse" xlink:href="#id0" x1="787.855" y1="1962.85" x2="656.406" y2="1930.38">
  </linearGradient>
  <linearGradient id="id3" gradientUnits="userSpaceOnUse" x1="748.978" y1="1943.11" x2="535.436" y2="1893.27">
   <stop offset="0" style="stop-opacity:1; stop-color:#8DBF2F"/>
   <stop offset="0.0901961" style="stop-opacity:1; stop-color:#8DBF2F"/>
   <stop offset="0.858824" style="stop-opacity:1; stop-color:#549D3C"/>
   <stop offset="1" style="stop-opacity:1; stop-color:#549D3C"/>
  </linearGradient>
  <linearGradient id="id4" gradientUnits="userSpaceOnUse" xlink:href="#id1" x1="636.18" y1="1955.43" x2="653.005" y2="1883.19">
  </linearGradient>
  <linearGradient id="id5" gradientUnits="userSpaceOnUse" xlink:href="#id3" x1="487.849" y1="1892.38" x2="452.974" y2="1969.22">
  </linearGradient>
  <linearGradient id="id6" gradientUnits="userSpaceOnUse" xlink:href="#id0" x1="714.068" y1="1946.9" x2="582.62" y2="1914.42">
  </linearGradient>
 </defs>
 <g id="Layer_x0020_1">
  <metadata id="CorelCorpID_0Corel-Layer"/>
  <g id="_548184720">
   <path class="fil0" d="M251 2136c-230,-316 -308,-737 -209,-1115 98,-378 369,-707 720,-880 351,-172 775,-187 1138,-43 185,74 375,175 545,276 170,100 372,119 566,125 215,7 439,4 637,90 278,122 461,416 486,719 25,302 -94,606 -286,841l-3597 -13z"/>
   <polygon class="fil1" points="3355,1104 2984,1104 2984,641 3355,641 "/>
   <path class="fil2" d="M3872 1207c0,4 -1,9 -1,14 0,23 10,45 22,65 4,6 7,12 9,18 1,7 0,14 -5,18 -6,5 -15,3 -22,1 -42,-14 -73,-52 -86,-94 -13,-42 -10,-88 0,-131 6,-25 14,-51 5,-75 -7,-18 -23,-28 -36,-42 -13,-14 -24,-31 -31,-50 -11,-31 -9,-68 11,-94 18,-23 48,-36 78,-35 29,0 57,13 80,32 22,19 40,44 53,70 13,26 22,53 24,82 5,61 -32,107 -67,153 -16,20 -30,43 -34,68z"/>
   <polygon class="fil1" points="3355,1629 2984,1629 2984,1166 3355,1166 "/>
   <path class="fil3" d="M3745 892c14,18 28,37 40,57 2,3 4,7 4,10 1,7 -4,13 -8,17 -22,25 -44,49 -66,73 -13,-40 -26,-81 -48,-117 9,5 30,-10 38,-15 14,-8 27,-16 40,-25z"/>
   <path class="fil2" d="M3308 988c1,-4 3,-8 4,-11 21,-61 89,-105 145,-130 41,-19 86,-31 130,-23 44,8 86,42 92,86 22,5 40,20 53,38 33,48 44,112 36,170 -9,60 -39,115 -87,152 -38,29 -88,41 -134,33 -42,-7 -79,-29 -114,-51 -36,-24 -72,-50 -97,-84 -38,-53 -46,-119 -28,-180z"/>
   <path class="fil4" d="M3334 1171c0,4 0,8 0,12 1,24 -2,49 -2,73 0,25 2,49 12,72 18,39 55,54 96,55 40,2 80,-7 116,-24 16,-7 33,-16 44,-29 13,-14 27,-23 36,-39 10,-16 16,-34 21,-51 12,-41 19,-82 21,-124 1,-23 1,-45 -1,-68 -2,-21 -2,-43 -12,-62 -16,-33 -40,-65 -74,-81 -25,-11 -53,-14 -81,-13 -34,2 -70,9 -99,28 -35,21 -56,53 -75,87 -10,17 -9,43 -9,62 0,23 3,46 5,69 1,11 2,22 2,33z"/>
   <path class="fil2" d="M3447 1034c43,-13 83,-36 118,-64 -9,70 15,143 64,193 10,10 22,20 37,19 17,-2 28,-19 33,-36 19,-55 6,-116 -18,-169 -13,-26 -28,-51 -49,-71 -21,-20 -48,-34 -77,-37 -26,-2 -51,5 -75,13 -37,12 -73,26 -104,50 -24,20 -46,48 -53,79 -9,37 34,35 60,34 22,-1 44,-5 64,-11z"/>
   <polygon class="fil1" points="1264,1135 893,1135 893,672 1264,672 "/>
   <polygon class="fil1" points="1740,1135 1369,1135 1369,672 1740,672 "/>
   <polygon class="fil1" points="1264,1660 893,1660 893,1197 1264,1197 "/>
   <polygon class="fil1" points="1740,1660 1369,1660 1369,1197 1740,1197 "/>
   <polygon class="fil1" points="2880,1104 2509,1104 2509,641 2880,641 "/>
   <polygon class="fil1" points="2880,1629 2509,1629 2509,1166 2880,1166 "/>
   <polygon class="fil1" points="1896,492 717,492 717,338 1896,338 "/>
   <path class="fil2" d="M374 773c-14,23 -24,49 -31,75 -21,85 -3,177 -32,260 -15,39 -39,73 -61,108 -23,35 -44,72 -50,113 -4,24 -3,49 6,72 10,25 25,36 45,50 44,31 96,48 149,59 165,34 341,12 492,-64 29,-14 57,-31 80,-54 23,-23 40,-53 41,-85 3,-44 -23,-85 -50,-120 -14,-17 -27,-37 -43,-53 -12,-13 -21,-24 -27,-41 -13,-35 -11,-74 -3,-109 13,-50 38,-96 54,-145 16,-49 23,-104 -1,-150 -18,-36 -53,-62 -91,-76 -38,-14 -79,-17 -120,-17 -58,-1 -140,1 -162,67 -27,-20 -65,-9 -94,7 -42,25 -77,61 -102,103z"/>
   <path class="fil4" d="M1180 1770c-45,-12 -87,-36 -128,-60 -58,-34 -118,-70 -154,-127 -26,-43 -37,-92 -42,-142 -5,-39 -15,-98 4,-136 84,37 152,103 217,167 18,17 35,34 52,51 11,11 21,25 33,34 13,9 16,5 18,-10 3,-23 4,-46 7,-70 9,-94 18,-188 27,-282 1,-2 95,-2 103,3 7,77 13,154 20,231 5,58 10,115 10,173 -1,29 -2,57 -6,86 -3,24 -2,42 -20,61 -19,19 -47,27 -75,29 -22,1 -44,-2 -66,-8z"/>
   <path class="fil5" d="M1120 1625c11,15 24,31 42,36 0,-7 5,-15 6,-22 1,-4 0,-9 0,-14 1,-15 7,-31 10,-46 2,-6 3,-13 0,-18 -3,-4 -7,-6 -11,-8 -18,-11 -32,-25 -47,-39 -5,-5 -46,-38 -45,-43 -7,22 4,57 10,79 8,27 20,52 35,75z"/>
   <path class="fil6" d="M1074 1475c4,-3 7,-6 8,-11 1,-7 -3,-13 -8,-19 -13,-15 -28,-30 -45,-42 -3,-2 -7,-5 -11,-6 -9,-1 -17,8 -23,13 -9,8 -18,17 -26,26 -11,14 -19,32 -29,47 -1,3 -3,5 -3,8 -1,4 0,9 2,13 12,36 25,73 38,110 0,1 1,3 2,3 3,1 5,-2 6,-4 25,-48 48,-99 87,-135 1,-1 2,-2 2,-3z"/>
   <path class="fil4" d="M1356 1155c-8,17 -17,32 -31,43 -14,12 -33,17 -50,12 -6,-1 -11,-4 -17,-5 -8,-2 -17,1 -25,-2 -7,-2 -15,-2 -22,-6 -10,-4 -16,-14 -21,-24 -5,-10 -10,-20 -19,-26 -8,-6 -18,-9 -24,-17 -5,-6 -6,-14 -10,-20 -9,-13 -27,-14 -40,-24 -4,-3 -8,-10 -6,-15 3,-5 9,-6 15,-6 21,-1 43,5 61,17 5,3 11,7 16,6 6,-1 10,-6 12,-10 3,-5 4,-10 8,-14 5,-6 12,-9 19,-9 8,0 14,2 21,3 7,1 14,-2 20,-3 15,-3 30,-4 45,-4 17,0 37,1 54,6 15,5 12,21 11,34 -3,22 -8,44 -17,64z"/>
   <path class="fil5" d="M1355 1093c-3,5 -6,11 -10,15 -3,5 -5,12 -7,18 -3,6 -5,12 -11,16 -7,5 -17,2 -26,-1 -1,4 -5,6 -9,7 -4,1 -9,2 -12,4 -6,4 -9,13 -16,16 -6,3 -14,-1 -19,-5 -5,-6 -7,-13 -11,-20 -4,-7 -10,-13 -16,-19 -7,-5 -14,-10 -20,-16 -6,-4 -12,-5 -16,-12 -1,-2 -2,-5 -1,-8 0,-6 7,-7 12,-8 8,-2 16,-7 22,-13 6,-7 10,-16 19,-20 9,-5 20,-4 30,0 14,4 27,12 40,16 14,5 30,6 42,-1 5,-3 11,-7 17,-5 11,2 2,21 -2,26 -2,3 -4,7 -6,10z"/>
   <path class="fil2" d="M1106 1022c87,9 210,29 296,45 8,1 15,3 21,7 7,4 11,12 8,19 -2,6 -9,10 -15,12 -20,6 -42,3 -63,-1 -91,-15 -183,-31 -275,-47l28 -35z"/>
   <path class="fil2" d="M995 1061c23,7 47,14 71,17 11,2 24,3 33,-2 10,-6 15,-16 19,-26 4,-9 7,-19 10,-28 2,-5 4,-10 2,-15 -2,-9 -12,-14 -22,-17 -22,-6 -46,-10 -70,-13 -11,-2 -23,-4 -35,-6 -5,-1 -11,-1 -16,-3 -5,-1 -11,-2 -16,-1 -4,0 -9,2 -10,6 -1,4 1,8 5,10 3,2 7,2 11,3 4,1 8,2 11,4 2,1 3,3 2,5 -1,2 -3,3 -4,3 -6,1 -11,1 -16,0 -3,-1 -7,-2 -10,-3 -3,-1 -7,0 -10,2 -3,2 -4,7 -2,11 2,4 5,7 9,9 4,2 9,3 13,5 4,1 8,4 10,8 1,1 1,3 0,5 -2,1 -4,0 -6,0 -8,-3 -15,-6 -23,-7 -2,-1 -5,-1 -7,0 -2,1 -3,3 -4,5 -2,12 11,14 19,17 12,4 24,7 36,11z"/>
   <path class="fil7" d="M1014 1181c0,3 0,6 1,9 1,3 3,5 6,5 4,-1 6,-5 7,-9 9,-35 14,-71 18,-107 2,-17 4,-34 6,-51 0,-5 1,-10 -1,-14 -1,-5 -6,-8 -10,-8 -7,1 -9,9 -10,15 -4,20 -4,41 -7,61 -2,21 -4,42 -6,62 -1,13 -3,25 -4,37z"/>
   <path class="fil8" d="M1011 956c-5,1 -10,3 -14,6 -10,6 -17,16 -22,26 -5,9 -8,19 -10,29 -4,11 -6,23 -6,34 -1,6 0,11 3,15 3,3 7,5 11,6 25,7 51,14 76,20 9,3 19,5 26,-1 4,-3 6,-8 6,-14 1,-5 0,-10 0,-16 -1,-13 1,-26 6,-38 5,-12 14,-23 26,-29 3,-2 6,-4 7,-8 1,-4 -2,-8 -5,-10 -12,-9 -27,-13 -42,-15 -14,-2 -27,-3 -41,-4 -7,-1 -14,-3 -20,-1 0,0 -1,0 -1,0z"/>
   <path class="fil7" d="M974 1057c2,-32 17,-62 38,-87 5,-6 12,-13 21,-14 -15,17 -30,34 -42,53 0,2 -3,5 -3,7 -2,3 -3,5 -4,8 -2,5 -4,10 -6,16 -3,11 -4,22 -3,33 -1,-6 -2,-10 -1,-16z"/>
   <path class="fil7" d="M1056 956c0,4 -2,7 -4,10 -16,22 -34,44 -45,69 -6,14 -8,31 -16,43 0,-8 3,-17 4,-25 3,-9 6,-18 9,-26 8,-18 17,-34 29,-48 7,-8 15,-16 23,-23z"/>
   <path class="fil7" d="M1082 962c1,4 -2,7 -4,10 -12,16 -25,31 -35,47 -9,17 -17,35 -18,55 -1,3 0,10 -3,12 -2,-6 0,-18 1,-25 2,-9 4,-19 7,-28 6,-18 16,-35 28,-49 7,-8 15,-16 24,-22z"/>
   <path class="fil7" d="M1096 976c4,-2 7,-5 11,-5 -2,5 -6,9 -10,13 -23,23 -40,52 -47,84 -1,8 -2,16 -3,25 -2,-34 7,-68 29,-95 6,-8 13,-16 20,-22z"/>
   <path class="fil4" d="M1370 1024c-2,-4 -4,-6 -7,-8 -6,-5 -16,-6 -23,-2 -3,-10 -12,-17 -21,-18 -10,-2 -20,2 -26,10 -4,-9 -13,-16 -23,-16 -10,-1 -20,5 -24,14 1,-6 -5,-11 -11,-11 -5,0 -10,2 -15,5 -14,9 -27,21 -35,36 -8,15 -11,32 -7,49 1,6 4,12 9,16 6,3 14,3 18,-2 4,10 13,16 23,17 10,1 21,-4 26,-13 3,9 9,17 17,19 8,3 19,-1 21,-10 0,7 4,14 10,18 6,4 14,5 20,2 8,-4 13,-12 17,-20 3,-9 5,-18 9,-25 4,-6 8,-10 13,-14 5,-4 10,-7 16,-10 0,-9 0,-17 -2,-25 -1,-4 -3,-8 -5,-12z"/>
   <path class="fil5" d="M1234 1013c-9,12 -15,26 -20,41 -4,15 -7,30 -10,45 -3,-14 -1,-29 3,-43 5,-13 13,-25 21,-37 3,-5 8,-13 14,-15 0,2 -2,3 -3,4 -2,2 -3,4 -5,5z"/>
   <path class="fil5" d="M1255 1103c-2,-12 0,-25 4,-36 4,-11 10,-22 16,-32 5,-10 10,-22 17,-30 -1,5 -6,10 -8,15 -4,7 -6,13 -9,20 -5,13 -10,26 -14,39 -2,8 -4,16 -6,24z"/>
   <path class="fil5" d="M1294 1113c-2,-4 -1,-8 0,-12 1,-4 3,-8 4,-11 6,-14 11,-28 17,-42 6,-13 13,-26 25,-35 -10,9 -16,23 -22,35 -6,14 -11,28 -16,42 -3,8 -6,15 -8,23z"/>
   <path class="fil6" d="M1144 2082c-18,-46 -37,-86 -51,-133 -15,-54 -31,-109 -46,-163 -31,-107 -61,-214 -92,-321 -11,-38 -22,-77 -43,-110 -40,-61 -98,-67 -165,-71 -78,-5 -157,0 -233,15 -48,10 -96,22 -131,59 -36,37 -37,106 -34,155 4,51 17,101 32,150 44,151 100,299 166,442l597 -23z"/>
   <path class="fil4" d="M776 1236c2,15 0,30 2,45 3,18 7,36 10,55 3,27 16,58 -6,81 -12,14 -31,21 -50,21 -19,1 -37,-4 -55,-11 -28,-10 -54,-24 -78,-41 -12,-9 -22,-21 -34,-29 -8,-5 -23,-7 -28,-17 -1,-4 -1,-8 0,-12 11,-46 18,-93 21,-140 3,-45 -2,-89 4,-133 1,-9 0,-37 10,-42 8,-5 21,5 28,8 31,13 71,12 104,12 4,0 7,0 11,0 6,0 12,0 17,2 6,3 11,10 12,17 15,60 24,122 32,184z"/>
   <path class="fil5" d="M779 1287c0,1 0,3 0,5 0,3 0,5 -1,7 -4,9 -25,9 -33,8 -15,-1 -29,-3 -43,-8 -29,-8 -55,-24 -77,-44 -35,-33 -58,-78 -65,-126 -1,-7 -3,-16 -1,-23 3,-8 9,-7 16,-8 22,0 44,3 66,8 27,6 54,16 75,34 11,9 20,20 30,30 6,6 13,13 17,20 6,8 7,21 8,30 5,22 7,44 8,67z"/>
   <path class="fil4" d="M906 985c-1,39 -3,78 -6,117 -1,23 -4,46 -15,66 -22,39 -70,54 -114,56 -72,2 -145,-24 -198,-72 -101,-92 -113,-235 -64,-357 18,-45 48,-88 92,-109 28,-13 60,-16 91,-15 39,2 79,11 112,31 51,32 93,94 97,154 3,43 5,86 5,129z"/>
   <path class="fil2" d="M914 765c-4,17 -13,33 -25,47 -19,23 -46,38 -74,47 -29,9 -59,12 -88,12 12,-25 12,-55 0,-80 -18,69 -80,115 -150,119 -22,1 -44,-3 -66,-4 -15,-1 -31,-11 -36,-25 -3,-8 -3,-18 -3,-27 2,-45 20,-90 49,-124 19,-21 41,-38 66,-49 13,-6 26,-12 40,-14 5,-1 10,0 15,-1 7,-1 14,-6 20,-8 20,-7 40,-12 61,-16 29,-5 59,-9 89,-5 30,3 59,14 80,36 26,25 31,60 22,92z"/>
   <path class="fil5" d="M814 1039c3,5 5,10 6,15 0,6 0,12 -4,16 -5,5 -13,7 -20,4 -7,-2 -12,-7 -17,-13 -18,-23 -20,-57 -17,-86 1,-4 2,-9 4,-13 3,-3 7,-6 12,-4 5,1 6,8 8,13 5,24 18,45 28,68z"/>
   <path class="fil2" d="M717 970c0,5 -1,10 -6,14 -5,4 -13,6 -19,4 -6,-3 -8,-7 -9,-11 -2,-9 -1,-18 4,-27 4,-5 14,-12 22,-6 8,6 9,18 8,26z"/>
   <path class="fil9 str0" d="M743 920c-6,-19 -25,-33 -45,-34 -20,0 -39,14 -45,33"/>
   <path class="fil2" d="M861 972c0,6 -2,11 -6,15 -5,4 -14,6 -20,3 -5,-2 -7,-6 -9,-11 -2,-8 0,-18 5,-26 3,-6 14,-13 22,-6 7,6 8,18 8,25z"/>
   <path class="fil9 str0" d="M811 890c10,-10 26,-13 39,-9 14,5 24,16 30,29"/>
   <path class="fil2" d="M745 1099c5,1 10,1 15,2 22,2 44,1 66,0 -1,16 3,31 3,47 -5,2 -9,3 -14,5 -17,-24 -42,-43 -70,-54z"/>
   <path class="fil10" d="M691 1080c1,-1 4,0 6,1 10,6 22,11 34,15 5,1 9,2 14,3 28,11 53,30 70,54 -1,0 -3,0 -4,1 -51,11 -109,-16 -121,-70 0,-1 0,-3 1,-4z"/>
   <path class="fil2" d="M596 1019c-1,65 10,130 28,193 8,28 18,56 23,85 5,29 5,59 -5,86 -6,17 -16,32 -32,40 -20,10 -46,4 -65,-8 -20,-11 -36,-28 -54,-42 -32,-24 -74,-42 -114,-33 -10,2 -21,5 -29,-2 -8,-6 -8,-17 -7,-26 6,-36 28,-66 48,-95 22,-30 38,-61 51,-96 12,-30 16,-64 17,-96 1,-44 -2,-88 6,-131 3,-12 6,-24 13,-33 7,-8 16,-14 25,-19 34,-19 71,-33 109,-41 7,-2 14,-3 19,1 9,6 6,20 2,29 -24,61 -35,125 -35,188z"/>
   <path class="fil4" d="M231 1977c-1,1 -1,3 -1,5 0,13 0,26 6,37 11,17 35,20 55,21 27,1 70,13 89,-9 22,-26 35,-68 48,-100 29,-67 52,-137 68,-208 23,-100 43,-212 2,-310 -16,-38 -70,-127 -110,-66 -52,79 -78,177 -102,267 -14,57 -29,112 -37,172 -9,63 -15,127 -18,191z"/>
   <path class="fil5" d="M371 1780c-27,21 -52,45 -74,72 -4,5 -9,10 -10,17 -2,6 -1,13 -2,19 -2,15 -4,30 -6,45 12,-11 23,-22 34,-33 25,-24 50,-48 74,-72 11,-10 21,-21 32,-31 11,-9 23,-18 34,-27 21,-17 41,-37 50,-63 -48,17 -92,42 -132,73z"/>
   <path class="fil6" d="M414 1565c-38,-13 -77,-18 -117,-19 6,-24 13,-48 20,-71 4,-18 10,-37 26,-47 10,-6 22,-7 34,-5 11,2 22,8 32,13 39,22 74,51 97,89 22,37 35,84 25,127 -10,-3 -15,-11 -20,-20 -5,-12 -11,-19 -21,-27 -23,-18 -49,-31 -76,-40z"/>
   <path class="fil4" d="M777 1572c3,4 6,9 9,13 9,12 18,23 27,34 -98,123 -208,235 -328,336 -55,47 -116,94 -192,88 -21,-2 -43,-10 -55,-27 -12,-19 -8,-40 -4,-61 3,-18 21,-34 32,-47 29,-33 59,-65 91,-94 70,-63 148,-110 226,-160 49,-31 99,-61 150,-89 9,-6 19,-11 29,-7 6,2 11,8 15,14z"/>
   <path class="fil4" d="M809 1462c1,0 1,-1 1,-1 18,-12 41,-19 51,-38 2,-4 3,-9 6,-12 2,-4 6,-7 10,-8 4,0 8,3 10,7 2,4 3,8 3,12 0,18 -9,35 -19,49 -10,14 -22,27 -32,42 -3,4 -5,10 -3,14 2,6 10,7 16,5 22,-8 43,-21 64,-31 22,-11 45,-21 68,-28 7,-2 13,-3 19,-3 7,0 13,3 17,8 6,7 4,18 -1,26 -5,8 -13,13 -20,19 -33,26 -57,61 -89,87 -26,21 -57,35 -89,44 -12,3 -25,6 -38,7 -10,1 -21,-4 -30,-8 -19,-8 -35,-22 -47,-39 -4,-7 -8,-14 -8,-21 1,-11 11,-19 19,-27 19,-16 35,-34 50,-54 13,-18 25,-37 42,-50z"/>
   <path class="fil5" d="M982 1518c4,-2 7,-5 11,-8 5,-3 10,-8 13,-13 4,-5 6,-11 6,-17 0,-4 -2,-8 -6,-9 5,6 3,14 -1,20 -4,7 -11,10 -17,14 -10,6 -19,11 -29,17 -16,10 -31,20 -46,30 -3,3 -6,5 -10,7 -4,2 -8,5 -12,7 -6,3 -12,7 -18,11 -2,1 -4,2 -6,4 0,0 -3,6 -2,6 6,-2 12,-5 17,-9 3,-1 5,-3 8,-5 15,-10 30,-20 46,-29 15,-9 31,-16 46,-26z"/>
   <path class="fil5" d="M995 1525c-5,3 -10,6 -15,9 -15,11 -31,21 -47,31 -16,10 -31,21 -47,30 -2,1 -7,4 -4,7 2,3 8,-1 10,-2 35,-24 70,-50 104,-76 -1,0 -1,0 -1,1z"/>
   <path class="fil11" d="M230 1882l0 0c-58,0 -106,-47 -106,-106l0 -113 212 0 0 113c0,59 -47,106 -106,106z"/>
   <path class="fil11" d="M317 2024l-173 0c-11,0 -20,8 -20,19l0 0 212 0c0,-11 -9,-19 -19,-19z"/>
   <path class="fil10" d="M141 1731l180 0 0 46c0,49 -40,90 -90,90l0 0c-49,0 -90,-41 -90,-90l0 -46z"/>
   <path class="fil12" d="M141 1731c0,10 11,20 20,19 8,-1 14,-6 21,-7 10,-3 20,2 28,7 9,4 18,10 28,10 11,0 20,-6 29,-12 9,-5 19,-11 30,-10 3,1 7,2 10,2 4,1 8,1 11,-1 3,-2 3,-3 4,-9l-181 1z"/>
   <polygon class="fil13" points="322,1681 141,1681 141,1716 322,1716 "/>
   <path class="fil4" d="M3140 1921c36,-14 69,-38 101,-62 44,-34 90,-71 114,-122 18,-37 22,-80 22,-121 -1,-33 1,-83 -18,-112 -66,39 -115,100 -163,160 -13,16 -26,31 -38,47 -2,3 -36,38 -36,39 -13,-78 -28,-155 -45,-233 -3,-18 -8,-92 -27,-100 -6,-3 -96,27 -96,23 7,85 15,171 24,256 4,43 9,86 14,130 4,29 3,71 29,92 18,14 42,18 65,16 19,-1 37,-6 54,-13z"/>
   <path class="fil5" d="M3162 1792c-3,15 -7,29 -13,42 0,0 -5,-9 -5,-11 -1,-4 -2,-7 -3,-11 -3,-10 -6,-20 -9,-29 -2,-6 -4,-12 -5,-18 -2,-5 -5,-11 -6,-16 0,-4 4,-6 7,-8 4,-3 8,-7 12,-10 8,-8 15,-16 21,-24 2,21 4,43 3,64 0,7 -1,14 -2,21z"/>
   <path class="fil6" d="M3205 1626c-5,7 -11,14 -14,22 -3,10 -1,22 1,32 14,64 48,124 96,169 4,3 8,6 13,6 4,-1 7,-5 10,-8 24,-34 33,-76 37,-117 3,-42 0,-83 3,-124 2,-43 12,-81 30,-119 -10,-7 -21,8 -29,13 -14,9 -27,18 -40,27 -25,18 -48,39 -70,60 -13,13 -25,26 -37,39z"/>
   <path class="fil4" d="M2927 1429c8,14 18,27 32,35 13,8 30,11 45,5 5,-2 9,-5 14,-7 7,-2 15,-1 22,-4 6,-3 13,-4 18,-7 10,-6 13,-17 16,-26 4,-12 7,-21 3,-33 -3,-11 -10,-21 -16,-31 -4,-8 -8,-16 -11,-23 -2,-4 -2,-7 -5,-9 -4,-2 -8,-2 -12,-1 -6,0 -12,3 -18,4 -5,2 -12,0 -18,0 -13,-1 -26,0 -39,1 -15,2 -32,5 -47,11 -13,6 -8,20 -5,31 4,19 11,37 21,54z"/>
   <path class="fil5" d="M2916 1376c1,3 2,6 3,8 7,16 16,31 28,43 10,12 23,22 38,22 4,-1 8,-2 12,-3 3,-1 8,-3 10,-6 1,-1 1,-3 2,-5 1,-1 3,-3 4,-5 3,-3 6,-6 9,-9 5,-4 11,-9 16,-14 4,-5 9,-11 13,-17 5,-7 9,-13 13,-19 4,-6 11,-12 9,-19 -1,-5 -7,-5 -11,-6 -8,-1 -15,-4 -21,-9 -6,-5 -11,-12 -19,-15 -8,-4 -18,-1 -27,3 -11,5 -21,13 -33,19 -11,5 -25,8 -37,3 -4,-2 -10,-5 -15,-3 -7,3 -2,11 0,15 2,6 4,12 6,17z"/>
   <path class="fil11" d="M2835 1374l258 -154c13,8 42,26 63,63 17,29 21,57 22,72 -96,39 -192,78 -288,117 -10,-8 -24,-22 -36,-43 -13,-22 -17,-42 -19,-55z"/>
   <path class="fil13" d="M2857 1381l232 -141c12,8 34,25 48,56 9,19 12,36 13,47 -86,34 -171,67 -257,101 -12,-20 -23,-40 -35,-60l-1 -3z"/>
   <path class="fil14" d="M3126 1354c-74,36 -150,67 -228,94 -21,-17 -35,-41 -41,-67 10,-13 28,-15 44,-13 16,2 33,8 49,5 18,-2 34,-13 49,-23 15,-11 33,-20 51,-17 12,2 23,10 35,10 15,0 29,-12 45,-11 8,1 15,5 20,11l-24 11z"/>
   <path class="fil4" d="M2885 1307c0,-3 1,-6 3,-9 4,-5 12,-9 18,-8 0,-9 5,-17 13,-22 7,-4 17,-4 24,1 1,-9 7,-17 15,-20 8,-4 17,-2 24,4 -3,-4 1,-10 5,-12 5,-2 10,-1 15,0 14,3 28,9 39,19 11,10 19,23 21,38 0,6 0,11 -3,16 -4,5 -10,7 -15,4 -1,9 -6,17 -15,21 -8,4 -18,3 -25,-3 0,8 -2,16 -8,21 -6,5 -16,5 -21,-2 2,6 1,13 -2,18 -4,5 -10,8 -17,7 -7,0 -14,-5 -19,-11 -6,-6 -10,-13 -16,-18 -4,-4 -9,-6 -14,-8 -6,-2 -11,-3 -16,-3 -3,-7 -5,-14 -6,-22 -1,-3 -1,-7 0,-11z"/>
   <path class="fil5" d="M2994 1258c12,7 21,16 29,27 8,11 15,23 21,34 -1,-12 -7,-24 -15,-34 -8,-10 -18,-18 -28,-25 -4,-3 -11,-8 -16,-7 0,1 3,1 4,2 2,0 3,1 5,3z"/>
   <path class="fil5" d="M3004 1338c-2,-11 -7,-20 -14,-28 -7,-9 -15,-15 -23,-23 -7,-6 -15,-15 -23,-19 2,4 8,7 11,10 5,4 9,9 13,13 9,10 16,19 24,29 4,6 8,12 12,18z"/>
   <path class="fil5" d="M2975 1358c0,-4 -2,-7 -4,-10 -2,-3 -5,-5 -7,-8 -9,-9 -17,-20 -26,-29 -9,-10 -19,-18 -32,-22 11,5 21,14 29,23 9,9 18,19 26,29 5,6 9,11 14,17z"/>
   <path class="fil4" d="M3045 1456c-9,2 -19,5 -27,-3 -6,-5 -8,-14 -5,-21 3,-9 12,-14 17,-20 3,-4 8,-6 11,-9 3,-4 6,-8 8,-12 5,-9 9,-18 16,-25 10,-11 26,-17 41,-17 4,0 8,0 10,4 2,2 1,6 0,8 -2,3 -4,5 -6,7 -9,9 -16,20 -20,32 -3,8 -4,17 -7,25 -2,4 -4,7 -6,11 -3,3 -6,5 -10,8 -6,6 -13,11 -22,12z"/>
   <path class="fil6" d="M3266 2146c-7,-62 -5,-123 -2,-185 4,-104 9,-209 31,-311 18,-85 45,-161 132,-197 62,-26 132,-24 198,-11 130,26 145,135 159,248 17,134 20,268 9,402l-527 54z"/>
   <path class="fil4" d="M3450 1395c-2,14 -2,27 -3,40 -3,16 -6,33 -9,49 -3,24 -14,52 3,72 10,12 25,18 40,18 15,0 30,-5 44,-11 22,-10 43,-22 62,-38 10,-8 19,-18 28,-26 7,-5 19,-7 23,-16 1,-3 1,-7 0,-10 -8,-40 -13,-82 -14,-124 -1,-39 3,-78 -1,-117 -1,-9 1,-33 -7,-38 -6,-4 -17,5 -23,8 -25,12 -56,12 -83,13 -3,0 -6,0 -9,0 -4,0 -9,0 -13,2 -5,3 -9,9 -10,15 -13,53 -21,108 -28,163z"/>
   <path class="fil5" d="M3446 1440c0,2 0,4 0,5 0,2 0,5 1,7 3,7 19,6 26,6 12,-1 23,-4 34,-8 23,-8 45,-22 62,-41 29,-29 48,-70 55,-112 1,-6 2,-14 0,-21 -1,-6 -6,-6 -12,-6 -18,0 -35,3 -53,8 -21,6 -43,15 -60,32 -9,8 -16,18 -24,26 -5,6 -11,12 -15,19 -4,7 -5,18 -7,26 -3,20 -6,40 -7,59z"/>
   <path class="fil5" d="M3402 1219c-2,4 -5,9 -5,14 -1,5 0,10 3,14 4,4 12,6 18,4 6,-2 11,-7 15,-12 16,-21 18,-51 15,-77 -1,-4 -1,-8 -4,-11 -2,-3 -6,-6 -10,-4 -4,1 -6,7 -7,12 -5,21 -17,40 -25,60z"/>
   <path class="fil2" d="M3488 1157c0,5 1,10 5,13 4,4 12,6 18,3 4,-1 6,-6 7,-9 2,-8 1,-16 -4,-24 -3,-5 -12,-11 -19,-5 -7,5 -8,16 -7,22z"/>
   <path class="fil9 str0" d="M3465 1113c5,-17 22,-29 40,-29 18,-1 35,12 40,29"/>
   <path class="fil2" d="M3360 1160c0,4 2,9 6,13 4,3 11,5 17,3 5,-2 7,-6 8,-10 2,-8 0,-16 -4,-23 -3,-5 -12,-12 -19,-6 -7,5 -8,16 -8,23z"/>
   <path class="fil9 str0" d="M3404 1087c-8,-10 -23,-12 -34,-8 -12,4 -22,14 -27,26"/>
   <path class="fil2" d="M3463 1272c-4,1 -9,2 -13,2 -19,2 -39,1 -59,0 1,14 -2,28 -2,42 4,2 8,3 12,4 15,-21 37,-38 62,-48z"/>
   <path class="fil10" d="M3511 1256c-1,-2 -3,-1 -5,0 -9,6 -19,10 -30,13 -4,2 -9,3 -13,3 -25,10 -47,27 -62,48 1,0 2,1 4,1 44,10 97,-14 107,-62 0,-1 0,-2 -1,-3z"/>
   <path class="fil4" d="M3659 1124c4,-6 10,-12 18,-14 10,-2 20,5 27,13 16,19 21,46 13,69 -7,23 -27,42 -50,50 -7,2 -15,3 -22,-1 -7,-4 -9,-12 -10,-20 -1,-9 -1,-18 2,-26 2,-7 2,-14 3,-22 2,-17 8,-34 19,-49z"/>
   <path class="fil9 str0" d="M3684 1142c-18,20 -26,49 -20,75"/>
   <path class="fil9 str0" d="M3667 1170c6,5 14,9 23,10"/>
   <path class="fil4" d="M3703 1963c-5,7 -9,14 -13,21 -16,25 -37,50 -66,53 -22,2 -44,-12 -56,-30 -12,-19 -15,-42 -13,-64 1,-22 8,-44 14,-65 21,-70 42,-139 63,-209 15,-50 37,-119 82,-150 27,-18 51,0 67,22 1,1 2,2 3,3 18,28 19,71 17,103 -2,41 -13,82 -24,122 -4,17 -5,34 -11,51 -6,19 -13,38 -21,57 -12,30 -26,58 -42,86z"/>
   <path class="fil5" d="M3634 1915c1,1 2,2 3,3 2,0 4,-1 4,-3 1,-1 1,-3 0,-5 -4,-44 -20,-88 -46,-124 -2,9 -4,18 -7,28 -1,3 -3,8 -2,11 1,4 4,8 6,11 9,17 18,34 27,51 5,9 10,18 15,28z"/>
   <path class="fil6" d="M3830 1675c2,57 -10,114 -22,170 -77,0 -154,-19 -222,-55 -5,-3 -11,-6 -13,-11 -2,-6 0,-13 2,-19 18,-46 33,-91 53,-136 21,-47 44,-94 68,-140 1,-3 2,-5 4,-6 4,-2 8,0 12,2 30,17 60,35 81,62 27,36 36,89 37,133z"/>
   <path class="fil4" d="M3374 1749c-6,-10 -10,-18 -13,-30 -4,-13 -12,-24 -11,-38 2,-19 25,-30 42,-24 9,3 17,9 24,15 76,66 151,131 220,205 18,19 36,40 41,65 6,29 -6,61 -30,78 -17,13 -40,19 -60,9 -18,-9 -32,-26 -45,-41 -3,-4 -6,-8 -9,-12 -38,-48 -74,-98 -108,-149 -17,-25 -34,-51 -50,-77 -1,0 -1,-1 -1,-1z"/>
   <path class="fil5" d="M3628 1978c12,3 23,13 25,25 -8,-7 -19,-12 -30,-11 -11,0 -21,6 -28,14 -4,-19 16,-31 33,-28z"/>
   <path class="fil3" d="M1983 2105c2,-158 -6,-182 -25,-340 -11,-99 -27,-198 -27,-298 0,-17 -2,-39 7,-54 8,-13 27,-25 39,-35 29,-24 60,-44 93,-60 67,-33 141,-51 215,-51 72,1 142,17 209,41 43,16 86,35 117,69 27,28 49,71 56,110 3,15 0,30 3,45 5,24 12,48 18,72 24,98 45,196 64,294 13,63 24,126 34,189l-803 18z"/>
   <path class="fil14" d="M2503 1799c-165,27 -335,34 -502,17 -53,3 -37,-65 -45,-99 206,45 451,20 632,-89 11,47 22,93 33,140 -37,17 -77,25 -118,31z"/>
   <path class="fil14" d="M2135 1327c7,167 290,104 290,-31 -41,-78 -293,-66 -290,31z"/>
   <path class="fil15" d="M2543 1792c-46,22 -93,42 -141,59 -47,18 -97,28 -145,45 2,8 9,14 13,21 4,10 7,22 10,33 5,21 8,44 7,66 0,16 -1,33 10,43 8,8 20,9 31,10 94,9 189,13 284,11 38,0 76,-1 114,-4 19,-1 38,-2 57,-3 8,-1 17,-3 26,-2 3,0 11,4 14,2 5,-5 -8,-39 -10,-46 -5,-17 -11,-35 -16,-52 -12,-35 -24,-70 -37,-104 -23,-61 -58,-116 -74,-180 -19,-75 -42,-151 -80,-219 -9,-15 -19,-30 -35,-38 -18,-10 -40,-5 -44,15 -5,26 -6,54 -7,81 -3,56 -1,113 6,168 4,32 9,63 17,94z"/>
   <path class="fil4" d="M2166 1031c-4,65 -7,130 -10,195 -1,30 0,59 -1,89 0,25 3,47 26,62 21,14 48,16 73,13 39,-4 76,-20 109,-42 21,-15 43,-36 46,-63 1,-16 -3,-33 -5,-49 -2,-18 -4,-35 -6,-53 -9,-71 -17,-142 -25,-212 -2,-19 -5,-37 -7,-56 -58,39 -124,65 -193,75 -3,30 -5,59 -8,88l1 -47z"/>
   <path class="fil5" d="M2159 1280c0,10 2,20 8,26 6,5 14,7 21,6 8,-1 15,-4 21,-7 73,-34 130,-100 154,-176 7,-22 11,-46 7,-69 0,-5 -2,-11 -7,-14 -3,-1 -7,-1 -11,0 -43,6 -84,26 -118,54 -28,23 -60,59 -69,95 -7,28 -8,57 -6,85z"/>
   <path class="fil4" d="M2003 982c0,39 2,78 5,117 2,23 4,46 15,66 22,39 70,54 114,56 72,3 145,-24 198,-72 102,-91 114,-235 64,-356 -18,-46 -48,-89 -92,-110 -28,-13 -60,-16 -91,-15 -39,2 -78,11 -112,31 -50,32 -92,94 -97,154 -3,43 -4,86 -4,129z"/>
   <path class="fil2" d="M2211 887c30,1 0,-46 -4,-61 37,30 95,30 132,-1 10,19 6,40 7,61 2,24 6,49 11,73 2,7 4,14 9,18 9,9 25,5 35,-3 59,-48 60,-140 50,-210 -2,-10 -4,-21 -7,-31 15,2 29,1 43,-4 -6,-24 -28,-43 -53,-44 8,-44 -13,-91 -50,-114 -9,23 -12,48 -11,72 -45,-71 -282,-23 -371,-39 -91,-15 -63,117 0,118 -39,57 -36,139 6,193 1,-51 20,-103 53,-142 34,56 82,105 150,114z"/>
   <path class="fil5" d="M2094 1036c-2,5 -5,10 -5,15 -1,6 0,12 3,16 5,6 13,7 20,4 7,-2 13,-7 17,-13 18,-23 20,-57 17,-86 0,-4 -1,-9 -4,-13 -2,-3 -7,-6 -11,-4 -5,2 -7,8 -8,13 -6,24 -19,45 -29,68z"/>
   <path class="fil2" d="M2218 967c1,5 2,10 7,14 4,4 13,6 19,4 5,-2 8,-7 9,-11 2,-9 0,-18 -5,-26 -3,-6 -13,-13 -21,-7 -8,6 -9,18 -9,26z"/>
   <path class="fil9 str0" d="M2165 917c7,-19 26,-33 46,-33 19,0 39,13 45,32"/>
   <path class="fil2" d="M2071 969c0,6 2,11 6,15 5,4 13,6 19,3 6,-2 8,-6 9,-10 2,-9 1,-18 -4,-27 -4,-5 -14,-13 -22,-6 -8,6 -9,18 -8,25z"/>
   <path class="fil9 str0" d="M2097 887c-9,-10 -26,-13 -39,-8 -13,4 -24,15 -30,28"/>
   <path class="fil2" d="M2163 1096c-5,1 -9,2 -14,2 -22,2 -45,1 -67,0 1,16 -2,31 -2,47 4,2 9,3 13,5 18,-24 42,-43 70,-54z"/>
   <path class="fil10" d="M2217 1077c-1,-1 -3,0 -5,1 -11,7 -22,11 -34,15 -5,1 -10,2 -15,3 -28,11 -52,30 -70,54 1,0 3,1 4,1 51,11 110,-16 121,-69 0,-2 1,-4 -1,-5z"/>
   <path class="fil4" d="M2444 1061c-15,6 -40,12 -49,-4 -3,-5 -4,-11 -5,-17 -4,-29 -1,-60 8,-88 8,-22 19,-54 47,-55 12,-1 24,6 32,15 7,10 11,21 14,33 5,22 4,46 -4,67 -7,21 -23,39 -43,49z"/>
   <path class="fil9 str0" d="M2440 940c-18,22 -24,55 -14,83"/>
   <path class="fil9 str0" d="M2423 980c8,3 16,4 25,2"/>
   <path class="fil3" d="M1770 2024c46,-33 222,-111 201,-171 -12,-145 -38,-290 -37,-436 -77,161 -174,313 -258,472 -63,85 -20,199 94,135z"/>
   <path class="fil15" d="M1882 1937c0,6 2,13 8,15 4,1 8,-2 12,-4 22,-17 44,-35 65,-54 4,-3 8,-7 10,-12 1,-5 1,-10 0,-15 -9,-72 -18,-145 -27,-218 -2,-17 0,-44 -8,-59 -7,3 -11,19 -13,27 -4,11 -8,22 -12,33 -7,23 -13,46 -18,69 -11,46 -17,93 -18,140 -1,26 1,52 1,78z"/>
   <path class="fil15" d="M1817 1813c1,2 3,10 6,11 7,2 8,-7 7,-11 -2,-64 -4,-128 -7,-192 -10,19 -20,38 -30,57 -3,6 -6,11 -7,17 -1,10 3,19 5,28 3,9 5,18 7,27 7,21 13,42 19,63z"/>
   <path class="fil3" d="M1604 1447c31,-6 61,-15 91,-26 24,78 48,157 72,235 23,74 55,150 60,227 2,40 -4,81 -26,114 -22,33 -61,56 -100,52 -53,-5 -55,-50 -66,-92 -13,-50 -24,-101 -34,-151 -19,-102 -31,-204 -37,-307 -1,-15 -1,-29 -2,-44 14,-2 28,-4 42,-8z"/>
   <path class="fil14" d="M1555 1506c0,3 0,7 2,10 3,3 9,4 14,4 27,-1 54,-1 81,-7 26,-6 52,-17 73,-35 -10,-24 -20,-49 -29,-73 -2,-5 -73,20 -80,23 -13,5 -26,11 -38,18 -7,4 -20,8 -23,15 -5,12 0,33 0,45z"/>
   <path class="fil15" d="M1721 1994c10,4 17,12 24,19 1,2 3,4 5,5 2,1 4,1 6,0 1,-2 1,-4 2,-6 0,-14 -11,-27 -24,-30 -12,-4 -38,0 -43,14 3,0 7,-2 11,-3 6,-1 13,-1 19,1z"/>
   <path class="fil4" d="M1527 1419c8,16 17,32 31,43 14,11 33,17 50,12 6,-1 11,-4 17,-5 8,-2 17,1 25,-2 7,-2 15,-2 22,-6 10,-4 16,-14 21,-24 5,-10 10,-20 19,-26 8,-7 18,-9 24,-17 5,-6 6,-14 10,-20 9,-13 27,-14 40,-24 4,-3 8,-10 6,-15 -3,-5 -9,-6 -15,-7 -21,0 -43,6 -61,18 -5,3 -11,7 -16,6 -6,-1 -10,-6 -12,-10 -3,-5 -4,-10 -8,-15 -5,-5 -12,-8 -19,-8 -8,0 -14,2 -21,3 -7,1 -14,-2 -20,-3 -15,-3 -30,-4 -45,-4 -17,0 -37,1 -54,6 -15,5 -12,21 -11,34 3,22 8,44 17,64z"/>
   <path class="fil5" d="M1528 1357c3,5 6,10 10,15 3,5 5,12 7,18 3,6 5,12 11,16 7,5 17,2 26,-1 1,4 5,6 9,7 4,1 9,2 12,4 6,4 9,13 16,16 6,2 14,-1 19,-5 5,-6 7,-13 11,-20 4,-7 10,-13 16,-19 7,-6 14,-10 20,-16 6,-4 12,-5 16,-12 1,-2 2,-5 1,-8 0,-6 -7,-7 -12,-8 -8,-2 -16,-7 -22,-13 -6,-7 -10,-16 -19,-20 -9,-5 -20,-4 -30,0 -14,4 -27,12 -40,16 -14,5 -30,6 -42,-1 -5,-3 -11,-7 -17,-6 -11,3 -2,22 2,27 2,3 4,6 6,10z"/>
   <path class="fil2" d="M1777 1285c-87,10 -210,30 -296,46 -8,1 -15,2 -21,7 -7,4 -11,12 -8,19 2,6 9,10 15,12 20,6 42,3 63,-1 91,-15 183,-31 275,-47l-28 -36z"/>
   <path class="fil2" d="M1809 1258c18,-3 37,-3 55,0 10,2 20,5 29,10 6,5 15,13 16,22 1,8 -5,18 -11,24 -14,15 -38,23 -57,26 -20,4 -41,4 -62,0 -15,-4 -32,-9 -43,-20 -4,-4 -7,-9 -8,-14 -1,-11 5,-16 14,-22 20,-13 43,-22 67,-26z"/>
   <path class="fil10" d="M1837 1266c10,-1 19,-1 28,1 10,1 19,5 26,11 2,2 5,5 5,8 1,7 -4,12 -9,16 -10,7 -20,13 -32,17 -28,12 -61,15 -91,4 -4,-1 -8,-3 -12,-6 -4,-3 -6,-7 -6,-12 0,-11 18,-20 27,-24 13,-7 26,-10 40,-12 8,-2 16,-3 24,-3z"/>
   <path class="fil8" d="M1772 1294c0,1 0,3 1,4 1,0 2,1 3,1 3,0 5,-1 7,-2 2,-1 3,-2 4,-4 1,-1 1,-3 1,-5 -3,-9 -15,0 -16,6z"/>
   <path class="fil8" d="M1806 1282c1,1 3,2 4,2 3,0 6,-1 9,-2 0,-1 1,-2 2,-3 0,-1 0,-3 -1,-4 -4,-3 -19,1 -14,7z"/>
   <path class="fil8" d="M1799 1299c-1,2 -1,4 -1,5 1,2 2,3 3,3 1,0 2,-1 2,-1 2,-2 4,-4 5,-7 1,-1 1,-2 1,-3 0,-1 0,-2 -1,-2 -1,-1 -2,-1 -3,-1 -3,1 -5,4 -6,6z"/>
   <path class="fil8" d="M1779 1317c1,0 2,0 3,-1 1,-1 1,-2 1,-3 0,-2 -2,-4 -3,-5 -2,-1 -10,-3 -10,2 1,3 6,6 9,7z"/>
   <path class="fil8" d="M1821 1314c-1,0 -2,2 -2,3 0,1 1,2 2,2 1,1 2,1 3,1 3,-1 7,-1 9,-3 1,-1 2,-1 3,-2 1,-3 -2,-6 -5,-5 -3,1 -7,2 -10,4z"/>
   <path class="fil8" d="M1829 1292c0,0 0,1 0,1 0,2 1,2 2,3 2,0 4,0 6,1 1,0 2,0 3,-1 1,0 1,-1 2,-2 0,-1 1,-3 1,-4 -1,-3 -4,-4 -6,-3 -3,1 -6,3 -8,5z"/>
   <path class="fil8" d="M1860 1285c1,0 2,1 3,1 2,0 3,-2 3,-3 1,-2 0,-3 0,-5 -2,-2 -8,-7 -11,-4 -3,2 2,9 5,11z"/>
   <path class="fil8" d="M1860 1298c-2,1 -3,4 -3,6 0,0 0,1 0,1 1,1 2,1 2,1 2,1 5,0 6,-1 2,-2 3,-4 3,-6 0,-5 -6,-3 -8,-1z"/>
   <path class="fil4" d="M1513 1288c2,-4 4,-6 7,-8 6,-5 16,-6 23,-2 3,-10 12,-17 21,-18 10,-2 20,2 26,10 4,-10 13,-16 23,-16 10,-1 20,5 24,14 -1,-6 5,-11 11,-11 5,0 10,2 15,5 14,9 27,21 35,36 8,15 11,32 7,49 -1,6 -4,12 -9,16 -6,3 -14,3 -18,-2 -4,10 -13,16 -23,17 -10,1 -21,-4 -26,-13 -3,9 -9,17 -17,19 -8,3 -19,-1 -21,-10 0,7 -4,14 -10,18 -6,4 -14,5 -20,2 -8,-4 -13,-12 -17,-20 -3,-9 -5,-18 -9,-25 -4,-6 -8,-10 -13,-14 -5,-5 -10,-7 -16,-10 0,-9 0,-17 2,-25 1,-4 3,-8 5,-12z"/>
   <path class="fil5" d="M1649 1277c9,12 15,26 20,41 4,14 7,30 10,44 3,-13 1,-28 -3,-42 -5,-13 -13,-26 -21,-37 -3,-5 -8,-13 -14,-15 0,2 2,3 3,4 2,2 3,3 5,5z"/>
   <path class="fil5" d="M1628 1367c2,-12 0,-25 -4,-36 -4,-11 -10,-22 -16,-32 -5,-10 -10,-22 -17,-30 1,5 6,10 8,15 4,6 6,13 9,19 5,13 10,27 14,40 2,8 4,16 6,24z"/>
   <path class="fil5" d="M1589 1377c2,-4 1,-8 0,-12 -1,-4 -3,-8 -4,-11 -6,-14 -11,-28 -17,-42 -6,-13 -13,-26 -25,-36 10,10 16,24 22,36 6,14 11,28 16,42 3,7 6,15 8,23z"/>
   <path class="fil2" d="M1884 1848c-10,4 -17,14 -17,25 2,32 11,68 29,92 20,26 54,47 85,59 30,12 62,17 94,18 38,1 77,-3 112,-17 37,-14 82,-55 101,-90 10,-18 13,-35 9,-77 -16,-19 -41,-24 -64,-31 -112,-30 -240,-23 -349,21z"/>
   <path class="fil10" d="M2270 1866c0,15 -84,28 -187,28 -103,0 -187,-13 -187,-28 0,-15 84,-28 187,-28 103,0 187,13 187,28z"/>
   <path class="fil8" d="M2205 1866c0,2 2,4 4,5 4,1 9,1 13,-1 3,-2 5,-6 2,-9 -3,-4 -19,-2 -19,5z"/>
   <path class="fil8" d="M2129 1846c-2,1 -3,4 -2,6 0,1 1,2 3,3 1,0 3,1 4,1 3,0 7,0 10,0 2,1 5,1 7,-1 4,-4 0,-11 -5,-11 -2,0 -5,0 -7,0 -4,0 -7,0 -10,2z"/>
   <path class="fil8" d="M2023 1867c-1,1 -3,2 -4,4 0,2 0,4 1,6 1,2 4,2 7,2 6,-1 13,-3 18,-7 1,-1 3,-2 3,-4 2,-5 -6,-9 -10,-8 -5,1 -11,4 -15,7z"/>
   <path class="fil8" d="M1921 1866c0,1 1,3 2,4 1,1 2,1 4,1 5,1 10,-2 15,-4 7,-3 0,-10 -5,-10 -5,0 -16,3 -16,9z"/>
   <path class="fil8" d="M1982 1854c-2,1 -4,2 -4,4 0,1 0,2 1,3 1,1 3,1 4,1 5,1 10,1 15,0 4,-1 10,-2 13,-5 2,-2 1,-5 -2,-6 -3,-2 -7,-1 -11,-1 -5,1 -11,2 -16,4z"/>
   <path class="fil8" d="M2084 1875c-2,0 -4,1 -4,3 -1,2 0,3 2,4 1,1 3,1 4,2 9,1 18,0 27,-2 3,-1 6,-3 3,-6 -2,-2 -6,-3 -9,-3 -7,-2 -16,-1 -23,2z"/>
   <path class="fil8" d="M2069 1849c-2,2 -4,4 -3,6 1,1 3,2 5,2 5,1 10,1 15,2 2,0 4,0 5,-1 6,-4 -2,-9 -5,-10 -6,-2 -13,-1 -17,1z"/>
   <path class="fil8" d="M2168 1861c-1,1 -3,2 -3,4 -1,2 0,4 1,5 2,1 4,2 6,2 4,1 8,0 11,-2 5,-3 8,-11 1,-14 -5,-1 -12,3 -16,5z"/>
   <path class="fil8" d="M1968 1879c2,2 5,3 7,3 3,0 5,0 7,0 2,1 4,1 5,0 2,0 4,-1 4,-3 1,-2 0,-4 -2,-6 -3,-2 -9,-4 -14,-3 -4,0 -11,4 -7,9z"/>
   <path class="fil8" d="M2141 1874c-2,0 -3,1 -4,2 -1,2 0,4 1,5 2,1 3,1 5,2 4,0 8,0 12,-1 0,0 1,0 1,-1 3,-2 0,-6 -3,-7 -3,-2 -8,-1 -12,0z"/>
   <path class="fil4" d="M2158 1888c-13,5 -9,19 3,22 17,6 40,-6 56,7 -23,18 -78,-7 -110,-11 -21,-2 -27,26 -8,34 -27,-13 -36,34 -6,32 -22,0 -15,29 3,30 -11,16 5,27 20,32 25,9 54,11 81,12 28,0 57,-1 85,-6 22,-4 43,-11 58,-29 12,-15 19,-37 15,-56 -3,-14 -11,-26 -20,-36 -24,-25 -58,-39 -91,-44 -29,-5 -60,-3 -86,13z"/>
   <path class="fil5" d="M2161 1953c21,1 43,3 65,2 3,0 6,-1 6,-3 0,-3 -3,-4 -6,-5 -8,-1 -16,1 -24,1 -16,2 -33,3 -50,1 -17,-1 -33,-5 -50,-8 6,6 19,7 27,8 10,2 21,3 32,4z"/>
   <path class="fil5" d="M2200 1991c7,0 14,-1 20,-3 2,-1 4,-1 4,-3 0,-1 -1,-3 -2,-3 -1,-1 -3,-1 -4,-1 -30,1 -60,0 -90,-2 -12,0 -24,-1 -35,-6 25,12 55,17 82,18 8,0 16,0 25,0z"/>
   <path class="fil5" d="M2097 2000c35,15 74,22 112,22 1,0 3,0 4,-1 1,0 2,-2 1,-3 -1,-2 -2,-2 -4,-2 -40,2 -81,-4 -119,-18l6 2z"/>
   <path class="fil3" d="M2852 1908c-1,23 -6,48 -21,60 -31,25 -70,37 -108,45 -128,26 -259,20 -389,15 -1,-11 -16,-129 -20,-128 103,-28 208,-49 311,-73 -46,-76 -76,-161 -88,-249 -4,-31 -8,-62 -9,-94 -1,-34 -1,-75 16,-105 5,-7 10,-11 16,-17 5,-5 9,-12 18,-11 5,0 10,3 15,6 44,33 80,76 110,123 29,47 52,97 75,147 35,77 65,152 72,237 1,12 2,28 2,44z"/>
   <path class="fil14" d="M2323 2035c21,-1 41,-1 61,-2 -9,-50 -18,-100 -27,-150 0,2 -31,10 -34,11 -5,2 -10,2 -11,7 -1,5 1,13 2,18 2,25 5,49 7,74 1,14 1,28 2,42z"/>
   <path class="fil15" d="M2710 1881c4,5 10,10 16,7 5,-1 7,-6 7,-11 0,-4 -2,-9 -5,-13 -11,-17 -28,-31 -47,-38 -12,-5 -25,-6 -37,-6 -4,0 -24,1 -21,6 2,4 18,7 21,8 11,5 21,12 31,19 12,8 24,18 35,28z"/>
   <path class="fil15" d="M2786 1915c-2,10 0,22 7,29 1,2 2,3 4,3 3,0 5,-5 5,-8 0,-12 1,-23 4,-34 3,-11 10,-21 19,-27 2,-2 5,-3 5,-6 1,-14 -25,5 -27,7 -9,10 -15,22 -17,36z"/>
   <path class="fil11" d="M2494 1882l0 0c-58,0 -106,-47 -106,-106l0 -113 212 0 0 113c0,59 -48,106 -106,106z"/>
   <path class="fil11" d="M2581 2024l-174 0c-10,0 -19,8 -19,19l0 0 212 0c0,-11 -9,-19 -19,-19z"/>
   <polygon class="fil11" points="2510,2027 2477,2027 2477,1774 2510,1774 "/>
   <path class="fil10" d="M2405 1731l180 0 0 46c0,49 -40,90 -90,90l0 0c-50,0 -90,-41 -90,-90l0 -46z"/>
   <path class="fil12" d="M2405 1731c0,10 10,20 20,19 7,-1 14,-6 21,-7 9,-3 19,2 28,7 9,4 18,10 28,10 11,0 20,-6 29,-12 9,-5 19,-11 30,-10 3,1 7,2 10,2 4,1 7,1 11,-1 3,-2 3,-3 3,-9l-180 1z"/>
   <path class="fil12" d="M2465 1834c-3,1 -6,2 -7,5 -1,2 0,5 2,7 1,3 4,4 6,5 20,9 43,9 63,0 3,-1 5,-2 7,-4 2,-3 2,-6 1,-8 -1,-1 -2,-2 -4,-3 -9,-5 -22,-6 -32,-7 -12,0 -24,2 -36,5z"/>
   <polygon class="fil13" points="2585,1681 2405,1681 2405,1716 2585,1716 "/>
   <path class="fil8" d="M4041 2165l-3945 0c-36,0 -65,-30 -65,-66l0 0c0,-36 29,-65 65,-65l3945 0c36,0 65,29 65,65l0 0c0,36 -29,66 -65,66z"/>
   <path class="fil7" d="M3869 2254l-3533 0c-49,0 -89,-40 -89,-89l0 0 3711 0c0,49 -40,89 -89,89z"/>
   <path class="fil16" d="M1251 1906c-5,-14 -7,-29 -4,-43 3,-14 13,-27 27,-30 20,-5 38,10 52,24 4,-23 17,-45 37,-58 19,-13 46,-16 67,-6 22,10 37,33 35,57 14,-14 29,-28 47,-37 17,-9 39,-13 57,-6 19,8 32,30 26,49 19,-10 42,-21 62,-13 17,7 28,26 28,44 0,19 -10,36 -23,49 -13,13 -30,22 -47,29 -34,14 -70,23 -107,25 -37,3 -73,-2 -110,-6 -20,-2 -40,-5 -60,-7 -11,-1 -23,1 -34,-2 -12,-4 -20,-12 -27,-22 -8,-10 -26,-32 -26,-47z"/>
   <path class="fil12" d="M1313 1888c13,-7 29,-11 43,-7 14,4 27,15 30,30 9,-6 23,-5 32,1 10,7 16,17 19,28 3,12 3,23 2,35 0,2 0,5 -2,7 -2,2 -4,2 -6,2 -44,5 -89,4 -134,-2 -5,-1 -11,-2 -16,-6 -16,-12 -3,-32 1,-46 4,-18 15,-33 31,-42z"/>
   <g>
    <path class="fil7" d="M1303 1814c-23,3 -46,9 -64,22 -12,8 -21,19 -30,29 -5,6 -10,13 -10,20 0,9 6,15 12,21 25,21 56,35 88,41 32,7 66,8 98,7 34,0 69,-4 98,-21 12,-7 30,-24 17,-38 -11,-14 -26,-26 -41,-36 -31,-22 -67,-37 -104,-43 -21,-3 -43,-4 -64,-2z"/>
    <path class="fil8" d="M1246 1857c8,-6 16,-12 25,-16 20,-9 42,-10 64,-9 40,1 81,8 115,30 -27,-10 -54,-17 -82,-22 -14,-3 -29,-5 -43,-4 -22,0 -43,6 -62,17 -10,5 -19,12 -27,19 -4,4 -8,8 -11,12 -2,2 -8,9 -7,2 0,-5 9,-12 12,-16 5,-5 10,-9 16,-13z"/>
    <path class="fil8" d="M1281 1864c45,-19 99,-16 142,8 -9,-3 -17,-6 -26,-8 -49,-14 -104,-4 -146,25 0,0 0,-3 0,-4 1,-1 3,-1 4,-2 2,-2 4,-5 7,-8 6,-5 13,-8 19,-11z"/>
    <path class="fil8" d="M1352 1872c18,-1 36,6 49,18 -1,1 -4,2 -6,1 -3,-1 -5,-3 -7,-4 -12,-8 -27,-11 -41,-10 -15,2 -29,8 -40,17 -1,1 -2,2 -3,2 -1,0 -3,0 -3,-1 0,-2 3,-2 4,-3 2,-2 4,-4 6,-5 4,-3 8,-6 12,-8 9,-4 19,-7 29,-7z"/>
    <path class="fil8" d="M1520 1822c24,-5 50,-6 73,2 23,8 43,29 45,53 2,21 -8,41 -24,55 -15,14 -35,22 -55,27 -34,10 -71,15 -106,9 -19,-3 -38,-10 -54,-19 -9,-5 -17,-10 -24,-16 -8,-6 -17,-12 -10,-21 24,-30 58,-53 93,-69 19,-9 40,-16 62,-21z"/>
    <path class="fil7" d="M1512 1845c16,-4 32,-6 48,-5 17,1 33,6 46,16 13,9 22,25 23,41 -6,-1 -8,-7 -10,-12 -7,-17 -22,-29 -39,-35 -16,-6 -35,-7 -52,-4 -18,2 -35,8 -51,13 -11,4 -21,8 -30,14 -6,4 -11,9 -16,13 -3,2 -17,11 -15,1 1,-2 7,-5 10,-6 3,-3 7,-5 11,-7 15,-8 31,-15 48,-21 9,-3 18,-6 27,-8z"/>
    <path class="fil7" d="M1520 1863c19,-4 39,-3 56,5 5,2 10,6 14,11 3,5 5,11 3,17 -7,-8 -15,-16 -24,-22 -18,-10 -40,-11 -60,-6 -10,3 -20,8 -29,13 -8,5 -16,13 -25,17 2,-10 19,-18 26,-21 12,-7 25,-12 39,-14z"/>
   </g>
   <path class="fil12" d="M1601 1902c-7,-3 -15,-3 -23,-3 -8,0 -17,1 -24,6 -7,3 -12,10 -15,17 -3,-7 -12,-10 -20,-8 -7,2 -13,8 -18,14 -12,16 -20,36 -18,55 44,-7 88,-9 133,-6 5,1 11,1 16,-1 16,-7 13,-28 3,-39 -12,-11 -17,-28 -34,-35z"/>
   <path class="fil17" d="M1076 1975c-16,-1 -31,-10 -44,-19 -28,-18 -57,-38 -69,-68 -4,-9 -6,-19 -3,-29 5,-16 26,-24 44,-21 17,4 31,15 45,26 -5,-16 5,-35 20,-42 15,-7 34,-5 49,3 15,9 27,22 37,35 9,14 18,29 29,42 13,-18 35,-28 57,-25 21,2 41,17 49,38 3,6 6,15 13,15 4,1 8,-1 12,-2 12,-5 26,2 35,12 8,9 13,22 17,35 -78,12 -157,11 -236,9 -25,0 -51,-1 -71,-16l16 7z"/>
   <path class="fil17" d="M1543 1941c15,-10 36,-12 53,-3 7,-17 15,-34 29,-46 13,-11 35,-16 50,-7 3,2 6,5 10,5 3,0 6,-2 9,-4 14,-11 28,-24 44,-31 17,-8 37,-10 53,0 19,11 25,37 21,59 -6,27 -24,51 -49,62 -17,8 -37,11 -57,12 -43,4 -87,5 -130,3 -11,0 -49,3 -55,-8 -7,-13 13,-36 22,-42z"/>
   <path class="fil2" d="M1812 2005l-806 0c-9,0 -16,-7 -16,-16l0 0c0,-8 7,-16 16,-16l806 0c9,0 16,8 16,16l0 0c0,9 -7,16 -16,16z"/>
   <path class="fil2" d="M1665 2033l-512 0c-18,0 -32,-14 -32,-32l0 0 576 0c0,18 -14,32 -32,32z"/>
   <path class="fil17" d="M3116 1850c5,-8 11,-16 20,-17 12,-2 22,10 34,11 10,1 20,-6 28,-13 8,-6 17,-14 27,-13 9,0 17,7 20,15 2,8 0,19 7,23 5,3 10,2 15,0 5,-2 9,-5 14,-6 10,-2 19,6 23,14 4,9 3,20 0,29 -6,21 -20,40 -38,53 -18,13 -39,21 -61,25 -28,4 -57,0 -83,-10 -12,-5 -34,-16 -36,-31 0,-3 2,-6 2,-9 2,-5 2,-10 4,-14 2,-10 5,-19 9,-28 5,-10 10,-20 15,-29z"/>
   <path class="fil16" d="M3121 1957c-15,3 -31,4 -47,2 -6,-1 -11,-4 -18,-4 -5,1 -12,0 -16,-4 -4,-4 -6,-10 -6,-16 -1,-14 2,-29 10,-41 3,-6 7,-10 12,-14 5,-5 9,-11 16,-12 8,-2 15,2 22,6 7,4 14,9 22,10 9,2 18,-3 26,-8 8,-5 15,-12 24,-16 7,-4 16,-6 22,-1 5,4 6,10 11,14 7,4 15,1 22,-3 6,-3 15,-6 21,-2 6,4 7,13 4,20 -3,6 -9,11 -15,15 -13,8 -27,16 -41,24 -21,12 -44,24 -69,30z"/>
   <path class="fil7" d="M2845 1867c-2,-21 0,-42 9,-60 10,-18 28,-31 46,-28 12,2 23,11 32,21 24,29 37,70 33,110 -1,13 -4,26 -12,34 -7,7 -17,9 -26,9 -17,0 -34,-5 -49,-15 -6,-4 -12,-9 -17,-14 -6,-5 -8,-13 -10,-20 -3,-12 -5,-24 -6,-37z"/>
   <path class="fil12" d="M2865 1784c-9,8 -16,19 -22,29 -3,5 -5,10 -6,16 0,5 1,11 6,14 4,4 11,4 17,1 5,-2 9,-7 13,-11 3,6 6,11 10,15 5,5 10,8 17,8 6,0 13,-4 16,-10 4,-5 6,-13 6,-19 5,2 9,6 13,9 5,3 12,5 16,1 5,-4 5,-12 3,-18 -7,-18 -21,-34 -39,-41 -19,-7 -41,-3 -55,10l5 -4z"/>
   <path class="fil8" d="M2766 1936c-18,-25 -28,-55 -30,-85 -2,-17 0,-35 12,-46 10,-9 24,-12 38,-10 15,1 29,6 42,15 21,14 35,37 45,61 7,15 13,31 15,47 3,17 1,34 -5,49 -7,14 -25,35 -43,27 -7,-3 -12,-9 -19,-13 -10,-5 -20,-10 -28,-17 -10,-8 -19,-17 -27,-28z"/>
   <path class="fil10" d="M2741 1804c-13,18 -16,42 -10,63 2,5 4,10 9,13 5,3 14,1 19,-3 5,-5 8,-11 11,-17 7,12 22,20 36,18 15,-2 27,-14 29,-29 7,7 14,12 23,16 3,1 7,2 10,0 3,-2 2,-7 1,-11 -5,-18 -17,-34 -32,-45 -15,-10 -34,-16 -52,-17 -9,-1 -18,0 -26,3 -8,2 -16,8 -20,15l2 -6z"/>
   <path class="fil8" d="M2935 1904c-4,-30 1,-62 14,-90 7,-14 17,-30 33,-34 13,-3 26,2 38,9 12,8 23,20 30,33 11,23 12,50 11,76 -2,16 -4,33 -10,48 -6,16 -15,31 -28,41 -12,9 -38,19 -50,3 -5,-6 -7,-14 -11,-20 -6,-9 -12,-18 -17,-29 -5,-12 -8,-24 -10,-37z"/>
   <path class="fil10" d="M2933 1852c-1,3 -1,6 -1,10 1,3 3,6 6,8 3,1 8,0 11,-2 3,-2 6,-6 8,-9 2,9 10,16 19,18 9,2 19,-1 26,-8 7,-6 10,-16 9,-25 4,5 8,9 13,12 6,3 12,5 18,3 10,-3 15,-14 14,-24 -1,-10 -6,-19 -12,-27 -7,-10 -15,-19 -26,-26 -10,-6 -23,-10 -35,-7 -16,3 -22,15 -29,28 -9,15 -18,31 -21,49z"/>
   <path class="fil2" d="M2752 1922l537 0c14,0 23,14 17,27l-31 73c-3,7 -10,12 -18,12l-477 0c-8,0 -15,-5 -17,-13l-28 -73c-5,-13 4,-26 17,-26z"/>
   <path class="fil12" d="M3540 1903c31,-12 69,3 83,33 10,-26 36,-46 63,-46 28,1 54,23 57,50 8,-10 16,-20 28,-27 11,-7 25,-10 37,-5 13,5 21,19 17,32 22,-9 48,-8 69,2 7,3 14,7 18,13 5,6 7,14 4,21 -5,12 -22,14 -35,14 -70,-1 -140,-1 -210,-1 -35,-1 -70,-1 -105,-1 -17,0 -35,1 -52,0 -11,-1 -16,-7 -16,-18 -2,-28 16,-57 42,-67z"/>
   <path class="fil10" d="M3522 1949c7,-2 13,-6 19,-11 6,-5 12,-9 19,-11 9,-3 19,-1 27,4 9,4 15,11 22,18 5,5 11,10 17,8 5,-2 7,-7 10,-11 8,-14 24,-24 40,-25 16,-1 33,6 43,19 5,6 8,12 12,18 5,5 12,9 19,8 7,-1 13,-8 17,-14 4,-7 7,-15 14,-19 10,-6 26,-1 30,11 2,7 1,16 7,20 6,5 15,1 22,-3 19,-8 42,-6 60,4 4,3 8,6 13,4 7,-2 6,-12 2,-18 -8,-12 -22,-19 -36,-21 -15,-2 -29,0 -44,2 4,-20 -14,-41 -34,-43 -21,-3 -41,9 -52,27 -14,-21 -38,-35 -63,-35 -24,0 -49,13 -62,34 -17,-16 -40,-24 -63,-22 -21,2 -38,14 -53,27 -14,12 -6,34 14,29z"/>
   <path class="fil2" d="M3943 2008l-483 0c-9,0 -16,-7 -16,-16l0 0c0,-9 7,-16 16,-16l483 0c9,0 16,7 16,16l0 0c0,9 -7,16 -16,16z"/>
   <path class="fil2" d="M3880 2036l-340 0c-17,0 -30,-13 -30,-29l0 0c0,-2 2,-3 3,-3l394 0c1,0 2,1 2,3l0 0c0,16 -13,29 -29,29z"/>
   <path class="fil5" d="M525 1976c12,3 22,13 25,25 -8,-8 -19,-12 -30,-11 -12,0 -21,6 -29,14 -3,-19 16,-31 34,-28z"/>
   <polygon class="fil11" points="247,2027 213,2027 213,1867 247,1867 "/>
   <path class="fil12" d="M201 1834c-2,1 -5,2 -7,5 -1,2 0,5 2,7 2,3 4,4 7,5 19,9 43,9 63,0 2,-1 5,-2 6,-4 2,-3 3,-6 1,-8 0,-1 -2,-2 -3,-3 -10,-5 -22,-6 -33,-7 -12,0 -24,2 -36,5z"/>
   <g>
    <g>
     <g>
      <path class="fil18" d="M516 1909c6,6 24,10 42,13 24,-1 43,-1 50,-1 23,-2 62,-3 84,-4 23,0 103,-4 103,-4l-8 -14 -93 -19 -2 0c-127,-5 -188,16 -176,29z"/>
      <path class="fil19" d="M433 1923c2,1 74,0 125,-1 -18,-3 -36,-7 -42,-13 -12,-13 49,-34 176,-29l-208 -32 -1 0c0,0 1,14 2,15 0,2 -55,58 -52,60z"/>
     </g>
     <path class="fil20" d="M484 1848c0,0 0,0 0,0l0 0 0 0z"/>
     <path class="fil21" d="M484 1848l0 0 6 14 1 2 3 3c0,0 97,14 120,15 24,1 63,9 78,12 15,3 23,4 49,8 25,4 54,11 54,11 0,0 0,-1 0,-3 -8,-3 -26,-9 -50,-11 -33,-2 -58,-10 -67,-12 -9,-2 -47,-9 -73,-11 -25,-2 -95,-11 -103,-18 -4,-3 -8,-7 -10,-10 -1,0 -1,0 -1,0 -4,0 -6,0 -7,0z"/>
     <path class="fil22" d="M605 1876c26,2 64,9 73,11 9,2 34,10 67,12 24,2 42,8 50,11 -1,-3 -2,-9 -2,-10 1,-2 6,-3 1,-5 -5,-3 -34,-7 -57,-12 -23,-5 -69,-16 -90,-17 -20,-1 -39,-1 -56,-5 -16,-5 -87,-12 -99,-13 2,3 6,7 10,10 8,7 78,16 103,18z"/>
     <path class="fil21" d="M475 1870c-4,13 -28,45 -41,34 0,0 0,0 0,0 0,1 -1,18 -1,18 0,0 11,-9 13,-12 2,-2 21,-19 22,-21 1,-2 7,-6 9,-11 2,-5 9,-10 9,-11 0,0 2,-4 2,-5 0,-1 -5,-14 -5,-14 -1,0 -2,2 -4,4 0,3 -1,8 -4,18z"/>
     <path class="fil23" d="M475 1870c3,-10 4,-15 4,-18 -4,4 -9,11 -12,13 -5,2 -14,17 -16,20 -2,4 -17,17 -17,19 13,11 37,-21 41,-34z"/>
    </g>
    <g>
     <path class="fil24" d="M618 1904c-85,-6 -129,-1 -149,0 5,3 13,5 24,6 29,4 239,36 282,22 -23,-8 -74,-23 -157,-28z"/>
     <path class="fil25" d="M469 1904c20,-1 64,-6 149,0 83,5 134,20 157,28 3,-1 5,-2 6,-4 -20,-9 -52,-19 -133,-29 -96,-12 -162,-6 -184,1 1,1 3,3 5,4z"/>
     <path class="fil25" d="M633 1889c74,10 131,27 151,33 1,-2 2,-6 0,-9 -177,-53 -181,-28 -151,-24z"/>
     <path class="fil26" d="M658 1879c-50,-6 -122,-8 -123,0 -1,8 12,5 107,15 77,8 129,27 141,32 0,-1 1,-2 1,-4 -20,-6 -77,-23 -151,-33 -30,-4 -26,-29 151,24 0,-1 -1,-2 -2,-3 -32,-10 -90,-27 -124,-31z"/>
     <path class="fil24" d="M470 1883c-5,7 -7,13 -6,17 22,-7 88,-13 184,-1 81,10 113,20 133,29 1,0 1,-1 1,-1 0,0 0,-1 1,-1 -12,-5 -64,-24 -141,-32 -95,-10 -108,-7 -107,-15 1,-8 73,-6 123,0 34,4 92,21 124,31 -1,-1 -2,-1 -3,-2 -11,-6 -75,-28 -157,-33 -90,-7 -143,-6 -152,8z"/>
     <path class="fil27" d="M758 1913c0,0 -26,-7 -38,-9 -12,-3 -20,-6 -14,-8 6,-2 55,10 61,14 6,5 -1,5 -9,3z"/>
     <path class="fil27" d="M676 1891c1,-2 5,-3 10,-2 6,1 9,3 9,5 0,2 -5,3 -10,2 -5,0 -9,-3 -9,-5z"/>
    </g>
    <g>
     <path class="fil24" d="M507 1908c41,-16 66,-19 76,-21 -1,2 -3,4 -8,6 -11,6 -94,52 -133,54 5,-7 22,-23 65,-39z"/>
     <path class="fil25" d="M583 1887c-10,2 -35,5 -76,21 -43,16 -60,32 -65,39 -3,0 -6,0 -8,0 3,-8 12,-18 51,-37 45,-20 83,-26 97,-26 1,1 1,2 1,3z"/>
     <path class="fil25" d="M485 1903c-36,17 -54,35 -60,42 -3,-1 -7,-3 -10,-4 57,-59 84,-45 70,-38z"/>
     <path class="fil26" d="M459 1901c26,-11 66,-23 73,-18 7,4 -2,4 -48,23 -40,17 -52,36 -54,40 -1,0 -3,-1 -5,-1 6,-7 24,-25 60,-42 14,-7 -13,-21 -70,38 -1,-1 -2,-1 -2,-2 9,-11 28,-30 46,-38z"/>
     <path class="fil24" d="M569 1876c7,4 12,6 13,8 -14,0 -52,6 -97,26 -39,19 -48,29 -51,37 -1,0 -2,-1 -2,-1 0,0 -1,0 -2,0 2,-4 14,-23 54,-40 46,-19 55,-19 48,-23 -7,-5 -47,7 -73,18 -18,8 -37,27 -46,38 -1,-1 -1,-1 -1,-2 1,-5 18,-28 65,-44 48,-17 77,-24 92,-17z"/>
     <path class="fil27" d="M432 1936c0,0 9,-8 14,-12 5,-3 6,-6 0,-6 -5,0 -24,15 -23,18 1,3 6,2 9,0z"/>
     <path class="fil27" d="M461 1911c-3,-1 -7,-1 -10,0 -2,1 -2,3 0,4 3,1 7,1 9,0 3,-1 3,-3 1,-4z"/>
    </g>
    <g>
     <g>
      <path class="fil28" d="M536 1891c-20,0 -41,4 -48,6 -5,6 -7,9 -7,10 0,0 186,0 186,0 0,0 -6,-4 -45,-10 -39,-6 -51,-7 -55,-9 -8,-4 -27,-19 -45,-21 0,0 0,1 -1,3 4,1 9,2 13,5 9,6 25,15 2,16z"/>
      <path class="fil29" d="M511 1879c-9,7 -18,10 -23,17 0,1 0,1 0,1 7,-2 28,-6 48,-6 23,-1 7,-10 -2,-16 -4,-3 -9,-4 -13,-5 -1,2 -4,6 -10,9z"/>
      <path class="fil30" d="M651 1904c26,7 17,0 17,0 0,0 -7,-3 -46,-10 -39,-6 -44,-5 -52,-9 -9,-4 -20,-15 -43,-19 0,0 -4,0 -5,1 0,0 29,10 43,21 3,2 61,10 86,16z"/>
      <path class="fil30" d="M582 1894c0,0 -31,-1 -49,0 -18,2 -46,7 -45,6 1,-1 32,-7 48,-8 15,-1 52,-1 46,2z"/>
     </g>
     <g>
      <path class="fil28" d="M444 1942c-14,6 -23,16 -26,19 7,6 10,9 11,9 1,0 137,-56 137,-56 0,0 -10,-1 -48,7 -38,7 -49,10 -55,10 -13,-1 -51,-6 -67,-2 0,0 2,1 4,3 5,-1 11,-1 18,-1 16,2 42,3 26,11z"/>
      <path class="fil29" d="M408 1941c4,8 3,13 10,20 0,0 0,0 0,0 3,-3 12,-13 26,-19 16,-8 -10,-9 -26,-11 -7,0 -13,0 -18,1 3,2 6,5 8,9z"/>
      <path class="fil30" d="M550 1917c29,-3 12,-6 12,-6 0,0 -10,0 -49,7 -39,8 -41,10 -53,10 -13,0 -39,-5 -62,-1 0,0 -3,1 -2,2 0,0 38,-1 65,2 6,1 61,-11 89,-14z"/>
      <path class="fil30" d="M483 1930c0,0 -25,9 -35,16 -10,6 -24,18 -25,17 -1,-1 13,-15 23,-20 10,-5 37,-16 37,-13z"/>
     </g>
     <g>
      <path class="fil28" d="M756 1915c16,5 30,13 34,16 -4,7 -5,9 -6,10 0,0 -161,-39 -161,-39 0,0 9,-2 49,1 41,3 53,4 59,4 12,-2 46,-12 64,-10 0,0 -1,1 -2,3 -5,0 -11,1 -18,2 -15,4 -39,8 -19,13z"/>
      <path class="fil29" d="M790 1911c0,8 4,12 0,19 0,0 0,0 0,1 -4,-3 -18,-11 -34,-16 -20,-5 4,-9 19,-13 7,-1 13,-2 18,-2 -2,2 -4,6 -3,11z"/>
      <path class="fil30" d="M639 1903c-29,0 -14,-4 -14,-4 0,0 10,-1 51,1 41,3 44,5 56,3 13,-1 36,-9 60,-8 0,0 3,2 3,2 0,0 -37,4 -62,10 -5,1 -65,-5 -94,-4z"/>
      <path class="fil30" d="M712 1908c0,0 28,6 41,11 14,5 33,15 34,14 0,-1 -21,-12 -33,-17 -13,-4 -45,-11 -42,-8z"/>
     </g>
    </g>
    <g>
     <g>
      <path class="fil31" d="M519 1911c0,0 -28,-8 -29,-10 0,-2 3,-8 10,-8 7,0 13,4 15,3 1,-1 -3,-3 1,-3 4,0 8,1 12,1 3,0 4,-2 8,-1 3,0 5,7 14,7 9,0 15,0 14,-2 -1,-3 -11,-5 -5,-6 6,-2 11,1 20,0 10,-2 18,-4 17,-3 -1,2 -8,4 -6,6 3,2 13,2 21,2 8,-1 15,-5 17,-4 3,2 2,3 4,2 2,0 13,-5 22,-2 9,3 10,5 4,6 -6,0 -12,2 -8,3 4,0 9,0 12,-1 4,-1 6,3 10,4 4,2 19,-2 27,-1 9,2 17,6 23,7 6,1 21,-3 25,-3 3,0 -2,5 4,6 5,1 6,-3 9,-1 3,3 -3,5 4,9 8,5 15,4 24,4 9,0 13,2 16,4 2,1 -2,-1 -10,1 -8,2 -6,2 -5,4 0,2 -9,-1 -20,1 -10,2 -250,-25 -250,-25z"/>
      <path class="fil32" d="M759 1942c0,0 34,-2 36,-3 3,-2 7,-7 1,-9 -6,-1 -16,1 -17,0 0,-1 7,-3 3,-3 -4,-1 -9,-1 -12,-2 -2,0 -2,-2 -5,-2 -4,0 -13,5 -21,3 -8,-2 -14,-3 -10,-5 3,-1 16,-2 11,-4 -4,-2 -11,-1 -18,-4 -7,-3 -12,-7 -12,-5 -1,1 3,4 -1,6 -5,1 -14,-1 -20,-3 -7,-2 -8,-7 -12,-6 -4,1 -4,2 -6,1 -1,-1 -6,-7 -17,-6 -10,0 -14,2 -9,4 5,1 8,4 4,4 -5,0 -9,-2 -11,-3 -1,-2 -9,2 -13,2 -5,0 -15,-6 -23,-6 -9,-1 -21,1 -28,1 -6,0 -15,-7 -18,-7 -3,-1 -4,4 -10,4 -6,0 -2,-4 -7,-3 -6,2 -3,5 -15,8 -11,2 -16,0 -24,-2 -8,-2 -14,-1 -18,0 -4,1 2,0 7,3 5,4 3,3 0,5 -3,2 9,1 16,4 7,4 249,28 249,28z"/>
     </g>
     <path class="fil33" d="M790 1939c0,0 -21,2 -23,1 -2,0 21,-3 23,-3 2,0 3,1 0,2z"/>
     <path class="fil33" d="M751 1934c0,0 17,-5 19,-6 2,-1 -6,-1 -7,-2 -1,-1 -5,1 -10,4 -6,3 -9,5 -2,4z"/>
     <path class="fil33" d="M727 1925c0,0 2,-4 9,-6 7,-1 0,-2 -4,-2 -4,0 -11,9 -5,8z"/>
     <path class="fil33" d="M681 1920c0,0 8,-7 6,-8 -1,-2 -9,1 -9,4 0,2 0,5 3,4z"/>
     <path class="fil33" d="M672 1915c1,0 5,-6 3,-7 -3,-1 -9,4 -8,6 1,2 3,3 5,1z"/>
     <path class="fil33" d="M628 1920c0,0 5,-9 2,-10 -3,-1 -6,-1 -7,3 -1,5 0,10 5,7z"/>
     <path class="fil33" d="M598 1902c-1,0 -11,2 -16,1 -6,0 -10,-1 -8,0 1,2 11,2 17,2 5,-1 5,3 5,3 0,1 2,2 3,-1 0,-3 2,-5 -1,-5z"/>
    </g>
    <g>
     <g>
      <path class="fil34" d="M441 1967c0,0 -17,7 -20,7 -3,0 -12,-1 -11,-3 1,-2 8,-4 7,-4 -1,-1 -6,0 -5,-1 1,-1 3,-2 3,-3 0,-1 -3,-2 -1,-3 2,-1 12,-1 13,-3 1,-3 2,-5 -2,-5 -3,0 -9,3 -10,1 -1,-2 4,-3 3,-6 -1,-3 -4,-6 -2,-5 2,0 4,3 8,2 4,0 6,-3 5,-6 0,-2 -5,-5 -3,-5 3,-1 5,-1 4,-1 0,-1 -6,-5 -1,-7 6,-2 10,-3 10,-1 0,2 1,4 3,3 2,-1 2,-3 1,-4 -1,-1 6,-1 8,-2 2,-1 -1,-6 2,-9 3,-2 11,-4 13,-6 3,-1 -2,-6 -1,-7 0,-1 7,1 9,-1 2,-1 -4,-2 0,-3 5,0 8,2 16,0 7,-2 7,-4 8,-7 1,-3 5,-4 8,-4 3,-1 -2,0 1,3 2,3 2,2 6,2 3,0 -3,2 -2,6 2,3 -70,72 -70,72z"/>
      <path class="fil35" d="M520 1898c0,0 2,-10 0,-11 -3,-1 -11,-2 -14,-1 -3,2 -1,5 -3,5 -2,0 -3,-2 -4,-1 -2,1 -2,3 -4,3 -1,1 -4,1 -5,2 0,1 7,4 3,6 -4,2 -6,4 -9,3 -2,-1 -1,-5 -5,-4 -4,1 -3,3 -9,5 -6,2 -12,3 -10,3 3,1 8,0 9,1 2,2 -2,4 -6,6 -4,1 -12,1 -12,3 1,1 3,1 2,2 -2,0 -12,1 -13,4 0,3 2,5 6,3 3,-1 7,-2 7,-1 -1,2 -4,3 -6,3 -3,1 1,3 1,4 0,2 -10,4 -13,7 -2,2 0,6 -1,8 -1,2 -13,4 -14,5 -1,1 7,1 6,3 -2,2 -7,0 -5,2 2,2 8,1 10,5 2,4 -2,5 -6,7 -4,2 -3,4 -2,6 1,1 0,-1 6,-2 6,-1 5,-1 7,0 3,1 3,-3 9,-4 7,-2 75,-72 75,-72z"/>
     </g>
     <path class="fil33" d="M519 1889c0,0 0,6 -1,7 -1,0 -3,-7 -3,-7 1,-1 2,-1 4,0z"/>
     <path class="fil33" d="M506 1900c0,0 -6,-6 -7,-6 -1,-1 -2,2 -4,2 -2,0 2,1 5,3 4,2 7,3 6,1z"/>
     <path class="fil33" d="M489 1906c0,0 -6,-1 -8,-3 -2,-2 -4,0 -4,1 0,1 13,4 12,2z"/>
     <path class="fil33" d="M475 1920c0,0 -9,-4 -12,-3 -3,0 2,3 6,3 3,0 7,0 6,0z"/>
     <path class="fil33" d="M467 1922c-1,-1 -10,-2 -11,-2 -2,1 5,3 8,3 3,0 5,-1 3,-1z"/>
     <path class="fil33" d="M468 1935c0,0 -13,-2 -15,-1 -2,0 -3,1 5,2 7,1 15,1 10,-1z"/>
     <path class="fil33" d="M437 1943c0,0 1,3 -1,4 -1,2 -3,3 0,3 2,-1 4,-3 4,-5 0,-2 6,-1 6,-1 1,0 3,-1 -2,-1 -4,-1 -7,-1 -7,0z"/>
    </g>
    <g>
     <g>
      <path class="fil36" d="M789 1950c4,-5 -5,-11 -20,-15l-15 24c18,-1 32,-4 35,-9z"/>
      <path class="fil37" d="M754 1959l15 -24c-5,-2 -11,-4 -18,-5l-18 29c7,1 14,1 21,0z"/>
      <path class="fil36" d="M657 1935c-2,4 1,7 7,11l11 -18c-9,1 -16,4 -18,7z"/>
      <path class="fil36" d="M710 1957c1,1 2,1 4,1 6,1 13,1 19,1l18 -29c-6,-1 -12,-2 -18,-3 -2,0 -3,0 -4,0 -4,6 -14,22 -19,30z"/>
      <path class="fil37" d="M710 1957c5,-8 15,-24 19,-30 -21,-2 -40,-2 -54,1l-11 18c9,4 25,9 46,11z"/>
      <g>
       <path class="fil38" d="M711 1962c37,4 71,1 76,-8 5,-8 -20,-18 -57,-23 -36,-4 -70,0 -75,8 -6,9 20,19 56,23zm19 -29l0 0c32,4 54,13 50,20 -5,7 -34,10 -66,7 -32,-4 -54,-13 -50,-20 5,-7 35,-10 66,-7z"/>
       <path class="fil39" d="M714 1960c32,3 61,0 66,-7 4,-7 -18,-16 -50,-20 -31,-3 -61,0 -66,7 -4,7 18,16 50,20z"/>
       <path class="fil38" d="M735 1954c0,0 -1,4 -13,3 -13,-1 -13,-5 -13,-6 0,0 -25,2 -31,-3 -7,-6 14,-5 14,-5 0,0 -6,-5 6,-6 12,-1 30,5 30,5 0,0 17,-2 28,0 11,3 -1,6 -1,6 0,0 24,2 16,7 -9,4 -36,-1 -36,-1z"/>
       <g>
        <path class="fil40" d="M731 1951c0,0 6,0 5,1 -2,1 -5,-1 -5,-1z"/>
        <path class="fil40" d="M732 1945c0,0 4,-1 5,0 2,1 -5,0 -5,0z"/>
        <path class="fil40" d="M736 1948c0,0 5,0 5,1 0,1 -5,-1 -5,-1z"/>
       </g>
       <g>
        <path class="fil40" d="M719 1944c0,0 -6,0 -4,-1 1,-1 4,1 4,1z"/>
        <path class="fil40" d="M718 1950c0,0 -3,1 -5,0 -1,-1 5,0 5,0z"/>
        <path class="fil40" d="M715 1947c0,0 -6,0 -6,-1 0,-1 6,1 6,1z"/>
       </g>
      </g>
     </g>
     <g>
      <path class="fil36" d="M716 1934c3,-5 -5,-11 -21,-15l-15 24c19,0 32,-4 36,-9z"/>
      <path class="fil37" d="M680 1943l15 -24c-5,-2 -11,-4 -18,-5l-18 29c7,1 14,1 21,0z"/>
      <path class="fil36" d="M583 1919c-2,4 1,7 7,11l11 -18c-9,1 -16,4 -18,7z"/>
      <path class="fil36" d="M636 1941c1,1 3,1 4,1 6,1 13,1 19,1l18 -29c-5,-1 -12,-2 -18,-3 -1,0 -3,0 -4,0 -4,6 -14,22 -19,30z"/>
      <path class="fil37" d="M636 1941c5,-8 15,-24 19,-30 -21,-2 -40,-2 -54,1l-11 18c9,4 26,9 46,11z"/>
      <g>
       <path class="fil38" d="M637 1946c37,4 71,1 76,-8 5,-8 -20,-18 -57,-22 -36,-5 -70,-1 -75,7 -6,9 20,19 56,23zm20 -29l0 0c32,4 54,13 49,20 -5,7 -34,11 -66,7 -32,-4 -54,-12 -49,-20 4,-7 34,-10 66,-7z"/>
       <path class="fil41" d="M640 1944c32,4 61,0 66,-7 5,-7 -17,-16 -49,-20 -32,-3 -62,0 -66,7 -5,8 17,16 49,20z"/>
       <path class="fil38" d="M662 1938c0,0 -2,5 -14,3 -13,-1 -13,-5 -13,-5 0,0 -25,1 -31,-4 -6,-6 14,-5 14,-5 0,0 -6,-5 6,-6 12,-1 30,5 30,5 0,0 17,-2 28,0 11,3 -1,6 -1,6 0,0 24,2 16,7 -8,4 -35,-1 -35,-1z"/>
       <g>
        <path class="fil40" d="M657 1935c0,0 7,0 5,1 -2,1 -5,-1 -5,-1z"/>
        <path class="fil40" d="M658 1929c0,0 4,-1 5,0 2,1 -5,0 -5,0z"/>
        <path class="fil40" d="M662 1932c0,0 5,0 5,1 1,1 -5,-1 -5,-1z"/>
       </g>
       <g>
        <path class="fil40" d="M645 1929c0,0 -6,-1 -4,-2 1,0 4,2 4,2z"/>
        <path class="fil40" d="M645 1934c0,0 -4,1 -6,0 -1,-1 6,0 6,0z"/>
        <path class="fil40" d="M641 1931c0,0 -6,0 -6,-1 0,-1 6,1 6,1z"/>
       </g>
      </g>
     </g>
     <g>
      <path class="fil36" d="M621 1925c3,-5 -5,-11 -20,-15l-16 25c19,-1 32,-5 36,-10z"/>
      <path class="fil37" d="M585 1935l16 -25c-6,-2 -12,-3 -19,-5l-18 30c7,0 14,0 21,0z"/>
      <path class="fil36" d="M488 1911c-2,3 1,6 7,10l11 -18c-9,2 -16,4 -18,8z"/>
      <path class="fil36" d="M541 1933c1,0 3,0 4,0 6,1 13,1 19,2l18 -30c-5,-1 -12,-2 -18,-2 -1,0 -3,-1 -4,-1 -4,6 -14,22 -19,31z"/>
      <path class="fil37" d="M541 1933c5,-9 15,-25 19,-31 -21,-2 -40,-1 -54,1l-11 18c9,5 26,9 46,12z"/>
      <g>
       <path class="fil38" d="M542 1937c37,4 71,1 76,-8 5,-8 -20,-18 -57,-22 -36,-4 -70,-1 -75,8 -6,8 20,18 56,22zm20 -28l0 0c32,3 54,12 49,19 -5,8 -34,11 -66,7 -32,-3 -54,-12 -49,-20 4,-7 34,-10 66,-6z"/>
       <path class="fil42" d="M545 1935c32,4 61,1 66,-7 5,-7 -17,-16 -49,-19 -32,-4 -62,-1 -66,6 -5,8 17,17 49,20z"/>
       <path class="fil38" d="M567 1929c0,0 -2,5 -14,4 -13,-1 -13,-5 -13,-6 0,0 -25,1 -31,-4 -6,-6 14,-5 14,-5 0,0 -6,-5 6,-6 12,-1 30,6 30,6 0,0 17,-3 28,0 11,2 -1,6 -1,6 0,0 24,1 16,6 -8,4 -35,-1 -35,-1z"/>
       <g>
        <path class="fil40" d="M562 1926c0,0 7,0 5,1 -2,1 -5,-1 -5,-1z"/>
        <path class="fil40" d="M563 1921c0,0 4,-2 5,-1 2,1 -5,1 -5,1z"/>
        <path class="fil40" d="M567 1924c0,0 5,-1 5,0 1,1 -5,0 -5,0z"/>
       </g>
       <g>
        <path class="fil40" d="M550 1920c0,0 -6,-1 -4,-1 2,-1 4,1 4,1z"/>
        <path class="fil40" d="M550 1925c0,0 -4,1 -6,0 -1,-1 6,0 6,0z"/>
        <path class="fil40" d="M546 1922c0,0 -6,1 -6,0 0,-1 6,0 6,0z"/>
       </g>
      </g>
     </g>
    </g>
    <g>
     <g>
      <path class="fil18" d="M516 1969c6,7 24,11 42,14 24,-1 43,-1 50,-2 23,-1 62,-3 84,-3 23,0 103,-5 103,-5l-8 -14 -93 -18 -2 0c-127,-5 -188,15 -176,28z"/>
      <path class="fil19" d="M433 1983c2,1 74,1 125,0 -18,-3 -36,-7 -42,-14 -12,-13 49,-33 176,-28l-208 -32 -1 0c0,0 1,14 2,15 0,1 -55,58 -52,59z"/>
     </g>
     <path class="fil20" d="M484 1909c0,0 0,0 0,0l0 0 0 0z"/>
     <path class="fil21" d="M484 1909l0 0 6 13 1 2 3 4c0,0 97,14 120,15 24,1 63,9 78,12 15,3 23,4 49,8 25,4 54,10 54,10 0,0 0,-1 0,-2 -8,-3 -26,-9 -50,-11 -33,-3 -58,-10 -67,-12 -9,-3 -47,-9 -73,-11 -25,-2 -95,-11 -103,-18 -4,-3 -8,-7 -10,-10 -1,0 -1,0 -1,0 -4,0 -6,0 -7,0z"/>
     <path class="fil22" d="M605 1937c26,2 64,8 73,11 9,2 34,9 67,12 24,2 42,8 50,11 -1,-3 -2,-9 -2,-10 1,-3 6,-3 1,-5 -5,-3 -34,-7 -57,-12 -23,-5 -69,-16 -90,-17 -20,-1 -39,-1 -56,-6 -16,-4 -87,-11 -99,-12 2,3 6,7 10,10 8,7 78,16 103,18z"/>
     <path class="fil21" d="M475 1930c-4,14 -28,46 -41,34 0,0 0,0 0,1 0,0 -1,18 -1,18 0,0 11,-9 13,-12 2,-3 21,-20 22,-21 1,-2 7,-6 9,-11 2,-6 9,-10 9,-11 0,-1 2,-5 2,-6 0,0 -5,-13 -5,-13 -1,0 -2,1 -4,4 0,2 -1,7 -4,17z"/>
     <path class="fil23" d="M475 1930c3,-10 4,-15 4,-17 -4,4 -9,11 -12,12 -5,3 -14,18 -16,21 -2,4 -17,17 -17,18 13,12 37,-20 41,-34z"/>
    </g>
   </g>
   <path class="fil2" d="M840 2006l-483 0c-9,0 -16,-7 -16,-16l0 0c0,-9 7,-16 16,-16l483 0c9,0 16,7 16,16l0 0c0,9 -7,16 -16,16z"/>
   <path class="fil2" d="M777 2034l-341 0c-16,0 -29,-13 -29,-29l0 0c0,-2 1,-3 3,-3l393 0c2,0 3,1 3,3l0 0c0,16 -13,29 -29,29z"/>
   <path class="fil43" d="M3396 1518c-1,4 -1,7 -2,10 -4,31 0,63 15,89 4,7 9,13 16,13 6,0 11,-5 15,-10 7,-10 13,-21 17,-33 1,-5 4,-12 9,-11 3,0 5,3 6,6 5,10 5,21 7,31 1,11 5,22 13,28 12,8 28,4 42,-1 27,-11 52,-25 73,-46 10,-10 16,-22 25,-34 9,-13 16,-27 20,-42 11,-35 4,-77 -23,-102 -2,3 -4,7 -6,10 -18,34 -42,64 -71,89 -14,12 -29,24 -46,33 -11,7 -35,25 -47,13 -4,-5 -6,-11 -7,-17 -8,-39 -7,-79 -5,-119 -8,5 -16,11 -22,17 -7,7 -10,18 -14,26 -7,16 -12,33 -15,50z"/>
   <path class="fil4" d="M3427 1649c0,-6 -1,-12 -2,-17 -5,-19 -16,-36 -18,-55 0,-4 0,-8 -1,-12 -1,-4 -4,-8 -8,-10 -3,-1 -7,1 -9,3 -3,2 -5,5 -7,8 -8,15 -8,30 -6,47 0,3 0,7 -3,8 -2,1 -5,0 -8,-2 -6,-5 -12,-10 -19,-15 -5,-5 -9,-10 -15,-13 -13,-9 -26,-18 -39,-27 -4,-2 -8,-5 -12,-3 -3,1 -5,5 -6,9 -2,8 -2,17 1,25 -4,0 -7,3 -9,6 -2,4 -3,8 -3,12 -1,4 -1,8 0,12 0,4 2,8 5,10 -8,4 -10,11 -11,19 0,3 1,7 3,10 1,1 6,7 9,7 -14,4 -15,22 -6,31 3,4 8,6 12,9 37,20 74,41 114,55 0,-16 10,-30 18,-43 12,-21 21,-48 20,-74z"/>
   <path class="fil5" d="M3331 1641c9,6 18,11 27,14 1,-2 -1,-5 -4,-7 -5,-5 -11,-10 -17,-14 -10,-8 -20,-15 -31,-22 -10,-6 -20,-13 -32,-17 7,9 18,16 26,23 10,8 20,16 31,23z"/>
   <path class="fil5" d="M3321 1675c5,3 11,6 17,6 0,-5 -4,-8 -8,-10 -14,-7 -28,-14 -41,-22 -7,-3 -12,-7 -18,-10 -1,3 6,8 8,10 5,3 9,7 14,10 9,6 18,11 28,16z"/>
   <path class="fil5" d="M3332 1712c0,-3 -1,-5 -3,-6 -2,-2 -4,-3 -6,-4 -10,-4 -20,-9 -29,-15 -5,-2 -10,-5 -14,-8 -4,-3 -8,-7 -11,-8 2,7 12,13 17,17 9,7 19,12 29,17 5,2 11,5 17,7z"/>
  </g>
 </g>
</svg>
