<?xml version="1.0" encoding="UTF-8"?>
<!DOCTYPE svg PUBLIC "-//W3C//DTD SVG 1.1//EN" "http://www.w3.org/Graphics/SVG/1.1/DTD/svg11.dtd">
<!-- Creator: CorelDRAW X7 -->
<svg xmlns="http://www.w3.org/2000/svg" xml:space="preserve" width="59.4101mm" height="54.8111mm" version="1.1" style="shape-rendering:geometricPrecision; text-rendering:geometricPrecision; image-rendering:optimizeQuality; fill-rule:evenodd; clip-rule:evenodd"
viewBox="0 0 46780 43159"
 xmlns:xlink="http://www.w3.org/1999/xlink">
 <defs>
  <style type="text/css">
   <![CDATA[
    .fil35 {fill:#FEFEFE}
    .fil21 {fill:#0F0F0F}
    .fil16 {fill:#161917}
    .fil12 {fill:#24211C}
    .fil0 {fill:#249431}
    .fil27 {fill:#29201D}
    .fil1 {fill:#2FBF40}
    .fil23 {fill:#303633}
    .fil30 {fill:#3E3525}
    .fil25 {fill:#43433B}
    .fil4 {fill:#4D483D}
    .fil17 {fill:#798EA0}
    .fil19 {fill:#879B9D}
    .fil20 {fill:#93A8AA}
    .fil22 {fill:#9FA335}
    .fil18 {fill:#9FB8CE}
    .fil15 {fill:#9FBFD4}
    .fil29 {fill:#AE854C}
    .fil31 {fill:#B57536}
    .fil13 {fill:#C2BEC1}
    .fil28 {fill:#D9B67E}
    .fil5 {fill:#D9CFBD}
    .fil24 {fill:#DFECF5}
    .fil33 {fill:#E6E6E6}
    .fil8 {fill:#E8E8E8}
    .fil6 {fill:#EBE0CC}
    .fil10 {fill:#F77B16}
    .fil7 {fill:#F99746}
    .fil2 {fill:#FCA465}
    .fil11 {fill:#FF6430}
    .fil9 {fill:#FFAB66}
    .fil32 {fill:#FFC59C}
    .fil34 {fill:#FFC59C}
    .fil26 {fill:#FFDA40}
    .fil14 {fill:#FFF6F8}
    .fil3 {fill:white}
   ]]>
  </style>
 </defs>
 <g id="Layer_x0020_1">
  <metadata id="CorelCorpID_0Corel-Layer"/>
  <g id="_549981456">
   <path class="fil0" d="M32081 23984c-508,-705 183,-2026 258,-2171 396,-757 754,-744 857,-1274 175,-902 -789,-1297 -638,-2071 166,-850 1392,-708 1932,-1813 395,-808 -117,-1177 259,-2171 247,-654 950,-1766 1932,-1713 1002,55 1838,1303 1673,2151 -166,847 -1270,987 -1295,1793 -19,624 636,750 638,1374 2,959 -1545,1334 -1474,2131 52,578 886,580 1056,1215 251,937 -1182,2367 -2729,2808 -229,66 -1908,522 -2469,-259z"/>
   <path class="fil1" d="M36780 13883c0,0 -13,22 -37,65 -172,301 -869,1596 -988,2813 -70,713 -215,1048 -376,1355 -161,307 -334,583 -482,1223 -147,639 -148,1232 -213,1768 -65,535 -199,1021 -624,1415 -395,365 -723,972 -947,1485 -112,257 -199,491 -258,660 -30,85 -52,153 -67,200 -15,47 -23,73 -23,73l-134 -39c1,-2 126,-428 354,-950 229,-522 559,-1140 980,-1532 391,-363 516,-803 580,-1329 65,-524 64,-1125 216,-1782 150,-654 336,-956 494,-1257 157,-300 291,-602 361,-1303 142,-1437 1043,-2933 1045,-2937l119 72z"/>
   <path class="fil0" d="M10728 20174c-814,-305 -975,-1786 -992,-1948 -92,-850 212,-1038 3,-1536 -356,-847 -1377,-639 -1682,-1367 -334,-799 764,-1362 598,-2580 -121,-891 -752,-914 -992,-1949 -158,-681 -192,-1996 653,-2497 864,-512 2253,60 2587,857 333,796 -507,1526 -79,2209 330,530 945,271 1293,788 536,796 -542,1968 -39,2591 364,452 1058,-11 1552,422 730,640 335,2625 -706,3852 -154,182 -1295,1495 -2196,1158z"/>
   <path class="fil1" d="M9017 9165c0,0 1,26 5,75 24,346 165,1810 743,2888 339,631 405,990 441,1335 37,345 47,670 280,1284 203,535 480,979 710,1405 229,424 413,833 413,1294 0,133 -15,270 -49,412 -49,205 -69,436 -69,674 0,487 84,1002 169,1395 42,196 84,361 116,478 16,58 29,104 38,135 9,31 14,48 14,48l-133 42c-1,-4 -344,-1094 -344,-2098 0,-246 20,-487 73,-707 31,-131 45,-257 45,-379 0,-422 -169,-808 -396,-1228 -227,-420 -509,-871 -718,-1421 -239,-628 -252,-982 -288,-1319 -37,-337 -93,-663 -425,-1284 -680,-1274 -764,-3018 -765,-3022l140 -7z"/>
   <path class="fil1" d="M29873 32929c101,-1306 2178,-2157 2406,-2251 1191,-488 1590,-126 2224,-637 1078,-869 350,-2260 1276,-3005 1017,-818 2291,536 3986,-213 1239,-548 1008,-1470 2406,-2250 920,-514 2810,-1113 3888,-98 1103,1036 854,3286 -160,4102 -1013,816 -2420,-95 -3232,809 -628,700 4,1482 -599,2202 -929,1107 -3076,38 -3767,1025 -502,717 457,1528 36,2424 -620,1324 -3659,1581 -5870,587 -328,-147 -2706,-1251 -2594,-2695z"/>
   <path class="fil0" d="M45084 25819c0,0 -38,12 -108,38 -492,182 -2556,997 -3882,2291 -771,751 -1255,992 -1738,1188 -481,197 -955,350 -1750,947 -793,595 -1370,1280 -1964,1832 -593,552 -1210,974 -2070,1015 -820,38 -1788,421 -2547,796 -380,187 -708,372 -941,510 -116,69 -209,127 -273,167 -63,40 -97,62 -97,62l-77 -117c2,-1 558,-369 1326,-748 768,-378 1746,-769 2602,-810 815,-39 1396,-433 1982,-977 585,-544 1167,-1236 1975,-1842 806,-606 1306,-770 1782,-964 474,-194 929,-417 1692,-1159 1551,-1510 4038,-2359 4043,-2362l45 133z"/>
   <path class="fil0" d="M32467 35624c-79,-35 -277,-127 -531,-264 1313,-39 4469,86 5358,-1542 404,-740 92,-1391 704,-1878 776,-618 1709,85 2852,-604 566,-342 886,-845 1074,-1141 638,-1006 322,-1478 805,-1946 624,-604 1402,-58 2784,-436 461,-126 839,-314 1145,-510 -142,525 -403,988 -759,1274 -1013,816 -2420,-96 -3232,809 -628,700 4,1482 -599,2202 -929,1107 -3076,38 -3767,1025 -502,717 457,1528 36,2424 -620,1324 -3659,1581 -5870,587z"/>
   <path class="fil1" d="M30771 30105c-491,-1215 991,-2901 1154,-3086 850,-967 1368,-821 1708,-1560 580,-1258 -692,-2179 -193,-3259 547,-1185 2290,-538 3475,-1963 866,-1042 249,-1766 1154,-3086 596,-869 2022,-2246 3439,-1817 1449,438 2226,2564 1681,3746 -544,1181 -2210,991 -2535,2161 -251,906 663,1326 443,2239 -339,1405 -2738,1402 -2918,2594 -131,865 1089,1165 1111,2155 33,1461 -2575,3042 -4997,3136 -359,14 -2980,83 -3522,-1260z"/>
   <path class="fil0" d="M41232 16971c0,0 -28,29 -79,83 -360,381 -1846,2029 -2459,3778 -355,1016 -682,1447 -1027,1838 -344,390 -700,738 -1147,1625 -446,886 -658,1756 -944,2516 -285,757 -650,1410 -1403,1829 -717,398 -1414,1172 -1927,1845 -257,337 -469,649 -616,876 -73,114 -131,206 -170,270 -39,64 -59,99 -59,99l-121 -70c1,-1 335,-579 854,-1259 520,-681 1222,-1466 1971,-1883 713,-398 1057,-1008 1340,-1757 282,-747 496,-1626 950,-2528 453,-901 828,-1271 1167,-1656 339,-385 647,-787 1001,-1791 717,-2042 2567,-3909 2570,-3913l99 98z"/>
   <path class="fil0" d="M34293 31365c-86,4 -305,10 -593,-1 1159,-618 4041,-1910 4113,-3763 33,-843 -536,-1287 -205,-1996 421,-898 1569,-683 2286,-1809 355,-558 418,-1151 454,-1499 125,-1185 -369,-1468 -144,-2101 290,-818 1231,-676 2300,-1629 356,-318 612,-654 798,-966 106,533 78,1064 -113,1479 -544,1181 -2210,991 -2535,2161 -251,906 663,1326 443,2239 -339,1405 -2738,1402 -2918,2594 -131,865 1089,1164 1111,2155 33,1461 -2575,3042 -4997,3136z"/>
   <path class="fil1" d="M8272 24632c-1354,-246 -2018,-2509 -2091,-2757 -381,-1298 40,-1676 -425,-2393 -792,-1221 -2324,-610 -3002,-1659 -745,-1150 808,-2335 209,-4187 -439,-1354 -1427,-1213 -2091,-2757 -437,-1017 -859,-3057 318,-4074 1203,-1039 3526,-536 4269,612 743,1146 -361,2518 496,3464 663,732 1548,156 2236,865 1056,1089 -294,3217 663,4047 694,602 1645,-313 2537,223 1316,792 1255,3995 -22,6197 -190,327 -1600,2692 -3097,2419z"/>
   <path class="fil0" d="M2486 7970c0,1 9,42 29,118 136,534 764,2778 1973,4305 702,886 901,1418 1053,1943 154,524 263,1036 800,1932 520,866 1150,1529 1655,2188 505,659 887,1319 887,2170 0,54 -1,108 -4,163 -4,63 -6,127 -6,192 0,855 297,1860 596,2648 149,394 299,734 410,975 56,121 103,217 136,283 32,65 50,100 50,101l-123 64c-1,-1 -302,-578 -604,-1374 -301,-796 -604,-1810 -605,-2697 0,-67 2,-134 6,-200 3,-52 4,-104 4,-155 0,-806 -359,-1433 -858,-2085 -498,-650 -1135,-1320 -1664,-2201 -545,-908 -663,-1447 -814,-1965 -151,-517 -335,-1018 -1029,-1895 -1408,-1783 -2027,-4474 -2029,-4478l137 -32z"/>
   <path class="fil0" d="M11369 22213c-46,79 -163,277 -334,527 102,-1376 574,-4660 -1031,-5765 -730,-503 -1444,-247 -1886,-939 -561,-878 274,-1777 -323,-3046 -295,-628 -787,-1017 -1075,-1245 -982,-776 -1510,-496 -1946,-1051 -564,-718 91,-1472 -155,-2957 -81,-495 -237,-910 -409,-1251 533,205 989,528 1249,931 743,1146 -361,2518 496,3464 663,732 1548,156 2236,865 1056,1089 -294,3217 663,4047 694,602 1645,-313 2537,223 1316,792 1255,3995 -22,6197z"/>
   <path class="fil2" d="M10501 16944c193,115 283,310 168,550 -316,658 -873,3446 -1294,3774 -477,372 -2144,307 -2948,306l-185 -465c0,0 2008,-574 2495,-527 0,0 605,-4325 1764,-3638z"/>
   <path class="fil3" d="M8989 17829c-270,777 -241,1638 -241,1638 0,0 1043,428 1587,236l452 -2239c159,-398 -821,-44 -821,-44 -427,-306 -804,-87 -977,409z"/>
   <path class="fil2" d="M5671 21059c0,0 -1007,179 -1015,266 -8,87 -28,920 -28,920 0,0 245,38 445,-690 0,0 955,280 1595,18l-282 -485 -715 -29z"/>
   <path class="fil4" d="M11196 42881l23040 0c331,0 599,-268 599,-599l0 -41683c0,-331 -268,-599 -599,-599l-23040 0c-330,0 -598,268 -598,599l0 41683c0,331 268,599 598,599z"/>
   <polygon class="fil5" points="11713,40126 33720,40126 33720,1465 11713,1465 "/>
   <polygon class="fil6" points="32184,27974 26742,28874 28100,23940 30062,24735 31972,22519 "/>
   <polygon class="fil6" points="31335,21951 29585,23485 25447,21724 26773,19848 31389,19167 "/>
   <polygon class="fil6" points="26667,23940 23060,22064 21734,26156 25937,28411 "/>
   <path class="fil6" d="M24125 21677l1906 -3306 -3608 -3467c0,0 -3137,5282 -2978,5282 159,0 4680,1491 4680,1491z"/>
   <polygon class="fil6" points="27357,18485 31389,18087 32449,15530 28789,14961 26137,15586 "/>
   <polygon class="fil6" points="21893,21894 20885,25758 18869,26781 16694,27008 18498,21155 "/>
   <polygon class="fil6" points="24280,14904 28206,13995 32556,14507 32184,10756 26879,11665 22689,13882 "/>
   <polygon class="fil6" points="24516,11549 22021,13349 16262,10727 "/>
   <polygon class="fil6" points="20869,14891 18640,20032 17130,20237 15878,26303 12903,24093 13623,10367 "/>
   <polygon class="fil6" points="32147,28668 26964,29850 30064,36174 32429,36636 "/>
   <path class="fil6" d="M26100 30107c192,258 2832,6426 2832,6426 0,0 -8687,-257 -8255,-1131 432,-874 1008,-8225 1008,-8225l4415 2930z"/>
   <polygon class="fil6" points="32429,37767 32387,39001 24229,39001 26692,37304 30114,37202 "/>
   <path class="fil6" d="M20821 27486l-1103 5757 -5087 -1645c0,0 -1200,-3598 -1056,-3650 144,-51 7246,-462 7246,-462z"/>
   <polygon class="fil6" points="19141,34991 18566,38795 13815,39001 13431,32575 "/>
   <polygon class="fil6" points="20101,37875 20533,39719 24181,38711 25428,37308 "/>
   <polygon class="fil3" points="34952,2968 31444,2968 31489,8431 35013,8431 "/>
   <polygon class="fil7" points="31444,2968 27937,2968 27964,8431 31489,8431 "/>
   <polygon class="fil3" points="27937,2968 24430,2968 24439,8431 27964,8431 "/>
   <polygon class="fil7" points="24430,2968 20923,2968 20914,8431 24439,8431 "/>
   <polygon class="fil3" points="20923,2968 17416,2968 17389,8431 20914,8431 "/>
   <polygon class="fil7" points="17416,2968 13908,2968 13864,8431 17389,8431 "/>
   <polygon class="fil3" points="13908,2968 10401,2968 10339,8431 13864,8431 "/>
   <polygon class="fil8" points="33781,1402 30608,1402 31444,2968 34952,2968 "/>
   <polygon class="fil9" points="30608,1402 27436,1402 27937,2968 31444,2968 "/>
   <polygon class="fil8" points="27436,1402 24263,1402 24430,2968 27937,2968 "/>
   <polygon class="fil9" points="24263,1402 21090,1402 20923,2968 24430,2968 "/>
   <polygon class="fil8" points="21090,1402 17917,1402 17416,2968 20923,2968 "/>
   <polygon class="fil9" points="17917,1402 14744,1402 13908,2968 17416,2968 "/>
   <polygon class="fil8" points="14744,1402 11572,1402 10401,2968 13908,2968 "/>
   <path class="fil8" d="M33251 10193c-973,0 -1762,-789 -1762,-1762l3524 0c0,973 -789,1762 -1762,1762z"/>
   <path class="fil10" d="M29726 10193c-973,0 -1762,-789 -1762,-1762l3525 0c0,973 -790,1762 -1763,1762z"/>
   <path class="fil8" d="M26201 10193c-973,0 -1762,-789 -1762,-1762l3525 0c0,973 -789,1762 -1763,1762z"/>
   <path class="fil10" d="M22660 10177c-973,0 -1762,-789 -1762,-1762l3525 0c0,973 -790,1762 -1763,1762z"/>
   <path class="fil8" d="M19135 10177c-973,0 -1762,-789 -1762,-1762l3525 0c0,973 -789,1762 -1763,1762z"/>
   <path class="fil10" d="M15627 10193c-974,0 -1763,-789 -1763,-1762l3525 0c0,973 -789,1762 -1762,1762z"/>
   <path class="fil8" d="M12102 10193c-974,0 -1763,-789 -1763,-1762l3525 0c0,973 -789,1762 -1762,1762z"/>
   <path class="fil11" d="M30466 31252c371,0 672,-301 672,-672 0,-371 -301,-671 -672,-671 -371,0 -671,300 -671,671 0,371 300,672 671,672zm0 -2217c891,0 1612,722 1612,1612 0,891 -1612,2721 -1612,2721 0,0 -1612,-1830 -1612,-2721 0,-890 722,-1612 1612,-1612z"/>
   <path class="fil11" d="M19014 14074c371,0 672,-301 672,-672 0,-371 -301,-671 -672,-671 -371,0 -671,300 -671,671 0,371 300,672 671,672zm0 -2217c891,0 1613,722 1613,1613 0,890 -1613,2720 -1613,2720 0,0 -1612,-1830 -1612,-2720 0,-891 722,-1613 1612,-1613z"/>
   <path class="fil11" d="M29904 26876c-27,-140 -54,-276 -82,-409l136 -30c29,135 57,272 83,413l-137 26z"/>
   <path class="fil11" d="M29617 25628c-82,-293 -168,-566 -260,-821l132 -47c93,258 180,535 262,831l-134 37zm-585 -1617c-131,-279 -267,-530 -408,-755l119 -74c143,230 283,486 415,770l-126 59zm-915 -1443c-204,-234 -411,-427 -618,-585l85 -111c214,164 429,363 639,604l-106 92zm-1344 -1025c-269,-124 -537,-209 -806,-268l30 -137c277,62 556,150 834,278l-58 127zm-1654 -387c-286,-22 -574,-31 -863,-42l5 -140c289,12 578,20 868,43l-10 139zm-1733 -99c-285,-31 -572,-79 -862,-158l37 -135c281,77 561,124 841,154l-16 139zm-1681 -477c-153,-78 -306,-169 -459,-273 -97,-66 -189,-135 -278,-205l87 -110c86,69 176,135 269,199 149,102 297,189 445,265l-64 124zm-1370 -1088c-200,-230 -371,-470 -518,-708l119 -73c143,232 310,466 505,690l-106 91z"/>
   <path class="fil11" d="M19405 17999c-60,-136 -113,-267 -160,-391l131 -49c46,122 98,250 157,384l-128 56z"/>
   <path class="fil12" d="M73 39894c417,2060 2493,3380 4636,2949 2144,-432 3544,-2451 3127,-4511 -417,-2059 -2492,-3379 -4636,-2948 -2143,432 -3543,2451 -3127,4510z"/>
   <path class="fil13" d="M1438 39620c270,1335 1616,2191 3006,1911 1389,-279 2297,-1589 2027,-2924 -270,-1335 -1616,-2191 -3006,-1912 -1389,280 -2297,1589 -2027,2925z"/>
   <path class="fil14" d="M2718 39362c132,657 794,1077 1477,940 683,-138 1129,-781 996,-1438 -132,-656 -794,-1076 -1477,-939 -683,137 -1129,781 -996,1437z"/>
   <path class="fil15" d="M7770 38975c0,-1 0,-1 0,-2 0,1 0,1 0,2zm-1 -8c0,-1 0,-1 0,-2 0,1 0,1 0,2zm-2 -9c0,0 0,0 0,0l0 0zm-1 -7c0,-1 0,-2 0,-3 0,1 0,2 0,3zm-1 -8c0,-1 -1,-2 -1,-3 0,1 1,2 1,3zm-2 -7c0,-1 0,-2 0,-3 0,1 0,2 0,3zm-1 -10c-1,-1 -1,-2 -1,-3 0,1 0,2 1,3zm-2 -7c0,-1 0,-2 0,-3 0,1 0,2 0,3zm-1 -8c-1,0 -1,-1 -1,-2 0,1 1,2 1,2z"/>
   <path class="fil16" d="M7709 40255c199,-581 257,-1214 140,-1852 0,-1 0,-1 0,-1 0,-3 -1,-5 -1,-7 0,0 0,-1 0,-1 -1,-2 -1,-5 -2,-7l0 0c0,-3 -1,-5 -1,-7 0,-1 0,-2 -1,-3 0,-1 0,-3 0,-4 -1,-1 -1,-2 -1,-3 0,-2 0,-3 -1,-5 0,-1 0,-1 0,-2 -1,-2 -1,-5 -2,-7 0,-1 0,-2 0,-3 0,-1 -1,-2 -1,-4 0,-1 0,-2 0,-3 -1,-1 -1,-3 -1,-4 -1,-1 -1,-2 -1,-3 0,-2 -1,-4 -1,-7 -10,-50 -21,-99 -33,-148l-162 33 -367 -430 -43 23 -42 -121 -1290 -1508 -3000 -725c-1623,455 -2757,1840 -2886,3410l1378 249c15,-1146 861,-2175 2074,-2420 1390,-279 2736,577 3006,1912 98,486 41,969 -140,1400l1378 248z"/>
   <path class="fil17" d="M6331 40007c181,-431 238,-914 140,-1400 -270,-1335 -1616,-2191 -3006,-1912 -1213,245 -2059,1274 -2074,2420l1325 239c-127,-654 318,-1292 998,-1429 683,-137 1345,283 1477,939 66,324 -9,645 -185,903l1325 240z"/>
   <path class="fil18" d="M5006 39767c176,-258 251,-579 185,-903 -132,-656 -794,-1076 -1477,-939 -680,137 -1125,775 -998,1429l2290 413z"/>
   <path class="fil12" d="M17630 39763c417,2098 2492,3607 4636,3372 2143,-236 3543,-2128 3127,-4226 -417,-2097 -2492,-3607 -4636,-3371 -2143,236 -3543,2127 -3127,4225z"/>
   <path class="fil13" d="M18995 39776c270,1354 1616,2298 3006,2110 1389,-189 2297,-1438 2027,-2791 -270,-1353 -1616,-2298 -3006,-2110 -1390,189 -2297,1438 -2027,2791z"/>
   <path class="fil14" d="M20275 39603c132,665 794,1129 1477,1037 683,-93 1129,-707 996,-1372 -133,-665 -794,-1129 -1477,-1037 -683,93 -1129,707 -996,1372z"/>
   <path class="fil19" d="M25454 39347c-8,-114 -20,-227 -38,-341l-5 1c19,114 34,227 43,340zm-221 -1008l11 -9c-66,-184 -146,-366 -241,-544l-14 15c94,172 176,352 244,538zm-479 -959c-95,-137 -198,-267 -307,-390l-36 5c113,123 218,252 315,388l28 -3z"/>
   <path class="fil20" d="M25411 39007l5 -1c-36,-226 -93,-453 -172,-676l-11 9c67,184 120,375 160,571 6,32 12,64 18,97z"/>
   <path class="fil20" d="M24989 37801l14 -15c-53,-98 -110,-195 -172,-291 -25,-39 -51,-78 -77,-115l-28 3c96,133 184,273 263,418z"/>
   <path class="fil19" d="M17652 40063c-8,-34 -15,-68 -22,-102 -4,-21 -8,-42 -12,-63l-2 0c11,55 23,110 36,165z"/>
   <path class="fil17" d="M24075 39530c-2,-143 -18,-289 -47,-435 -164,-822 -725,-1493 -1452,-1852 -545,-272 -1129,-346 -1752,-223 -502,110 -882,326 -1174,620 -549,531 -819,1314 -655,2136 26,129 61,255 106,376l1319 -165c-68,-117 -118,-246 -145,-384 -133,-665 313,-1279 996,-1372 683,-92 1345,372 1477,1037 30,147 31,291 7,427l1320 -165z"/>
   <path class="fil18" d="M22755 39695c24,-136 23,-280 -7,-427 -133,-665 -794,-1129 -1477,-1037 -683,93 -1129,707 -996,1372 27,138 77,267 145,384l2335 -292z"/>
   <polygon class="fil21" points="4785,24866 5438,22622 6078,22889 5812,25072 "/>
   <path class="fil7" d="M4607 24781l-1026 4222c-356,1208 -537,2272 -1609,2870 -1386,773 -808,2426 -808,2426l4656 2061 1742 2386 8530 0 1209 -3462 7459 0 1345 0 0 -2443c0,-5181 -4201,-5920 -9382,-5920l-1762 0 -2098 0 0 8753c-1539,684 -4786,1237 -4786,1237l-2596 -4998c-306,-587 -401,-1262 -270,-1911l800 -4990c31,-199 -107,-385 -307,-410l-705 -91c-180,-23 -349,93 -392,270z"/>
   <polygon class="fil4" points="16482,28221 16482,35202 7153,38257 7109,38124 16342,35101 16342,28221 "/>
   <polygon class="fil4" points="16457,33569 12822,33569 12822,33429 16457,33429 "/>
   <path class="fil12" d="M11862 37686l2727 -1957c154,-110 194,-318 89,-464 -105,-147 -315,-176 -469,-65l-2727 1956c-154,111 -194,318 -89,465 105,146 315,175 469,65z"/>
   <path class="fil3" d="M15362 36854l10706 0c262,0 475,-213 475,-476 0,-2724 -2208,-4932 -4932,-4932l-1792 0c-2724,0 -4932,2208 -4932,4932 0,263 213,476 475,476z"/>
   <polygon class="fil19" points="12858,28781 12863,28781 12863,28196 12858,28196 "/>
   <polygon class="fil22" points="12863,28781 16342,28781 16342,28221 16482,28221 16482,28781 20766,28781 20766,27294 20766,28196 12863,28196 "/>
   <polygon class="fil23" points="16342,28781 16482,28781 16482,28221 16342,28221 "/>
   <polygon class="fil3" points="10102,28196 20766,28196 20766,26709 10102,26709 "/>
   <polygon class="fil4" points="10102,27314 20766,27314 20766,26709 10102,26709 "/>
   <polygon class="fil4" points="18474,35312 24179,35312 24179,35072 18474,35072 "/>
   <polygon class="fil4" points="18474,34645 24179,34645 24179,34405 18474,34405 "/>
   <polygon class="fil4" points="18474,33979 24179,33979 24179,33739 18474,33739 "/>
   <polygon class="fil4" points="13578,31375 15453,31375 15453,31135 13578,31135 "/>
   <polygon class="fil4" points="13578,30709 15453,30709 15453,30469 13578,30469 "/>
   <polygon class="fil4" points="13578,30042 15453,30042 15453,29802 13578,29802 "/>
   <polygon class="fil21" points="3100,31055 3681,31055 3681,29660 3100,29660 "/>
   <polygon class="fil11" points="2532,31055 3113,31055 3113,29660 2532,29660 "/>
   <path class="fil24" d="M10102 28196l496 0 1075 0c369,-125 776,-272 1225,-434 453,-164 860,-312 1215,-448l-4011 0 0 882z"/>
   <path class="fil25" d="M10102 27314l0 0 4011 0c581,-223 1023,-416 1305,-605l-1194 0c-1591,241 -2987,397 -4122,459l0 146z"/>
   <path class="fil26" d="M6607 22916c0,0 338,-1224 -1218,-1520l-284 1453 1502 67z"/>
   <path class="fil26" d="M4949 22925c0,500 406,906 907,906 500,0 906,-406 906,-906 0,-501 -406,-907 -906,-907 -501,0 -907,406 -907,907z"/>
   <path class="fil4" d="M4988 20980c43,5 197,22 240,27 164,18 255,413 202,881 -52,468 -228,833 -392,815 -43,-5 -197,-23 -240,-27 -164,-19 -255,-413 -202,-882 52,-468 228,-833 392,-814z"/>
   <path class="fil6" d="M4596 21794c-53,469 10,860 139,875 129,14 277,-354 329,-822 53,-468 -9,-860 -139,-874 -129,-15 -277,353 -329,821z"/>
   <path class="fil12" d="M14592 21483c0,0 -4815,2536 -7075,4312 -2034,1598 1377,1758 7134,847 1145,-181 1306,-2731 738,-3741l-797 -1418z"/>
   <polygon class="fil2" points="13489,34584 13066,33887 12290,34429 12586,34834 13012,35343 "/>
   <path class="fil11" d="M13423 34491c0,0 639,411 798,831 0,0 -1001,765 -1714,1435 -713,671 -1450,529 -1047,-45 403,-573 1126,-1878 1126,-1878 0,0 436,490 837,-343z"/>
   <path class="fil27" d="M12578 35408l15 -16c-186,-168 -349,-73 -350,-73l11 19c6,-4 151,-87 324,70z"/>
   <path class="fil27" d="M12388 35658l14 -16c-185,-167 -348,-73 -349,-72l11 18c6,-3 151,-86 324,70z"/>
   <path class="fil27" d="M12743 35168l15 -16c-185,-168 -348,-74 -350,-73l11 19c6,-4 151,-87 324,70z"/>
   <path class="fil16" d="M12784 23831c211,0 434,-27 636,-86 994,-290 1400,-1635 1206,-1878 -25,-32 -62,-46 -109,-46 -250,0 -786,401 -1371,694 -349,250 -741,533 -1156,834 -43,69 -63,132 -51,187 39,183 416,295 845,295z"/>
   <path class="fil14" d="M11516 36631c196,53 373,232 499,302 228,129 1595,-1438 1595,-1438 38,-276 143,-514 231,-676 156,145 312,323 380,503 0,0 -1001,765 -1714,1435 -713,671 -1450,529 -1047,-45 18,-25 37,-53 56,-81z"/>
   <path class="fil12" d="M9837 26994c0,0 566,1059 1786,2986 1574,2487 2142,3609 2142,3609l-1283 1086c0,0 -2629,-2741 -3712,-4562 0,0 -1480,-2129 -1786,-3199 -276,-964 629,-258 1367,-781l1486 861z"/>
   <polygon class="fil28" points="15883,24533 22428,24532 22423,22336 15878,22337 "/>
   <polygon class="fil28" points="15616,23628 22693,23624 22689,22347 15612,22350 "/>
   <polygon class="fil4" points="19291,22329 19291,24519 19221,24519 19221,22329 "/>
   <path class="fil4" d="M19240 22339c0,0 -24,-79 -67,-198 -65,-179 -172,-447 -301,-669 -65,-111 -135,-210 -206,-279 -72,-70 -144,-109 -210,-109 -68,1 -119,27 -157,76 -37,48 -60,119 -60,207 -1,305 278,793 1046,1071l93 34 -93 32c-2,1 -361,125 -805,125 -293,0 -623,-54 -913,-235l37 -59c274,172 592,224 876,224 216,0 412,-30 554,-60 71,-16 128,-31 167,-42 40,-11 61,-19 61,-19l12 33 -12 33c-788,-285 -1092,-791 -1093,-1137 0,-99 25,-186 75,-250 49,-64 124,-103 212,-103 125,2 236,91 335,214 297,369 515,1089 516,1091l-67 20z"/>
   <path class="fil4" d="M19222 22319c1,-1 99,-322 251,-645 76,-161 166,-323 265,-446 100,-123 210,-212 335,-214 88,0 163,39 212,103 50,64 76,151 76,250 -1,346 -306,852 -1093,1137l-12 -33 11 -33c0,0 21,8 61,19 118,34 398,102 722,102 284,0 601,-52 876,-224l37 59c-290,181 -621,235 -913,235 -445,0 -803,-124 -806,-125l-93 -32 93 -34c769,-278 1047,-766 1047,-1071 0,-88 -23,-159 -61,-207 -38,-49 -89,-75 -157,-76 -88,-1 -186,70 -280,187 -141,175 -268,443 -359,666 -45,112 -81,213 -106,285 -25,73 -39,117 -39,117l-67 -20z"/>
   <polygon class="fil4" points="22424,23661 15892,23661 15892,23592 22424,23592 "/>
   <polygon class="fil28" points="16305,26715 22851,26713 22846,24518 16300,24519 "/>
   <polygon class="fil28" points="16043,25809 23120,25806 23116,24517 16039,24521 "/>
   <polygon class="fil4" points="19712,24520 19713,26701 19643,26701 19642,24520 "/>
   <polygon class="fil4" points="22846,25843 16315,25843 16315,25773 22846,25773 "/>
   <polygon class="fil29" points="16064,24521 16300,24521 16300,24519 19146,24519 16034,24519 "/>
   <polygon class="fil29" points="16300,24521 20830,24519 19146,24519 16300,24519 "/>
   <polygon class="fil29" points="23112,25062 23111,24519 20830,24519 16300,24521 16064,24521 19642,24795 19642,24520 19712,24520 19712,24801 "/>
   <polygon class="fil30" points="19712,24801 19712,24520 19642,24520 19642,24795 "/>
   <path class="fil4" d="M4958 23022c0,339 275,613 613,613 339,0 613,-274 613,-613 0,-338 -274,-613 -613,-613 -338,0 -613,275 -613,613z"/>
   <polygon class="fil4" points="5585,22849 6100,20480 5999,20351 5484,22721 "/>
   <path class="fil4" d="M5859 20401c0,597 190,1082 423,1082 234,0 423,-485 423,-1082 0,-597 -189,-1082 -423,-1082 -233,0 -422,485 -423,1082z"/>
   <path class="fil22" d="M5571 23635c339,0 613,-274 613,-613l0 0c0,339 -274,613 -613,613 -1,0 -2,0 -3,0 1,0 2,0 3,0zm-4 0c-1,0 -2,0 -3,0 1,0 2,0 3,0zm-4 0c-1,0 -2,0 -3,0 1,0 2,0 3,0zm-4 0c-1,0 -2,0 -2,0 0,0 1,0 2,0zm-5 0c0,0 -1,0 -1,0 0,0 1,0 1,0zm630 -613c0,-1 0,-2 0,-3 0,1 0,2 0,3zm0 -4c0,-1 0,-2 0,-3 0,1 0,2 0,3zm0 -4c0,-1 0,-2 0,-3 0,1 0,2 0,3zm0 -4c0,-1 0,-2 0,-3 0,1 0,2 0,3zm0 -5c0,0 0,-1 0,-1 0,0 0,1 0,1z"/>
   <path class="fil23" d="M5571 23635c339,0 613,-274 613,-613l0 0c0,-1 0,-2 0,-3 0,-1 0,-1 0,-1 0,-1 0,-2 0,-3 0,-1 0,-1 0,-1 0,-1 0,-2 0,-3 0,0 0,-1 0,-1 0,-1 0,-2 0,-3 0,0 0,-1 0,-2 0,0 0,-1 0,-1 -6,-212 -121,-395 -289,-501 59,94 94,205 94,324 0,338 -274,613 -613,613 -119,0 -230,-35 -324,-94 106,168 289,283 501,289 0,0 1,0 1,0 1,0 2,0 3,0 0,0 1,0 2,0 0,0 1,0 1,0 1,0 2,0 3,0 0,0 0,0 1,0 1,0 2,0 3,0 0,0 0,0 1,0 1,0 2,0 3,0z"/>
   <path class="fil3" d="M6579 20401c0,-500 -137,-919 -323,-1043 36,-25 74,-39 113,-39 242,0 437,485 437,1082 0,597 -195,1082 -437,1082 -39,0 -77,-15 -113,-39 186,-124 323,-543 323,-1043z"/>
   <path class="fil4" d="M5859 20401c0,597 190,1082 423,1082 234,0 423,-485 423,-1082 0,-597 -189,-1082 -423,-1082 -233,0 -422,485 -423,1082z"/>
   <path class="fil2" d="M9094 18271c0,0 1,-1127 -70,-1307 -173,-441 -371,-885 -675,-1127l-233 -1677c0,0 982,831 1874,1849 282,323 558,344 726,340 365,-8 769,1998 -1072,2004l-23 -1c-371,-3 -58,167 -527,-81z"/>
   <path class="fil31" d="M9059 17115l-6 -26c-5,-44 -13,-86 -29,-125 -65,-167 -135,-335 -212,-492l329 -795c0,0 395,913 -82,1438z"/>
   <path class="fil3" d="M9105 18870c0,0 -122,-1401 -15,-1570 787,-455 987,-1209 987,-1209 488,-151 1530,641 1652,747 1362,1170 2627,4493 3333,5082 50,43 -1927,1860 -3448,1822 -430,-10 -626,-258 -626,-258 -379,-1059 -599,-1434 -995,-2076 -794,-1285 -889,-2537 -888,-2538z"/>
   <path class="fil32" d="M7139 14850c0,0 5,2215 984,2065 1210,-185 1517,-1950 1504,-2911 -6,-459 -440,-583 -886,-691 -693,-169 -1622,277 -1602,1537z"/>
   <path class="fil12" d="M7397 13698c247,-453 914,-768 1621,-712 707,56 1162,558 1220,1216 95,1070 -738,1276 -738,1276 0,0 -764,84 -1196,-1224 -1013,290 -1154,-103 -907,-556z"/>
   <path class="fil32" d="M7179 14937c0,0 -79,502 -152,684 -72,182 -2,317 325,302l-173 -986z"/>
   <path class="fil27" d="M7660 16048c229,0 404,-243 406,-246l-18 -12c-2,3 -222,308 -484,221l-7 20c35,12 70,17 103,17z"/>
   <path class="fil2" d="M9681 15612c-135,206 -371,290 -529,187 -157,-103 -176,-354 -42,-560 135,-206 372,-289 530,-186 157,103 176,353 41,559z"/>
   <path class="fil2" d="M11685 17344c228,135 334,365 198,649 -372,776 -1028,4063 -1525,4449 -562,438 -2528,362 -3476,360l-218 -548c0,0 2368,-676 2942,-621 0,0 714,-5099 2079,-4289z"/>
   <path class="fil3" d="M10487 17522c-318,916 -869,2796 -869,2796 0,0 1231,505 1871,278l534 -2639c187,-469 -385,-917 -385,-917 -503,-361 -948,-103 -1151,482z"/>
   <path class="fil3" d="M7157 15086c0,0 121,458 340,616 219,158 553,-9 719,170 0,0 3,953 -507,925 -1189,-64 -552,-1711 -552,-1711z"/>
   <path class="fil33" d="M7658 16459c325,18 441,-363 483,-641 28,13 53,30 75,54 0,0 3,953 -507,925 -562,-30 -714,-415 -721,-811 82,253 273,452 670,473z"/>
   <path class="fil3" d="M7953 15934c735,-201 1360,-876 1366,-883l-48 -43c-6,6 -618,668 -1335,864l17 62z"/>
   <path class="fil2" d="M5991 22195c0,0 -1187,211 -1197,314 -9,103 -33,1084 -33,1084 0,0 290,45 526,-813 0,0 1125,330 1879,21l-332 -572 -843 -34z"/>
   <path class="fil7" d="M7064 13879c125,-249 666,-996 1706,-996 978,0 1445,467 1529,1292 137,1341 -788,1575 -788,1575 0,0 -371,-112 -891,-1762 -1123,334 -1838,455 -1556,-109z"/>
   <path class="fil9" d="M8584 13732c0,0 -1973,493 -2040,693 -119,358 859,-141 2076,-437l-36 -256z"/>
   <path class="fil26" d="M9309 14504c-121,193 -62,448 131,569 193,120 448,62 569,-132 121,-193 62,-447 -131,-568 -194,-121 -448,-62 -569,131z"/>
   <path class="fil27" d="M9309 14504l15 9c-41,66 -60,138 -60,209 0,132 66,261 185,336 66,40 138,60 209,60 132,0 261,-66 336,-186 41,-65 60,-137 60,-209 0,-132 -66,-260 -186,-335 -65,-41 -137,-60 -209,-60 -131,0 -260,65 -335,185l-15 -9 -15 -9c82,-131 222,-202 365,-202 78,0 157,21 228,65 130,82 202,222 202,365 0,78 -21,157 -66,228 -81,130 -221,202 -365,202 -77,0 -156,-21 -227,-66 -131,-81 -202,-221 -202,-365 0,-78 21,-156 65,-227l15 9z"/>
   <path class="fil9" d="M8726 13305c45,138 -26,288 -161,342 -1061,421 -1349,437 -1394,356 -59,-105 274,-407 471,-551 274,-200 556,-290 772,-332 136,-27 269,54 312,185z"/>
   <polygon class="fil3" points="6553,37746 1097,34299 1008,33694 5229,33588 5798,34192 7353,37782 "/>
   <polygon class="fil4" points="24676,36840 26720,36840 26720,35063 24676,35063 "/>
   <path class="fil4" d="M3994 25462c77,9 356,40 433,49 298,33 461,747 366,1595 -95,847 -413,1507 -710,1474 -77,-9 -356,-40 -433,-49 -298,-33 -462,-747 -367,-1595 96,-847 414,-1507 711,-1474z"/>
   <path class="fil6" d="M3283 26936c-95,848 18,1556 252,1582 234,27 501,-639 596,-1487 95,-847 -17,-1555 -251,-1582 -235,-26 -501,640 -597,1487z"/>
   <path class="fil27" d="M12146 18113l-643 2499 -11 2c-1,0 -178,22 -437,22 -351,0 -856,-41 -1279,-237l-13 -6 696 -3017 34 8 -693 3003 -17 -4 8 -16c415,193 915,234 1264,234 129,0 237,-5 313,-11 76,-5 119,-11 119,-11l2 17 -17 -4 640 -2488 34 9z"/>
   <path class="fil34" d="M18172 30593c0,309 1074,560 2399,560 1325,0 2399,-251 2399,-560 0,-309 -1074,-560 -2399,-560 -1325,0 -2399,251 -2399,560z"/>
   <path class="fil35" d="M1387 33316c161,143 535,-16 834,-356 299,-339 411,-729 249,-872 -162,-143 -536,16 -835,355 -299,339 -410,730 -248,873z"/>
   <path class="fil3" d="M3446 26549c-53,478 10,878 143,893 132,15 282,-361 336,-840 54,-478 -10,-878 -142,-893 -132,-15 -283,361 -337,840z"/>
   <path class="fil3" d="M4649 21712c-28,253 6,464 76,472 69,8 149,-191 177,-444 29,-253 -5,-464 -75,-472 -70,-8 -149,191 -178,444z"/>
   <path class="fil3" d="M3638 27731c-20,180 4,330 54,336 50,6 106,-136 127,-316 20,-180 -4,-330 -54,-336 -50,-5 -106,136 -127,316z"/>
   <path class="fil27" d="M9124 17996c0,1 9,235 27,549 19,314 49,708 91,1026l-35 5c-84,-639 -118,-1578 -118,-1579l35 -1z"/>
  </g>
 </g>
</svg>
