<?xml version="1.0" encoding="UTF-8"?>
<!DOCTYPE svg PUBLIC "-//W3C//DTD SVG 1.1//EN" "http://www.w3.org/Graphics/SVG/1.1/DTD/svg11.dtd">
<!-- Creator: CorelDRAW X7 -->
<svg xmlns="http://www.w3.org/2000/svg" xml:space="preserve" width="131.533mm" height="61.8327mm" version="1.1" style="shape-rendering:geometricPrecision; text-rendering:geometricPrecision; image-rendering:optimizeQuality; fill-rule:evenodd; clip-rule:evenodd"
viewBox="0 0 14202 6676"
 xmlns:xlink="http://www.w3.org/1999/xlink">
 <defs>
  <style type="text/css">
   <![CDATA[
    .fil17 {fill:#2B2A29}
    .fil12 {fill:#2E3552}
    .fil15 {fill:#699FF0}
    .fil13 {fill:#A8D29F}
    .fil5 {fill:#ADC9E0}
    .fil11 {fill:#B6CFE5}
    .fil1 {fill:#C4D9ED}
    .fil10 {fill:#C6DBEE}
    .fil4 {fill:#C7DCEF}
    .fil9 {fill:#CEE1F3}
    .fil2 {fill:#D5E7F7}
    .fil3 {fill:#DCEAF9}
    .fil8 {fill:#DDE9F8}
    .fil16 {fill:#E5BCA1}
    .fil7 {fill:#E7F0F8}
    .fil6 {fill:#EBF2F9}
    .fil0 {fill:#EDF4FF}
    .fil14 {fill:#F99746}
   ]]>
  </style>
 </defs>
 <g id="Layer_x0020_1">
  <metadata id="CorelCorpID_0Corel-Layer"/>
  <g id="_547296624">
   <g>
    <path class="fil0" d="M14141 4893c0,29 -1,59 -3,88 -1,29 -2,58 -5,87 -8,124 -23,246 -43,361 -6,35 -12,69 -19,102 -1,8 -3,16 -4,23l-2 4c-4,21 -8,41 -12,62 -8,35 -17,71 -25,106 -2,6 -4,12 -5,19 -23,91 -48,176 -74,256 -4,14 -8,27 -13,40 -11,35 -23,69 -34,101 -9,24 -17,47 -25,68 -44,118 -87,215 -122,289 -32,69 -59,126 -73,155 -6,13 -10,20 -10,20 0,0 -6717,2 -10425,2 -1414,0 -2390,0 -2390,0 0,0 0,0 0,0 -9,-7 -17,-13 -25,-20 0,0 0,0 0,0 -4,-3 -8,-5 -11,-8l-176 -191c-39,-55 -70,-114 -94,-175 -47,-114 -69,-238 -69,-367 0,-6 0,-12 0,-19 0,-12 1,-24 1,-35 0,-11 1,-21 2,-31 3,-38 7,-75 13,-113 0,-1 0,-2 0,-3 2,-7 3,-13 4,-20 1,-8 3,-16 4,-24 6,-27 12,-55 20,-84 1,-6 3,-13 5,-20 2,-8 4,-15 7,-23 7,-25 15,-50 23,-75 17,-49 36,-97 58,-147 1,-3 3,-7 5,-11 20,-44 42,-88 65,-132 36,-67 77,-133 121,-198 10,-14 19,-28 29,-41 49,-70 103,-139 162,-206 71,-82 148,-162 232,-240 19,-17 37,-34 56,-51 4,-4 9,-8 13,-12 11,-9 22,-19 33,-28 46,-40 90,-77 135,-114 22,-18 44,-35 66,-53 43,-34 85,-68 125,-101 123,-101 232,-196 318,-304 29,-36 56,-74 80,-113 43,-73 76,-151 98,-239 5,-23 9,-46 13,-69 11,-64 16,-134 15,-211 -1,-59 -6,-124 -15,-193 -2,-15 -4,-30 -7,-46 -12,-85 -32,-178 -58,-279 -7,-29 -15,-58 -23,-87 -15,-52 -26,-103 -35,-152 -18,-97 -25,-190 -24,-280 0,-82 8,-161 24,-237l0 -2c13,-72 32,-142 56,-210 290,-826 1278,-1313 1540,-1422 374,-156 817,-243 1277,-275 37,-3 75,-5 112,-7 106,-6 214,-8 320,-8 44,0 87,1 130,1 72,2 143,4 216,9 66,3 132,8 198,13 274,23 541,62 790,114 226,47 429,107 615,175 0,0 0,0 0,1 438,161 769,373 1033,593 61,51 119,102 174,154 7,6 15,14 22,21 17,16 33,31 50,48 7,7 15,14 22,22 48,47 94,95 138,142 22,24 43,47 65,70 115,127 216,246 313,349 13,13 25,25 37,38 166,169 321,285 510,297 119,8 257,-12 413,-42 16,-3 31,-6 47,-10 239,-48 518,-116 827,-144 400,-37 853,-8 1341,214 16,7 31,14 47,22 71,34 144,72 216,115 15,9 31,18 46,27 74,46 149,96 224,152 2,1 4,2 6,4 33,23 65,49 98,75 38,30 77,62 116,95 93,81 188,169 283,267 69,71 134,143 192,215 40,50 79,100 114,151 6,9 12,18 19,27 61,89 115,179 164,269 5,11 11,22 17,33 64,125 117,250 158,375 4,11 8,21 11,32 18,56 34,112 49,169 19,77 35,153 48,229 32,195 44,386 40,571z"/>
    <path class="fil1" d="M3021 1924l0 4136 -851 0 0 -2651c11,-64 16,-134 15,-211 -1,-59 -6,-124 -15,-193l0 -1081 851 0z"/>
    <path class="fil2" d="M2829 1924l0 4136 -850 0 0 -2230c29,-36 56,-74 80,-113 43,-73 76,-151 98,-239 5,-23 9,-46 13,-69 11,-64 16,-134 15,-211 -1,-59 -6,-124 -15,-193 -2,-15 -4,-30 -7,-46 -12,-85 -32,-178 -58,-279 -7,-29 -15,-58 -23,-87 -15,-52 -26,-103 -35,-152 -18,-97 -25,-190 -24,-280 0,-82 8,-161 24,-237l782 0z"/>
    <path class="fil1" d="M2047 1924c-16,76 -24,155 -24,237l147 0 659 0 0 -237 0 -2 -782 0 0 2z"/>
    <path class="fil1" d="M2829 2441l0 239 -724 0c-7,-29 -15,-58 -23,-87 -15,-52 -26,-103 -35,-152l782 0z"/>
    <path class="fil1" d="M2829 2959l0 239 -644 0c-1,-59 -6,-124 -15,-193 -2,-15 -4,-30 -7,-46l666 0z"/>
    <path class="fil1" d="M2829 3478l0 239 -770 0c43,-73 76,-151 98,-239l672 0z"/>
    <polygon class="fil1" points="2829,4235 1979,4235 1979,3996 2829,3996 "/>
    <polygon class="fil1" points="2829,4753 1979,4753 1979,4514 2829,4514 "/>
    <polygon class="fil1" points="2829,5272 1979,5272 1979,5033 2829,5033 "/>
    <polygon class="fil1" points="2829,5790 1979,5790 1979,5551 2829,5551 "/>
    <path class="fil1" d="M1661 4134l0 1926 -851 0 0 -1080c10,-14 19,-28 29,-41 49,-70 103,-139 162,-206 71,-82 148,-162 232,-240 19,-17 37,-34 56,-51 4,-4 9,-8 13,-12 11,-9 22,-19 33,-28 46,-40 90,-77 135,-114 22,-18 44,-35 66,-53 43,-34 85,-68 125,-101z"/>
    <path class="fil2" d="M1470 4288l0 1772 -851 0 0 -739c1,-3 3,-7 5,-11 20,-44 42,-88 65,-132 36,-67 77,-133 121,-198 10,-14 19,-28 29,-41 49,-70 103,-139 162,-206 71,-82 148,-162 232,-240 19,-17 37,-34 56,-51 4,-4 9,-8 13,-12 11,-9 22,-19 33,-28 46,-40 90,-77 135,-114z"/>
    <path class="fil1" d="M1470 4288l0 205 -237 0c19,-17 37,-34 56,-51 4,-4 9,-8 13,-12 11,-9 22,-19 33,-28 46,-40 90,-77 135,-114z"/>
    <path class="fil1" d="M1470 4733l0 206 -631 0c49,-70 103,-139 162,-206l469 0z"/>
    <path class="fil1" d="M1470 5178l0 205 -851 0 0 -62c1,-3 3,-7 5,-11 20,-44 42,-88 65,-132l781 0z"/>
    <polygon class="fil1" points="1470,5828 619,5828 619,5623 1470,5623 "/>
    <polygon class="fil3" points="3481,6452 3125,6452 3125,5933 3481,5933 "/>
    <polygon class="fil2" points="8366,3869 8366,3548 8268,3548 8268,2996 7746,2996 7746,3548 7258,3548 7258,2649 6719,2649 6719,3232 6596,3232 6596,2536 6058,2536 6058,3842 5377,3842 5377,4603 5122,4603 5122,4795 4537,4795 4537,4465 4202,4465 4202,3567 3787,3567 3787,5224 3372,5224 3372,6667 3787,6667 4142,6667 4202,6667 4537,6667 4727,6667 5031,6667 5122,6667 5377,6667 5616,6667 6058,6667 6193,6667 6463,6667 6596,6667 6719,6667 7001,6667 7193,6667 7258,6667 7746,6667 8260,6667 8268,6667 8366,6667 8782,6667 8782,3869 "/>
    <polygon class="fil1" points="6596,2757 6057,2757 6057,2624 6596,2624 "/>
    <polygon class="fil1" points="6596,3007 6057,3007 6057,2874 6596,2874 "/>
    <polygon class="fil1" points="6596,3232 6057,3232 6057,3099 6596,3099 "/>
    <polygon class="fil1" points="7258,3232 6719,3232 6719,3099 7258,3099 "/>
    <polygon class="fil1" points="7258,3007 6719,3007 6719,2874 7258,2874 "/>
    <polygon class="fil1" points="7258,2782 6719,2782 6719,2649 7258,2649 "/>
    <polygon class="fil1" points="7258,3450 6057,3450 6057,3317 7258,3317 "/>
    <polygon class="fil1" points="7258,3668 6057,3668 6057,3535 7258,3535 "/>
    <polygon class="fil1" points="4205,3773 3787,3773 3787,3567 4205,3567 "/>
    <polygon class="fil1" points="4205,4078 3787,4078 3787,3873 4205,3873 "/>
    <polygon class="fil1" points="4205,4384 3787,4384 3787,4178 4205,4178 "/>
    <polygon class="fil1" points="4205,4704 3787,4704 3787,4498 4205,4498 "/>
    <polygon class="fil1" points="4205,5014 3787,5014 3787,4809 4205,4809 "/>
    <polygon class="fil1" points="4205,5324 3787,5324 3787,5119 4205,5119 "/>
    <polygon class="fil1" points="4205,5649 3787,5649 3787,5444 4205,5444 "/>
    <polygon class="fil1" points="7258,3833 6057,3833 6057,3748 7258,3748 "/>
    <polygon class="fil1" points="4200,3567 4200,4465 4354,4465 4354,3567 "/>
    <polygon class="fil1" points="4537,4465 4848,4465 4848,4795 4537,4795 "/>
    <polygon class="fil1" points="7258,2649 7365,2649 7365,3548 7258,3548 "/>
    <polygon class="fil1" points="6596,2536 6662,2536 6662,3232 6596,3232 "/>
    <polygon class="fil4" points="5488,3973 5579,3973 5579,4102 5488,4102 "/>
    <polygon class="fil4" points="5750,4102 5659,4102 5659,3973 5750,3973 "/>
    <polygon class="fil4" points="5917,4102 5826,4102 5826,3973 5917,3973 "/>
    <polygon class="fil4" points="6075,4102 5984,4102 5984,3973 6075,3973 "/>
    <polygon class="fil4" points="6236,4102 6145,4102 6145,3973 6236,3973 "/>
    <polygon class="fil4" points="6400,4102 6308,4102 6308,3973 6400,3973 "/>
    <polygon class="fil4" points="6570,4102 6479,4102 6479,3973 6570,3973 "/>
    <polygon class="fil4" points="6737,4102 6646,4102 6646,3973 6737,3973 "/>
    <polygon class="fil4" points="6896,4102 6804,4102 6804,3973 6896,3973 "/>
    <polygon class="fil4" points="7057,4102 6966,4102 6966,3973 7057,3973 "/>
    <polygon class="fil4" points="7225,4102 7134,4102 7134,3973 7225,3973 "/>
    <polygon class="fil4" points="7396,4102 7305,4102 7305,3973 7396,3973 "/>
    <polygon class="fil4" points="7563,4102 7472,4102 7472,3973 7563,3973 "/>
    <polygon class="fil4" points="7721,4102 7630,4102 7630,3973 7721,3973 "/>
    <polygon class="fil4" points="7882,4102 7791,4102 7791,3973 7882,3973 "/>
    <polygon class="fil4" points="8046,4102 7954,4102 7954,3973 8046,3973 "/>
    <polygon class="fil4" points="8216,4102 8125,4102 8125,3973 8216,3973 "/>
    <polygon class="fil4" points="8383,4102 8292,4102 8292,3973 8383,3973 "/>
    <polygon class="fil4" points="8542,4102 8450,4102 8450,3973 8542,3973 "/>
    <polygon class="fil4" points="8703,4102 8612,4102 8612,3973 8703,3973 "/>
    <polygon class="fil4" points="5579,4329 5488,4329 5488,4200 5579,4200 "/>
    <polygon class="fil4" points="5750,4329 5659,4329 5659,4200 5750,4200 "/>
    <polygon class="fil4" points="5917,4329 5826,4329 5826,4200 5917,4200 "/>
    <polygon class="fil4" points="6075,4329 5984,4329 5984,4200 6075,4200 "/>
    <polygon class="fil4" points="6236,4329 6145,4329 6145,4200 6236,4200 "/>
    <polygon class="fil4" points="6400,4329 6308,4329 6308,4200 6400,4200 "/>
    <polygon class="fil4" points="6570,4329 6479,4329 6479,4200 6570,4200 "/>
    <polygon class="fil4" points="6737,4329 6646,4329 6646,4200 6737,4200 "/>
    <polygon class="fil4" points="6896,4329 6804,4329 6804,4200 6896,4200 "/>
    <polygon class="fil4" points="7057,4329 6966,4329 6966,4200 7057,4200 "/>
    <polygon class="fil4" points="7225,4329 7134,4329 7134,4200 7225,4200 "/>
    <polygon class="fil4" points="7396,4329 7305,4329 7305,4200 7396,4200 "/>
    <polygon class="fil4" points="7563,4329 7472,4329 7472,4200 7563,4200 "/>
    <polygon class="fil4" points="7721,4329 7630,4329 7630,4200 7721,4200 "/>
    <polygon class="fil4" points="7882,4329 7791,4329 7791,4200 7882,4200 "/>
    <polygon class="fil4" points="8046,4329 7954,4329 7954,4200 8046,4200 "/>
    <polygon class="fil4" points="8216,4329 8125,4329 8125,4200 8216,4200 "/>
    <polygon class="fil4" points="8383,4329 8292,4329 8292,4200 8383,4200 "/>
    <polygon class="fil4" points="8542,4329 8450,4329 8450,4200 8542,4200 "/>
    <polygon class="fil4" points="8703,4329 8612,4329 8612,4200 8703,4200 "/>
    <polygon class="fil4" points="5579,4552 5488,4552 5488,4424 5579,4424 "/>
    <polygon class="fil4" points="5750,4552 5659,4552 5659,4424 5750,4424 "/>
    <polygon class="fil4" points="5917,4552 5826,4552 5826,4424 5917,4424 "/>
    <polygon class="fil4" points="6075,4552 5984,4552 5984,4424 6075,4424 "/>
    <polygon class="fil4" points="6236,4552 6145,4552 6145,4424 6236,4424 "/>
    <polygon class="fil4" points="6400,4552 6308,4552 6308,4424 6400,4424 "/>
    <polygon class="fil4" points="6570,4552 6479,4552 6479,4424 6570,4424 "/>
    <polygon class="fil4" points="6737,4552 6646,4552 6646,4424 6737,4424 "/>
    <polygon class="fil4" points="6896,4552 6804,4552 6804,4424 6896,4424 "/>
    <polygon class="fil4" points="7057,4552 6966,4552 6966,4424 7057,4424 "/>
    <polygon class="fil4" points="7225,4552 7134,4552 7134,4424 7225,4424 "/>
    <polygon class="fil4" points="7396,4552 7305,4552 7305,4424 7396,4424 "/>
    <polygon class="fil4" points="7563,4552 7472,4552 7472,4424 7563,4424 "/>
    <polygon class="fil4" points="7721,4552 7630,4552 7630,4424 7721,4424 "/>
    <polygon class="fil4" points="7882,4552 7791,4552 7791,4424 7882,4424 "/>
    <polygon class="fil4" points="8046,4552 7954,4552 7954,4424 8046,4424 "/>
    <polygon class="fil4" points="8216,4552 8125,4552 8125,4424 8216,4424 "/>
    <polygon class="fil4" points="8383,4552 8292,4552 8292,4424 8383,4424 "/>
    <polygon class="fil4" points="8542,4552 8450,4552 8450,4424 8542,4424 "/>
    <polygon class="fil4" points="8703,4552 8612,4552 8612,4424 8703,4424 "/>
    <polygon class="fil4" points="5579,4790 5488,4790 5488,4661 5579,4661 "/>
    <polygon class="fil4" points="5750,4790 5659,4790 5659,4661 5750,4661 "/>
    <polygon class="fil4" points="5917,4790 5826,4790 5826,4661 5917,4661 "/>
    <polygon class="fil4" points="6075,4790 5984,4790 5984,4661 6075,4661 "/>
    <polygon class="fil4" points="6236,4790 6145,4790 6145,4661 6236,4661 "/>
    <polygon class="fil4" points="6400,4790 6308,4790 6308,4661 6400,4661 "/>
    <polygon class="fil4" points="6570,4790 6479,4790 6479,4661 6570,4661 "/>
    <polygon class="fil4" points="6737,4790 6646,4790 6646,4661 6737,4661 "/>
    <polygon class="fil4" points="6896,4790 6804,4790 6804,4661 6896,4661 "/>
    <polygon class="fil4" points="7057,4790 6966,4790 6966,4661 7057,4661 "/>
    <polygon class="fil4" points="7225,4790 7134,4790 7134,4661 7225,4661 "/>
    <polygon class="fil4" points="7396,4790 7305,4790 7305,4661 7396,4661 "/>
    <polygon class="fil4" points="7563,4790 7472,4790 7472,4661 7563,4661 "/>
    <polygon class="fil4" points="7721,4790 7630,4790 7630,4661 7721,4661 "/>
    <polygon class="fil4" points="7882,4790 7791,4790 7791,4661 7882,4661 "/>
    <polygon class="fil4" points="8046,4790 7954,4790 7954,4661 8046,4661 "/>
    <polygon class="fil4" points="8216,4790 8125,4790 8125,4661 8216,4661 "/>
    <polygon class="fil4" points="8383,4790 8292,4790 8292,4661 8383,4661 "/>
    <polygon class="fil4" points="8542,4790 8450,4790 8450,4661 8542,4661 "/>
    <polygon class="fil4" points="8703,4790 8612,4790 8612,4661 8703,4661 "/>
    <polygon class="fil4" points="5579,5017 5488,5017 5488,4888 5579,4888 "/>
    <polygon class="fil4" points="5750,5017 5659,5017 5659,4888 5750,4888 "/>
    <polygon class="fil4" points="5917,5017 5826,5017 5826,4888 5917,4888 "/>
    <polygon class="fil4" points="6075,5017 5984,5017 5984,4888 6075,4888 "/>
    <polygon class="fil4" points="6236,5017 6145,5017 6145,4888 6236,4888 "/>
    <polygon class="fil4" points="6400,5017 6308,5017 6308,4888 6400,4888 "/>
    <polygon class="fil4" points="6570,5017 6479,5017 6479,4888 6570,4888 "/>
    <polygon class="fil4" points="6737,5017 6646,5017 6646,4888 6737,4888 "/>
    <polygon class="fil4" points="6896,5017 6804,5017 6804,4888 6896,4888 "/>
    <polygon class="fil4" points="7057,5017 6966,5017 6966,4888 7057,4888 "/>
    <polygon class="fil4" points="7225,5017 7134,5017 7134,4888 7225,4888 "/>
    <polygon class="fil4" points="7396,5017 7305,5017 7305,4888 7396,4888 "/>
    <polygon class="fil4" points="7563,5017 7472,5017 7472,4888 7563,4888 "/>
    <polygon class="fil4" points="7721,5017 7630,5017 7630,4888 7721,4888 "/>
    <polygon class="fil4" points="7882,5017 7791,5017 7791,4888 7882,4888 "/>
    <polygon class="fil4" points="8046,5017 7954,5017 7954,4888 8046,4888 "/>
    <polygon class="fil4" points="8216,5017 8125,5017 8125,4888 8216,4888 "/>
    <polygon class="fil4" points="8383,5017 8292,5017 8292,4888 8383,4888 "/>
    <polygon class="fil4" points="8542,5017 8450,5017 8450,4888 8542,4888 "/>
    <polygon class="fil4" points="8703,5017 8612,5017 8612,4888 8703,4888 "/>
    <polygon class="fil4" points="5579,5241 5488,5241 5488,5112 5579,5112 "/>
    <polygon class="fil4" points="5750,5241 5659,5241 5659,5112 5750,5112 "/>
    <polygon class="fil4" points="5917,5241 5826,5241 5826,5112 5917,5112 "/>
    <polygon class="fil4" points="6075,5241 5984,5241 5984,5112 6075,5112 "/>
    <polygon class="fil4" points="6236,5241 6145,5241 6145,5112 6236,5112 "/>
    <polygon class="fil4" points="6400,5241 6308,5241 6308,5112 6400,5112 "/>
    <polygon class="fil4" points="6570,5241 6479,5241 6479,5112 6570,5112 "/>
    <polygon class="fil4" points="6737,5241 6646,5241 6646,5112 6737,5112 "/>
    <polygon class="fil4" points="6896,5241 6804,5241 6804,5112 6896,5112 "/>
    <polygon class="fil4" points="7057,5241 6966,5241 6966,5112 7057,5112 "/>
    <polygon class="fil4" points="7225,5241 7134,5241 7134,5112 7225,5112 "/>
    <polygon class="fil4" points="7396,5241 7305,5241 7305,5112 7396,5112 "/>
    <path class="fil4" d="M7515 5241l-43 0 0 -129 91 0 0 118c-16,4 -32,7 -48,11z"/>
    <path class="fil4" d="M7630 5214l0 -102 91 0 0 79c-30,8 -61,16 -91,23z"/>
    <path class="fil4" d="M7791 5173l0 -61 91 0 0 38c-30,8 -60,16 -91,23z"/>
    <path class="fil4" d="M7954 5133l0 -21 92 0 0 1c-31,6 -61,13 -92,20z"/>
    <path class="fil4" d="M8703 5133c-18,-8 -37,-15 -56,-21l56 0 0 21z"/>
    <polygon class="fil1" points="6964,6657 4848,6657 4848,5515 6964,5515 "/>
    <polygon class="fil1" points="5359,6657 3243,6657 3243,6086 5359,6086 "/>
    <polygon class="fil1" points="9250,6657 7134,6657 7134,5693 9250,5693 "/>
    <polygon class="fil2" points="5383,5861 4989,5861 4989,5649 5383,5649 "/>
    <polygon class="fil2" points="5889,5861 5495,5861 5495,5649 5889,5649 "/>
    <polygon class="fil2" points="6386,5861 5992,5861 5992,5649 6386,5649 "/>
    <polygon class="fil2" points="6873,5861 6479,5861 6479,5649 6873,5649 "/>
    <polygon class="fil5" points="7145,6667 6942,6667 6942,5515 7145,5515 "/>
    <polygon class="fil5" points="9665,6667 9462,6667 9462,5293 9665,5293 "/>
    <polygon class="fil5" points="9468,6648 9250,6648 9250,5693 9468,5693 "/>
    <path class="fil3" d="M9087 5750c-6,15 -19,24 -31,20 -11,-4 -15,-20 -10,-35 6,-15 47,-64 47,-64 0,0 0,64 -6,79z"/>
    <path class="fil3" d="M8976 5377c-6,15 -19,24 -31,20 -11,-4 -15,-20 -10,-35 6,-15 47,-64 47,-64 0,0 0,64 -6,79z"/>
    <path class="fil3" d="M8551 5940c-6,15 -20,24 -31,19 -11,-4 -16,-19 -10,-35 6,-15 47,-63 47,-63 0,0 -1,63 -6,79z"/>
    <path class="fil6" d="M8902 6556c0,0 -39,84 37,90 76,7 122,-24 140,-61 0,0 -95,39 -80,-9 14,-47 51,-124 51,-124 0,0 -80,145 -120,138 -18,-3 -28,-34 -28,-34z"/>
    <polygon class="fil3" points="3881,3567 3870,3567 3870,3478 3881,3478 "/>
    <polygon class="fil3" points="4277,3567 4266,3567 4266,3478 4277,3478 "/>
    <polygon class="fil2" points="8304,6648 9468,6648 9468,5289 8304,5289 "/>
    <polygon class="fil2" points="9390,5293 9369,5293 9369,5017 9390,5017 "/>
    <polygon class="fil2" points="8304,6648 9757,6648 9757,5671 8304,5671 "/>
    <polygon class="fil1" points="8304,5861 9757,5861 9757,5543 8304,5543 "/>
    <polygon class="fil1" points="8477,6060 8403,6060 8403,5955 8477,5955 "/>
    <polygon class="fil1" points="8617,6060 8542,6060 8542,5955 8617,5955 "/>
    <polygon class="fil1" points="8753,6060 8679,6060 8679,5955 8753,5955 "/>
    <polygon class="fil1" points="8883,6060 8808,6060 8808,5955 8883,5955 "/>
    <polygon class="fil1" points="9014,6060 8940,6060 8940,5955 9014,5955 "/>
    <polygon class="fil1" points="9148,6060 9073,6060 9073,5955 9148,5955 "/>
    <polygon class="fil1" points="9287,6060 9213,6060 9213,5955 9287,5955 "/>
    <polygon class="fil1" points="9424,6060 9349,6060 9349,5955 9424,5955 "/>
    <polygon class="fil1" points="9553,6060 9479,6060 9479,5955 9553,5955 "/>
    <polygon class="fil1" points="9685,6060 9610,6060 9610,5955 9685,5955 "/>
    <polygon class="fil1" points="8477,6246 8403,6246 8403,6140 8477,6140 "/>
    <polygon class="fil1" points="8617,6246 8542,6246 8542,6140 8617,6140 "/>
    <polygon class="fil1" points="8753,6246 8679,6246 8679,6140 8753,6140 "/>
    <polygon class="fil1" points="8883,6246 8808,6246 8808,6140 8883,6140 "/>
    <polygon class="fil1" points="9014,6246 8940,6246 8940,6140 9014,6140 "/>
    <polygon class="fil1" points="9148,6246 9073,6246 9073,6140 9148,6140 "/>
    <polygon class="fil1" points="9287,6246 9213,6246 9213,6140 9287,6140 "/>
    <polygon class="fil1" points="9424,6246 9349,6246 9349,6140 9424,6140 "/>
    <polygon class="fil1" points="9553,6246 9479,6246 9479,6140 9553,6140 "/>
    <polygon class="fil1" points="9685,6246 9610,6246 9610,6140 9685,6140 "/>
    <polygon class="fil1" points="8477,6428 8403,6428 8403,6323 8477,6323 "/>
    <polygon class="fil1" points="8617,6428 8542,6428 8542,6323 8617,6323 "/>
    <polygon class="fil1" points="8753,6428 8679,6428 8679,6323 8753,6323 "/>
    <polygon class="fil1" points="8883,6428 8808,6428 8808,6323 8883,6323 "/>
    <polygon class="fil1" points="9014,6428 8940,6428 8940,6323 9014,6323 "/>
    <polygon class="fil1" points="9148,6428 9073,6428 9073,6323 9148,6323 "/>
    <polygon class="fil1" points="9287,6428 9213,6428 9213,6323 9287,6323 "/>
    <polygon class="fil1" points="9424,6428 9349,6428 9349,6323 9424,6323 "/>
    <polygon class="fil1" points="9553,6428 9479,6428 9479,6323 9553,6323 "/>
    <polygon class="fil1" points="9685,6428 9610,6428 9610,6323 9685,6323 "/>
    <polygon class="fil5" points="8477,5741 8414,5741 8414,5632 8477,5632 "/>
    <polygon class="fil5" points="9100,5741 9037,5741 9037,5632 9100,5632 "/>
    <polygon class="fil5" points="9595,5741 9532,5741 9532,5632 9595,5632 "/>
    <polygon class="fil2" points="2190,6648 3643,6648 3643,5671 2190,5671 "/>
    <polygon class="fil1" points="2190,5861 3643,5861 3643,5543 2190,5543 "/>
    <polygon class="fil1" points="2364,6060 2289,6060 2289,5955 2364,5955 "/>
    <polygon class="fil1" points="2503,6060 2428,6060 2428,5955 2503,5955 "/>
    <polygon class="fil1" points="2640,6060 2565,6060 2565,5955 2640,5955 "/>
    <polygon class="fil1" points="2769,6060 2694,6060 2694,5955 2769,5955 "/>
    <polygon class="fil1" points="2901,6060 2826,6060 2826,5955 2901,5955 "/>
    <polygon class="fil1" points="3034,6060 2960,6060 2960,5955 3034,5955 "/>
    <polygon class="fil1" points="3174,6060 3099,6060 3099,5955 3174,5955 "/>
    <polygon class="fil1" points="3310,6060 3236,6060 3236,5955 3310,5955 "/>
    <polygon class="fil1" points="3440,6060 3365,6060 3365,5955 3440,5955 "/>
    <polygon class="fil1" points="3571,6060 3497,6060 3497,5955 3571,5955 "/>
    <polygon class="fil1" points="2364,6246 2289,6246 2289,6140 2364,6140 "/>
    <polygon class="fil1" points="2503,6246 2428,6246 2428,6140 2503,6140 "/>
    <polygon class="fil1" points="2640,6246 2565,6246 2565,6140 2640,6140 "/>
    <polygon class="fil1" points="2769,6246 2694,6246 2694,6140 2769,6140 "/>
    <polygon class="fil1" points="2901,6246 2826,6246 2826,6140 2901,6140 "/>
    <polygon class="fil1" points="3034,6246 2960,6246 2960,6140 3034,6140 "/>
    <polygon class="fil1" points="3174,6246 3099,6246 3099,6140 3174,6140 "/>
    <polygon class="fil1" points="3310,6246 3236,6246 3236,6140 3310,6140 "/>
    <polygon class="fil1" points="3440,6246 3365,6246 3365,6140 3440,6140 "/>
    <polygon class="fil1" points="3571,6246 3497,6246 3497,6140 3571,6140 "/>
    <polygon class="fil1" points="2364,6428 2289,6428 2289,6323 2364,6323 "/>
    <polygon class="fil1" points="2503,6428 2428,6428 2428,6323 2503,6323 "/>
    <polygon class="fil1" points="2640,6428 2565,6428 2565,6323 2640,6323 "/>
    <polygon class="fil1" points="2769,6428 2694,6428 2694,6323 2769,6323 "/>
    <polygon class="fil1" points="2901,6428 2826,6428 2826,6323 2901,6323 "/>
    <polygon class="fil1" points="3034,6428 2960,6428 2960,6323 3034,6323 "/>
    <polygon class="fil1" points="3174,6428 3099,6428 3099,6323 3174,6323 "/>
    <polygon class="fil1" points="3310,6428 3236,6428 3236,6323 3310,6323 "/>
    <polygon class="fil1" points="3440,6428 3365,6428 3365,6323 3440,6323 "/>
    <polygon class="fil1" points="3571,6428 3497,6428 3497,6323 3571,6323 "/>
    <polygon class="fil5" points="2364,5741 2301,5741 2301,5632 2364,5632 "/>
    <polygon class="fil5" points="2986,5741 2923,5741 2923,5632 2986,5632 "/>
    <polygon class="fil5" points="3482,5741 3419,5741 3419,5632 3482,5632 "/>
    <polygon class="fil2" points="2099,5670 2099,6648 821,6648 645,6457 645,5670 "/>
    <polygon class="fil1" points="645,5861 2099,5861 2099,5543 645,5543 "/>
    <polygon class="fil1" points="819,6060 744,6060 744,5955 819,5955 "/>
    <polygon class="fil1" points="959,6060 884,6060 884,5955 959,5955 "/>
    <polygon class="fil1" points="1095,6060 1020,6060 1020,5955 1095,5955 "/>
    <polygon class="fil1" points="1224,6060 1150,6060 1150,5955 1224,5955 "/>
    <polygon class="fil1" points="1356,6060 1282,6060 1282,5955 1356,5955 "/>
    <polygon class="fil1" points="1490,6060 1415,6060 1415,5955 1490,5955 "/>
    <polygon class="fil1" points="1629,6060 1555,6060 1555,5955 1629,5955 "/>
    <polygon class="fil1" points="1766,6060 1691,6060 1691,5955 1766,5955 "/>
    <polygon class="fil1" points="1895,6060 1820,6060 1820,5955 1895,5955 "/>
    <polygon class="fil1" points="2027,6060 1952,6060 1952,5955 2027,5955 "/>
    <polygon class="fil1" points="819,6246 744,6246 744,6140 819,6140 "/>
    <polygon class="fil1" points="959,6246 884,6246 884,6140 959,6140 "/>
    <polygon class="fil1" points="1095,6246 1020,6246 1020,6140 1095,6140 "/>
    <polygon class="fil1" points="1224,6246 1150,6246 1150,6140 1224,6140 "/>
    <polygon class="fil1" points="1356,6246 1282,6246 1282,6140 1356,6140 "/>
    <polygon class="fil1" points="1490,6246 1415,6246 1415,6140 1490,6140 "/>
    <polygon class="fil1" points="1629,6246 1555,6246 1555,6140 1629,6140 "/>
    <polygon class="fil1" points="1766,6246 1691,6246 1691,6140 1766,6140 "/>
    <polygon class="fil1" points="1895,6246 1820,6246 1820,6140 1895,6140 "/>
    <polygon class="fil1" points="2027,6246 1952,6246 1952,6140 2027,6140 "/>
    <polygon class="fil1" points="819,6428 744,6428 744,6323 819,6323 "/>
    <polygon class="fil1" points="959,6428 884,6428 884,6323 959,6323 "/>
    <polygon class="fil1" points="1095,6428 1020,6428 1020,6323 1095,6323 "/>
    <polygon class="fil1" points="1224,6428 1150,6428 1150,6323 1224,6323 "/>
    <polygon class="fil1" points="1356,6428 1282,6428 1282,6323 1356,6323 "/>
    <polygon class="fil1" points="1490,6428 1415,6428 1415,6323 1490,6323 "/>
    <polygon class="fil1" points="1629,6428 1555,6428 1555,6323 1629,6323 "/>
    <polygon class="fil1" points="1766,6428 1691,6428 1691,6323 1766,6323 "/>
    <polygon class="fil1" points="1895,6428 1820,6428 1820,6323 1895,6323 "/>
    <polygon class="fil1" points="2027,6428 1952,6428 1952,6323 2027,6323 "/>
    <polygon class="fil5" points="819,5741 756,5741 756,5632 819,5632 "/>
    <polygon class="fil5" points="1442,5741 1379,5741 1379,5632 1442,5632 "/>
    <polygon class="fil5" points="1937,5741 1874,5741 1874,5632 1937,5632 "/>
    <path class="fil2" d="M551 5670l0 612c-47,-114 -69,-238 -69,-367 0,-6 0,-12 0,-19 0,-12 1,-24 1,-35 0,-11 1,-21 2,-31 3,-38 7,-75 13,-113 0,-1 0,-2 0,-3 2,-7 3,-13 4,-20 1,-8 3,-16 4,-24l45 0z"/>
    <path class="fil1" d="M551 5543l0 318 -68 0c0,-11 1,-21 2,-31 3,-38 7,-75 13,-113 0,-1 0,-2 0,-3 2,-7 3,-13 4,-20 1,-8 3,-16 4,-24 6,-27 12,-55 20,-84 1,-6 3,-13 5,-20 2,-8 4,-15 7,-23l13 0z"/>
    <path class="fil7" d="M13690 6638l0 0c15,-32 39,-81 66,-139 17,-37 37,-82 58,-132 -21,50 -41,94 -59,132 -26,57 -50,107 -65,139zm237 -567c3,-10 6,-20 9,-30 5,-13 9,-26 13,-40 10,-31 20,-63 30,-96 -10,33 -20,65 -30,97 -4,13 -8,26 -12,39 -4,10 -7,20 -10,30l0 0zm97 -329c0,-3 1,-7 2,-11 0,4 -1,8 -2,11l0 0zm32 -138c3,-15 6,-30 9,-46l1 -1 0 1c-4,16 -7,31 -10,46l0 0zm15 -72c0,0 0,0 0,-1 5,-27 10,-54 15,-82 -5,28 -10,55 -15,82 0,1 0,1 0,1l0 0z"/>
    <path class="fil8" d="M13682 6655l-4017 0 0 -7 92 0 0 -787 0 -245c356,129 751,228 1126,228 275,0 539,-53 771,-188 459,-267 1029,-372 1529,-372 363,0 688,55 907,145 -1,7 -3,13 -4,20 -5,28 -10,55 -15,82 0,1 0,1 0,1 -2,8 -3,15 -5,22l0 3 -1 1c-3,16 -6,31 -9,46 -1,5 -2,10 -3,15 -8,37 -17,72 -25,107 -1,2 -1,3 -2,5 -1,4 -2,8 -2,11 -1,1 -1,2 -1,3 -14,55 -29,109 -44,160 -10,33 -20,65 -30,96 -4,14 -8,27 -13,40 -3,10 -6,20 -9,30 -9,25 -17,49 -25,72 -9,23 -17,45 -25,67 -22,58 -43,110 -63,157 -21,50 -41,94 -59,132 -26,57 -50,107 -65,139 -3,6 -6,12 -8,17zm-4220 0l-212 0 0 -7 212 0 0 7zm-455 -1366l-225 0 0 -117c65,35 141,75 225,117z"/>
    <path class="fil9" d="M8304 5693l-1159 0 0 -178 -43 0 0 -232c23,2 45,2 68,2 109,0 225,-18 345,-44l48 0 0 -11c22,-5 44,-11 67,-16l0 27 91 0 0 -50c15,-4 31,-8 46,-12 8,-2 16,-4 24,-6l0 68 91 0 0 -91c24,-6 48,-11 72,-17l0 108 92 0 0 -128c114,-23 228,-40 338,-40 91,0 179,12 263,39l-35 0 0 129 91 0 0 -108c18,8 35,16 53,25 8,5 17,9 26,14l0 117 -478 0 0 404zm146 -581l0 129 92 0 0 -129 -92 0zm-158 0l0 129 91 0 0 -129 -91 0zm-167 0l0 129 91 0 0 -129 -91 0z"/>
    <path class="fil10" d="M7563 5241l-48 0c16,-4 32,-7 48,-11l0 11z"/>
    <path class="fil10" d="M7721 5241l-91 0 0 -27c30,-7 61,-15 91,-23l0 50z"/>
    <path class="fil10" d="M7882 5241l-91 0 0 -68c31,-7 61,-15 91,-23l0 91z"/>
    <path class="fil10" d="M8046 5241l-92 0 0 -108c31,-7 61,-14 92,-20l0 128z"/>
    <polygon class="fil10" points="8216,5241 8125,5241 8125,5112 8216,5112 "/>
    <polygon class="fil10" points="8383,5241 8292,5241 8292,5112 8383,5112 "/>
    <polygon class="fil10" points="8542,5241 8450,5241 8450,5112 8542,5112 "/>
    <path class="fil10" d="M8703 5241l-91 0 0 -129 35 0c19,6 38,13 56,21l0 108z"/>
    <polygon class="fil1" points="9250,6655 7145,6655 7145,5693 8304,5693 8304,6648 9250,6648 "/>
    <polygon class="fil11" points="7145,6655 7102,6655 7102,5515 7145,5515 7145,5693 "/>
    <path class="fil11" d="M9665 6655l-203 0 0 -7 203 0 0 7zm-100 -1112l-97 0 0 -40c32,14 64,27 97,40z"/>
    <path class="fil9" d="M8304 6648l0 0 0 -955 0 -404 478 0 225 0c134,68 291,142 461,214l0 40 -1164 0 0 128 0 977z"/>
    <path class="fil9" d="M9757 6648l-92 0 -203 0 -212 0 -946 0 0 -977 0 190 1453 0 0 787zm-147 -325l0 105 75 0 0 -105 -75 0zm-131 0l0 105 74 0 0 -105 -74 0zm-130 0l0 105 75 0 0 -105 -75 0zm-136 0l0 105 74 0 0 -105 -74 0zm-140 0l0 105 75 0 0 -105 -75 0zm-133 0l0 105 74 0 0 -105 -74 0zm-132 0l0 105 75 0 0 -105 -75 0zm-129 0l0 105 74 0 0 -105 -74 0zm-137 0l0 105 75 0 0 -105 -75 0zm-139 0l0 105 74 0 0 -105 -74 0zm1207 -183l0 106 75 0 0 -106 -75 0zm-131 0l0 106 74 0 0 -106 -74 0zm-130 0l0 106 75 0 0 -106 -75 0zm-136 0l0 106 74 0 0 -106 -74 0zm-140 0l0 106 75 0 0 -106 -75 0zm-133 0l0 106 74 0 0 -106 -74 0zm-132 0l0 106 75 0 0 -106 -75 0zm-129 0l0 106 74 0 0 -106 -74 0zm-137 0l0 106 75 0 0 -106 -75 0zm-139 0l0 106 74 0 0 -106 -74 0zm1207 -185l0 105 75 0 0 -105 -75 0zm-131 0l0 105 74 0 0 -105 -74 0zm-130 0l0 105 75 0 0 -105 -75 0zm-136 0l0 105 74 0 0 -105 -74 0zm-140 0l0 105 75 0 0 -105 -75 0zm-133 0l0 105 74 0 0 -105 -74 0zm-132 0l0 105 75 0 0 -105 -75 0zm-129 0l0 105 74 0 0 -105 -74 0zm-137 0l0 105 75 0 0 -105 -75 0zm-139 0l0 105 74 0 0 -105 -74 0z"/>
    <path class="fil1" d="M9757 5861l0 0 -1453 0 0 -190 0 -128 1164 0 97 0c62,25 126,50 192,73l0 245zm-225 -229l0 109 63 0 0 -109 -63 0zm-495 0l0 109 63 0 0 -109 -63 0zm-623 0l0 109 63 0 0 -109 -63 0z"/>
    <polygon class="fil1" points="8477,6060 8403,6060 8403,5955 8477,5955 "/>
    <polygon class="fil1" points="8617,6060 8542,6060 8542,5955 8617,5955 "/>
    <polygon class="fil1" points="8753,6060 8679,6060 8679,5955 8753,5955 "/>
    <polygon class="fil1" points="8883,6060 8808,6060 8808,5955 8883,5955 "/>
    <polygon class="fil1" points="9014,6060 8940,6060 8940,5955 9014,5955 "/>
    <polygon class="fil1" points="9148,6060 9073,6060 9073,5955 9148,5955 "/>
    <polygon class="fil1" points="9287,6060 9213,6060 9213,5955 9287,5955 "/>
    <polygon class="fil1" points="9424,6060 9349,6060 9349,5955 9424,5955 "/>
    <polygon class="fil1" points="9553,6060 9479,6060 9479,5955 9553,5955 "/>
    <polygon class="fil1" points="9685,6060 9610,6060 9610,5955 9685,5955 "/>
    <polygon class="fil1" points="8477,6246 8403,6246 8403,6140 8477,6140 "/>
    <polygon class="fil1" points="8617,6246 8542,6246 8542,6140 8617,6140 "/>
    <polygon class="fil1" points="8753,6246 8679,6246 8679,6140 8753,6140 "/>
    <polygon class="fil1" points="8883,6246 8808,6246 8808,6140 8883,6140 "/>
    <polygon class="fil1" points="9014,6246 8940,6246 8940,6140 9014,6140 "/>
    <polygon class="fil1" points="9148,6246 9073,6246 9073,6140 9148,6140 "/>
    <polygon class="fil1" points="9287,6246 9213,6246 9213,6140 9287,6140 "/>
    <polygon class="fil1" points="9424,6246 9349,6246 9349,6140 9424,6140 "/>
    <polygon class="fil1" points="9553,6246 9479,6246 9479,6140 9553,6140 "/>
    <polygon class="fil1" points="9685,6246 9610,6246 9610,6140 9685,6140 "/>
    <polygon class="fil1" points="8477,6428 8403,6428 8403,6323 8477,6323 "/>
    <polygon class="fil1" points="8617,6428 8542,6428 8542,6323 8617,6323 "/>
    <polygon class="fil1" points="8753,6428 8679,6428 8679,6323 8753,6323 "/>
    <polygon class="fil1" points="8883,6428 8808,6428 8808,6323 8883,6323 "/>
    <polygon class="fil1" points="9014,6428 8940,6428 8940,6323 9014,6323 "/>
    <polygon class="fil1" points="9148,6428 9073,6428 9073,6323 9148,6323 "/>
    <polygon class="fil1" points="9287,6428 9213,6428 9213,6323 9287,6323 "/>
    <polygon class="fil1" points="9424,6428 9349,6428 9349,6323 9424,6323 "/>
    <polygon class="fil1" points="9553,6428 9479,6428 9479,6323 9553,6323 "/>
    <polygon class="fil1" points="9685,6428 9610,6428 9610,6323 9685,6323 "/>
    <polygon class="fil11" points="8477,5741 8414,5741 8414,5632 8477,5632 "/>
    <polygon class="fil11" points="9100,5741 9037,5741 9037,5632 9100,5632 "/>
    <polygon class="fil11" points="9595,5741 9532,5741 9532,5632 9595,5632 "/>
    <path class="fil12" d="M14186 6676l-14170 0c-9,0 -16,-7 -16,-16l0 -5c0,-9 7,-17 16,-17l14170 0c9,0 16,8 16,17l0 5c0,9 -7,16 -16,16z"/>
    <path class="fil13" d="M12988 6638l-467 0c-25,-21 17,-69 62,-72 19,-2 43,2 71,8 6,-85 43,-469 181,-453 156,17 0,169 -44,258 -32,67 -67,162 -82,207 12,3 25,6 39,8 20,-63 97,-276 195,-264 114,15 68,100 -13,151 -60,37 -133,90 -167,116 29,5 60,8 91,7 80,-2 119,22 134,34z"/>
    <path class="fil13" d="M1405 6619c-22,-35 -88,-124 -176,-112 -96,13 106,76 168,112 -14,0 -26,-1 -35,-4 -41,-15 -112,14 -134,23l393 0c-3,-9 -10,-24 -28,-35 -7,-4 -20,-5 -37,-4 24,-27 40,-115 -25,-93 -48,17 -47,71 -43,103 -10,1 -20,3 -30,4 -20,-100 -89,-392 -229,-399 -142,-8 120,303 208,402 -11,1 -22,2 -32,3z"/>
    <path class="fil14" d="M12909 5280c-88,0 -159,-72 -159,-159 0,-88 71,-160 159,-160 88,0 159,72 159,160 0,87 -71,159 -159,159zm0 -496c-188,0 -341,152 -341,340 0,188 341,606 341,606 0,0 340,-418 340,-606 0,-188 -152,-340 -340,-340z"/>
    <path class="fil15" d="M1629 5442c-48,0 -87,-39 -87,-87 0,-48 39,-87 87,-87 48,0 87,39 87,87 0,48 -39,87 -87,87zm0 -272c-103,0 -186,84 -186,187 0,103 186,332 186,332 0,0 187,-229 187,-332 0,-103 -84,-187 -187,-187z"/>
    <path class="fil13" d="M3525 6638c0,0 134,-398 517,-475 382,-77 666,223 1007,106 341,-117 879,-735 1518,-283 640,452 598,580 1002,475 403,-106 496,177 496,177l-4540 0z"/>
    <path class="fil13" d="M3918 6263c0,0 -279,-292 -422,-214 -142,79 422,214 422,214z"/>
    <path class="fil13" d="M3847 6337c0,0 -257,-84 -322,-42 -64,42 322,42 322,42z"/>
    <path class="fil13" d="M4666 6310c0,0 177,-396 238,-324 61,72 -238,324 -238,324z"/>
    <path class="fil13" d="M4622 6284c0,0 73,-291 -36,-273 -108,18 36,273 36,273z"/>
    <polygon class="fil16" points="10606,3767 10606,3767 10606,3834 "/>
    <path class="fil0" d="M9429 6638c0,0 508,-128 651,-282 143,-155 267,20 174,118 -93,98 -825,164 -825,164z"/>
    <path class="fil0" d="M11446 6294l-712 0c-18,0 -32,-14 -32,-32 0,-17 14,-31 32,-31l712 0c17,0 32,14 32,31 0,18 -15,32 -32,32z"/>
    <path class="fil0" d="M11107 6152l-388 0c-9,0 -17,-8 -17,-17 0,-10 8,-18 17,-18l388 0c9,0 17,8 17,18 0,9 -8,17 -17,17z"/>
   </g>
   <circle class="fil17" cx="7381" cy="2790" r="10"/>
  </g>
 </g>
</svg>
