<?xml version="1.0" encoding="UTF-8"?>
<!DOCTYPE svg PUBLIC "-//W3C//DTD SVG 1.1//EN" "http://www.w3.org/Graphics/SVG/1.1/DTD/svg11.dtd">
<!-- Creator: CorelDRAW X7 -->
<svg xmlns="http://www.w3.org/2000/svg" xml:space="preserve" width="131.533mm" height="62.7186mm" version="1.1" style="shape-rendering:geometricPrecision; text-rendering:geometricPrecision; image-rendering:optimizeQuality; fill-rule:evenodd; clip-rule:evenodd"
viewBox="0 0 14202 6772"
 xmlns:xlink="http://www.w3.org/1999/xlink">
 <defs>
  <style type="text/css">
   <![CDATA[
    .fil52 {fill:#FEFEFE}
    .fil17 {fill:#2B2A29}
    .fil38 {fill:#0F0F0F}
    .fil33 {fill:#161917}
    .fil29 {fill:#24211C}
    .fil18 {fill:#249431}
    .fil44 {fill:#29201D}
    .fil12 {fill:#2E3552}
    .fil19 {fill:#2FBF40}
    .fil40 {fill:#303633}
    .fil47 {fill:#3E3525}
    .fil42 {fill:#43433B}
    .fil22 {fill:#4D483D}
    .fil15 {fill:#699FF0}
    .fil34 {fill:#798EA0}
    .fil36 {fill:#879B9D}
    .fil37 {fill:#93A8AA}
    .fil39 {fill:#9FA335}
    .fil35 {fill:#9FB8CE}
    .fil32 {fill:#9FBFD4}
    .fil13 {fill:#A8D29F}
    .fil5 {fill:#ADC9E0}
    .fil46 {fill:#AE854C}
    .fil48 {fill:#B57536}
    .fil11 {fill:#B6CFE5}
    .fil30 {fill:#C2BEC1}
    .fil1 {fill:#C4D9ED}
    .fil10 {fill:#C6DBEE}
    .fil4 {fill:#C7DCEF}
    .fil9 {fill:#CEE1F3}
    .fil2 {fill:#D5E7F7}
    .fil45 {fill:#D9B67E}
    .fil23 {fill:#D9CFBD}
    .fil3 {fill:#DCEAF9}
    .fil8 {fill:#DDE9F8}
    .fil41 {fill:#DFECF5}
    .fil16 {fill:#E5BCA1}
    .fil50 {fill:#E6E6E6}
    .fil7 {fill:#E7F0F8}
    .fil25 {fill:#E8E8E8}
    .fil24 {fill:#EBE0CC}
    .fil6 {fill:#EBF2F9}
    .fil0 {fill:#EDF4FF}
    .fil27 {fill:#F77B16}
    .fil14 {fill:#F99746}
    .fil20 {fill:#FCA465}
    .fil28 {fill:#FF6430}
    .fil26 {fill:#FFAB66}
    .fil49 {fill:#FFC59C}
    .fil51 {fill:#FFC59C}
    .fil43 {fill:#FFDA40}
    .fil31 {fill:#FFF6F8}
    .fil21 {fill:white}
   ]]>
  </style>
 </defs>
 <g id="Layer_x0020_1">
  <metadata id="CorelCorpID_0Corel-Layer"/>
  <g id="_543862064">
   <g>
    <path class="fil0" d="M14141 4893c0,29 -1,59 -3,88 -1,29 -2,58 -5,87 -8,124 -23,246 -43,361 -6,35 -12,69 -19,102 -1,8 -3,16 -4,23l-2 4c-4,21 -8,41 -12,62 -8,35 -17,71 -25,106 -2,6 -4,12 -5,19 -23,91 -48,176 -74,256 -4,14 -8,27 -13,40 -11,35 -23,69 -34,101 -9,24 -17,47 -25,68 -44,118 -87,215 -122,289 -32,69 -59,126 -73,155 -6,13 -10,20 -10,20 0,0 -6717,2 -10425,2 -1414,0 -2390,0 -2390,0 0,0 0,0 0,0 -9,-7 -17,-13 -25,-20 0,0 0,0 0,0 -4,-3 -8,-5 -11,-8l-176 -191c-39,-55 -70,-114 -94,-175 -47,-114 -69,-238 -69,-367 0,-6 0,-12 0,-19 0,-12 1,-24 1,-35 0,-11 1,-21 2,-31 3,-38 7,-75 13,-113 0,-1 0,-2 0,-3 2,-7 3,-13 4,-20 1,-8 3,-16 4,-24 6,-27 12,-55 20,-84 1,-6 3,-13 5,-20 2,-8 4,-15 7,-23 7,-25 15,-50 23,-75 17,-49 36,-97 58,-147 1,-3 3,-7 5,-11 20,-44 42,-88 65,-132 36,-67 77,-133 121,-198 10,-14 19,-28 29,-41 49,-70 103,-139 162,-206 71,-82 148,-162 232,-240 19,-17 37,-34 56,-51 4,-4 9,-8 13,-12 11,-9 22,-19 33,-28 46,-40 90,-77 135,-114 22,-18 44,-35 66,-53 43,-34 85,-68 125,-101 123,-101 232,-196 318,-304 29,-36 56,-74 80,-113 43,-73 76,-151 98,-239 5,-23 9,-46 13,-69 11,-64 16,-134 15,-211 -1,-59 -6,-124 -15,-193 -2,-15 -4,-30 -7,-46 -12,-85 -32,-178 -58,-279 -7,-29 -15,-58 -23,-87 -15,-52 -26,-103 -35,-152 -18,-97 -25,-190 -24,-280 0,-82 8,-161 24,-237l0 -2c13,-72 32,-142 56,-210 290,-826 1278,-1313 1540,-1422 374,-156 817,-243 1277,-275 37,-3 75,-5 112,-7 106,-6 214,-8 320,-8 44,0 87,1 130,1 72,2 143,4 216,9 66,3 132,8 198,13 274,23 541,62 790,114 226,47 429,107 615,175 0,0 0,0 0,1 438,161 769,373 1033,593 61,51 119,102 174,154 7,6 15,14 22,21 17,16 33,31 50,48 7,7 15,14 22,22 48,47 94,95 138,142 22,24 43,47 65,70 115,127 216,246 313,349 13,13 25,25 37,38 166,169 321,285 510,297 119,8 257,-12 413,-42 16,-3 31,-6 47,-10 239,-48 518,-116 827,-144 400,-37 853,-8 1341,214 16,7 31,14 47,22 71,34 144,72 216,115 15,9 31,18 46,27 74,46 149,96 224,152 2,1 4,2 6,4 33,23 65,49 98,75 38,30 77,62 116,95 93,81 188,169 283,267 69,71 134,143 192,215 40,50 79,100 114,151 6,9 12,18 19,27 61,89 115,179 164,269 5,11 11,22 17,33 64,125 117,250 158,375 4,11 8,21 11,32 18,56 34,112 49,169 19,77 35,153 48,229 32,195 44,386 40,571z"/>
    <path class="fil1" d="M3021 1924l0 4136 -851 0 0 -2651c11,-64 16,-134 15,-211 -1,-59 -6,-124 -15,-193l0 -1081 851 0z"/>
    <path class="fil2" d="M2829 1924l0 4136 -850 0 0 -2230c29,-36 56,-74 80,-113 43,-73 76,-151 98,-239 5,-23 9,-46 13,-69 11,-64 16,-134 15,-211 -1,-59 -6,-124 -15,-193 -2,-15 -4,-30 -7,-46 -12,-85 -32,-178 -58,-279 -7,-29 -15,-58 -23,-87 -15,-52 -26,-103 -35,-152 -18,-97 -25,-190 -24,-280 0,-82 8,-161 24,-237l782 0z"/>
    <path class="fil1" d="M2047 1924c-16,76 -24,155 -24,237l147 0 659 0 0 -237 0 -2 -782 0 0 2z"/>
    <path class="fil1" d="M2829 2441l0 239 -724 0c-7,-29 -15,-58 -23,-87 -15,-52 -26,-103 -35,-152l782 0z"/>
    <path class="fil1" d="M2829 2959l0 239 -644 0c-1,-59 -6,-124 -15,-193 -2,-15 -4,-30 -7,-46l666 0z"/>
    <path class="fil1" d="M2829 3478l0 239 -770 0c43,-73 76,-151 98,-239l672 0z"/>
    <polygon class="fil1" points="2829,4235 1979,4235 1979,3996 2829,3996 "/>
    <polygon class="fil1" points="2829,4753 1979,4753 1979,4514 2829,4514 "/>
    <polygon class="fil1" points="2829,5272 1979,5272 1979,5033 2829,5033 "/>
    <polygon class="fil1" points="2829,5790 1979,5790 1979,5551 2829,5551 "/>
    <path class="fil1" d="M1661 4134l0 1926 -851 0 0 -1080c10,-14 19,-28 29,-41 49,-70 103,-139 162,-206 71,-82 148,-162 232,-240 19,-17 37,-34 56,-51 4,-4 9,-8 13,-12 11,-9 22,-19 33,-28 46,-40 90,-77 135,-114 22,-18 44,-35 66,-53 43,-34 85,-68 125,-101z"/>
    <path class="fil2" d="M1470 4288l0 1772 -851 0 0 -739c1,-3 3,-7 5,-11 20,-44 42,-88 65,-132 36,-67 77,-133 121,-198 10,-14 19,-28 29,-41 49,-70 103,-139 162,-206 71,-82 148,-162 232,-240 19,-17 37,-34 56,-51 4,-4 9,-8 13,-12 11,-9 22,-19 33,-28 46,-40 90,-77 135,-114z"/>
    <path class="fil1" d="M1470 4288l0 205 -237 0c19,-17 37,-34 56,-51 4,-4 9,-8 13,-12 11,-9 22,-19 33,-28 46,-40 90,-77 135,-114z"/>
    <path class="fil1" d="M1470 4733l0 206 -631 0c49,-70 103,-139 162,-206l469 0z"/>
    <path class="fil1" d="M1470 5178l0 205 -851 0 0 -62c1,-3 3,-7 5,-11 20,-44 42,-88 65,-132l781 0z"/>
    <polygon class="fil1" points="1470,5828 619,5828 619,5623 1470,5623 "/>
    <polygon class="fil3" points="3481,6452 3125,6452 3125,5933 3481,5933 "/>
    <polygon class="fil2" points="8366,3869 8366,3548 8268,3548 8268,2996 7746,2996 7746,3548 7258,3548 7258,2649 6719,2649 6719,3232 6596,3232 6596,2536 6058,2536 6058,3842 5377,3842 5377,4603 5122,4603 5122,4795 4537,4795 4537,4465 4202,4465 4202,3567 3787,3567 3787,5224 3372,5224 3372,6667 3787,6667 4142,6667 4202,6667 4537,6667 4727,6667 5031,6667 5122,6667 5377,6667 5616,6667 6058,6667 6193,6667 6463,6667 6596,6667 6719,6667 7001,6667 7193,6667 7258,6667 7746,6667 8260,6667 8268,6667 8366,6667 8782,6667 8782,3869 "/>
    <polygon class="fil1" points="6596,2757 6057,2757 6057,2624 6596,2624 "/>
    <polygon class="fil1" points="6596,3007 6057,3007 6057,2874 6596,2874 "/>
    <polygon class="fil1" points="6596,3232 6057,3232 6057,3099 6596,3099 "/>
    <polygon class="fil1" points="7258,3232 6719,3232 6719,3099 7258,3099 "/>
    <polygon class="fil1" points="7258,3007 6719,3007 6719,2874 7258,2874 "/>
    <polygon class="fil1" points="7258,2782 6719,2782 6719,2649 7258,2649 "/>
    <polygon class="fil1" points="7258,3450 6057,3450 6057,3317 7258,3317 "/>
    <polygon class="fil1" points="7258,3668 6057,3668 6057,3535 7258,3535 "/>
    <polygon class="fil1" points="4205,3773 3787,3773 3787,3567 4205,3567 "/>
    <polygon class="fil1" points="4205,4078 3787,4078 3787,3873 4205,3873 "/>
    <polygon class="fil1" points="4205,4384 3787,4384 3787,4178 4205,4178 "/>
    <polygon class="fil1" points="4205,4704 3787,4704 3787,4498 4205,4498 "/>
    <polygon class="fil1" points="4205,5014 3787,5014 3787,4809 4205,4809 "/>
    <polygon class="fil1" points="4205,5324 3787,5324 3787,5119 4205,5119 "/>
    <polygon class="fil1" points="4205,5649 3787,5649 3787,5444 4205,5444 "/>
    <polygon class="fil1" points="7258,3833 6057,3833 6057,3748 7258,3748 "/>
    <polygon class="fil1" points="4200,3567 4200,4465 4354,4465 4354,3567 "/>
    <polygon class="fil1" points="4537,4465 4848,4465 4848,4795 4537,4795 "/>
    <polygon class="fil1" points="7258,2649 7365,2649 7365,3548 7258,3548 "/>
    <polygon class="fil1" points="6596,2536 6662,2536 6662,3232 6596,3232 "/>
    <polygon class="fil4" points="5488,3973 5579,3973 5579,4102 5488,4102 "/>
    <polygon class="fil4" points="5750,4102 5659,4102 5659,3973 5750,3973 "/>
    <polygon class="fil4" points="5917,4102 5826,4102 5826,3973 5917,3973 "/>
    <polygon class="fil4" points="6075,4102 5984,4102 5984,3973 6075,3973 "/>
    <polygon class="fil4" points="6236,4102 6145,4102 6145,3973 6236,3973 "/>
    <polygon class="fil4" points="6400,4102 6308,4102 6308,3973 6400,3973 "/>
    <polygon class="fil4" points="6570,4102 6479,4102 6479,3973 6570,3973 "/>
    <polygon class="fil4" points="6737,4102 6646,4102 6646,3973 6737,3973 "/>
    <polygon class="fil4" points="6896,4102 6804,4102 6804,3973 6896,3973 "/>
    <polygon class="fil4" points="7057,4102 6966,4102 6966,3973 7057,3973 "/>
    <polygon class="fil4" points="7225,4102 7134,4102 7134,3973 7225,3973 "/>
    <polygon class="fil4" points="7396,4102 7305,4102 7305,3973 7396,3973 "/>
    <polygon class="fil4" points="7563,4102 7472,4102 7472,3973 7563,3973 "/>
    <polygon class="fil4" points="7721,4102 7630,4102 7630,3973 7721,3973 "/>
    <polygon class="fil4" points="7882,4102 7791,4102 7791,3973 7882,3973 "/>
    <polygon class="fil4" points="8046,4102 7954,4102 7954,3973 8046,3973 "/>
    <polygon class="fil4" points="8216,4102 8125,4102 8125,3973 8216,3973 "/>
    <polygon class="fil4" points="8383,4102 8292,4102 8292,3973 8383,3973 "/>
    <polygon class="fil4" points="8542,4102 8450,4102 8450,3973 8542,3973 "/>
    <polygon class="fil4" points="8703,4102 8612,4102 8612,3973 8703,3973 "/>
    <polygon class="fil4" points="5579,4329 5488,4329 5488,4200 5579,4200 "/>
    <polygon class="fil4" points="5750,4329 5659,4329 5659,4200 5750,4200 "/>
    <polygon class="fil4" points="5917,4329 5826,4329 5826,4200 5917,4200 "/>
    <polygon class="fil4" points="6075,4329 5984,4329 5984,4200 6075,4200 "/>
    <polygon class="fil4" points="6236,4329 6145,4329 6145,4200 6236,4200 "/>
    <polygon class="fil4" points="6400,4329 6308,4329 6308,4200 6400,4200 "/>
    <polygon class="fil4" points="6570,4329 6479,4329 6479,4200 6570,4200 "/>
    <polygon class="fil4" points="6737,4329 6646,4329 6646,4200 6737,4200 "/>
    <polygon class="fil4" points="6896,4329 6804,4329 6804,4200 6896,4200 "/>
    <polygon class="fil4" points="7057,4329 6966,4329 6966,4200 7057,4200 "/>
    <polygon class="fil4" points="7225,4329 7134,4329 7134,4200 7225,4200 "/>
    <polygon class="fil4" points="7396,4329 7305,4329 7305,4200 7396,4200 "/>
    <polygon class="fil4" points="7563,4329 7472,4329 7472,4200 7563,4200 "/>
    <polygon class="fil4" points="7721,4329 7630,4329 7630,4200 7721,4200 "/>
    <polygon class="fil4" points="7882,4329 7791,4329 7791,4200 7882,4200 "/>
    <polygon class="fil4" points="8046,4329 7954,4329 7954,4200 8046,4200 "/>
    <polygon class="fil4" points="8216,4329 8125,4329 8125,4200 8216,4200 "/>
    <polygon class="fil4" points="8383,4329 8292,4329 8292,4200 8383,4200 "/>
    <polygon class="fil4" points="8542,4329 8450,4329 8450,4200 8542,4200 "/>
    <polygon class="fil4" points="8703,4329 8612,4329 8612,4200 8703,4200 "/>
    <polygon class="fil4" points="5579,4552 5488,4552 5488,4424 5579,4424 "/>
    <polygon class="fil4" points="5750,4552 5659,4552 5659,4424 5750,4424 "/>
    <polygon class="fil4" points="5917,4552 5826,4552 5826,4424 5917,4424 "/>
    <polygon class="fil4" points="6075,4552 5984,4552 5984,4424 6075,4424 "/>
    <polygon class="fil4" points="6236,4552 6145,4552 6145,4424 6236,4424 "/>
    <polygon class="fil4" points="6400,4552 6308,4552 6308,4424 6400,4424 "/>
    <polygon class="fil4" points="6570,4552 6479,4552 6479,4424 6570,4424 "/>
    <polygon class="fil4" points="6737,4552 6646,4552 6646,4424 6737,4424 "/>
    <polygon class="fil4" points="6896,4552 6804,4552 6804,4424 6896,4424 "/>
    <polygon class="fil4" points="7057,4552 6966,4552 6966,4424 7057,4424 "/>
    <polygon class="fil4" points="7225,4552 7134,4552 7134,4424 7225,4424 "/>
    <polygon class="fil4" points="7396,4552 7305,4552 7305,4424 7396,4424 "/>
    <polygon class="fil4" points="7563,4552 7472,4552 7472,4424 7563,4424 "/>
    <polygon class="fil4" points="7721,4552 7630,4552 7630,4424 7721,4424 "/>
    <polygon class="fil4" points="7882,4552 7791,4552 7791,4424 7882,4424 "/>
    <polygon class="fil4" points="8046,4552 7954,4552 7954,4424 8046,4424 "/>
    <polygon class="fil4" points="8216,4552 8125,4552 8125,4424 8216,4424 "/>
    <polygon class="fil4" points="8383,4552 8292,4552 8292,4424 8383,4424 "/>
    <polygon class="fil4" points="8542,4552 8450,4552 8450,4424 8542,4424 "/>
    <polygon class="fil4" points="8703,4552 8612,4552 8612,4424 8703,4424 "/>
    <polygon class="fil4" points="5579,4790 5488,4790 5488,4661 5579,4661 "/>
    <polygon class="fil4" points="5750,4790 5659,4790 5659,4661 5750,4661 "/>
    <polygon class="fil4" points="5917,4790 5826,4790 5826,4661 5917,4661 "/>
    <polygon class="fil4" points="6075,4790 5984,4790 5984,4661 6075,4661 "/>
    <polygon class="fil4" points="6236,4790 6145,4790 6145,4661 6236,4661 "/>
    <polygon class="fil4" points="6400,4790 6308,4790 6308,4661 6400,4661 "/>
    <polygon class="fil4" points="6570,4790 6479,4790 6479,4661 6570,4661 "/>
    <polygon class="fil4" points="6737,4790 6646,4790 6646,4661 6737,4661 "/>
    <polygon class="fil4" points="6896,4790 6804,4790 6804,4661 6896,4661 "/>
    <polygon class="fil4" points="7057,4790 6966,4790 6966,4661 7057,4661 "/>
    <polygon class="fil4" points="7225,4790 7134,4790 7134,4661 7225,4661 "/>
    <polygon class="fil4" points="7396,4790 7305,4790 7305,4661 7396,4661 "/>
    <polygon class="fil4" points="7563,4790 7472,4790 7472,4661 7563,4661 "/>
    <polygon class="fil4" points="7721,4790 7630,4790 7630,4661 7721,4661 "/>
    <polygon class="fil4" points="7882,4790 7791,4790 7791,4661 7882,4661 "/>
    <polygon class="fil4" points="8046,4790 7954,4790 7954,4661 8046,4661 "/>
    <polygon class="fil4" points="8216,4790 8125,4790 8125,4661 8216,4661 "/>
    <polygon class="fil4" points="8383,4790 8292,4790 8292,4661 8383,4661 "/>
    <polygon class="fil4" points="8542,4790 8450,4790 8450,4661 8542,4661 "/>
    <polygon class="fil4" points="8703,4790 8612,4790 8612,4661 8703,4661 "/>
    <polygon class="fil4" points="5579,5017 5488,5017 5488,4888 5579,4888 "/>
    <polygon class="fil4" points="5750,5017 5659,5017 5659,4888 5750,4888 "/>
    <polygon class="fil4" points="5917,5017 5826,5017 5826,4888 5917,4888 "/>
    <polygon class="fil4" points="6075,5017 5984,5017 5984,4888 6075,4888 "/>
    <polygon class="fil4" points="6236,5017 6145,5017 6145,4888 6236,4888 "/>
    <polygon class="fil4" points="6400,5017 6308,5017 6308,4888 6400,4888 "/>
    <polygon class="fil4" points="6570,5017 6479,5017 6479,4888 6570,4888 "/>
    <polygon class="fil4" points="6737,5017 6646,5017 6646,4888 6737,4888 "/>
    <polygon class="fil4" points="6896,5017 6804,5017 6804,4888 6896,4888 "/>
    <polygon class="fil4" points="7057,5017 6966,5017 6966,4888 7057,4888 "/>
    <polygon class="fil4" points="7225,5017 7134,5017 7134,4888 7225,4888 "/>
    <polygon class="fil4" points="7396,5017 7305,5017 7305,4888 7396,4888 "/>
    <polygon class="fil4" points="7563,5017 7472,5017 7472,4888 7563,4888 "/>
    <polygon class="fil4" points="7721,5017 7630,5017 7630,4888 7721,4888 "/>
    <polygon class="fil4" points="7882,5017 7791,5017 7791,4888 7882,4888 "/>
    <polygon class="fil4" points="8046,5017 7954,5017 7954,4888 8046,4888 "/>
    <polygon class="fil4" points="8216,5017 8125,5017 8125,4888 8216,4888 "/>
    <polygon class="fil4" points="8383,5017 8292,5017 8292,4888 8383,4888 "/>
    <polygon class="fil4" points="8542,5017 8450,5017 8450,4888 8542,4888 "/>
    <polygon class="fil4" points="8703,5017 8612,5017 8612,4888 8703,4888 "/>
    <polygon class="fil4" points="5579,5241 5488,5241 5488,5112 5579,5112 "/>
    <polygon class="fil4" points="5750,5241 5659,5241 5659,5112 5750,5112 "/>
    <polygon class="fil4" points="5917,5241 5826,5241 5826,5112 5917,5112 "/>
    <polygon class="fil4" points="6075,5241 5984,5241 5984,5112 6075,5112 "/>
    <polygon class="fil4" points="6236,5241 6145,5241 6145,5112 6236,5112 "/>
    <polygon class="fil4" points="6400,5241 6308,5241 6308,5112 6400,5112 "/>
    <polygon class="fil4" points="6570,5241 6479,5241 6479,5112 6570,5112 "/>
    <polygon class="fil4" points="6737,5241 6646,5241 6646,5112 6737,5112 "/>
    <polygon class="fil4" points="6896,5241 6804,5241 6804,5112 6896,5112 "/>
    <polygon class="fil4" points="7057,5241 6966,5241 6966,5112 7057,5112 "/>
    <polygon class="fil4" points="7225,5241 7134,5241 7134,5112 7225,5112 "/>
    <polygon class="fil4" points="7396,5241 7305,5241 7305,5112 7396,5112 "/>
    <path class="fil4" d="M7515 5241l-43 0 0 -129 91 0 0 118c-16,4 -32,7 -48,11z"/>
    <path class="fil4" d="M7630 5214l0 -102 91 0 0 79c-30,8 -61,16 -91,23z"/>
    <path class="fil4" d="M7791 5173l0 -61 91 0 0 38c-30,8 -60,16 -91,23z"/>
    <path class="fil4" d="M7954 5133l0 -21 92 0 0 1c-31,6 -61,13 -92,20z"/>
    <path class="fil4" d="M8703 5133c-18,-8 -37,-15 -56,-21l56 0 0 21z"/>
    <polygon class="fil1" points="6964,6657 4848,6657 4848,5515 6964,5515 "/>
    <polygon class="fil1" points="5359,6657 3243,6657 3243,6086 5359,6086 "/>
    <polygon class="fil1" points="9250,6657 7134,6657 7134,5693 9250,5693 "/>
    <polygon class="fil2" points="5383,5861 4989,5861 4989,5649 5383,5649 "/>
    <polygon class="fil2" points="5889,5861 5495,5861 5495,5649 5889,5649 "/>
    <polygon class="fil2" points="6386,5861 5992,5861 5992,5649 6386,5649 "/>
    <polygon class="fil2" points="6873,5861 6479,5861 6479,5649 6873,5649 "/>
    <polygon class="fil5" points="7145,6667 6942,6667 6942,5515 7145,5515 "/>
    <polygon class="fil5" points="9665,6667 9462,6667 9462,5293 9665,5293 "/>
    <polygon class="fil5" points="9468,6648 9250,6648 9250,5693 9468,5693 "/>
    <path class="fil3" d="M9087 5750c-6,15 -19,24 -31,20 -11,-4 -15,-20 -10,-35 6,-15 47,-64 47,-64 0,0 0,64 -6,79z"/>
    <path class="fil3" d="M8976 5377c-6,15 -19,24 -31,20 -11,-4 -15,-20 -10,-35 6,-15 47,-64 47,-64 0,0 0,64 -6,79z"/>
    <path class="fil3" d="M8551 5940c-6,15 -20,24 -31,19 -11,-4 -16,-19 -10,-35 6,-15 47,-63 47,-63 0,0 -1,63 -6,79z"/>
    <path class="fil6" d="M8902 6556c0,0 -39,84 37,90 76,7 122,-24 140,-61 0,0 -95,39 -80,-9 14,-47 51,-124 51,-124 0,0 -80,145 -120,138 -18,-3 -28,-34 -28,-34z"/>
    <polygon class="fil3" points="3881,3567 3870,3567 3870,3478 3881,3478 "/>
    <polygon class="fil3" points="4277,3567 4266,3567 4266,3478 4277,3478 "/>
    <polygon class="fil2" points="8304,6648 9468,6648 9468,5289 8304,5289 "/>
    <polygon class="fil2" points="9390,5293 9369,5293 9369,5017 9390,5017 "/>
    <polygon class="fil2" points="8304,6648 9757,6648 9757,5671 8304,5671 "/>
    <polygon class="fil1" points="8304,5861 9757,5861 9757,5543 8304,5543 "/>
    <polygon class="fil1" points="8477,6060 8403,6060 8403,5955 8477,5955 "/>
    <polygon class="fil1" points="8617,6060 8542,6060 8542,5955 8617,5955 "/>
    <polygon class="fil1" points="8753,6060 8679,6060 8679,5955 8753,5955 "/>
    <polygon class="fil1" points="8883,6060 8808,6060 8808,5955 8883,5955 "/>
    <polygon class="fil1" points="9014,6060 8940,6060 8940,5955 9014,5955 "/>
    <polygon class="fil1" points="9148,6060 9073,6060 9073,5955 9148,5955 "/>
    <polygon class="fil1" points="9287,6060 9213,6060 9213,5955 9287,5955 "/>
    <polygon class="fil1" points="9424,6060 9349,6060 9349,5955 9424,5955 "/>
    <polygon class="fil1" points="9553,6060 9479,6060 9479,5955 9553,5955 "/>
    <polygon class="fil1" points="9685,6060 9610,6060 9610,5955 9685,5955 "/>
    <polygon class="fil1" points="8477,6246 8403,6246 8403,6140 8477,6140 "/>
    <polygon class="fil1" points="8617,6246 8542,6246 8542,6140 8617,6140 "/>
    <polygon class="fil1" points="8753,6246 8679,6246 8679,6140 8753,6140 "/>
    <polygon class="fil1" points="8883,6246 8808,6246 8808,6140 8883,6140 "/>
    <polygon class="fil1" points="9014,6246 8940,6246 8940,6140 9014,6140 "/>
    <polygon class="fil1" points="9148,6246 9073,6246 9073,6140 9148,6140 "/>
    <polygon class="fil1" points="9287,6246 9213,6246 9213,6140 9287,6140 "/>
    <polygon class="fil1" points="9424,6246 9349,6246 9349,6140 9424,6140 "/>
    <polygon class="fil1" points="9553,6246 9479,6246 9479,6140 9553,6140 "/>
    <polygon class="fil1" points="9685,6246 9610,6246 9610,6140 9685,6140 "/>
    <polygon class="fil1" points="8477,6428 8403,6428 8403,6323 8477,6323 "/>
    <polygon class="fil1" points="8617,6428 8542,6428 8542,6323 8617,6323 "/>
    <polygon class="fil1" points="8753,6428 8679,6428 8679,6323 8753,6323 "/>
    <polygon class="fil1" points="8883,6428 8808,6428 8808,6323 8883,6323 "/>
    <polygon class="fil1" points="9014,6428 8940,6428 8940,6323 9014,6323 "/>
    <polygon class="fil1" points="9148,6428 9073,6428 9073,6323 9148,6323 "/>
    <polygon class="fil1" points="9287,6428 9213,6428 9213,6323 9287,6323 "/>
    <polygon class="fil1" points="9424,6428 9349,6428 9349,6323 9424,6323 "/>
    <polygon class="fil1" points="9553,6428 9479,6428 9479,6323 9553,6323 "/>
    <polygon class="fil1" points="9685,6428 9610,6428 9610,6323 9685,6323 "/>
    <polygon class="fil5" points="8477,5741 8414,5741 8414,5632 8477,5632 "/>
    <polygon class="fil5" points="9100,5741 9037,5741 9037,5632 9100,5632 "/>
    <polygon class="fil5" points="9595,5741 9532,5741 9532,5632 9595,5632 "/>
    <polygon class="fil2" points="2190,6648 3643,6648 3643,5671 2190,5671 "/>
    <polygon class="fil1" points="2190,5861 3643,5861 3643,5543 2190,5543 "/>
    <polygon class="fil1" points="2364,6060 2289,6060 2289,5955 2364,5955 "/>
    <polygon class="fil1" points="2503,6060 2428,6060 2428,5955 2503,5955 "/>
    <polygon class="fil1" points="2640,6060 2565,6060 2565,5955 2640,5955 "/>
    <polygon class="fil1" points="2769,6060 2694,6060 2694,5955 2769,5955 "/>
    <polygon class="fil1" points="2901,6060 2826,6060 2826,5955 2901,5955 "/>
    <polygon class="fil1" points="3034,6060 2960,6060 2960,5955 3034,5955 "/>
    <polygon class="fil1" points="3174,6060 3099,6060 3099,5955 3174,5955 "/>
    <polygon class="fil1" points="3310,6060 3236,6060 3236,5955 3310,5955 "/>
    <polygon class="fil1" points="3440,6060 3365,6060 3365,5955 3440,5955 "/>
    <polygon class="fil1" points="3571,6060 3497,6060 3497,5955 3571,5955 "/>
    <polygon class="fil1" points="2364,6246 2289,6246 2289,6140 2364,6140 "/>
    <polygon class="fil1" points="2503,6246 2428,6246 2428,6140 2503,6140 "/>
    <polygon class="fil1" points="2640,6246 2565,6246 2565,6140 2640,6140 "/>
    <polygon class="fil1" points="2769,6246 2694,6246 2694,6140 2769,6140 "/>
    <polygon class="fil1" points="2901,6246 2826,6246 2826,6140 2901,6140 "/>
    <polygon class="fil1" points="3034,6246 2960,6246 2960,6140 3034,6140 "/>
    <polygon class="fil1" points="3174,6246 3099,6246 3099,6140 3174,6140 "/>
    <polygon class="fil1" points="3310,6246 3236,6246 3236,6140 3310,6140 "/>
    <polygon class="fil1" points="3440,6246 3365,6246 3365,6140 3440,6140 "/>
    <polygon class="fil1" points="3571,6246 3497,6246 3497,6140 3571,6140 "/>
    <polygon class="fil1" points="2364,6428 2289,6428 2289,6323 2364,6323 "/>
    <polygon class="fil1" points="2503,6428 2428,6428 2428,6323 2503,6323 "/>
    <polygon class="fil1" points="2640,6428 2565,6428 2565,6323 2640,6323 "/>
    <polygon class="fil1" points="2769,6428 2694,6428 2694,6323 2769,6323 "/>
    <polygon class="fil1" points="2901,6428 2826,6428 2826,6323 2901,6323 "/>
    <polygon class="fil1" points="3034,6428 2960,6428 2960,6323 3034,6323 "/>
    <polygon class="fil1" points="3174,6428 3099,6428 3099,6323 3174,6323 "/>
    <polygon class="fil1" points="3310,6428 3236,6428 3236,6323 3310,6323 "/>
    <polygon class="fil1" points="3440,6428 3365,6428 3365,6323 3440,6323 "/>
    <polygon class="fil1" points="3571,6428 3497,6428 3497,6323 3571,6323 "/>
    <polygon class="fil5" points="2364,5741 2301,5741 2301,5632 2364,5632 "/>
    <polygon class="fil5" points="2986,5741 2923,5741 2923,5632 2986,5632 "/>
    <polygon class="fil5" points="3482,5741 3419,5741 3419,5632 3482,5632 "/>
    <polygon class="fil2" points="2099,5670 2099,6648 821,6648 645,6457 645,5670 "/>
    <polygon class="fil1" points="645,5861 2099,5861 2099,5543 645,5543 "/>
    <polygon class="fil1" points="819,6060 744,6060 744,5955 819,5955 "/>
    <polygon class="fil1" points="959,6060 884,6060 884,5955 959,5955 "/>
    <polygon class="fil1" points="1095,6060 1020,6060 1020,5955 1095,5955 "/>
    <polygon class="fil1" points="1224,6060 1150,6060 1150,5955 1224,5955 "/>
    <polygon class="fil1" points="1356,6060 1282,6060 1282,5955 1356,5955 "/>
    <polygon class="fil1" points="1490,6060 1415,6060 1415,5955 1490,5955 "/>
    <polygon class="fil1" points="1629,6060 1555,6060 1555,5955 1629,5955 "/>
    <polygon class="fil1" points="1766,6060 1691,6060 1691,5955 1766,5955 "/>
    <polygon class="fil1" points="1895,6060 1820,6060 1820,5955 1895,5955 "/>
    <polygon class="fil1" points="2027,6060 1952,6060 1952,5955 2027,5955 "/>
    <polygon class="fil1" points="819,6246 744,6246 744,6140 819,6140 "/>
    <polygon class="fil1" points="959,6246 884,6246 884,6140 959,6140 "/>
    <polygon class="fil1" points="1095,6246 1020,6246 1020,6140 1095,6140 "/>
    <polygon class="fil1" points="1224,6246 1150,6246 1150,6140 1224,6140 "/>
    <polygon class="fil1" points="1356,6246 1282,6246 1282,6140 1356,6140 "/>
    <polygon class="fil1" points="1490,6246 1415,6246 1415,6140 1490,6140 "/>
    <polygon class="fil1" points="1629,6246 1555,6246 1555,6140 1629,6140 "/>
    <polygon class="fil1" points="1766,6246 1691,6246 1691,6140 1766,6140 "/>
    <polygon class="fil1" points="1895,6246 1820,6246 1820,6140 1895,6140 "/>
    <polygon class="fil1" points="2027,6246 1952,6246 1952,6140 2027,6140 "/>
    <polygon class="fil1" points="819,6428 744,6428 744,6323 819,6323 "/>
    <polygon class="fil1" points="959,6428 884,6428 884,6323 959,6323 "/>
    <polygon class="fil1" points="1095,6428 1020,6428 1020,6323 1095,6323 "/>
    <polygon class="fil1" points="1224,6428 1150,6428 1150,6323 1224,6323 "/>
    <polygon class="fil1" points="1356,6428 1282,6428 1282,6323 1356,6323 "/>
    <polygon class="fil1" points="1490,6428 1415,6428 1415,6323 1490,6323 "/>
    <polygon class="fil1" points="1629,6428 1555,6428 1555,6323 1629,6323 "/>
    <polygon class="fil1" points="1766,6428 1691,6428 1691,6323 1766,6323 "/>
    <polygon class="fil1" points="1895,6428 1820,6428 1820,6323 1895,6323 "/>
    <polygon class="fil1" points="2027,6428 1952,6428 1952,6323 2027,6323 "/>
    <polygon class="fil5" points="819,5741 756,5741 756,5632 819,5632 "/>
    <polygon class="fil5" points="1442,5741 1379,5741 1379,5632 1442,5632 "/>
    <polygon class="fil5" points="1937,5741 1874,5741 1874,5632 1937,5632 "/>
    <path class="fil2" d="M551 5670l0 612c-47,-114 -69,-238 -69,-367 0,-6 0,-12 0,-19 0,-12 1,-24 1,-35 0,-11 1,-21 2,-31 3,-38 7,-75 13,-113 0,-1 0,-2 0,-3 2,-7 3,-13 4,-20 1,-8 3,-16 4,-24l45 0z"/>
    <path class="fil1" d="M551 5543l0 318 -68 0c0,-11 1,-21 2,-31 3,-38 7,-75 13,-113 0,-1 0,-2 0,-3 2,-7 3,-13 4,-20 1,-8 3,-16 4,-24 6,-27 12,-55 20,-84 1,-6 3,-13 5,-20 2,-8 4,-15 7,-23l13 0z"/>
    <path class="fil7" d="M13690 6638l0 0c15,-32 39,-81 66,-139 17,-37 37,-82 58,-132 -21,50 -41,94 -59,132 -26,57 -50,107 -65,139zm237 -567c3,-10 6,-20 9,-30 5,-13 9,-26 13,-40 10,-31 20,-63 30,-96 -10,33 -20,65 -30,97 -4,13 -8,26 -12,39 -4,10 -7,20 -10,30l0 0zm97 -329c0,-3 1,-7 2,-11 0,4 -1,8 -2,11l0 0zm32 -138c3,-15 6,-30 9,-46l1 -1 0 1c-4,16 -7,31 -10,46l0 0zm15 -72c0,0 0,0 0,-1 5,-27 10,-54 15,-82 -5,28 -10,55 -15,82 0,1 0,1 0,1l0 0z"/>
    <path class="fil8" d="M13682 6655l-4017 0 0 -7 92 0 0 -787 0 -245c356,129 751,228 1126,228 275,0 539,-53 771,-188 459,-267 1029,-372 1529,-372 363,0 688,55 907,145 -1,7 -3,13 -4,20 -5,28 -10,55 -15,82 0,1 0,1 0,1 -2,8 -3,15 -5,22l0 3 -1 1c-3,16 -6,31 -9,46 -1,5 -2,10 -3,15 -8,37 -17,72 -25,107 -1,2 -1,3 -2,5 -1,4 -2,8 -2,11 -1,1 -1,2 -1,3 -14,55 -29,109 -44,160 -10,33 -20,65 -30,96 -4,14 -8,27 -13,40 -3,10 -6,20 -9,30 -9,25 -17,49 -25,72 -9,23 -17,45 -25,67 -22,58 -43,110 -63,157 -21,50 -41,94 -59,132 -26,57 -50,107 -65,139 -3,6 -6,12 -8,17zm-4220 0l-212 0 0 -7 212 0 0 7zm-455 -1366l-225 0 0 -117c65,35 141,75 225,117z"/>
    <path class="fil9" d="M8304 5693l-1159 0 0 -178 -43 0 0 -232c23,2 45,2 68,2 109,0 225,-18 345,-44l48 0 0 -11c22,-5 44,-11 67,-16l0 27 91 0 0 -50c15,-4 31,-8 46,-12 8,-2 16,-4 24,-6l0 68 91 0 0 -91c24,-6 48,-11 72,-17l0 108 92 0 0 -128c114,-23 228,-40 338,-40 91,0 179,12 263,39l-35 0 0 129 91 0 0 -108c18,8 35,16 53,25 8,5 17,9 26,14l0 117 -478 0 0 404zm146 -581l0 129 92 0 0 -129 -92 0zm-158 0l0 129 91 0 0 -129 -91 0zm-167 0l0 129 91 0 0 -129 -91 0z"/>
    <path class="fil10" d="M7563 5241l-48 0c16,-4 32,-7 48,-11l0 11z"/>
    <path class="fil10" d="M7721 5241l-91 0 0 -27c30,-7 61,-15 91,-23l0 50z"/>
    <path class="fil10" d="M7882 5241l-91 0 0 -68c31,-7 61,-15 91,-23l0 91z"/>
    <path class="fil10" d="M8046 5241l-92 0 0 -108c31,-7 61,-14 92,-20l0 128z"/>
    <polygon class="fil10" points="8216,5241 8125,5241 8125,5112 8216,5112 "/>
    <polygon class="fil10" points="8383,5241 8292,5241 8292,5112 8383,5112 "/>
    <polygon class="fil10" points="8542,5241 8450,5241 8450,5112 8542,5112 "/>
    <path class="fil10" d="M8703 5241l-91 0 0 -129 35 0c19,6 38,13 56,21l0 108z"/>
    <polygon class="fil1" points="9250,6655 7145,6655 7145,5693 8304,5693 8304,6648 9250,6648 "/>
    <polygon class="fil11" points="7145,6655 7102,6655 7102,5515 7145,5515 7145,5693 "/>
    <path class="fil11" d="M9665 6655l-203 0 0 -7 203 0 0 7zm-100 -1112l-97 0 0 -40c32,14 64,27 97,40z"/>
    <path class="fil9" d="M8304 6648l0 0 0 -955 0 -404 478 0 225 0c134,68 291,142 461,214l0 40 -1164 0 0 128 0 977z"/>
    <path class="fil9" d="M9757 6648l-92 0 -203 0 -212 0 -946 0 0 -977 0 190 1453 0 0 787zm-147 -325l0 105 75 0 0 -105 -75 0zm-131 0l0 105 74 0 0 -105 -74 0zm-130 0l0 105 75 0 0 -105 -75 0zm-136 0l0 105 74 0 0 -105 -74 0zm-140 0l0 105 75 0 0 -105 -75 0zm-133 0l0 105 74 0 0 -105 -74 0zm-132 0l0 105 75 0 0 -105 -75 0zm-129 0l0 105 74 0 0 -105 -74 0zm-137 0l0 105 75 0 0 -105 -75 0zm-139 0l0 105 74 0 0 -105 -74 0zm1207 -183l0 106 75 0 0 -106 -75 0zm-131 0l0 106 74 0 0 -106 -74 0zm-130 0l0 106 75 0 0 -106 -75 0zm-136 0l0 106 74 0 0 -106 -74 0zm-140 0l0 106 75 0 0 -106 -75 0zm-133 0l0 106 74 0 0 -106 -74 0zm-132 0l0 106 75 0 0 -106 -75 0zm-129 0l0 106 74 0 0 -106 -74 0zm-137 0l0 106 75 0 0 -106 -75 0zm-139 0l0 106 74 0 0 -106 -74 0zm1207 -185l0 105 75 0 0 -105 -75 0zm-131 0l0 105 74 0 0 -105 -74 0zm-130 0l0 105 75 0 0 -105 -75 0zm-136 0l0 105 74 0 0 -105 -74 0zm-140 0l0 105 75 0 0 -105 -75 0zm-133 0l0 105 74 0 0 -105 -74 0zm-132 0l0 105 75 0 0 -105 -75 0zm-129 0l0 105 74 0 0 -105 -74 0zm-137 0l0 105 75 0 0 -105 -75 0zm-139 0l0 105 74 0 0 -105 -74 0z"/>
    <path class="fil1" d="M9757 5861l0 0 -1453 0 0 -190 0 -128 1164 0 97 0c62,25 126,50 192,73l0 245zm-225 -229l0 109 63 0 0 -109 -63 0zm-495 0l0 109 63 0 0 -109 -63 0zm-623 0l0 109 63 0 0 -109 -63 0z"/>
    <polygon class="fil1" points="8477,6060 8403,6060 8403,5955 8477,5955 "/>
    <polygon class="fil1" points="8617,6060 8542,6060 8542,5955 8617,5955 "/>
    <polygon class="fil1" points="8753,6060 8679,6060 8679,5955 8753,5955 "/>
    <polygon class="fil1" points="8883,6060 8808,6060 8808,5955 8883,5955 "/>
    <polygon class="fil1" points="9014,6060 8940,6060 8940,5955 9014,5955 "/>
    <polygon class="fil1" points="9148,6060 9073,6060 9073,5955 9148,5955 "/>
    <polygon class="fil1" points="9287,6060 9213,6060 9213,5955 9287,5955 "/>
    <polygon class="fil1" points="9424,6060 9349,6060 9349,5955 9424,5955 "/>
    <polygon class="fil1" points="9553,6060 9479,6060 9479,5955 9553,5955 "/>
    <polygon class="fil1" points="9685,6060 9610,6060 9610,5955 9685,5955 "/>
    <polygon class="fil1" points="8477,6246 8403,6246 8403,6140 8477,6140 "/>
    <polygon class="fil1" points="8617,6246 8542,6246 8542,6140 8617,6140 "/>
    <polygon class="fil1" points="8753,6246 8679,6246 8679,6140 8753,6140 "/>
    <polygon class="fil1" points="8883,6246 8808,6246 8808,6140 8883,6140 "/>
    <polygon class="fil1" points="9014,6246 8940,6246 8940,6140 9014,6140 "/>
    <polygon class="fil1" points="9148,6246 9073,6246 9073,6140 9148,6140 "/>
    <polygon class="fil1" points="9287,6246 9213,6246 9213,6140 9287,6140 "/>
    <polygon class="fil1" points="9424,6246 9349,6246 9349,6140 9424,6140 "/>
    <polygon class="fil1" points="9553,6246 9479,6246 9479,6140 9553,6140 "/>
    <polygon class="fil1" points="9685,6246 9610,6246 9610,6140 9685,6140 "/>
    <polygon class="fil1" points="8477,6428 8403,6428 8403,6323 8477,6323 "/>
    <polygon class="fil1" points="8617,6428 8542,6428 8542,6323 8617,6323 "/>
    <polygon class="fil1" points="8753,6428 8679,6428 8679,6323 8753,6323 "/>
    <polygon class="fil1" points="8883,6428 8808,6428 8808,6323 8883,6323 "/>
    <polygon class="fil1" points="9014,6428 8940,6428 8940,6323 9014,6323 "/>
    <polygon class="fil1" points="9148,6428 9073,6428 9073,6323 9148,6323 "/>
    <polygon class="fil1" points="9287,6428 9213,6428 9213,6323 9287,6323 "/>
    <polygon class="fil1" points="9424,6428 9349,6428 9349,6323 9424,6323 "/>
    <polygon class="fil1" points="9553,6428 9479,6428 9479,6323 9553,6323 "/>
    <polygon class="fil1" points="9685,6428 9610,6428 9610,6323 9685,6323 "/>
    <polygon class="fil11" points="8477,5741 8414,5741 8414,5632 8477,5632 "/>
    <polygon class="fil11" points="9100,5741 9037,5741 9037,5632 9100,5632 "/>
    <polygon class="fil11" points="9595,5741 9532,5741 9532,5632 9595,5632 "/>
    <path class="fil12" d="M14186 6676l-14170 0c-9,0 -16,-7 -16,-16l0 -5c0,-9 7,-17 16,-17l14170 0c9,0 16,8 16,17l0 5c0,9 -7,16 -16,16z"/>
    <path class="fil13" d="M12988 6638l-467 0c-25,-21 17,-69 62,-72 19,-2 43,2 71,8 6,-85 43,-469 181,-453 156,17 0,169 -44,258 -32,67 -67,162 -82,207 12,3 25,6 39,8 20,-63 97,-276 195,-264 114,15 68,100 -13,151 -60,37 -133,90 -167,116 29,5 60,8 91,7 80,-2 119,22 134,34z"/>
    <path class="fil13" d="M1405 6619c-22,-35 -88,-124 -176,-112 -96,13 106,76 168,112 -14,0 -26,-1 -35,-4 -41,-15 -112,14 -134,23l393 0c-3,-9 -10,-24 -28,-35 -7,-4 -20,-5 -37,-4 24,-27 40,-115 -25,-93 -48,17 -47,71 -43,103 -10,1 -20,3 -30,4 -20,-100 -89,-392 -229,-399 -142,-8 120,303 208,402 -11,1 -22,2 -32,3z"/>
    <path class="fil14" d="M12909 5280c-88,0 -159,-72 -159,-159 0,-88 71,-160 159,-160 88,0 159,72 159,160 0,87 -71,159 -159,159zm0 -496c-188,0 -341,152 -341,340 0,188 341,606 341,606 0,0 340,-418 340,-606 0,-188 -152,-340 -340,-340z"/>
    <path class="fil15" d="M1629 5442c-48,0 -87,-39 -87,-87 0,-48 39,-87 87,-87 48,0 87,39 87,87 0,48 -39,87 -87,87zm0 -272c-103,0 -186,84 -186,187 0,103 186,332 186,332 0,0 187,-229 187,-332 0,-103 -84,-187 -187,-187z"/>
    <path class="fil13" d="M3525 6638c0,0 134,-398 517,-475 382,-77 666,223 1007,106 341,-117 879,-735 1518,-283 640,452 598,580 1002,475 403,-106 496,177 496,177l-4540 0z"/>
    <path class="fil13" d="M3918 6263c0,0 -279,-292 -422,-214 -142,79 422,214 422,214z"/>
    <path class="fil13" d="M3847 6337c0,0 -257,-84 -322,-42 -64,42 322,42 322,42z"/>
    <path class="fil13" d="M4666 6310c0,0 177,-396 238,-324 61,72 -238,324 -238,324z"/>
    <path class="fil13" d="M4622 6284c0,0 73,-291 -36,-273 -108,18 36,273 36,273z"/>
    <polygon class="fil16" points="10606,3767 10606,3767 10606,3834 "/>
    <path class="fil0" d="M9429 6638c0,0 508,-128 651,-282 143,-155 267,20 174,118 -93,98 -825,164 -825,164z"/>
    <path class="fil0" d="M11446 6294l-712 0c-18,0 -32,-14 -32,-32 0,-17 14,-31 32,-31l712 0c17,0 32,14 32,31 0,18 -15,32 -32,32z"/>
    <path class="fil0" d="M11107 6152l-388 0c-9,0 -17,-8 -17,-17 0,-10 8,-18 17,-18l388 0c9,0 17,8 17,18 0,9 -8,17 -17,17z"/>
   </g>
   <circle class="fil17" cx="7381" cy="2790" r="10"/>
  </g>
  <g id="_550826784">
   <path class="fil18" d="M11383 4143c-70,-97 25,-278 36,-298 54,-104 103,-102 117,-175 24,-124 -108,-178 -87,-284 22,-116 190,-97 264,-248 54,-111 -16,-162 36,-298 34,-90 130,-242 265,-235 137,8 252,179 229,295 -22,116 -174,135 -177,246 -3,85 87,103 87,188 0,132 -212,183 -202,292 7,80 121,80 145,167 34,129 -162,325 -374,385 -32,9 -262,72 -339,-35z"/>
   <path class="fil19" d="M12027 2757c0,0 -1,4 -5,9 -23,42 -119,219 -135,386 -10,98 -30,144 -52,186 -22,42 -45,80 -66,168 -20,87 -20,169 -29,242 -9,73 -27,140 -86,194 -54,50 -99,133 -129,204 -16,35 -28,67 -36,90 -4,12 -7,21 -9,28 -2,6 -3,10 -3,10l-19 -6c1,0 18,-58 49,-130 31,-72 77,-156 134,-210 54,-50 71,-110 80,-182 9,-72 9,-155 30,-245 20,-89 46,-131 67,-172 22,-41 40,-83 50,-179 19,-197 143,-402 143,-402l16 9z"/>
   <path class="fil18" d="M8455 3620c-112,-42 -134,-245 -136,-267 -13,-117 29,-142 0,-211 -48,-116 -188,-87 -230,-187 -46,-110 105,-187 82,-354 -17,-122 -103,-125 -136,-267 -22,-93 -27,-274 89,-343 119,-70 309,9 355,118 46,109 -69,209 -11,303 45,73 130,37 178,108 73,109 -75,270 -6,355 50,62 145,-1 213,58 100,88 46,360 -97,528 -21,25 -177,205 -301,159z"/>
   <path class="fil19" d="M8220 2111c0,0 1,3 1,10 3,47 23,248 102,396 46,86 56,136 60,183 6,47 7,92 39,176 28,73 66,134 97,193 32,58 57,114 57,177 0,18 -2,37 -7,57 -7,28 -9,59 -9,92 0,67 11,137 23,191 6,27 11,50 16,66 2,8 4,14 5,18 1,5 2,7 2,7l-18 6c0,-1 -47,-150 -48,-288 0,-34 3,-67 10,-97 5,-18 7,-35 7,-52 0,-58 -24,-111 -55,-168 -31,-58 -69,-120 -98,-195 -33,-86 -35,-135 -40,-181 -5,-46 -12,-91 -58,-176 -93,-175 -105,-414 -105,-415l19 0z"/>
   <path class="fil19" d="M11080 5369c14,-179 299,-296 330,-308 164,-67 218,-18 305,-88 148,-119 48,-310 175,-412 140,-112 314,74 547,-29 170,-75 138,-202 330,-309 126,-70 385,-152 533,-13 151,142 117,450 -22,562 -139,112 -332,-13 -443,111 -86,96 0,204 -83,302 -127,152 -421,5 -516,141 -69,98 63,209 5,332 -85,182 -502,217 -805,81 -45,-20 -371,-172 -356,-370z"/>
   <path class="fil18" d="M13166 4394c0,0 -5,2 -15,5 -67,25 -350,137 -532,315 -106,103 -172,136 -238,163 -66,27 -131,48 -240,129 -109,82 -188,176 -270,252 -81,75 -166,133 -284,139 -112,5 -245,57 -349,109 -52,26 -97,51 -129,70 -16,9 -28,17 -37,23 -9,5 -13,8 -13,8l-11 -16c0,0 76,-50 182,-102 105,-52 239,-106 357,-111 111,-6 191,-60 271,-134 81,-75 160,-170 271,-253 111,-83 179,-106 244,-132 66,-27 128,-57 233,-159 212,-207 553,-324 554,-324l6 18z"/>
   <path class="fil18" d="M11436 5739c-11,-5 -38,-18 -73,-37 180,-5 613,12 735,-211 55,-101 13,-191 96,-257 107,-85 235,11 392,-83 77,-47 121,-116 147,-157 87,-138 44,-202 110,-267 86,-82 192,-8 382,-59 63,-18 115,-43 157,-70 -20,72 -55,135 -104,174 -139,112 -332,-13 -443,111 -86,96 0,204 -83,302 -127,152 -421,5 -516,141 -69,98 63,209 5,332 -85,182 -502,217 -805,81z"/>
   <path class="fil19" d="M11203 4982c-67,-167 136,-398 159,-423 116,-133 187,-113 234,-214 79,-173 -95,-299 -27,-447 75,-163 314,-74 477,-269 119,-143 34,-242 158,-423 82,-120 277,-308 472,-250 198,61 305,352 230,514 -74,162 -303,136 -347,296 -35,125 91,182 60,308 -46,192 -375,192 -400,355 -18,119 150,160 153,296 4,200 -353,417 -686,430 -49,2 -408,11 -483,-173z"/>
   <path class="fil18" d="M12638 3181c0,0 -4,4 -11,11 -49,53 -253,279 -337,518 -49,140 -94,199 -141,252 -47,54 -96,102 -157,223 -61,122 -90,241 -130,345 -39,104 -89,194 -192,251 -98,55 -194,161 -264,253 -36,46 -65,89 -85,120 -10,16 -18,28 -23,37 -5,9 -8,14 -8,14l-17 -10c0,0 46,-79 117,-173 72,-93 168,-200 271,-258 97,-54 145,-138 183,-241 39,-102 68,-223 131,-346 62,-124 113,-175 160,-227 46,-53 88,-108 137,-246 98,-280 352,-536 352,-536l14 13z"/>
   <path class="fil18" d="M11686 5155c-11,0 -41,1 -81,0 159,-85 554,-262 564,-516 5,-116 -73,-177 -28,-274 58,-123 215,-94 313,-248 49,-77 58,-158 63,-206 17,-162 -51,-201 -20,-288 40,-112 169,-93 315,-223 49,-44 84,-90 110,-133 14,73 10,146 -16,203 -74,162 -303,136 -347,296 -35,125 91,182 60,308 -46,192 -375,192 -400,355 -18,119 150,160 153,296 4,200 -353,417 -686,430z"/>
   <path class="fil19" d="M8118 4231c-185,-33 -276,-344 -286,-378 -53,-178 5,-229 -59,-328 -108,-167 -318,-83 -411,-227 -102,-158 110,-320 28,-574 -60,-186 -195,-167 -286,-378 -60,-140 -118,-420 43,-559 165,-143 484,-74 586,84 101,157 -50,345 68,475 90,100 212,21 306,118 145,150 -40,442 91,555 95,83 226,-43 348,31 180,109 172,548 -3,850 -26,45 -219,369 -425,331z"/>
   <path class="fil18" d="M7325 1947c0,0 1,5 4,16 18,73 105,381 270,590 97,122 124,195 145,267 21,71 36,142 109,264 72,119 158,210 227,301 70,90 122,180 122,297 0,7 0,15 -1,22 0,9 0,18 0,27 0,117 40,255 81,363 21,54 41,101 57,134 7,16 14,29 18,38 5,9 7,14 7,14l-17 9c0,0 -41,-79 -83,-188 -41,-110 -82,-249 -82,-370 0,-9 0,-19 0,-28 1,-7 1,-14 1,-21 0,-110 -49,-196 -118,-286 -68,-89 -155,-181 -228,-302 -75,-124 -91,-198 -112,-269 -20,-71 -46,-140 -141,-260 -193,-244 -278,-613 -278,-614l19 -4z"/>
   <path class="fil18" d="M8543 3900c-6,11 -22,38 -46,72 14,-189 79,-639 -141,-791 -100,-68 -198,-33 -259,-128 -77,-121 38,-244 -44,-418 -41,-86 -108,-139 -148,-171 -134,-106 -207,-68 -266,-144 -78,-98 12,-202 -22,-405 -11,-68 -32,-125 -56,-172 73,28 136,73 172,128 101,157 -50,345 68,475 90,100 212,21 306,118 145,150 -40,442 91,555 95,83 226,-43 348,31 180,109 172,548 -3,850z"/>
   <path class="fil20" d="M8424 3177c26,16 39,43 23,76 -43,90 -120,472 -177,517 -66,51 -295,42 -405,42l-25 -64c0,0 275,-78 342,-72 0,0 83,-593 242,-499z"/>
   <path class="fil21" d="M8217 3299c-37,106 -33,224 -33,224 0,0 143,59 217,32l62 -306c22,-55 -112,-7 -112,-7 -59,-41 -111,-11 -134,57z"/>
   <path class="fil20" d="M7762 3741c0,0 -138,25 -140,37 -1,12 -3,126 -3,126 0,0 33,5 61,-95 0,0 131,39 218,3l-38 -67 -98 -4z"/>
   <path class="fil22" d="M8519 6734l3160 0c45,0 82,-37 82,-82l0 -5716c0,-45 -37,-82 -82,-82l-3160 0c-45,0 -82,37 -82,82l0 5716c0,45 37,82 82,82z"/>
   <polygon class="fil23" points="8590,6356 11608,6356 11608,1055 8590,1055 "/>
   <polygon class="fil24" points="11397,4690 10651,4813 10837,4137 11106,4246 11368,3942 "/>
   <polygon class="fil24" points="11281,3864 11041,4074 10473,3833 10655,3575 11288,3482 "/>
   <polygon class="fil24" points="10641,4137 10146,3879 9964,4440 10541,4750 "/>
   <path class="fil24" d="M10292 3826l261 -453 -494 -475c0,0 -430,724 -409,724 22,0 642,204 642,204z"/>
   <polygon class="fil24" points="10735,3388 11288,3334 11434,2983 10932,2905 10568,2991 "/>
   <polygon class="fil24" points="9986,3856 9848,4386 9571,4526 9273,4557 9520,3755 "/>
   <polygon class="fil24" points="10313,2898 10852,2773 11448,2843 11397,2329 10670,2453 10095,2757 "/>
   <polygon class="fil24" points="10346,2437 10004,2684 9214,2325 "/>
   <polygon class="fil24" points="9846,2896 9540,3601 9333,3629 9161,4461 8753,4158 8852,2275 "/>
   <polygon class="fil24" points="11392,4785 10681,4947 11106,5814 11431,5877 "/>
   <path class="fil24" d="M10563 4982c26,35 388,881 388,881 0,0 -1191,-35 -1132,-155 60,-120 139,-1128 139,-1128l605 402z"/>
   <polygon class="fil24" points="11431,6033 11425,6202 10306,6202 10644,5969 11113,5955 "/>
   <path class="fil24" d="M9839 4623l-151 789 -698 -225c0,0 -164,-494 -145,-501 20,-7 994,-63 994,-63z"/>
   <polygon class="fil24" points="9609,5652 9530,6174 8878,6202 8826,5321 "/>
   <polygon class="fil24" points="9740,6047 9800,6300 10300,6162 10471,5970 "/>
   <polygon class="fil21" points="11777,1261 11296,1261 11302,2010 11785,2010 "/>
   <polygon class="fil14" points="11296,1261 10815,1261 10818,2010 11302,2010 "/>
   <polygon class="fil21" points="10815,1261 10334,1261 10335,2010 10818,2010 "/>
   <polygon class="fil14" points="10334,1261 9853,1261 9852,2010 10335,2010 "/>
   <polygon class="fil21" points="9853,1261 9372,1261 9368,2010 9852,2010 "/>
   <polygon class="fil14" points="9372,1261 8891,1261 8885,2010 9368,2010 "/>
   <polygon class="fil21" points="8891,1261 8410,1261 8402,2010 8885,2010 "/>
   <polygon class="fil25" points="11616,1046 11181,1046 11296,1261 11777,1261 "/>
   <polygon class="fil26" points="11181,1046 10746,1046 10815,1261 11296,1261 "/>
   <polygon class="fil25" points="10746,1046 10311,1046 10334,1261 10815,1261 "/>
   <polygon class="fil26" points="10311,1046 9876,1046 9853,1261 10334,1261 "/>
   <polygon class="fil25" points="9876,1046 9441,1046 9372,1261 9853,1261 "/>
   <polygon class="fil26" points="9441,1046 9006,1046 8891,1261 9372,1261 "/>
   <polygon class="fil25" points="9006,1046 8571,1046 8410,1261 8891,1261 "/>
   <path class="fil25" d="M11544 2252c-134,0 -242,-109 -242,-242l483 0c0,133 -108,242 -241,242z"/>
   <path class="fil27" d="M11060 2252c-133,0 -242,-109 -242,-242l484 0c0,133 -108,242 -242,242z"/>
   <path class="fil25" d="M10577 2252c-134,0 -242,-109 -242,-242l483 0c0,133 -108,242 -241,242z"/>
   <path class="fil27" d="M10091 2249c-133,0 -241,-108 -241,-241l483 0c0,133 -108,241 -242,241z"/>
   <path class="fil25" d="M9608 2249c-134,0 -242,-108 -242,-241l484 0c0,133 -109,241 -242,241z"/>
   <path class="fil27" d="M9127 2252c-134,0 -242,-109 -242,-242l483 0c0,133 -108,242 -241,242z"/>
   <path class="fil25" d="M8643 2252c-133,0 -241,-109 -241,-242l483 0c0,133 -108,242 -242,242z"/>
   <path class="fil28" d="M11162 5139c51,0 92,-41 92,-92 0,-51 -41,-92 -92,-92 -51,0 -92,41 -92,92 0,51 41,92 92,92zm0 -304c122,0 221,99 221,221 0,122 -221,373 -221,373 0,0 -221,-251 -221,-373 0,-122 99,-221 221,-221z"/>
   <path class="fil28" d="M9591 2784c51,0 92,-42 92,-92 0,-51 -41,-93 -92,-93 -51,0 -92,42 -92,93 0,50 41,92 92,92zm0 -304c122,0 221,99 221,221 0,122 -221,373 -221,373 0,0 -221,-251 -221,-373 0,-122 99,-221 221,-221z"/>
   <path class="fil28" d="M11085 4539c-4,-19 -8,-38 -12,-56l19 -4c4,18 8,37 11,57l-18 3z"/>
   <path class="fil28" d="M11045 4368c-11,-40 -23,-78 -35,-113l18 -6c12,35 24,73 36,114l-19 5zm-80 -222c-18,-38 -37,-72 -56,-103l16 -10c20,31 39,66 57,105l-17 8zm-125 -198c-28,-32 -57,-58 -85,-80l11 -15c30,22 59,50 88,83l-14 12zm-185 -140c-37,-17 -73,-29 -110,-37l4 -19c38,9 76,21 114,38l-8 18zm-227 -53c-39,-3 -78,-4 -118,-6l1 -19c39,1 79,3 119,6l-2 19zm-237 -14c-39,-4 -79,-11 -118,-22l5 -18c38,11 77,17 115,21l-2 19zm-231 -65c-21,-11 -42,-23 -63,-38 -13,-9 -26,-18 -38,-28l12 -15c12,10 24,19 37,27 20,14 41,26 61,37l-9 17zm-188 -149c-27,-32 -50,-65 -71,-97l17 -11c19,32 42,64 69,95l-15 13z"/>
   <path class="fil28" d="M9645 3322c-8,-19 -16,-37 -22,-54l18 -6c6,16 13,34 21,52l-17 8z"/>
   <path class="fil29" d="M6994 6324c57,283 342,464 636,405 294,-60 486,-336 428,-619 -57,-282 -341,-463 -635,-404 -294,59 -486,336 -429,618z"/>
   <path class="fil30" d="M7181 6287c37,183 222,300 412,262 191,-39 315,-218 278,-401 -37,-183 -221,-301 -412,-262 -190,38 -315,218 -278,401z"/>
   <path class="fil31" d="M7357 6251c18,90 109,148 202,129 94,-19 155,-107 137,-197 -18,-90 -109,-148 -203,-129 -93,19 -155,107 -136,197z"/>
   <path class="fil32" d="M8049 6198c0,0 0,0 0,0 0,0 0,0 0,0zm0 -1c0,0 0,0 0,0 0,0 0,0 0,0zm0 -1c0,0 0,0 0,0l0 0zm0 -1c0,0 0,0 0,0 0,0 0,0 0,0zm0 -1c0,0 0,0 0,-1 0,1 0,1 0,1zm0 -1c0,0 -1,0 -1,-1 0,1 1,1 1,1zm-1 -1c0,-1 0,-1 0,-1 0,0 0,0 0,1zm0 -1c0,-1 0,-1 0,-1 0,0 0,0 0,1zm0 -2c0,0 0,0 0,0 0,0 0,0 0,0z"/>
   <path class="fil33" d="M8041 6374c27,-80 35,-167 19,-254 0,0 0,0 0,0 0,-1 0,-1 0,-1 0,0 0,0 0,0 0,-1 0,-1 0,-1l0 0c0,-1 0,-1 0,-1 0,-1 0,-1 0,-1 0,0 0,0 0,0 0,-1 -1,-1 -1,-1 0,0 0,0 0,0 0,-1 0,-1 0,-1 0,0 0,0 0,-1 0,0 0,0 0,0 0,0 0,0 0,-1 0,0 0,0 0,0 0,0 0,0 0,-1 0,0 0,0 0,0 0,0 0,-1 -1,-1 -1,-7 -2,-14 -4,-20l-22 4 -51 -59 -5 3 -6 -16 -177 -207 -411 -99c-223,62 -379,252 -396,467l189 34c2,-157 118,-298 284,-331 191,-39 375,79 412,262 14,66 6,133 -19,192l189 34z"/>
   <path class="fil34" d="M7852 6340c25,-59 33,-126 19,-192 -37,-183 -221,-301 -412,-262 -166,33 -282,174 -284,331l181 33c-17,-89 44,-177 137,-196 94,-19 185,39 203,129 9,44 -1,88 -26,124l182 33z"/>
   <path class="fil35" d="M7670 6307c25,-36 35,-80 26,-124 -18,-90 -109,-148 -203,-129 -93,19 -154,107 -137,196l314 57z"/>
   <path class="fil29" d="M9402 6306c57,288 341,495 635,463 294,-33 486,-292 429,-580 -57,-287 -342,-494 -636,-462 -294,32 -486,292 -428,579z"/>
   <path class="fil30" d="M9589 6308c37,186 221,315 412,289 190,-26 315,-197 278,-382 -37,-186 -222,-315 -412,-290 -191,26 -315,198 -278,383z"/>
   <path class="fil31" d="M9764 6284c18,92 109,155 203,142 93,-12 155,-96 136,-188 -18,-91 -109,-154 -202,-142 -94,13 -155,97 -137,188z"/>
   <path class="fil36" d="M10474 6249c-1,-15 -2,-31 -5,-47l-1 1c3,15 5,31 6,46zm-30 -138l1 -1c-8,-25 -19,-50 -33,-75l-1 2c12,24 24,48 33,74zm-66 -132c-13,-18 -27,-36 -42,-53l-5 1c16,17 30,34 44,53l3 -1z"/>
   <path class="fil37" d="M10468 6203l1 -1c-5,-31 -13,-62 -24,-92l-1 1c9,25 17,51 22,78 1,5 2,9 2,14z"/>
   <path class="fil37" d="M10411 6037l1 -2c-7,-13 -15,-27 -23,-40 -4,-5 -7,-10 -11,-16l-3 1c13,18 25,37 36,57z"/>
   <path class="fil36" d="M9404 6347c-1,-4 -2,-9 -2,-14 -1,-2 -2,-5 -2,-8l0 0c1,7 3,15 4,22z"/>
   <path class="fil34" d="M10285 6274c0,-19 -2,-39 -6,-59 -23,-113 -100,-205 -199,-254 -75,-38 -155,-48 -240,-31 -69,15 -121,45 -161,85 -76,73 -113,180 -90,293 3,18 8,35 14,52l181 -23c-9,-16 -16,-34 -20,-53 -18,-91 43,-175 137,-188 93,-12 184,51 202,142 4,20 5,40 1,59l181 -23z"/>
   <path class="fil35" d="M10104 6297c4,-19 3,-39 -1,-59 -18,-91 -109,-154 -202,-142 -94,13 -155,97 -137,188 4,19 11,37 20,53l320 -40z"/>
   <polygon class="fil38" points="7640,4263 7730,3956 7817,3992 7781,4292 "/>
   <path class="fil14" d="M7616 4252l-141 579c-49,165 -74,311 -221,393 -190,106 -110,333 -110,333l638 283 239 327 1170 0 165 -475 1023 0 185 0 0 -335c0,-710 -576,-812 -1287,-812l-241 0 -288 0 0 1201c-211,93 -656,169 -656,169l-356 -685c-42,-81 -55,-173 -37,-262l109 -684c5,-28 -14,-53 -42,-57l-96 -12c-25,-3 -48,13 -54,37z"/>
   <polygon class="fil22" points="9244,4724 9244,5681 7965,6100 7959,6082 9225,5667 9225,4724 "/>
   <polygon class="fil22" points="9241,5457 8742,5457 8742,5438 9241,5438 "/>
   <path class="fil29" d="M8610 6021l374 -268c22,-15 27,-44 13,-64 -15,-20 -43,-24 -65,-8l-374 268c-21,15 -26,43 -12,63 15,21 43,25 64,9z"/>
   <path class="fil21" d="M9090 5907l1469 0c36,0 65,-29 65,-65 0,-373 -303,-676 -677,-676l-245 0c-374,0 -677,303 -677,676 0,36 30,65 65,65z"/>
   <polygon class="fil36" points="8747,4800 8748,4800 8748,4720 8747,4720 "/>
   <polygon class="fil39" points="8748,4800 9225,4800 9225,4724 9244,4724 9244,4800 9832,4800 9832,4596 9832,4720 8748,4720 "/>
   <polygon class="fil40" points="9225,4800 9244,4800 9244,4724 9225,4724 "/>
   <polygon class="fil21" points="8369,4720 9832,4720 9832,4516 8369,4516 "/>
   <polygon class="fil22" points="8369,4599 9832,4599 9832,4516 8369,4516 "/>
   <polygon class="fil22" points="9517,5696 10299,5696 10299,5663 9517,5663 "/>
   <polygon class="fil22" points="9517,5604 10299,5604 10299,5572 9517,5572 "/>
   <polygon class="fil22" points="9517,5513 10299,5513 10299,5480 9517,5480 "/>
   <polygon class="fil22" points="8846,5156 9103,5156 9103,5123 8846,5123 "/>
   <polygon class="fil22" points="8846,5065 9103,5065 9103,5032 8846,5032 "/>
   <polygon class="fil22" points="8846,4973 9103,4973 9103,4940 8846,4940 "/>
   <polygon class="fil38" points="7409,5112 7489,5112 7489,4921 7409,4921 "/>
   <polygon class="fil28" points="7331,5112 7411,5112 7411,4921 7331,4921 "/>
   <path class="fil41" d="M8369 4720l68 0 148 0c50,-17 106,-37 168,-59 62,-23 118,-43 166,-62l-550 0 0 121z"/>
   <path class="fil42" d="M8369 4599l0 0 550 0c80,-30 141,-57 179,-83l-164 0c-218,33 -409,55 -565,63l0 20z"/>
   <path class="fil43" d="M7890 3996c0,0 46,-168 -167,-208l-39 199 206 9z"/>
   <path class="fil43" d="M7663 3997c0,69 55,125 124,125 69,0 124,-56 124,-125 0,-68 -55,-124 -124,-124 -69,0 -124,56 -124,124z"/>
   <path class="fil22" d="M7668 3731c6,0 27,3 33,3 22,3 35,57 28,121 -8,64 -32,114 -54,112 -6,-1 -27,-3 -33,-4 -23,-2 -35,-56 -28,-121 7,-64 31,-114 54,-111z"/>
   <path class="fil24" d="M7614 3842c-7,65 2,118 19,120 18,2 38,-48 45,-112 8,-65 -1,-118 -19,-120 -17,-2 -38,48 -45,112z"/>
   <path class="fil29" d="M8985 3800c0,0 -660,347 -970,591 -279,219 189,241 978,116 157,-25 179,-374 101,-513l-109 -194z"/>
   <polygon class="fil20" points="8834,5596 8776,5501 8669,5575 8710,5630 8768,5700 "/>
   <path class="fil28" d="M8825 5583c0,0 87,57 109,114 0,0 -137,105 -235,197 -98,92 -199,73 -144,-6 56,-79 155,-258 155,-258 0,0 60,68 115,-47z"/>
   <path class="fil44" d="M8709 5709l2 -2c-26,-23 -48,-10 -48,-10l1 2c1,0 21,-11 45,10z"/>
   <path class="fil44" d="M8683 5743l2 -2c-26,-23 -48,-10 -48,-10l1 3c1,-1 21,-12 45,9z"/>
   <path class="fil44" d="M8731 5676l2 -2c-25,-23 -47,-10 -48,-10l2 3c1,-1 21,-12 44,9z"/>
   <path class="fil33" d="M8737 4122c29,0 59,-4 87,-12 136,-40 192,-224 166,-258 -4,-4 -9,-6 -15,-6 -35,0 -108,55 -188,95 -48,34 -102,73 -159,115 -6,9 -9,18 -7,25 5,25 57,41 116,41z"/>
   <path class="fil31" d="M8563 5877c27,7 51,32 69,41 31,18 218,-197 218,-197 6,-38 20,-70 32,-93 21,20 43,45 52,69 0,0 -137,105 -235,197 -98,92 -199,73 -144,-6 3,-4 5,-7 8,-11z"/>
   <path class="fil29" d="M8333 4555c0,0 77,146 245,410 216,341 294,495 294,495l-176 149c0,0 -361,-376 -509,-626 0,0 -203,-292 -245,-439 -38,-132 86,-35 187,-107l204 118z"/>
   <polygon class="fil45" points="9162,4218 10059,4218 10059,3917 9161,3917 "/>
   <polygon class="fil45" points="9125,4094 10096,4093 10095,3918 9125,3919 "/>
   <polygon class="fil22" points="9629,3916 9629,4216 9620,4216 9620,3916 "/>
   <path class="fil22" d="M9622 3917c0,0 -3,-11 -9,-27 -9,-25 -23,-61 -41,-92 -9,-15 -19,-29 -29,-38 -9,-10 -19,-15 -28,-15 -10,0 -17,4 -22,10 -5,7 -8,17 -8,29 0,42 38,108 143,147l13 4 -13 5c0,0 -49,17 -110,17 -40,0 -85,-8 -125,-32l5 -9c38,24 81,31 120,31 30,0 56,-4 76,-8 10,-2 18,-4 23,-6 5,-1 8,-2 8,-2l2 4 -2 5c-108,-40 -150,-109 -150,-156 0,-14 4,-26 11,-35 6,-8 17,-14 29,-14 17,1 32,13 46,30 40,50 70,149 70,149l-9 3z"/>
   <path class="fil22" d="M9620 3914c0,0 13,-44 34,-88 11,-22 23,-44 37,-61 13,-17 28,-29 46,-30 12,0 22,6 29,14 6,9 10,21 10,35 0,47 -42,116 -150,156l-2 -5 2 -4c0,0 3,1 8,2 17,5 55,14 99,14 39,0 83,-7 120,-31l5 9c-39,24 -85,32 -125,32 -61,0 -110,-17 -110,-17l-13 -5 13 -4c105,-39 143,-105 143,-147 0,-12 -3,-22 -8,-29 -5,-6 -12,-10 -21,-10 -13,0 -26,10 -39,26 -19,24 -37,60 -49,91 -6,15 -11,29 -15,39 -3,10 -5,16 -5,16l-9 -3z"/>
   <polygon class="fil22" points="10059,4098 9163,4098 9163,4089 10059,4089 "/>
   <polygon class="fil45" points="9220,4517 10117,4517 10117,4216 9219,4216 "/>
   <polygon class="fil45" points="9184,4393 10154,4392 10154,4216 9183,4216 "/>
   <polygon class="fil22" points="9687,4216 9687,4515 9678,4515 9677,4216 "/>
   <polygon class="fil22" points="10117,4397 9221,4397 9221,4388 10117,4388 "/>
   <polygon class="fil46" points="9187,4216 9219,4216 9219,4216 9609,4216 9183,4216 "/>
   <polygon class="fil46" points="9219,4216 9840,4216 9609,4216 9219,4216 "/>
   <polygon class="fil46" points="10153,4290 10153,4216 9840,4216 9219,4216 9187,4216 9677,4254 9677,4216 9687,4216 9687,4255 "/>
   <polygon class="fil47" points="9687,4255 9687,4216 9677,4216 9677,4254 "/>
   <path class="fil22" d="M7664 4011c0,46 38,84 84,84 46,0 84,-38 84,-84 0,-47 -38,-84 -84,-84 -46,0 -84,37 -84,84z"/>
   <polygon class="fil22" points="7750,3987 7820,3662 7807,3644 7736,3969 "/>
   <path class="fil22" d="M7787 3651c0,82 26,149 58,149 32,0 58,-67 58,-149 0,-82 -26,-148 -58,-148 -32,0 -58,66 -58,148z"/>
   <path class="fil39" d="M7748 4095c46,0 84,-38 84,-84l0 0c0,46 -38,84 -84,84 0,0 0,0 -1,0 1,0 1,0 1,0zm-1 0c0,0 0,0 0,0 0,0 0,0 0,0zm0 0c0,0 0,0 -1,0 1,0 1,0 1,0zm-1 0c0,0 0,0 0,0 0,0 0,0 0,0zm0 0c0,0 -1,0 -1,0 0,0 1,0 1,0zm86 -84c0,0 0,-1 0,-1 0,0 0,1 0,1zm0 -1c0,0 0,0 0,0 0,0 0,0 0,0zm0 0c0,-1 0,-1 0,-1 0,0 0,0 0,1zm0 -1c0,0 0,0 0,0 0,0 0,0 0,0zm0 -1c0,0 0,0 0,0 0,0 0,0 0,0z"/>
   <path class="fil40" d="M7748 4095c46,0 84,-38 84,-84l0 0c0,0 0,-1 0,-1 0,0 0,0 0,0 0,0 0,0 0,0 0,0 0,0 0,0 0,-1 0,-1 0,-1 0,0 0,0 0,0 0,0 0,0 0,0 0,0 0,-1 0,-1 0,0 0,0 0,0 -1,-29 -17,-54 -40,-68 8,12 13,28 13,44 0,46 -37,84 -84,84 -16,0 -31,-5 -44,-13 14,23 39,39 68,40 0,0 1,0 1,0 0,0 0,0 0,0 0,0 0,0 0,0 0,0 0,0 0,0 1,0 1,0 1,0 0,0 0,0 0,0 0,0 0,0 0,0 0,0 0,0 0,0 1,0 1,0 1,0z"/>
   <path class="fil21" d="M7886 3651c0,-68 -19,-126 -44,-143 5,-3 10,-5 15,-5 33,0 60,66 60,148 0,82 -27,149 -60,149 -5,0 -10,-2 -15,-6 25,-17 44,-74 44,-143z"/>
   <path class="fil22" d="M7787 3651c0,82 26,149 58,149 32,0 58,-67 58,-149 0,-82 -26,-148 -58,-148 -32,0 -58,66 -58,148z"/>
   <path class="fil20" d="M8231 3359c0,0 0,-154 -10,-179 -23,-61 -50,-121 -92,-155l-32 -229c0,0 135,113 257,253 38,44 76,47 99,47 50,-1 106,274 -147,274l-3 0c-51,0 -8,23 -72,-11z"/>
   <path class="fil48" d="M8226 3201l-1 -4c0,-6 -1,-12 -4,-17 -9,-23 -18,-46 -29,-67l45 -110c0,0 55,126 -11,198z"/>
   <path class="fil21" d="M8232 3441c0,0 -16,-192 -2,-215 108,-62 136,-166 136,-166 67,-20 210,88 226,103 187,160 361,616 457,697 7,5 -264,255 -473,249 -58,-1 -85,-35 -85,-35 -52,-145 -82,-197 -137,-285 -109,-176 -122,-348 -122,-348z"/>
   <path class="fil49" d="M7963 2890c0,0 1,304 135,283 166,-25 208,-267 206,-399 -1,-63 -60,-80 -121,-95 -95,-23 -223,38 -220,211z"/>
   <path class="fil29" d="M7998 2732c34,-62 126,-105 223,-97 97,7 159,76 167,166 13,147 -101,175 -101,175 0,0 -105,12 -164,-168 -139,40 -159,-14 -125,-76z"/>
   <path class="fil49" d="M7968 2902c0,0 -10,69 -20,94 -10,25 -1,43 44,41l-24 -135z"/>
   <path class="fil44" d="M8034 3054c32,0 56,-33 56,-33l-2 -2c-1,0 -31,42 -67,30l-1 3c5,2 10,2 14,2z"/>
   <path class="fil20" d="M8312 2995c-19,28 -51,39 -73,25 -22,-14 -24,-48 -6,-77 19,-28 51,-39 73,-25 21,14 24,48 6,77z"/>
   <path class="fil20" d="M8586 3232c32,19 46,50 27,89 -51,106 -141,557 -209,610 -77,60 -346,50 -476,50l-30 -76c0,0 324,-92 403,-85 0,0 98,-699 285,-588z"/>
   <path class="fil21" d="M8422 3256c-44,126 -119,384 -119,384 0,0 169,69 256,38l74 -362c25,-64 -53,-126 -53,-126 -69,-49 -130,-14 -158,66z"/>
   <path class="fil21" d="M7965 2923c0,0 17,62 47,84 30,22 76,-1 99,23 0,0 0,131 -70,127 -163,-9 -76,-234 -76,-234z"/>
   <path class="fil50" d="M8034 3111c45,2 61,-50 66,-88 4,2 8,4 11,7 0,0 0,131 -70,127 -77,-4 -98,-57 -99,-111 11,35 38,62 92,65z"/>
   <path class="fil21" d="M8075 3039c100,-28 186,-120 187,-121l-7 -6c-1,1 -85,91 -183,118l3 9z"/>
   <path class="fil20" d="M7806 3897c0,0 -163,29 -165,43 -1,14 -4,149 -4,149 0,0 40,6 72,-112 0,0 154,46 258,3l-46 -78 -115 -5z"/>
   <path class="fil14" d="M7953 2757c17,-34 91,-137 234,-137 134,0 198,64 209,178 19,183 -108,215 -108,215 0,0 -51,-15 -122,-241 -154,46 -252,62 -213,-15z"/>
   <path class="fil26" d="M8161 2737c0,0 -270,67 -280,95 -16,49 118,-20 285,-60l-5 -35z"/>
   <path class="fil43" d="M8260 2843c-16,26 -8,61 18,78 27,16 62,8 78,-18 17,-27 9,-62 -18,-78 -26,-17 -61,-9 -78,18z"/>
   <path class="fil44" d="M8260 2843l3 1c-6,9 -9,19 -9,29 0,18 9,35 26,46 9,5 19,8 28,8 18,0 36,-9 46,-26 6,-9 9,-19 9,-28 0,-18 -9,-36 -26,-46 -9,-6 -19,-9 -28,-9 -19,0 -36,9 -46,26l-3 -1 -2 -2c12,-18 31,-27 51,-27 10,0 21,3 31,9 18,11 27,30 27,50 0,10 -2,21 -9,31 -11,18 -30,28 -50,28 -10,0 -21,-3 -31,-9 -18,-12 -28,-31 -28,-50 0,-11 3,-22 9,-32l2 2z"/>
   <path class="fil26" d="M8181 2678c6,19 -4,40 -23,47 -145,58 -185,60 -191,49 -8,-14 38,-56 65,-76 37,-27 76,-39 106,-45 18,-4 37,7 43,25z"/>
   <polygon class="fil21" points="7883,6030 7134,5557 7122,5474 7701,5459 7779,5542 7992,6035 "/>
   <polygon class="fil22" points="10368,5905 10648,5905 10648,5662 10368,5662 "/>
   <path class="fil22" d="M7532 4345c10,1 49,6 59,7 41,5 63,102 50,219 -13,116 -56,206 -97,202 -11,-1 -49,-6 -60,-7 -40,-4 -63,-102 -50,-219 13,-116 57,-206 98,-202z"/>
   <path class="fil24" d="M7434 4547c-13,117 3,214 35,217 32,4 68,-87 81,-204 13,-116 -2,-213 -34,-216 -32,-4 -69,87 -82,203z"/>
   <path class="fil44" d="M8650 3337l-89 343 -1 0c0,0 -25,4 -60,4 -48,0 -117,-6 -175,-33l-2 -1 95 -414 5 2 -95 411 -2 0 1 -2c56,26 125,32 173,32 18,0 32,-1 43,-2 10,-1 16,-1 16,-1l0 2 -2 -1 88 -341 5 1z"/>
   <path class="fil51" d="M9476 5049c0,42 147,77 329,77 181,0 329,-35 329,-77 0,-43 -148,-77 -329,-77 -182,0 -329,34 -329,77z"/>
   <path class="fil52" d="M7174 5422c22,20 74,-2 115,-49 41,-46 56,-100 34,-119 -23,-20 -74,2 -115,49 -41,46 -56,100 -34,119z"/>
   <path class="fil21" d="M7457 4494c-8,66 1,121 19,123 18,2 39,-50 46,-115 8,-66 -1,-121 -19,-123 -18,-2 -39,50 -46,115z"/>
   <path class="fil21" d="M7622 3831c-4,35 0,64 10,65 9,1 20,-26 24,-61 4,-35 0,-64 -10,-65 -10,-1 -21,26 -24,61z"/>
   <path class="fil21" d="M7483 4656c-3,25 0,46 7,46 7,1 15,-18 18,-43 2,-25 -1,-45 -8,-46 -7,-1 -14,19 -17,43z"/>
   <path class="fil44" d="M8235 3321c0,1 1,33 4,76 2,43 6,97 12,141l-5 0c-11,-87 -16,-216 -16,-216l5 -1z"/>
  </g>
 </g>
</svg>
