<?xml version="1.0" encoding="UTF-8"?>
<!DOCTYPE svg PUBLIC "-//W3C//DTD SVG 1.1//EN" "http://www.w3.org/Graphics/SVG/1.1/DTD/svg11.dtd">
<!-- Creator: CorelDRAW X7 -->
<svg xmlns="http://www.w3.org/2000/svg" xml:space="preserve" width="69.4658mm" height="90.2031mm" version="1.1" style="shape-rendering:geometricPrecision; text-rendering:geometricPrecision; image-rendering:optimizeQuality; fill-rule:evenodd; clip-rule:evenodd"
viewBox="0 0 3016 3916"
 xmlns:xlink="http://www.w3.org/1999/xlink">
 <defs>
  <style type="text/css">
   <![CDATA[
    .str2 {stroke:#2B2A29;stroke-width:8.68339}
    .str0 {stroke:#FEFEFE;stroke-width:3.30837}
    .str1 {stroke:#F99746;stroke-width:3.30837}
    .fil55 {fill:none}
    .fil59 {fill:#FEFEFE}
    .fil60 {fill:#D9DADA}
    .fil7 {fill:#EBECEC;fill-rule:nonzero}
    .fil56 {fill:#2B2A29;fill-rule:nonzero}
    .fil10 {fill:#2B2A29;fill-rule:nonzero}
    .fil9 {fill:black;fill-rule:nonzero}
    .fil23 {fill:#016228;fill-rule:nonzero}
    .fil24 {fill:#01AF5D;fill-rule:nonzero}
    .fil22 {fill:#05893D;fill-rule:nonzero}
    .fil50 {fill:#0AA049;fill-rule:nonzero}
    .fil49 {fill:#0AAE49;fill-rule:nonzero}
    .fil39 {fill:#0ABA49;fill-rule:nonzero}
    .fil57 {fill:#33A848;fill-rule:nonzero}
    .fil11 {fill:#54AA4D;fill-rule:nonzero}
    .fil25 {fill:#69C660;fill-rule:nonzero}
    .fil17 {fill:#8C421D;fill-rule:nonzero}
    .fil45 {fill:#AA1613;fill-rule:nonzero}
    .fil38 {fill:#C14436;fill-rule:nonzero}
    .fil26 {fill:#C6DD7C;fill-rule:nonzero}
    .fil19 {fill:#C8822A;fill-rule:nonzero}
    .fil18 {fill:#D49538;fill-rule:nonzero}
    .fil51 {fill:#D86757;fill-rule:nonzero}
    .fil46 {fill:#E2952B;fill-rule:nonzero}
    .fil48 {fill:#E2AA2B;fill-rule:nonzero}
    .fil54 {fill:#E2B12B;fill-rule:nonzero}
    .fil47 {fill:#E2C82B;fill-rule:nonzero}
    .fil37 {fill:#E44436;fill-rule:nonzero}
    .fil52 {fill:#E48364;fill-rule:nonzero}
    .fil13 {fill:#E8DDC4;fill-rule:nonzero}
    .fil31 {fill:#EBE6CF;fill-rule:nonzero}
    .fil5 {fill:#ED7C2A;fill-rule:nonzero}
    .fil3 {fill:#EFA16E;fill-rule:nonzero}
    .fil32 {fill:#EFEBD8;fill-rule:nonzero}
    .fil36 {fill:#F26036;fill-rule:nonzero}
    .fil35 {fill:#F27E36;fill-rule:nonzero}
    .fil8 {fill:#F2F6FF;fill-rule:nonzero}
    .fil41 {fill:#F4BA1F;fill-rule:nonzero}
    .fil42 {fill:#F4C33D;fill-rule:nonzero}
    .fil44 {fill:#F4D13D;fill-rule:nonzero}
    .fil43 {fill:#F6DF70;fill-rule:nonzero}
    .fil29 {fill:#F7F4E2;fill-rule:nonzero}
    .fil2 {fill:#F99746;fill-rule:nonzero}
    .fil1 {fill:#FFB17C;fill-rule:nonzero}
    .fil4 {fill:#FFC197;fill-rule:nonzero}
    .fil58 {fill:#FFD3B6;fill-rule:nonzero}
    .fil14 {fill:#FFFFF4;fill-rule:nonzero}
    .fil6 {fill:white;fill-rule:nonzero}
    .fil27 {fill:black;fill-rule:nonzero;fill-opacity:0.149020}
    .fil20 {fill:white;fill-rule:nonzero;fill-opacity:0.168627}
    .fil30 {fill:#BFBA90;fill-rule:nonzero;fill-opacity:0.180392}
    .fil12 {fill:#9EA7C3;fill-rule:nonzero;fill-opacity:0.239216}
    .fil21 {fill:#CFB893;fill-rule:nonzero;fill-opacity:0.239216}
    .fil53 {fill:#F6DFE2;fill-rule:nonzero;fill-opacity:0.368627}
    .fil0 {fill:#54AA4D;fill-rule:nonzero;fill-opacity:0.400000}
    .fil28 {fill:#F4F6DF;fill-rule:nonzero;fill-opacity:0.501961}
    .fil34 {fill:#EBECEC;fill-rule:nonzero;fill-opacity:0.509804}
    .fil16 {fill:#DFCFAC;fill-rule:nonzero;fill-opacity:0.529412}
    .fil15 {fill:#E8DDC4;fill-rule:nonzero;fill-opacity:0.529412}
    .fil40 {fill:#C14436;fill-rule:nonzero;fill-opacity:0.560784}
    .fil33 {fill:white;fill-rule:nonzero;fill-opacity:0.560784}
   ]]>
  </style>
    <clipPath id="id0">
     <path d="M1925 94l84 0c14,0 26,12 26,26l0 0c0,14 -12,26 -26,26l-84 0c-14,0 -25,-12 -25,-26l0 0c0,-14 11,-26 25,-26z"/>
    </clipPath>
 </defs>
 <g id="Layer_x0020_1">
  <metadata id="CorelCorpID_0Corel-Layer"/>
  <g id="_491082680">
   <path class="fil0" d="M852 794c-21,48 -120,53 -221,9 -101,-43 -166,-118 -145,-167 21,-49 120,-53 221,-10 101,44 166,119 145,168z"/>
   <path class="fil1" d="M1893 1458c0,0 -166,333 -335,562 -67,92 -135,167 -192,198 -57,31 -105,78 -144,131 -103,137 -150,308 -150,308l-432 -654c0,0 15,-639 66,-745 76,-156 113,-471 142,-533 21,-47 83,-287 89,-305 2,-7 23,-19 49,-19 22,0 58,21 67,63 46,214 -10,356 -9,362 16,164 -33,287 2,319 1,1 3,1 7,-1 59,-39 429,-578 474,-589 49,-12 366,903 366,903z"/>
   <path class="fil2" d="M1202 2527c0,0 -6,291 -23,682l-1090 0c250,-531 466,-978 466,-978 0,0 620,19 647,296z"/>
   <path class="fil3" d="M1558 2020c-67,92 -135,167 -192,198 -57,31 -105,78 -144,131 -46,-21 -98,-46 -149,-71 -61,-30 -64,-117 -3,-150 0,0 1,-1 2,-1 56,-32 114,-147 114,-147l372 40z"/>
   <path class="fil4" d="M934 430l-35 142c0,0 30,12 50,2 19,-9 35,-136 -15,-144z"/>
   <path class="fil5" d="M449 2451c0,0 213,204 356,283l109 -77 0 113c0,0 214,38 281,0l0 -310 -600 -301 -146 292z"/>
   <path class="fil6" d="M1241 2746c-83,17 -261,-48 -261,-48l28 -278 -201 231c-102,-38 -263,-138 -358,-200 -47,-31 -79,-52 -79,-52 135,-217 270,-419 270,-419 40,80 133,148 235,204 169,91 360,145 360,145 0,165 6,417 6,417z"/>
   <path class="fil3" d="M1053 1580c0,0 -30,-258 -57,-309 -27,-50 -50,-151 -8,-226 42,-75 56,-219 56,-219 16,164 -33,287 2,319 1,1 3,1 7,-1l0 436z"/>
   <g>
    <polygon class="fil2" points="381,493 0,474 279,354 281,410 368,444 "/>
    <polygon class="fil7" points="0,474 340,375 645,418 "/>
    <polygon class="fil6" points="279,354 0,474 242,249 "/>
   </g>
   <path class="fil8" d="M1241 2746c-83,17 -261,-48 -261,-48l28 -278 -201 231c-102,-38 -263,-138 -358,-200 244,-27 426,-267 426,-267 169,91 360,145 360,145 0,165 6,417 6,417z"/>
   <path class="fil2" d="M673 2494c0,-19 15,-34 34,-34 18,0 33,16 33,34 0,19 -15,34 -34,33 -18,0 -33,-15 -33,-33z"/>
   <path class="fil1" d="M2271 332l-134 196 -131 193c-8,9 -17,13 -27,12 -32,-3 -71,-49 -101,-74l-3 -2c-40,-34 -46,-93 -13,-133l201 -243 0 0 59 -72c33,-40 93,-46 133,-12l3 2c41,33 46,93 13,133z"/>
   <path class="fil3" d="M2137 528l-131 193c-8,9 -17,13 -27,12l84 -452c0,3 14,205 74,247z"/>
   <g>
    <g>
     <path class="fil9" d="M2000 2485l-972 0c-96,0 -174,-79 -174,-174l0 -2137c0,-96 78,-174 174,-174l972 0c95,0 174,78 174,174l0 2137c0,95 -79,174 -174,174z"/>
     <g>
      <path class="fil6" d="M2108 190l0 2088c0,70 -57,128 -128,128l-933 0c-70,0 -128,-58 -128,-128l0 -2088c0,-70 58,-128 128,-128l933 0c71,0 128,58 128,128z"/>
     </g>
     <path class="fil9" d="M1709 139l-390 0c-32,0 -58,-26 -58,-58l0 -9c0,-31 26,-57 58,-57l390 0c31,0 57,26 57,57l0 9c0,32 -26,58 -57,58z"/>
    </g>
    <g>
     <path class="fil10 str0" d="M1099 192l-13 10 -14 -10c3,-4 8,-7 14,-7 5,0 10,3 13,7z"/>
     <g>
      <path class="fil10 str0" d="M1086 162c-14,0 -25,7 -33,17l9 6c5,-8 14,-13 24,-13 10,0 18,5 24,13l8 -6c-7,-10 -19,-17 -32,-17z"/>
     </g>
     <g>
      <path class="fil10 str0" d="M1086 118c-28,0 -54,14 -69,35l9 6c13,-18 35,-31 60,-31 24,0 46,12 60,31l8 -6c-15,-21 -40,-35 -68,-35z"/>
     </g>
     <g>
      <path class="fil10 str0" d="M1086 142c-20,0 -38,10 -49,25l8 6c9,-12 24,-21 41,-21 16,0 31,8 40,21l8 -6c-11,-15 -28,-25 -48,-25z"/>
     </g>
    </g>
    <g>
     <path class="fil11" d="M1528 1931l-258 0c-20,0 -36,-17 -36,-37l0 -3c0,-20 16,-36 36,-36l258 0c20,0 36,16 36,36l0 3c0,20 -16,37 -36,37z"/>
     <path class="fil11" d="M1756 1931l-116 0c-21,0 -38,-17 -38,-38 0,-21 17,-38 38,-38l116 0c21,0 38,17 38,38 0,21 -17,38 -38,38z"/>
    </g>
    <g>
     <path class="fil12" d="M1990 879c2,-120 -222,-219 -500,-223 0,0 0,0 0,0 0,0 -1,0 -1,0 -3,0 -6,0 -10,0 -1,0 -1,0 -2,0 -2,0 -4,0 -6,0 -269,1 -485,94 -487,211 0,7 1,14 3,21 14,117 231,213 497,216 260,3 475,-83 501,-196 3,-10 5,-19 5,-29z"/>
     <g>
      <g>
       <g>
        <path class="fil13" d="M1975 870c-1,124 -223,221 -495,218 -273,-3 -492,-106 -491,-230 2,-123 224,-221 496,-217 272,3 492,106 490,229z"/>
        <path class="fil6" d="M1978 863c-2,119 -225,213 -498,210 -273,-3 -494,-103 -492,-222 1,-120 224,-214 497,-210 274,3 494,102 493,222z"/>
        <path class="fil14" d="M1959 859c-1,113 -215,203 -479,200 -263,-4 -475,-98 -474,-211 1,-113 216,-203 479,-200 263,4 476,98 474,211z"/>
       </g>
       <path class="fil15" d="M1795 843c-1,64 -141,114 -314,112 -172,-2 -311,-55 -311,-120 1,-64 142,-114 314,-112 172,2 311,55 311,120z"/>
       <path class="fil16" d="M1786 843c-1,59 -136,105 -303,103 -166,-2 -301,-51 -300,-111 1,-59 136,-105 303,-103 166,2 301,51 300,111z"/>
      </g>
      <g>
       <path class="fil15" d="M992 833c0,0 1,36 47,52 46,16 59,10 71,-7 11,-17 60,-43 60,-43l4 -17 -182 15z"/>
       <g>
        <g>
         <path class="fil17" d="M1200 819c0,0 -29,3 -64,27 -35,23 -34,33 -43,37 -9,4 -58,6 -89,-30 -32,-36 -20,-103 -6,-121 13,-18 167,23 167,23l35 64z"/>
         <path class="fil18" d="M1206 759c-2,-1 -53,13 -81,29 -29,16 -35,27 -51,38 -15,10 -50,-3 -68,-28 -18,-26 -24,-66 21,-105 46,-38 114,-44 143,-38 30,6 36,104 36,104z"/>
        </g>
        <g>
         <path class="fil19" d="M1069 773c0,5 6,8 15,9 8,0 15,-4 15,-9 0,-4 -7,-8 -15,-8 -9,0 -15,3 -15,8z"/>
         <path class="fil19" d="M1046 711c0,3 4,5 10,5 5,0 10,-2 10,-5 0,-3 -4,-6 -10,-6 -6,0 -10,3 -10,6z"/>
         <path class="fil19" d="M1041 750c0,3 4,5 9,5 5,0 9,-2 9,-4 0,-3 -4,-5 -9,-6 -5,0 -9,3 -9,5z"/>
         <path class="fil19" d="M1103 697c0,3 4,5 9,5 5,0 9,-2 9,-5 0,-3 -4,-5 -9,-5 -5,0 -9,2 -9,5z"/>
         <path class="fil19" d="M1092 739c0,5 7,8 14,8 8,0 14,-3 14,-7 0,-5 -6,-8 -13,-8 -8,0 -14,3 -15,7z"/>
         <path class="fil19" d="M1019 782c0,5 6,8 14,8 8,0 14,-3 14,-7 0,-5 -6,-8 -14,-8 -7,0 -14,3 -14,7z"/>
        </g>
        <path class="fil20" d="M997 736c1,-3 2,-7 3,-9 5,-10 12,-19 22,-29 6,26 26,88 80,109 0,0 8,42 9,58 -10,10 -12,15 -18,18 -8,4 -52,6 -83,-24l3 -53c0,0 -30,-27 -16,-70z"/>
       </g>
      </g>
      <g>
       <path class="fil21" d="M1485 1016c0,0 -19,13 -10,24 9,11 44,-3 78,-16 33,-14 102,-34 143,-38 41,-5 176,6 176,6l30 -12 -223 -18 -194 54z"/>
       <g>
        <g>
         <path class="fil22" d="M1944 923c0,0 3,-26 -35,-44 -37,-18 -102,65 -102,65l137 -21z"/>
         <path class="fil23" d="M1955 956c0,0 17,-20 23,-46 0,0 -87,28 -195,1l-46 35 183 25 35 -15z"/>
         <path class="fil24" d="M1790 953c0,0 85,-23 130,-72 0,0 4,-15 -26,-30 -30,-14 -132,89 -132,89l28 13z"/>
         <path class="fil25" d="M1773 947c0,0 65,-15 144,-99 0,0 4,-16 -15,-31 -19,-16 -173,121 -173,121l44 9z"/>
         <path class="fil11" d="M1957 985c-4,3 -197,-7 -229,-12 -33,-5 -77,1 -77,1l17 -45c0,0 38,-9 64,-25 26,-16 120,-77 167,-135 0,0 21,24 19,44 0,0 -48,75 -163,125 0,0 137,28 240,2 0,0 -13,28 -38,45z"/>
         <path class="fil26" d="M1486 1032l-9 -81c21,1 127,4 255,-47 0,0 -28,20 -63,30 0,0 29,0 60,-15 0,0 -24,22 -62,26 0,0 50,1 68,-10 0,0 -28,20 -67,22 0,0 50,-6 80,-1 0,0 -33,-2 -81,13 0,0 42,-6 80,6 0,0 -42,-4 -98,6 -55,9 -122,43 -163,51z"/>
        </g>
        <path class="fil27" d="M1979 964c-49,15 -171,8 -217,-2 -49,-11 -120,-3 -168,16 -42,17 -98,23 -111,25l3 29c41,-8 108,-42 163,-51 56,-10 98,-6 98,-6 0,0 0,0 0,0 59,5 207,13 210,10 9,-6 16,-13 22,-21z"/>
        <g>
         <path class="fil28" d="M1490 960c0,0 -16,14 6,18 23,4 108,-25 140,-28 31,-3 53,-9 43,-16 -10,-7 -56,15 -106,19 -49,5 -83,7 -83,7z"/>
        </g>
       </g>
      </g>
      <g>
       <g>
        <path class="fil6" d="M1039 587c-1,9 -7,16 -14,16 -8,0 -14,-7 -13,-16 0,-10 6,-17 13,-17 8,0 14,8 14,17z"/>
        <path class="fil29" d="M1838 647c1,-1 -212,20 -352,34 -141,-11 -354,-27 -353,-26 0,0 2,74 28,126 10,19 20,37 33,53 8,12 41,55 114,76 85,25 270,33 367,2 58,-19 96,-67 118,-102 7,-12 13,-23 19,-35 25,-53 26,-128 26,-128z"/>
        <path class="fil30" d="M1528 932c55,-2 108,-8 147,-20 58,-19 96,-67 118,-102 7,-12 13,-23 19,-35 22,-47 26,-110 26,-124 -20,1 -218,20 -351,33 -140,-11 -354,-27 -353,-26 0,0 -1,-1 -1,5 0,3 1,5 1,8 0,3 1,8 2,13 26,25 73,71 319,89 68,5 126,0 154,-1 16,1 41,3 44,23 4,32 -14,117 -125,137z"/>
        <path class="fil13" d="M1859 638c-35,68 -156,115 -368,121 -202,5 -338,-43 -378,-112l746 -9z"/>
        <path class="fil14" d="M1475 456l3 289c0,0 295,4 367,-107 0,0 42,12 83,-2 56,-19 61,-91 4,-113 -53,-22 -97,7 -97,7 0,0 -104,-79 -360,-74zm376 104l0 0c0,0 31,-11 49,-5 17,7 18,32 4,42 -14,11 -52,-1 -52,-1 0,0 5,-14 -1,-36z"/>
        <path class="fil31" d="M1914 575c0,0 -10,-15 -36,-14 -26,0 -26,4 -26,4l-5 -11c0,0 26,-12 49,-7 23,5 18,28 18,28z"/>
        <path class="fil32" d="M1972 581c0,0 -9,44 -62,52 -53,8 -62,-3 -62,-3 0,0 0,6 -5,12 0,0 26,9 67,3 40,-6 64,-34 62,-64z"/>
        <path class="fil14" d="M1135 537c0,0 -44,-27 -97,-5 -56,24 -50,96 6,113 41,13 83,1 83,1 75,109 354,99 354,99l-3 -289c-255,0 -343,81 -343,81zm-16 66l0 0c0,0 -37,13 -51,3 -14,-10 -14,-35 3,-42 17,-7 49,3 49,3 -6,22 -1,36 -1,36z"/>
        <path class="fil31" d="M1818 587c1,58 -148,107 -333,109 -184,1 -334,-44 -335,-102 -1,-58 149,-107 333,-109 185,-2 335,44 335,102z"/>
        <path class="fil31 str1" d="M1057 584c0,0 10,-15 36,-15 26,0 26,4 26,4l4 -11c0,0 -22,-11 -45,-6 -23,5 -21,28 -21,28z"/>
        <path class="fil32" d="M999 591c0,0 10,44 63,51 45,6 62,-5 62,-5 0,0 1,6 6,13 0,0 -26,9 -67,4 -41,-6 -65,-33 -64,-63z"/>
        <path class="fil33" d="M1196 801c0,0 -17,-36 16,-34 26,1 37,17 60,44 15,17 43,51 45,70 3,18 -41,4 -65,-17 -43,-36 -56,-63 -56,-63z"/>
        <path class="fil6" d="M1170 670c0,0 -10,-19 6,-22 17,-2 12,15 91,35 80,21 119,21 128,21 9,0 26,3 23,15 -2,11 -47,15 -105,3 -57,-12 -112,-25 -143,-52z"/>
       </g>
       <g>
        <g>
         <path class="fil34" d="M1474 506c0,0 -32,-54 6,-110 37,-56 -22,-139 -38,-165 0,0 43,25 66,82 23,57 -2,84 -13,108 -11,23 -28,55 -21,85z"/>
         <path class="fil34" d="M1535 503c0,0 -19,-46 18,-87 36,-41 -1,-114 -11,-137 0,0 31,26 43,74 12,48 -12,67 -23,84 -12,18 -29,41 -27,66z"/>
         <path class="fil34" d="M1419 510c0,0 -28,-42 1,-89 28,-47 -23,-112 -37,-132 0,0 36,19 56,64 21,45 1,68 -7,87 -8,20 -20,46 -13,70z"/>
        </g>
        <g>
         <path class="fil35" d="M1169 628c45,41 170,69 316,68 147,-2 270,-33 315,-75 -45,-40 -170,-69 -316,-67 -147,1 -271,32 -315,74z"/>
         <path class="fil36" d="M1742 620c0,31 -118,57 -265,59 -147,1 -266,-23 -267,-54 0,-31 119,-57 265,-59 147,-2 267,22 267,54z"/>
         <path class="fil37" d="M1615 618c0,25 -85,46 -191,47 -105,2 -191,-18 -192,-43 0,-25 86,-46 191,-47 106,-1 192,18 192,43z"/>
         <g>
          <path class="fil38" d="M1639 610c0,1 -5,2 -11,2 -5,0 -10,-1 -10,-2 0,-1 5,-2 10,-2 6,0 11,1 11,2z"/>
          <path class="fil39" d="M1642 601c0,0 -7,10 -19,10 -12,1 2,-12 19,-10z"/>
         </g>
         <g>
          <path class="fil38" d="M1308 604c0,1 -4,3 -10,5 -5,1 -10,1 -10,0 0,-1 4,-3 9,-5 6,-1 11,-1 11,0z"/>
          <path class="fil39" d="M1309 595c0,0 -4,10 -16,14 -12,3 -1,-13 16,-14z"/>
         </g>
         <g>
          <path class="fil38" d="M1546 651c0,1 -5,2 -11,3 -5,0 -10,-1 -10,-3 0,-1 5,-2 10,-2 6,0 11,1 11,2z"/>
          <path class="fil39" d="M1519 643c0,0 11,-3 21,3 10,7 -9,9 -21,-3z"/>
         </g>
         <g>
          <path class="fil38" d="M1392 644c0,1 -4,2 -10,2 -6,0 -10,-1 -10,-2 0,-1 4,-2 10,-2 6,0 10,1 10,2z"/>
          <path class="fil39" d="M1365 636c0,0 12,-4 22,3 10,7 -9,9 -22,-3z"/>
         </g>
         <path class="fil40" d="M1748 626c0,0 -17,19 -88,27 -71,7 -43,-10 -34,-13 8,-3 39,-12 39,-12l83 -2z"/>
         <g>
          <path class="fil41" d="M1620 650c0,0 18,-44 65,-50 46,-5 63,26 63,26 0,0 -45,28 -128,24z"/>
          <path class="fil42" d="M1648 650c48,-2 79,-14 93,-20 -8,-9 -26,-24 -52,-18 -28,7 -38,29 -41,38z"/>
          <path class="fil43" d="M1670 649c25,-3 44,-9 57,-14 -7,-6 -18,-12 -34,-9 -14,3 -20,13 -23,23z"/>
         </g>
         <path class="fil40" d="M1566 573c0,0 -11,-1 -10,3 1,4 25,10 59,12 33,2 64,-2 67,-6 3,-4 -19,-1 -19,-1l-97 -8z"/>
         <g>
          <path class="fil41" d="M1563 576c0,0 22,-32 60,-31 39,1 56,37 56,37 0,0 -50,13 -116,-6z"/>
          <path class="fil44" d="M1591 582c35,7 63,4 78,2 -5,-10 -21,-25 -44,-25 -22,0 -32,19 -34,23z"/>
          <path class="fil43" d="M1658 586c-6,-10 -20,-20 -33,-17 -10,3 -14,10 -15,16 20,2 36,2 48,1z"/>
         </g>
         <path class="fil40" d="M1438 679c0,0 -10,1 -9,4 2,4 26,9 59,8 34,-1 65,-8 67,-12 3,-4 -19,0 -19,0l-98 0z"/>
         <g>
          <path class="fil41" d="M1436 683c0,0 19,-33 57,-36 39,-3 59,33 59,33 0,0 -48,16 -116,3z"/>
          <path class="fil44" d="M1464 687c36,3 64,-1 78,-5 -6,-9 -23,-23 -46,-21 -21,2 -30,21 -32,26z"/>
          <path class="fil43" d="M1532 684c-8,-8 -22,-17 -35,-13 -9,4 -13,11 -14,17 20,0 37,-1 49,-4z"/>
         </g>
         <g>
          <path class="fil40" d="M1338 669c0,0 11,2 9,6 -2,3 -27,3 -60,-4 -32,-6 -62,-18 -63,-23 -2,-4 18,4 18,4l96 17z"/>
          <g>
           <path class="fil41" d="M1341 673c0,0 -14,-36 -51,-45 -37,-10 -63,21 -63,21 0,0 44,25 114,24z"/>
           <path class="fil44" d="M1312 672c-36,-3 -63,-13 -76,-18 8,-9 26,-19 49,-13 21,6 26,26 27,31z"/>
           <path class="fil43" d="M1246 658c9,-7 24,-14 36,-7 9,5 11,12 11,19 -20,-3 -36,-8 -47,-12z"/>
          </g>
         </g>
         <path class="fil40" d="M1323 604c0,0 -15,1 -14,7 2,5 66,1 72,0 6,0 -1,-14 -1,-14l-57 7z"/>
         <path class="fil41" d="M1315 609c0,0 20,-32 52,-36 33,-5 47,23 47,23 0,0 -40,17 -99,13z"/>
         <path class="fil44" d="M1339 610c46,-1 75,-14 75,-14 0,0 -7,-15 -24,-21 -28,4 -47,28 -51,35z"/>
         <path class="fil38" d="M1493 633c0,0 -7,1 -7,6 0,4 14,1 22,1 8,1 35,4 51,2 16,-2 31,-10 34,-13 4,-4 -1,-8 -5,-8 -5,-1 -95,12 -95,12z"/>
         <path class="fil45" d="M1345 648c0,0 2,-4 5,-3 3,1 5,4 5,5 0,2 -8,0 -12,1 0,0 -2,-3 2,-3z"/>
         <path class="fil45" d="M1361 620c0,0 1,-2 3,-2 1,0 3,2 3,3 0,1 -5,0 -7,1 0,0 -1,-2 1,-2z"/>
         <path class="fil46" d="M1400 672c0,0 2,-2 3,-1 2,0 3,2 3,3 0,1 -4,0 -7,0 0,0 -1,-2 1,-2z"/>
         <path class="fil46" d="M1274 614c0,0 2,-2 3,-1 2,0 4,2 4,3 0,1 -5,0 -8,1 0,0 -1,-3 1,-3z"/>
         <path class="fil47" d="M1762 614c0,0 1,-2 3,-2 1,1 3,2 3,3 0,1 -5,0 -8,1 0,0 0,-2 2,-2z"/>
         <path class="fil47" d="M1389 629c0,0 1,-2 3,-2 1,1 3,3 3,4 0,0 -5,-1 -8,0 0,0 0,-2 2,-2z"/>
         <path class="fil47" d="M1225 623c0,0 -2,-3 -5,-3 -2,1 -5,3 -5,5 0,1 8,0 12,1 0,0 1,-3 -2,-3z"/>
         <path class="fil47" d="M1717 652c0,0 -3,-3 -6,-2 -2,0 -4,3 -4,5 0,1 7,-1 11,1 0,0 1,-4 -1,-4z"/>
         <path class="fil46" d="M1600 609c0,0 2,-2 4,-1 1,0 3,2 3,3 0,1 -5,-1 -8,0 0,0 0,-2 1,-2z"/>
         <path class="fil48" d="M1606 662c0,0 1,-2 3,-2 2,0 3,2 3,3 0,1 -5,0 -7,1 0,0 -1,-2 1,-2z"/>
         <path class="fil45" d="M1315 625c0,0 2,-2 3,-2 2,0 3,2 3,3 0,1 -5,0 -7,1 0,0 -1,-2 1,-2z"/>
         <path class="fil45" d="M1658 598c0,0 2,-2 3,-2 2,0 3,2 3,3 0,1 -5,0 -7,1 0,0 -1,-2 1,-2z"/>
         <path class="fil45" d="M1586 649c0,0 2,-3 5,-3 3,1 6,4 6,6 0,1 -9,-1 -13,1 0,0 -1,-4 2,-4z"/>
         <path class="fil39" d="M1569 666c0,0 15,-5 20,0 4,5 -1,4 -6,2 -5,-1 -11,-2 -14,-2z"/>
         <path class="fil38" d="M1410 650c0,0 -18,2 -10,4 7,2 24,3 35,3 12,-1 32,-5 36,-10 3,-5 -4,-10 -9,-10 -5,0 -52,13 -52,13z"/>
         <path class="fil38" d="M1474 618c0,0 22,-4 30,-4 7,0 22,0 15,-7 -6,-6 -28,-11 -36,-8 -7,2 -9,19 -9,19z"/>
         <g>
          <g>
           <path class="fil49" d="M1483 592c0,0 -13,1 -15,-14 -2,-15 13,-24 13,-24 0,0 3,3 3,10 0,0 5,-14 10,-16 5,-1 7,10 7,10 0,0 6,-1 10,0 5,1 -2,8 -2,8 0,0 -13,7 -8,9 5,3 7,-9 18,-13 12,-4 20,0 20,0l-4 5c0,0 12,-1 21,1 0,0 -5,12 -9,14 -5,3 -11,2 -10,5 1,2 7,-3 13,-2 6,1 9,4 9,4 0,0 -3,8 -15,14 -13,6 -24,7 -34,6 -10,0 -27,-3 -27,-17z"/>
           <path class="fil50" d="M1461 590c0,0 8,-3 1,-14 -8,-11 -7,-17 -7,-24 0,-7 -2,-11 -2,-11 0,0 -2,6 -7,9 -5,3 -6,7 -6,7 0,0 -5,-12 -10,-16 0,0 -1,5 -5,8 -3,3 -7,6 -8,10 -1,4 -1,9 3,13 4,4 0,11 -5,3 -4,-8 -12,-21 -23,-23 -10,-2 -20,6 -25,11 -5,5 -21,9 -21,9 0,0 5,4 8,9 4,4 16,8 20,11 4,4 6,7 6,7 0,0 -6,0 -13,2 0,0 2,5 5,9 4,3 15,1 15,1 0,0 -4,4 -4,10 0,0 11,3 16,0 5,-3 11,-5 11,-5 0,0 -2,4 -2,5 0,2 14,-2 20,-2 5,0 16,0 25,-6 8,-6 8,-23 8,-23z"/>
           <path class="fil39" d="M1478 619c0,0 12,-4 8,-19 -4,-14 -21,-16 -21,-16 0,0 -2,4 1,10 0,0 -10,-11 -16,-10 -5,0 -2,11 -2,11 0,0 -6,1 -10,4 -4,3 0,6 5,7 5,1 15,1 11,5 -3,4 -10,-6 -22,-5 -12,1 -18,8 -18,8l6 3c0,0 -11,4 -19,9 0,0 9,9 14,10 5,0 11,-3 11,0 0,2 -7,0 -12,4 -6,3 -7,7 -7,7 0,0 6,6 19,6 14,1 25,-2 34,-7 8,-4 23,-14 18,-27z"/>
          </g>
          <g>
           <path class="fil39" d="M1382 605c24,-2 32,-11 33,-13 9,5 16,9 18,9 4,-2 -5,-3 -13,-7 -4,-3 -11,-8 -19,-12 0,-3 0,-13 -8,-20 0,0 7,8 6,19 -10,-6 -22,-11 -31,-7 0,0 13,-2 25,5 5,3 13,8 20,12 -7,11 -31,14 -31,14z"/>
           <path class="fil39" d="M1435 596c0,0 0,2 2,2 1,-1 2,-6 1,-12 17,-12 11,-28 11,-28 1,15 -7,23 -11,25 0,-8 -3,-17 -8,-24 0,0 9,12 5,37z"/>
           <path class="fil39" d="M1464 618c-1,0 -4,3 -9,6 -12,-11 -29,-12 -29,-12 16,2 25,10 27,12 -3,2 -7,3 -12,4 -14,2 -30,-1 -30,-1 0,0 15,4 30,2 8,-1 13,-3 17,-6 0,3 -5,24 -38,23 0,0 17,3 30,-7 7,-5 9,-12 10,-17 3,-2 5,-4 5,-4 0,0 0,-1 -1,0z"/>
           <path class="fil39" d="M1470 590c2,2 7,9 2,19 -1,-2 -3,-4 -6,-5 -5,-3 -14,-15 -14,-15 0,0 4,7 9,12 -2,1 -10,2 -16,0 0,0 7,4 17,1l0 0c1,1 2,2 3,2 7,5 9,11 9,11 0,0 0,1 1,0 0,-1 -1,-2 -2,-4 2,-3 6,-12 -3,-21z"/>
           <path class="fil39" d="M1470 590c0,-1 0,-1 0,-1 0,0 0,1 0,1z"/>
           <path class="fil39" d="M1538 591c0,0 -12,-1 -18,-8 15,-6 29,-11 29,-11 0,0 -9,2 -19,5 -6,3 -12,5 -17,7 0,-2 4,-14 17,-20 0,0 -14,4 -19,21 -3,0 -5,1 -6,1 -3,1 -8,1 -12,2 0,-2 -1,-7 -2,-13 0,-1 0,-1 0,-1 4,-7 15,-13 15,-13 -9,3 -13,8 -15,10 1,-7 3,-13 3,-13 -5,9 -5,18 -4,24 -13,-1 -13,-18 -13,-18 -1,17 11,19 14,20 0,2 1,4 1,4 -4,1 -6,1 -6,1 0,0 -2,1 -1,2 0,1 2,0 2,0 0,0 5,-1 12,-2 0,0 6,9 23,11l2 -1c0,0 -14,1 -23,-10 5,-2 11,-3 18,-6 0,0 4,8 19,8z"/>
          </g>
         </g>
         <g>
          <path class="fil51" d="M1490 628c0,0 0,6 1,9 1,2 14,-1 20,0 5,2 29,1 44,1 15,0 33,-10 35,-12 1,-2 1,-16 -2,-21 -4,-4 -98,23 -98,23z"/>
          <path class="fil52" d="M1504 612c0,0 27,-21 50,-23 23,-1 40,13 32,26 -9,12 -47,15 -60,14 -14,-1 -28,5 -35,0 -7,-5 13,-17 13,-17z"/>
          <path class="fil53" d="M1527 604c0,0 8,-5 13,-4 4,0 7,4 -2,7 -9,3 -16,3 -11,-3z"/>
          <path class="fil53" d="M1541 614c0,0 12,-2 17,-1 6,2 8,7 -4,8 -12,0 -21,-3 -13,-7z"/>
          <path class="fil53" d="M1560 602c0,0 7,-3 11,-2 3,1 4,5 -3,6 -7,1 -13,-1 -8,-4z"/>
          <path class="fil53" d="M1516 616c0,0 6,-2 11,-1 4,0 4,3 -2,5 -6,1 -13,3 -15,2 -4,0 2,-4 6,-6z"/>
         </g>
         <path class="fil54" d="M1202 638c0,0 1,-2 3,-2 2,0 3,2 3,3 0,1 -5,0 -7,1 0,0 -1,-2 1,-2z"/>
        </g>
       </g>
      </g>
     </g>
    </g>
    <g>
     <rect class="fil55 str2" x="1199" y="1563" width="630" height="207" rx="19" ry="24"/>
     <path class="fil56" d="M1309 1722c-16,0 -28,-5 -37,-15 -10,-10 -14,-23 -14,-39 0,-17 5,-31 14,-41 9,-10 22,-15 38,-15 15,0 27,5 36,15 9,10 14,23 14,39 0,17 -5,31 -14,41 -9,10 -22,15 -37,15zm0 -94c-9,0 -17,3 -23,10 -7,8 -10,17 -10,29 0,12 3,22 9,29 6,7 14,11 24,11 10,0 18,-4 24,-11 6,-7 9,-16 9,-29 0,-12 -3,-22 -9,-29 -6,-7 -14,-10 -24,-10z"/>
     <path id="1" class="fil56" d="M1468 1720l-21 0 -17 -28c-1,-3 -3,-5 -4,-7 -1,-2 -3,-3 -4,-5 -2,-1 -4,-2 -5,-2 -2,-1 -4,-1 -6,-1l-8 0 0 43 -17 0 0 -106 35 0c5,0 9,0 14,2 4,1 8,3 11,5 3,2 5,5 7,9 2,4 3,8 3,13 0,3 -1,7 -2,10 -1,3 -3,6 -5,8 -2,3 -4,5 -7,7 -3,1 -6,3 -10,4l0 0c2,1 4,2 5,3 2,2 3,3 4,4 1,2 3,3 4,5 1,2 3,4 4,6l19 30zm-65 -92l0 35 15 0c3,0 5,-1 8,-2 2,0 4,-2 6,-3 1,-2 3,-4 4,-6 1,-2 1,-5 1,-8 0,-5 -2,-9 -5,-12 -3,-2 -8,-4 -14,-4l-15 0z"/>
     <path id="2" class="fil56" d="M1487 1720l0 -106 31 0c39,0 58,17 58,52 0,16 -5,29 -16,39 -11,10 -25,15 -44,15l-29 0zm17 -91l0 76 15 0c12,0 22,-3 28,-10 7,-7 11,-16 11,-29 0,-25 -13,-37 -39,-37l-15 0z"/>
     <polygon id="3" class="fil56" points="1662,1720 1602,1720 1602,1614 1659,1614 1659,1629 1620,1629 1620,1659 1656,1659 1656,1674 1620,1674 1620,1705 1662,1705 "/>
     <path id="4" class="fil56" d="M1769 1720l-20 0 -17 -28c-2,-3 -3,-5 -5,-7 -1,-2 -3,-3 -4,-5 -2,-1 -3,-2 -5,-2 -2,-1 -4,-1 -6,-1l-7 0 0 43 -18 0 0 -106 35 0c5,0 10,0 14,2 4,1 8,3 11,5 3,2 5,5 7,9 2,4 3,8 3,13 0,3 -1,7 -2,10 -1,3 -3,6 -5,8 -2,3 -4,5 -7,7 -3,1 -6,3 -10,4l0 0c2,1 4,2 5,3 2,2 3,3 4,4 2,2 3,3 4,5 1,2 3,4 4,6l19 30zm-64 -92l0 35 14 0c3,0 6,-1 8,-2 2,0 4,-2 6,-3 2,-2 3,-4 4,-6 1,-2 1,-5 1,-8 0,-5 -1,-9 -5,-12 -3,-2 -7,-4 -13,-4l-15 0z"/>
    </g>
    <g>
     <g>
      <path class="fil57" d="M1614 2154c0,56 -45,101 -100,101 -56,0 -100,-45 -100,-101 0,-55 44,-100 100,-100 55,0 100,45 100,100z"/>
     </g>
     <g>
      <g>
       <g>
        <path class="fil6" d="M1514 2216c-2,0 -4,-1 -6,-2 -7,-3 -9,-11 -6,-17l48 -93c3,-6 11,-8 17,-5 7,3 9,11 6,17l-48 93c-2,4 -7,7 -11,7z"/>
       </g>
       <g>
        <path class="fil6" d="M1514 2216c-3,0 -7,-1 -9,-4l-54 -48c-5,-5 -6,-13 -1,-18 5,-5 13,-6 18,-1l54 48c5,5 6,13 1,18 -2,3 -6,5 -9,5z"/>
       </g>
      </g>
     </g>
    </g>
    <g>
     <path class="fil11" d="M1337 1320l-264 0c-8,0 -14,-12 -14,-27 0,-15 6,-27 14,-27l264 0c8,0 14,12 14,27 0,15 -6,27 -14,27z"/>
     <path class="fil11" d="M1337 1412l-264 0c-8,0 -14,-12 -14,-28 0,-15 6,-27 14,-27l264 0c8,0 14,12 14,27 0,16 -6,28 -14,28z"/>
     <path class="fil11" d="M1941 1320l-530 0c-15,0 -28,-12 -28,-27 0,-15 13,-27 28,-27l530 0c15,0 28,12 28,27 0,15 -13,27 -28,27z"/>
     <path class="fil11" d="M1941 1412l-530 0c-15,0 -28,-12 -28,-28 0,-15 13,-27 28,-27l530 0c15,0 28,12 28,27 0,16 -13,28 -28,28z"/>
    </g>
   </g>
   <g>
    <path class="fil1" d="M2204 1073l-20 7 -134 51c-3,1 -6,2 -9,3 -45,12 -92,-12 -108,-56l-2 -5c-18,-47 6,-100 52,-118l126 -47 9 -4 20 -7c47,-18 100,6 117,53l2 5c18,47 -6,100 -53,118z"/>
    <path class="fil58" d="M2096 1076c-23,8 -63,23 -85,26 -6,1 -18,-2 -28,-14 -6,-7 -12,-16 -17,-30 -2,-6 -4,-13 -5,-19 0,-8 0,-16 1,-24 1,-6 6,-13 13,-16 0,0 0,0 0,0 23,-11 54,-25 81,-32 19,-5 38,3 44,20l3 7 15 40c5,16 -4,35 -22,42z"/>
    <path class="fil4" d="M2096 1076c-23,8 -63,23 -85,26 -6,1 -18,-2 -28,-14 -1,-2 -2,-5 -3,-8 -2,-6 -4,-13 -5,-19 -1,-8 0,-16 1,-24 1,-6 6,-13 13,-16 0,0 0,0 0,0 23,-11 54,-24 81,-32 12,-3 24,-1 33,5l15 40c5,16 -4,35 -22,42z"/>
   </g>
   <g>
    <path class="fil1" d="M2144 1261l-104 28c-31,9 -64,-10 -73,-41l-3 -12c-8,-31 10,-64 42,-73l103 -28c32,-8 64,10 73,42l3 12c9,31 -10,64 -41,72z"/>
    <path class="fil58" d="M2088 1256c-19,5 -54,14 -72,15 -6,1 -19,-5 -28,-22 -2,-4 -4,-9 -5,-15 -1,-5 -2,-10 -3,-15 0,-6 1,-12 3,-18 1,-5 6,-9 11,-12 1,0 1,0 1,0 19,-7 46,-15 69,-19 15,-3 30,5 34,18l3 9 8 28c3,13 -6,27 -21,31z"/>
    <path class="fil4" d="M2088 1256c-19,5 -54,14 -72,15 -6,1 -19,-5 -28,-22 -1,-5 -2,-10 -2,-14 0,-6 1,-12 2,-18 2,-5 6,-10 12,-12 0,0 0,0 0,0 20,-7 46,-15 69,-19 13,-3 26,2 32,11l8 28c3,13 -6,27 -21,31z"/>
   </g>
   <g>
    <path class="fil1" d="M2201 874c-1,1 -1,1 -2,1l-136 35c-59,15 -121,-17 -137,-72l-8 -28c-15,-52 18,-107 73,-125l45 -12 91 -23c59,-15 121,17 137,72l8 28c15,52 -17,106 -71,124z"/>
    <path class="fil58" d="M2139 837l-66 29c0,0 0,0 0,0 -3,1 -6,2 -8,2 -1,0 -2,0 -4,0 0,0 -1,0 -1,0 -7,0 -12,-8 -9,-14 6,-14 8,-30 4,-45l-2 -6c0,0 0,0 0,0l-5 -19c-4,-15 -13,-27 -24,-36 -1,-1 -3,-2 -4,-3 -13,-9 -10,-30 5,-34 1,0 1,0 1,0l72 -11c18,-5 35,9 40,27l6 21 12 46c5,17 1,38 -17,43z"/>
    <path class="fil4" d="M2139 837l-66 29c0,0 0,0 0,0 -2,1 -7,1 -13,2 -7,0 -12,-8 -9,-14 6,-14 8,-30 4,-45l-2 -6c0,0 0,0 0,0l-5 -19c-4,-15 -13,-27 -24,-36 2,-4 6,-6 10,-7 1,-1 1,-1 1,-1l72 -11c15,-4 30,5 37,19l12 46c5,17 1,38 -17,43z"/>
   </g>
   <g>
    <path class="fil6" d="M2951 658c1,-5 1,-9 0,-13 -1,-3 -3,-7 -5,-10 -3,-3 -6,-6 -11,-9 -4,-3 -10,-6 -16,-10 -11,-5 -21,-11 -30,-16 -9,-6 -17,-12 -23,-19 -6,-6 -11,-14 -13,-22 -3,-8 -4,-18 -3,-29 1,-9 4,-17 8,-25 5,-7 10,-13 17,-18 7,-5 15,-9 24,-12 9,-2 19,-3 30,-3l4 -36 28 4 -4 36c10,2 19,6 27,11 8,5 14,11 19,19 5,7 9,15 11,24 2,10 3,20 1,31l-51 -6c1,-14 -1,-24 -6,-31 -5,-7 -12,-12 -22,-13 -5,0 -10,0 -14,1 -4,1 -8,3 -10,5 -3,2 -5,5 -7,8 -2,4 -3,8 -3,12 -1,4 -1,7 0,11 1,3 3,7 5,10 3,3 6,6 11,9 5,3 10,7 17,10 11,6 21,11 30,17 9,6 16,12 22,19 6,6 11,14 14,22 3,8 3,18 2,29 -1,9 -4,18 -8,25 -4,7 -10,14 -17,18 -7,5 -15,9 -24,11 -9,3 -19,4 -30,4l-4 33 -28 -4 4 -33c-10,-2 -19,-5 -28,-9 -9,-5 -16,-11 -23,-18 -6,-7 -11,-15 -14,-25 -3,-10 -4,-22 -3,-35l52 6c-1,8 -1,14 1,20 2,5 4,10 7,14 4,3 8,6 12,8 5,1 9,3 14,3 6,1 11,1 15,0 5,-1 8,-3 11,-5 4,-2 6,-5 8,-8 2,-3 3,-7 3,-11z"/>
   </g>
   <g>
    <path class="fil2" d="M2099 3486c0,0 -1,89 14,430l893 -118c-217,-463 -343,-571 -343,-571 0,0 -541,16 -564,259z"/>
    <g>
     <path class="fil1" d="M2699 3403l-697 -52c-33,-22 -207,-141 -279,-229 -15,-19 -70,-180 -113,-311 -27,-81 -49,-151 -52,-167 -1,-6 -2,-17 -3,-32l0 0c-2,-54 1,-157 3,-239l0 0 0 -1c1,-4 1,-8 1,-11l0 0c0,-1 0,-1 0,-1 0,-15 1,-28 1,-40 1,-31 2,-54 3,-63l0 -4c0,0 0,0 0,0 1,0 34,-18 79,14 11,8 21,27 30,51 6,16 11,34 16,53 20,73 34,160 42,184 12,38 154,204 163,214 0,0 0,0 0,1l0 -263 -107 -288 -44 -118 -22 -59c0,0 -34,-56 -63,-123 -13,-30 -24,-61 -31,-91 -2,-8 -3,-15 -4,-22 0,0 0,0 0,0 -5,-25 -5,-48 1,-68 10,-34 34,-40 52,-40 2,1 4,1 5,1 2,0 4,0 5,1 4,1 7,2 9,4 0,0 0,0 0,0 5,2 9,6 12,11 0,0 15,19 36,46 13,18 29,38 44,58 27,35 52,68 58,78 37,52 137,222 137,222l117 5c18,0 36,8 49,20 42,39 131,123 142,135 0,4 70,38 123,68 39,16 112,73 112,73 15,14 26,27 32,40 25,54 93,527 125,761 11,76 18,179 18,182z"/>
     <path class="fil3" d="M1981 2119c0,0 108,176 122,184 15,8 70,19 77,0 6,-19 -199,-184 -199,-184z"/>
     <path class="fil3" d="M2524 2421c0,0 0,-1 0,-1 0,0 -73,-57 -112,-73 -49,-28 -112,-58 -121,-66 11,13 91,104 122,111 28,6 89,23 111,29z"/>
     <path class="fil3" d="M1893 2770l0 -263c0,0 63,104 68,162 4,57 -26,149 -68,101z"/>
     <path class="fil58" d="M1667 1806c-9,-15 -25,-44 -31,-59 -1,-5 -1,-14 4,-23 4,-6 9,-12 17,-17 3,-3 7,-5 11,-7 5,-1 10,-2 15,-2 4,0 9,2 12,7 0,0 0,0 0,0 11,16 25,37 34,57 7,13 5,29 -5,35l-4 4 -23 16c-9,7 -22,2 -30,-11z"/>
     <path class="fil4" d="M1667 1806c-9,-15 -25,-44 -31,-59 -1,-5 -1,-14 4,-23 2,-2 3,-3 5,-4 4,-3 7,-5 12,-6 4,-2 9,-3 14,-3 5,0 10,3 13,7 0,0 0,0 0,0 11,16 24,38 34,57 4,9 4,18 2,26l-23 16c-9,7 -22,2 -30,-11z"/>
     <path class="fil3" d="M2349 3243l-208 108 -139 0c-33,-22 -207,-141 -279,-229 -15,-19 -70,-180 -113,-311l0 0c6,18 125,272 159,301 34,29 212,197 262,195 47,-1 302,-60 317,-64 1,0 1,0 1,0z"/>
     <path class="fil3" d="M1559 2360c0,0 0,0 0,0 12,-5 30,-8 39,6 13,23 -37,221 -43,246l4 -252z"/>
     <path class="fil4" d="M1563 2253l-5 120c0,0 26,4 40,-7 14,-10 7,-114 -35,-113z"/>
    </g>
    <g>
     <path class="fil5" d="M2791 3579c0,0 -248,180 -406,242l-102 -95 -16 117c0,0 -225,9 -289,-39l43 -319 660 -227 110 321z"/>
     <path class="fil6" d="M1935 3772c82,29 275,-13 275,-13l9 -290 175 266c111,-25 290,-105 397,-156 53,-25 88,-43 88,-43 -108,-241 -219,-469 -219,-469 -52,77 -158,135 -271,177 -187,71 -389,106 -389,106 -23,170 -65,422 -65,422z"/>
     <path class="fil8" d="M1935 3772c82,29 275,-13 275,-13l9 -290 175 266c111,-25 290,-105 397,-156 -248,-61 -402,-335 -402,-335 -187,71 -389,106 -389,106 -23,170 -65,422 -65,422z"/>
     <path class="fil2" d="M2554 3592c3,-20 -11,-37 -30,-39 -19,-3 -37,11 -39,30 -2,19 11,36 30,39 19,2 37,-11 39,-30z"/>
    </g>
   </g>
   <g>
    <polygon class="fil2" points="2526,1785 2904,1839 2653,1668 2640,1723 2548,1739 "/>
    <polygon class="fil7" points="2904,1839 2589,1677 2281,1661 "/>
    <polygon class="fil6" points="2653,1668 2904,1839 2709,1572 "/>
   </g>
   <path class="fil0" d="M2412 2141c-111,65 -252,65 -286,-13 -21,-50 68,-76 182,-134 114,-58 208,-130 252,-98 35,26 -19,169 -148,245z"/>
   <g>
    <rect class="fil59" x="1334" y="74" width="255.161" height="21.5305" rx="16" ry="11"/>
    <rect class="fil59" x="1611" y="74" width="81.8453" height="21.5305" rx="5" ry="11"/>
   </g>
   <g>
   </g>
   <g style="clip-path:url(#id0)">
    <g id="_491082728">
     <path class="fil60" d="M2035 120c0,-14 -12,-26 -26,-26l-48 0 0 52 48 0c14,0 26,-12 26,-26z"/>
    </g>
   </g>
   <g>
    <path class="fil56" d="M2009 98l-84 0 0 -8 84 0 0 0 0 8zm30 22l-9 0 0 0 0 -1 0 -1 0 -1 0 -1 0 -1 -1 -1 0 -1 0 -1 -1 -1 0 -1 -1 -1 0 -1 -1 -1 -1 -1 0 -1 -1 0 -1 -1 -1 -1 0 0 -1 -1 -1 0 -1 -1 -1 0 -1 -1 -1 0 -1 -1 -1 0 -1 0 -1 0 -1 0 -1 -1 -1 0 0 -8 1 0 2 0 1 0 2 0 1 1 2 0 1 1 1 0 2 1 1 0 1 1 2 1 1 1 1 1 1 1 1 1 1 1 1 1 1 1 1 1 1 1 0 2 1 1 1 1 0 2 1 1 0 1 0 2 1 1 0 2 0 1 0 2 0 0zm-4 0l0 0 0 0 0 0 4 0 -4 0zm-26 30l0 -9 0 0 1 0 1 0 1 0 1 0 1 0 1 -1 1 0 1 0 1 -1 1 0 1 -1 1 0 1 -1 0 0 1 -1 1 -1 1 -1 0 0 1 -1 1 -1 0 -1 1 -1 0 -1 1 -1 0 -1 0 -1 1 -1 0 -1 0 -1 0 -1 0 -1 0 -1 9 0 0 1 0 2 0 2 -1 1 0 1 0 2 -1 1 0 2 -1 1 -1 1 0 2 -1 1 -1 1 -1 1 -1 1 -1 1 -1 1 -1 1 -1 1 -1 1 -2 1 -1 0 -1 1 -2 1 -1 0 -1 1 -2 0 -1 0 -2 1 -1 0 -2 0 -1 0 0 0zm-84 -9l84 0 0 9 -84 0 0 0 0 -9zm-30 -21l9 0 0 0 0 1 0 1 0 1 0 1 1 1 0 1 0 1 1 1 0 1 1 1 0 1 1 1 0 1 1 1 1 0 0 1 1 1 1 1 1 0 0 1 1 0 1 1 1 0 1 1 1 0 1 0 1 1 1 0 1 0 1 0 1 0 1 0 0 9 -1 0 -2 0 -1 0 -2 -1 -1 0 -2 0 -1 -1 -1 0 -2 -1 -1 -1 -1 0 -1 -1 -2 -1 -1 -1 -1 -1 -1 -1 -1 -1 -1 -1 -1 -1 -1 -1 0 -1 -1 -2 -1 -1 0 -1 -1 -2 0 -1 -1 -2 0 -1 0 -1 -1 -2 0 -2 0 -1 0 0zm5 0l0 0 0 0 0 0 -5 0 5 0zm25 -30l0 8 0 0 -1 0 -1 1 -1 0 -1 0 -1 0 -1 0 -1 1 -1 0 -1 1 -1 0 -1 1 -1 0 0 1 -1 0 -1 1 -1 1 0 0 -1 1 -1 1 0 1 -1 1 0 1 -1 1 0 1 -1 1 0 1 0 1 -1 1 0 1 0 1 0 1 0 1 -9 0 0 -2 0 -1 1 -2 0 -1 0 -2 1 -1 0 -1 1 -2 0 -1 1 -1 1 -2 0 -1 1 -1 1 -1 1 -1 1 -1 1 -1 1 -1 1 -1 2 -1 1 -1 1 -1 1 0 2 -1 1 0 1 -1 2 0 1 -1 2 0 1 0 2 0 1 0 0 0z"/>
   </g>
  </g>
 </g>
</svg>
