<?xml version="1.0" encoding="UTF-8"?>
<!DOCTYPE svg PUBLIC "-//W3C//DTD SVG 1.1//EN" "http://www.w3.org/Graphics/SVG/1.1/DTD/svg11.dtd">
<!-- Creator: CorelDRAW X7 -->
<svg xmlns="http://www.w3.org/2000/svg" xml:space="preserve" width="207.427mm" height="113.025mm" version="1.1" style="shape-rendering:geometricPrecision; text-rendering:geometricPrecision; image-rendering:optimizeQuality; fill-rule:evenodd; clip-rule:evenodd"
viewBox="0 0 21088 11491"
 xmlns:xlink="http://www.w3.org/1999/xlink">
 <defs>
  <style type="text/css">
   <![CDATA[
    .str0 {stroke:#1D1D1E;stroke-width:30.1737;stroke-linecap:round;stroke-linejoin:round}
    .fil9 {fill:none}
    .fil1 {fill:#FCEBE8}
    .fil4 {fill:#F7B588}
    .fil10 {fill:#EB5E52}
    .fil8 {fill:#F3A31E}
    .fil7 {fill:#F6C86F}
    .fil13 {fill:#F2F2F1}
    .fil5 {fill:#E07850}
    .fil11 {fill:#D8E4EC}
    .fil12 {fill:#B64A41}
    .fil17 {fill:#8DC049}
    .fil14 {fill:#6699B8}
    .fil16 {fill:#6B9638}
    .fil3 {fill:#4581A8}
    .fil15 {fill:#386381}
    .fil2 {fill:#1D1D1E}
    .fil6 {fill:#F77B16}
    .fil43 {fill:#FFAB66}
    .fil0 {fill:#FFC59C}
    .fil20 {fill:#FDF2AC;fill-rule:nonzero}
    .fil40 {fill:#FADFA9;fill-rule:nonzero}
    .fil30 {fill:#FACF39;fill-rule:nonzero}
    .fil28 {fill:#F4AD07;fill-rule:nonzero}
    .fil22 {fill:#EE8D1D;fill-rule:nonzero}
    .fil18 {fill:#F9EFC7;fill-rule:nonzero}
    .fil19 {fill:#F7E1B6;fill-rule:nonzero}
    .fil27 {fill:#D86E28;fill-rule:nonzero}
    .fil21 {fill:#D97825;fill-rule:nonzero}
    .fil29 {fill:#DA901F;fill-rule:nonzero}
    .fil38 {fill:#C22D28;fill-rule:nonzero}
    .fil23 {fill:#C06B28;fill-rule:nonzero}
    .fil25 {fill:#B3492A;fill-rule:nonzero}
    .fil26 {fill:#983427;fill-rule:nonzero}
    .fil37 {fill:#952F2B;fill-rule:nonzero}
    .fil24 {fill:#853024;fill-rule:nonzero}
    .fil36 {fill:#792822;fill-rule:nonzero}
    .fil33 {fill:#ACC848;fill-rule:nonzero}
    .fil39 {fill:url(#id0);fill-rule:nonzero}
    .fil34 {fill:url(#id1);fill-rule:nonzero}
    .fil31 {fill:url(#id2);fill-rule:nonzero}
    .fil41 {fill:url(#id3);fill-rule:nonzero}
    .fil35 {fill:url(#id4);fill-rule:nonzero}
    .fil42 {fill:url(#id5);fill-rule:nonzero}
    .fil32 {fill:url(#id6);fill-rule:nonzero}
   ]]>
  </style>
  <linearGradient id="id0" gradientUnits="userSpaceOnUse" x1="4016.02" y1="10005.5" x2="3345.95" y2="9839.93">
   <stop offset="0" style="stop-opacity:1; stop-color:#F5B9A8"/>
   <stop offset="1" style="stop-opacity:1; stop-color:#E85444"/>
  </linearGradient>
  <linearGradient id="id1" gradientUnits="userSpaceOnUse" x1="2865.17" y1="10009.3" x2="2100.36" y2="9699.33">
   <stop offset="0" style="stop-opacity:1; stop-color:#567635"/>
   <stop offset="1" style="stop-opacity:1; stop-color:#549D3C"/>
  </linearGradient>
  <linearGradient id="id2" gradientUnits="userSpaceOnUse" xlink:href="#id1" x1="3242.88" y1="9967.59" x2="3328.63" y2="9599.45">
  </linearGradient>
  <linearGradient id="id3" gradientUnits="userSpaceOnUse" xlink:href="#id0" x1="3639.89" y1="9924.18" x2="2969.85" y2="9758.63">
  </linearGradient>
  <linearGradient id="id4" gradientUnits="userSpaceOnUse" x1="2486.76" y1="9646.27" x2="2309.01" y2="10037.9">
   <stop offset="0" style="stop-opacity:1; stop-color:#8DBF2F"/>
   <stop offset="0.0901961" style="stop-opacity:1; stop-color:#8DBF2F"/>
   <stop offset="0.858824" style="stop-opacity:1; stop-color:#549D3C"/>
   <stop offset="1" style="stop-opacity:1; stop-color:#549D3C"/>
  </linearGradient>
  <linearGradient id="id5" gradientUnits="userSpaceOnUse" xlink:href="#id0" x1="3155.71" y1="9879.7" x2="2485.66" y2="9714.15">
  </linearGradient>
  <linearGradient id="id6" gradientUnits="userSpaceOnUse" xlink:href="#id4" x1="3817.84" y1="9904.86" x2="2729.35" y2="9650.82">
  </linearGradient>
 </defs>
 <g id="Layer_x0020_1">
  <metadata id="CorelCorpID_0Corel-Layer"/>
  <g id="_529204568">
   <path class="fil0" d="M1278 10890c-1172,-1611 -1566,-3758 -1065,-5686 501,-1928 1883,-3605 3671,-4484 1787,-880 3949,-954 5801,-218 942,375 1910,889 2778,1403 866,512 1898,608 2884,640 1100,36 2239,17 3247,458 1418,621 2349,2122 2477,3664 128,1542 -477,3091 -1457,4288l-18336 -65z"/>
   <polygon class="fil1" points="17104,5627 15213,5627 15213,3266 17104,3266 "/>
   <path class="fil2" d="M19739 6151c-4,24 -6,47 -6,71 0,119 50,233 112,334 18,29 37,58 44,91 8,34 0,72 -27,93 -30,23 -73,16 -109,4 -215,-69 -374,-264 -440,-480 -67,-215 -51,-449 1,-668 29,-126 70,-260 25,-381 -33,-93 -118,-141 -182,-213 -67,-74 -123,-160 -157,-255 -57,-158 -46,-347 56,-480 90,-120 244,-183 394,-180 150,3 294,69 409,165 115,96 202,222 269,356 66,130 114,271 125,416 23,315 -165,547 -343,782 -79,103 -150,219 -171,345z"/>
   <polygon class="fil1" points="17104,8304 15213,8304 15213,5943 17104,5943 "/>
   <path class="fil3" d="M19089 4547c75,93 143,190 206,291 10,16 20,33 22,52 2,33 -22,62 -44,87 -111,124 -223,247 -335,369 -67,-203 -135,-410 -246,-594 47,26 153,-54 196,-78 69,-40 136,-82 201,-127z"/>
   <path class="fil2" d="M16863 5036c6,-19 12,-39 19,-58 108,-307 456,-534 738,-663 208,-94 441,-157 666,-114 224,43 435,213 469,440 109,23 202,98 266,190 171,244 226,575 184,866 -44,308 -195,587 -442,776 -192,148 -446,211 -685,170 -211,-36 -401,-147 -580,-263 -184,-120 -365,-250 -494,-428 -194,-267 -232,-606 -141,-916z"/>
   <path class="fil4" d="M16996 5967c1,21 1,43 1,64 1,124 -13,248 -13,372 -1,124 12,251 64,364 90,201 278,278 488,285 202,7 405,-36 588,-122 83,-39 168,-83 229,-151 62,-70 134,-117 184,-200 48,-81 79,-170 106,-260 60,-205 95,-417 106,-630 6,-116 4,-232 -5,-347 -9,-106 -13,-221 -60,-317 -82,-169 -205,-329 -379,-411 -127,-59 -272,-72 -412,-66 -177,8 -356,47 -506,140 -176,109 -284,269 -383,445 -49,87 -45,220 -44,318 1,117 15,233 25,349 5,56 9,112 11,167z"/>
   <path class="fil2" d="M17573 5271c219,-66 421,-183 601,-324 -46,354 77,725 324,982 51,52 115,103 187,96 88,-8 144,-97 172,-181 95,-281 31,-594 -95,-862 -63,-134 -142,-262 -250,-364 -107,-101 -245,-175 -392,-188 -129,-12 -257,24 -380,64 -188,61 -375,136 -529,259 -126,101 -235,242 -272,401 -44,191 173,177 308,172 110,-4 220,-23 326,-55z"/>
   <polygon class="fil1" points="6444,5785 4553,5785 4553,3424 6444,3424 "/>
   <polygon class="fil1" points="8868,5785 6977,5785 6977,3424 8868,3424 "/>
   <polygon class="fil1" points="6444,8461 4553,8461 4553,6100 6444,6100 "/>
   <polygon class="fil1" points="8868,8461 6977,8461 6977,6100 8868,6100 "/>
   <polygon class="fil1" points="14679,5627 12789,5627 12789,3266 14679,3266 "/>
   <polygon class="fil1" points="14679,8304 12789,8304 12789,5943 14679,5943 "/>
   <polygon class="fil1" points="9667,2509 3657,2509 3657,1723 9667,1723 "/>
   <path class="fil2" d="M1908 3940c-71,119 -124,249 -158,383 -107,433 -15,904 -167,1323 -72,199 -196,374 -310,552 -114,178 -221,366 -256,575 -20,123 -11,253 34,369 49,127 124,182 229,255 224,157 490,244 757,299 841,176 1740,60 2509,-323 148,-74 293,-158 409,-276 116,-117 202,-271 211,-437 11,-224 -119,-431 -258,-608 -71,-89 -139,-191 -218,-273 -62,-66 -108,-119 -140,-209 -63,-176 -55,-374 -11,-554 63,-255 189,-489 271,-739 83,-249 118,-532 -1,-766 -93,-184 -272,-315 -466,-385 -194,-70 -403,-87 -610,-90 -296,-4 -716,9 -828,344 -135,-104 -331,-48 -478,38 -214,125 -394,308 -519,522z"/>
   <path class="fil4" d="M6016 9023c-229,-61 -447,-184 -654,-306 -295,-174 -600,-360 -783,-650 -136,-215 -191,-469 -218,-720 -21,-202 -72,-502 21,-692 430,187 775,522 1110,850 88,86 176,171 263,257 56,56 106,128 170,174 66,49 78,25 89,-49 17,-118 23,-238 35,-356 47,-480 94,-960 141,-1440 1,-8 483,-10 522,13 35,394 69,788 103,1181 26,293 51,587 49,881 -1,147 -9,293 -28,438 -15,122 -9,217 -101,309 -99,99 -242,142 -382,149 -115,6 -227,-9 -337,-39z"/>
   <path class="fil5" d="M5709 8283c54,79 121,156 212,186 0,-36 27,-76 32,-112 4,-25 0,-47 1,-72 2,-78 33,-160 51,-236 8,-31 15,-66 -2,-93 -12,-19 -33,-30 -52,-41 -95,-53 -165,-124 -243,-199 -25,-24 -235,-195 -228,-218 -35,112 19,293 51,403 39,135 100,265 178,382z"/>
   <path class="fil6" d="M5477 7521c17,-17 33,-35 38,-58 6,-35 -17,-68 -40,-95 -68,-81 -146,-154 -231,-216 -17,-13 -34,-25 -54,-29 -45,-9 -89,38 -119,65 -46,41 -91,85 -130,134 -57,71 -99,160 -147,237 -9,14 -17,27 -20,43 -4,21 3,43 11,63 65,187 130,373 194,560 3,7 6,15 14,18 11,4 21,-9 27,-20 127,-244 243,-504 445,-691 4,-4 8,-8 12,-11z"/>
   <path class="fil4" d="M6911 5888c-37,84 -86,164 -158,221 -71,56 -168,86 -256,61 -29,-8 -55,-22 -85,-28 -43,-8 -87,4 -129,-10 -36,-12 -76,-12 -111,-29 -50,-24 -81,-74 -107,-123 -25,-49 -50,-102 -94,-135 -41,-31 -95,-45 -126,-85 -23,-30 -28,-70 -49,-102 -44,-66 -139,-72 -202,-120 -24,-19 -44,-51 -32,-78 12,-27 46,-33 75,-34 110,-2 220,29 312,89 25,16 53,36 84,31 27,-5 46,-28 59,-53 13,-24 22,-51 40,-72 24,-28 61,-41 98,-43 38,-2 71,11 108,15 32,4 70,-11 102,-16 75,-13 151,-19 227,-19 89,0 189,3 274,29 79,25 62,109 55,176 -11,112 -40,222 -85,325z"/>
   <path class="fil5" d="M6908 5570c-17,26 -32,55 -51,80 -18,25 -26,60 -38,89 -12,30 -25,62 -52,80 -39,26 -90,14 -133,-3 -9,19 -30,30 -50,36 -20,6 -41,9 -59,20 -33,21 -47,65 -82,81 -32,14 -70,-2 -94,-27 -29,-29 -39,-64 -59,-99 -21,-37 -51,-68 -83,-97 -32,-28 -68,-53 -102,-81 -27,-22 -60,-28 -78,-62 -6,-12 -10,-26 -8,-39 3,-32 35,-36 60,-43 43,-12 82,-35 112,-67 32,-34 56,-78 97,-101 47,-27 106,-18 157,-1 70,23 134,61 204,85 70,23 151,30 214,-8 24,-14 56,-35 85,-27 55,14 8,111 -9,136 -10,16 -20,32 -31,48z"/>
   <path class="fil2" d="M5640 5207c444,51 1069,150 1508,230 38,7 77,15 108,37 31,22 52,64 38,99 -12,31 -44,48 -75,58 -103,34 -215,16 -321,-2 -467,-80 -935,-160 -1402,-239l144 -183z"/>
   <path class="fil2" d="M5073 5407c118,35 236,71 358,90 59,10 123,15 173,-14 49,-28 74,-81 94,-131 19,-48 37,-96 53,-144 9,-25 17,-51 10,-77 -11,-45 -64,-68 -112,-82 -115,-35 -236,-53 -355,-71 -61,-9 -121,-18 -181,-28 -27,-4 -55,-5 -80,-14 -27,-9 -55,-12 -83,-8 -22,4 -45,13 -51,33 -6,18 6,38 23,49 17,10 38,13 58,17 20,4 41,8 56,21 8,6 14,16 11,25 -3,8 -13,12 -23,14 -26,6 -54,6 -81,-1 -16,-4 -32,-11 -49,-14 -17,-3 -36,-2 -50,8 -18,14 -21,40 -12,59 9,20 28,34 49,44 20,9 42,16 62,25 21,9 41,21 52,40 5,8 7,20 0,26 -8,8 -21,4 -32,0 -36,-16 -75,-27 -114,-35 -12,-3 -25,-5 -37,1 -11,5 -17,16 -19,28 -11,57 52,71 96,84 62,19 123,37 184,55z"/>
   <path class="fil7" d="M5169 6021c-1,15 -3,31 3,45 5,15 19,27 35,25 18,-3 27,-25 32,-44 49,-179 71,-364 92,-548 10,-86 20,-173 31,-259 2,-24 5,-49 -3,-71 -8,-23 -31,-43 -55,-39 -31,5 -44,43 -49,75 -18,103 -19,208 -33,312 -14,105 -23,211 -34,316 -6,63 -12,125 -19,188z"/>
   <path class="fil8" d="M5153 4872c-24,5 -51,17 -71,29 -51,32 -86,83 -114,136 -25,46 -37,96 -51,146 -17,57 -27,116 -30,176 -1,26 -1,56 17,76 14,16 36,23 57,28 129,35 257,71 386,106 44,12 96,23 132,-6 21,-17 31,-45 33,-72 2,-27 -2,-54 -3,-81 -5,-67 5,-135 32,-196 28,-61 73,-115 130,-149 16,-9 35,-19 39,-37 6,-21 -11,-42 -29,-55 -60,-46 -136,-63 -210,-74 -71,-11 -142,-18 -213,-23 -31,-2 -69,-11 -100,-5 -2,0 -3,1 -5,1z"/>
   <path class="fil7" d="M4963 5388c12,-163 90,-318 195,-443 28,-33 62,-66 105,-70 -76,85 -153,170 -210,269 0,9 -15,27 -19,35 -6,13 -13,27 -18,40 -12,26 -21,53 -29,81 -15,55 -21,111 -18,169 -6,-28 -8,-52 -6,-81z"/>
   <path class="fil7" d="M5381 4873c3,19 -8,36 -19,52 -82,113 -175,222 -229,352 -28,69 -40,155 -81,218 0,-41 13,-86 22,-126 12,-46 27,-92 46,-136 36,-88 86,-171 147,-244 35,-42 73,-81 114,-116z"/>
   <path class="fil7" d="M5515 4902c5,20 -8,39 -21,55 -61,77 -124,154 -175,238 -51,85 -89,179 -96,278 -1,18 1,51 -14,64 -12,-34 2,-92 7,-127 7,-49 19,-97 35,-143 32,-92 81,-178 144,-252 36,-42 76,-80 120,-113z"/>
   <path class="fil7" d="M5589 4976c16,-13 34,-26 55,-27 -10,27 -32,47 -53,67 -118,115 -201,266 -236,426 -10,43 -14,86 -19,129 -10,-174 39,-347 146,-486 32,-40 67,-77 107,-109z"/>
   <path class="fil4" d="M6984 5218c-9,-16 -20,-31 -34,-41 -33,-23 -82,-29 -118,-10 -17,-47 -60,-83 -109,-91 -49,-8 -102,11 -134,50 -19,-46 -66,-79 -116,-81 -50,-2 -100,27 -123,72 4,-28 -24,-53 -52,-55 -29,-2 -56,12 -80,27 -72,45 -136,106 -177,182 -41,75 -57,165 -36,248 7,31 21,63 48,81 26,19 67,19 87,-7 21,48 69,82 121,86 52,5 105,-22 133,-65 13,43 43,83 85,97 43,14 97,-7 109,-50 0,35 19,71 49,90 30,20 70,23 103,9 41,-19 67,-61 84,-104 16,-42 26,-88 50,-127 16,-27 38,-51 62,-71 25,-21 52,-35 82,-51 -1,-42 -1,-85 -11,-126 -4,-20 -12,-43 -23,-63z"/>
   <path class="fil5" d="M6292 5166c-48,61 -81,133 -103,207 -23,74 -36,151 -50,227 -18,-71 -9,-146 15,-215 25,-69 63,-132 105,-191 18,-25 43,-65 73,-74 1,8 -11,14 -16,19 -9,8 -17,17 -24,27z"/>
   <path class="fil5" d="M6396 5621c-11,-61 1,-123 22,-181 21,-58 52,-111 80,-166 27,-51 50,-110 89,-152 -7,27 -30,53 -43,79 -17,32 -32,64 -46,98 -27,66 -49,135 -69,204 -11,39 -22,78 -33,118z"/>
   <path class="fil5" d="M6594 5675c-6,-20 -4,-42 1,-62 6,-20 15,-39 24,-58 31,-69 52,-141 83,-211 29,-68 69,-135 128,-182 -48,48 -81,120 -110,182 -32,69 -59,139 -85,211 -14,40 -27,80 -41,120z"/>
   <path class="fil6" d="M5829 10610c-91,-230 -186,-434 -255,-676 -79,-276 -158,-553 -237,-829 -156,-545 -311,-1091 -467,-1636 -56,-195 -113,-393 -223,-564 -201,-310 -498,-341 -839,-362 -398,-24 -798,3 -1189,80 -246,48 -487,110 -665,297 -183,192 -192,543 -174,794 20,259 88,512 161,761 227,772 510,1527 846,2257l3042 -122z"/>
   <path class="fil4" d="M3954 6300c9,77 4,153 14,227 13,94 33,188 46,282 20,139 83,297 -26,416 -64,71 -162,105 -258,107 -95,3 -190,-23 -279,-57 -141,-52 -274,-124 -396,-212 -61,-44 -113,-103 -175,-144 -43,-29 -116,-40 -141,-89 -9,-18 -4,-39 0,-59 57,-234 92,-473 106,-714 13,-228 -12,-453 19,-678 7,-49 0,-188 50,-216 40,-23 109,26 145,41 158,67 360,64 529,63 19,0 38,-1 57,-1 29,-1 59,-2 85,10 34,15 56,50 65,87 75,304 118,621 159,937z"/>
   <path class="fil5" d="M3969 6558c0,10 1,20 1,29 0,13 0,25 -5,36 -21,45 -127,43 -168,40 -75,-4 -149,-17 -220,-39 -146,-44 -281,-123 -391,-228 -178,-167 -293,-398 -332,-639 -6,-38 -13,-82 -2,-119 11,-40 42,-38 80,-39 113,-2 225,13 335,38 137,32 275,83 384,175 53,46 100,102 150,152 30,31 67,67 90,103 28,41 32,105 41,153 21,112 34,225 37,338z"/>
   <path class="fil4" d="M4616 5021c-2,200 -10,399 -27,598 -9,116 -22,235 -78,336 -110,197 -356,276 -581,284 -367,13 -737,-122 -1010,-368 -516,-465 -576,-1198 -325,-1816 94,-231 244,-454 470,-559 143,-67 305,-81 463,-74 199,9 400,52 570,157 259,161 474,478 496,783 16,219 23,439 22,659z"/>
   <path class="fil2" d="M4661 3898c-24,87 -68,171 -129,242 -99,114 -235,194 -380,240 -144,46 -297,61 -448,60 63,-126 65,-282 3,-409 -93,354 -407,587 -766,607 -114,6 -224,-15 -337,-19 -75,-3 -156,-54 -182,-126 -17,-44 -18,-93 -16,-140 10,-231 100,-457 252,-630 93,-107 208,-193 336,-254 64,-30 133,-58 203,-71 26,-5 52,0 78,-4 35,-7 66,-30 100,-42 100,-36 205,-59 309,-78 150,-27 304,-46 455,-29 151,18 302,75 410,183 129,130 156,307 112,470z"/>
   <path class="fil5" d="M4151 5294c12,26 23,52 27,80 4,28 -1,59 -19,80 -24,28 -66,34 -101,22 -35,-11 -63,-38 -85,-67 -93,-120 -104,-293 -87,-439 2,-23 6,-46 19,-65 13,-19 38,-31 59,-24 26,10 35,42 41,69 29,122 95,231 146,344z"/>
   <path class="fil2" d="M3657 4942c-2,27 -9,54 -33,75 -23,20 -66,30 -98,17 -27,-11 -39,-34 -44,-56 -12,-44 -4,-91 21,-133 18,-29 71,-66 112,-33 38,31 44,92 42,130z"/>
   <path class="fil9 str0" d="M3787 4687c-31,-96 -128,-168 -230,-168 -101,-1 -199,70 -231,167"/>
   <path class="fil2" d="M4388 4957c-1,26 -9,53 -32,74 -24,20 -67,30 -99,17 -27,-11 -39,-34 -44,-56 -11,-44 -3,-91 22,-133 17,-29 70,-66 111,-33 39,31 44,92 42,131z"/>
   <path class="fil9 str0" d="M4135 4538c48,-54 131,-69 199,-45 68,24 121,81 153,146"/>
   <path class="fil2" d="M3800 5601c24,5 48,8 72,11 112,11 226,5 339,-2 -3,81 13,161 13,242 -22,10 -45,17 -68,23 -91,-121 -216,-217 -356,-274z"/>
   <path class="fil10" d="M3522 5506c7,-7 20,-2 29,4 53,33 112,58 173,74 25,7 50,13 76,17 140,57 265,153 356,274 -7,2 -15,5 -22,6 -258,58 -557,-82 -615,-353 -2,-8 -3,-17 3,-22z"/>
   <path class="fil2" d="M3037 5197c-2,330 51,662 144,981 42,144 91,285 116,432 26,147 27,302 -24,442 -31,83 -84,163 -164,202 -104,51 -232,20 -331,-40 -100,-59 -181,-145 -274,-215 -163,-122 -377,-213 -583,-171 -50,10 -109,26 -149,-6 -39,-30 -40,-87 -32,-135 30,-182 141,-334 244,-481 110,-156 192,-315 260,-492 60,-155 78,-324 84,-489 7,-223 -7,-448 34,-667 12,-60 28,-121 66,-170 32,-40 78,-68 124,-94 174,-98 363,-170 559,-213 33,-8 70,-13 97,7 44,32 27,100 7,150 -121,309 -176,633 -178,959z"/>
   <path class="fil4" d="M1175 10075c0,10 -1,19 -1,28 -3,64 -4,133 30,187 55,89 176,103 281,108 138,6 354,69 450,-45 112,-135 179,-349 248,-509 146,-342 263,-697 346,-1060 119,-511 219,-1081 10,-1583 -81,-194 -356,-647 -563,-333 -264,401 -396,898 -516,1359 -76,293 -150,573 -193,877 -46,322 -76,646 -92,971z"/>
   <path class="fil5" d="M1892 9075c-138,107 -266,230 -378,364 -22,26 -44,54 -53,87 -9,31 -4,66 -9,99 -11,75 -19,151 -28,227 58,-56 116,-112 173,-169 126,-122 251,-243 377,-365 55,-52 105,-107 163,-156 57,-47 117,-92 174,-139 106,-88 206,-191 252,-322 -241,89 -468,216 -671,374z"/>
   <path class="fil6" d="M2110 7976c-191,-66 -395,-92 -597,-94 33,-122 67,-244 101,-366 24,-89 55,-187 134,-236 51,-32 114,-37 173,-26 58,12 113,38 165,67 197,110 374,261 492,452 115,187 179,428 129,646 -52,-16 -78,-55 -100,-101 -28,-58 -58,-96 -110,-137 -116,-90 -248,-158 -387,-205z"/>
   <path class="fil4" d="M3961 8012c17,23 33,48 48,68 45,58 89,116 134,174 -499,624 -1060,1199 -1671,1713 -281,237 -589,479 -977,445 -107,-9 -221,-48 -281,-138 -64,-95 -43,-203 -23,-308 16,-91 108,-172 167,-241 144,-170 299,-330 464,-479 352,-319 752,-561 1152,-814 250,-158 504,-311 761,-457 45,-26 99,-52 147,-33 32,12 57,40 79,70z"/>
   <path class="fil4" d="M4126 7451c1,-1 2,-2 3,-2 89,-65 211,-99 260,-198 10,-20 17,-41 28,-60 12,-19 31,-36 53,-37 22,-1 42,14 53,33 11,19 13,42 13,64 -1,90 -44,174 -96,248 -52,73 -115,139 -164,214 -14,22 -27,50 -16,73 13,28 53,32 82,22 112,-39 218,-108 326,-159 114,-54 230,-103 350,-139 32,-10 64,-18 97,-17 33,2 66,14 86,41 28,38 19,93 -7,133 -26,39 -66,67 -104,96 -165,130 -287,309 -451,442 -133,106 -290,179 -453,225 -65,19 -129,33 -196,38 -51,3 -106,-19 -152,-41 -96,-44 -180,-114 -240,-201 -21,-32 -41,-69 -38,-108 4,-56 52,-97 95,-134 94,-82 179,-174 253,-275 67,-91 127,-192 218,-258z"/>
   <path class="fil5" d="M5005 7738c19,-13 38,-25 56,-39 25,-20 49,-41 68,-67 18,-26 30,-58 28,-90 -1,-19 -9,-40 -27,-45 23,30 15,75 -7,106 -22,30 -56,50 -89,69 -49,28 -97,58 -145,87 -80,50 -158,101 -236,154 -16,11 -31,25 -48,35 -20,11 -41,22 -61,34 -31,18 -62,36 -92,54 -10,7 -23,13 -31,22 -3,3 -15,32 -10,31 31,-8 59,-26 85,-43 13,-9 26,-18 39,-26 78,-52 155,-104 236,-149 78,-45 159,-84 234,-133z"/>
   <path class="fil5" d="M5071 7772c-24,16 -49,32 -73,48 -81,53 -162,106 -244,158 -79,50 -157,105 -239,151 -10,6 -32,24 -21,38 12,16 42,-5 53,-12 180,-123 354,-255 528,-386 -1,1 -2,2 -4,3z"/>
   <path class="fil11" d="M1174 9595l0 0c-298,0 -540,-242 -540,-540l0 -578 1079 0 0 578c0,298 -241,540 -539,540z"/>
   <path class="fil11" d="M1615 10316l-882 0c-55,0 -99,44 -99,98l0 0 1079 0c0,-54 -44,-98 -98,-98z"/>
   <path class="fil10" d="M721 8823l917 0 0 234c0,253 -205,459 -458,459l0 0c-254,0 -459,-206 -459,-459l0 -234z"/>
   <path class="fil12" d="M721 8823c-1,51 52,101 102,96 37,-3 68,-28 104,-36 50,-11 101,11 146,35 45,25 91,52 142,52 54,0 102,-30 148,-59 46,-28 97,-57 150,-51 19,2 36,8 54,11 18,3 38,3 53,-6 16,-10 18,-14 19,-47l-918 5z"/>
   <polygon class="fil13" points="1639,8567 721,8567 721,8750 1639,8750 "/>
   <path class="fil4" d="M16007 9794c184,-74 353,-198 512,-319 228,-174 462,-359 585,-618 91,-193 111,-409 107,-620 -2,-170 10,-424 -87,-572 -337,198 -590,511 -835,817 -64,80 -128,160 -192,240 -11,14 -183,195 -183,198 -68,-397 -144,-792 -227,-1185 -20,-93 -45,-474 -138,-513 -32,-13 -490,140 -492,117 35,436 76,871 122,1306 23,220 48,441 74,661 18,150 14,365 147,469 92,72 215,93 332,85 96,-6 187,-30 275,-66z"/>
   <path class="fil5" d="M16117 9136c-12,74 -32,146 -65,212 0,0 -26,-47 -28,-53 -5,-21 -6,-40 -12,-60 -16,-50 -31,-99 -47,-149 -9,-29 -18,-59 -28,-88 -7,-25 -25,-57 -26,-82 0,-23 17,-29 34,-42 21,-17 42,-34 62,-52 39,-37 75,-78 107,-121 11,109 20,219 14,329 -2,35 -5,71 -11,106z"/>
   <path class="fil6" d="M16338 8291c-29,32 -57,67 -71,108 -17,53 -8,111 3,166 71,327 245,631 491,858 19,17 42,35 67,31 21,-4 37,-22 49,-40 122,-172 171,-386 188,-597 16,-210 3,-422 15,-633 12,-218 62,-409 156,-606 -51,-32 -111,43 -151,69 -68,43 -135,89 -200,136 -127,95 -248,198 -361,309 -65,64 -127,130 -186,199z"/>
   <path class="fil4" d="M14921 7285c41,69 92,134 161,176 68,42 156,58 230,26 24,-10 46,-25 71,-32 37,-12 77,-7 112,-23 30,-15 65,-19 94,-37 48,-31 64,-83 82,-133 20,-59 34,-103 15,-167 -18,-57 -53,-107 -82,-159 -22,-38 -41,-78 -58,-118 -7,-18 -9,-34 -26,-43 -16,-8 -40,-9 -58,-8 -34,3 -62,17 -94,25 -27,7 -62,-2 -90,-4 -67,-2 -134,0 -201,8 -77,10 -164,22 -236,54 -67,30 -43,102 -30,160 22,97 59,190 110,275z"/>
   <path class="fil5" d="M14863 7015c4,14 9,27 15,40 35,81 83,155 142,221 51,57 118,110 195,108 21,-1 42,-6 61,-14 16,-6 40,-15 51,-28 5,-6 8,-18 12,-25 6,-10 12,-19 19,-27 14,-17 30,-32 47,-46 27,-23 56,-45 79,-72 25,-28 47,-57 69,-87 23,-33 45,-66 67,-99 18,-26 53,-59 44,-93 -7,-27 -34,-28 -58,-31 -38,-6 -75,-22 -104,-46 -32,-27 -57,-63 -96,-79 -44,-18 -94,-4 -137,16 -59,28 -111,68 -170,96 -58,28 -128,42 -188,16 -22,-10 -52,-24 -76,-15 -37,14 -11,57 -1,80 11,27 19,56 29,85z"/>
   <path class="fil11" d="M14449 7005l1315 -785c70,39 217,134 324,318 86,151 106,292 112,369 -490,199 -979,398 -1468,597 -50,-41 -124,-111 -186,-219 -64,-111 -87,-215 -97,-280z"/>
   <path class="fil13" d="M14565 7042l1181 -722c59,40 173,130 247,288 44,93 59,179 64,239 -437,171 -874,341 -1311,511 -59,-101 -119,-203 -178,-305l-3 -11z"/>
   <path class="fil14" d="M15935 6900c-378,186 -765,342 -1163,481 -105,-85 -179,-207 -207,-339 48,-70 139,-80 222,-70 84,11 166,40 250,29 93,-12 171,-71 250,-122 78,-51 169,-98 261,-82 61,10 116,46 177,47 79,1 150,-57 229,-52 40,3 78,24 103,55l-122 53z"/>
   <path class="fil4" d="M14705 6661c3,-16 8,-31 16,-44 20,-28 59,-48 94,-43 1,-44 26,-87 64,-109 38,-21 88,-21 125,2 2,-44 32,-86 72,-102 41,-17 91,-8 123,22 -11,-22 5,-51 27,-61 23,-10 50,-7 74,-1 74,16 145,47 201,97 57,50 97,119 105,194 3,29 1,59 -15,82 -17,23 -51,36 -75,21 -3,46 -33,88 -74,107 -42,19 -94,14 -130,-14 2,39 -10,82 -41,106 -31,25 -83,23 -105,-9 11,29 5,64 -14,89 -18,26 -50,40 -82,38 -40,-2 -74,-30 -101,-60 -26,-30 -48,-65 -79,-90 -22,-18 -47,-31 -73,-40 -27,-10 -54,-14 -83,-18 -12,-35 -25,-71 -29,-108 -2,-17 -3,-39 0,-59z"/>
   <path class="fil5" d="M15263 6410c58,36 106,86 147,141 41,55 75,114 109,173 -6,-64 -36,-124 -77,-173 -41,-50 -92,-90 -144,-127 -22,-15 -55,-41 -83,-39 2,7 14,8 20,11 9,4 19,9 28,14z"/>
   <path class="fil5" d="M15312 6818c-8,-53 -37,-101 -72,-143 -35,-41 -76,-76 -116,-113 -37,-34 -74,-76 -119,-99 14,20 41,35 59,52 24,21 46,44 67,68 43,47 81,97 119,148 21,29 42,58 62,87z"/>
   <path class="fil5" d="M15165 6923c-1,-19 -9,-36 -20,-51 -10,-15 -24,-28 -36,-41 -47,-48 -86,-102 -132,-150 -45,-47 -98,-91 -162,-112 55,25 104,75 146,118 48,47 91,97 134,149 23,28 47,58 70,87z"/>
   <path class="fil4" d="M15521 7422c-47,9 -96,24 -137,-13 -30,-28 -41,-74 -25,-112 17,-42 59,-68 88,-100 16,-17 37,-28 52,-46 17,-19 31,-40 44,-62 25,-43 46,-89 79,-126 53,-58 133,-88 211,-88 20,0 42,4 52,21 8,13 5,30 -2,43 -8,13 -20,23 -31,34 -47,45 -83,101 -103,163 -14,42 -21,86 -36,127 -7,19 -17,38 -29,55 -14,19 -31,28 -48,43 -34,29 -69,53 -115,61z"/>
   <path class="fil6" d="M16648 10937c-38,-312 -24,-626 -11,-939 23,-531 46,-1065 158,-1585 93,-433 230,-823 672,-1008 317,-132 676,-123 1013,-56 661,132 738,690 810,1268 85,678 100,1365 45,2047l-2687 273z"/>
   <path class="fil4" d="M17584 7113c-9,68 -6,135 -16,201 -12,84 -29,167 -41,250 -18,124 -71,265 13,369 50,61 128,90 204,90 76,0 152,-24 224,-56 113,-48 220,-114 319,-194 49,-40 92,-94 142,-132 35,-25 94,-36 114,-81 8,-15 4,-34 1,-51 -41,-207 -65,-418 -71,-631 -7,-202 17,-401 -4,-600 -4,-44 4,-167 -35,-191 -32,-19 -88,26 -117,40 -127,62 -288,62 -423,65 -15,0 -30,0 -46,0 -23,0 -46,-1 -67,10 -28,15 -46,46 -54,78 -65,271 -105,552 -143,833z"/>
   <path class="fil5" d="M17567 7342c0,8 -1,17 -1,26 0,10 0,22 4,31 16,39 100,36 132,33 60,-5 119,-18 177,-39 117,-42 226,-114 316,-208 145,-152 240,-358 276,-573 5,-33 11,-72 4,-105 -9,-35 -34,-33 -64,-33 -90,0 -179,15 -267,40 -110,30 -222,78 -310,162 -43,41 -82,91 -122,137 -24,27 -54,60 -74,93 -22,37 -27,93 -35,136 -19,99 -31,199 -36,300z"/>
   <path class="fil5" d="M17339 6213c-10,23 -21,46 -24,71 -4,25 1,52 17,71 21,24 59,30 90,20 31,-11 56,-34 76,-60 82,-107 92,-261 77,-390 -2,-21 -6,-42 -17,-58 -12,-17 -34,-28 -53,-21 -23,8 -31,36 -36,60 -26,109 -84,206 -130,307z"/>
   <path class="fil2" d="M17779 5900c1,23 7,48 28,66 21,18 59,27 88,16 24,-10 34,-31 39,-50 10,-40 3,-82 -19,-119 -16,-26 -63,-58 -99,-29 -34,27 -39,81 -37,116z"/>
   <path class="fil9 str0" d="M17663 5673c27,-86 114,-149 204,-150 90,0 177,63 205,149"/>
   <path class="fil2" d="M17128 5912c2,24 8,48 29,66 21,18 59,28 88,16 24,-10 34,-30 39,-50 10,-39 3,-81 -19,-118 -16,-26 -63,-59 -99,-30 -34,28 -39,82 -38,116z"/>
   <path class="fil9 str0" d="M17353 5540c-42,-48 -116,-61 -177,-39 -60,21 -107,72 -135,129"/>
   <path class="fil2" d="M17651 6486c-21,3 -42,6 -64,9 -100,10 -201,5 -301,-2 3,73 -11,144 -11,215 19,9 39,15 60,21 80,-108 191,-193 316,-243z"/>
   <path class="fil10" d="M17898 6401c-6,-7 -17,-2 -25,3 -48,30 -100,52 -155,66 -22,7 -44,12 -67,16 -125,50 -236,135 -316,243 6,2 13,4 19,5 229,52 495,-72 547,-314 1,-6 2,-14 -3,-19z"/>
   <path class="fil4" d="M18649 5732c24,-33 55,-65 95,-73 52,-10 103,25 137,65 81,95 106,234 67,353 -39,119 -138,215 -257,253 -36,12 -77,17 -109,-2 -36,-21 -49,-65 -54,-106 -5,-43 -4,-88 10,-130 12,-37 10,-73 14,-111 11,-90 44,-176 97,-249z"/>
   <path class="fil9 str0" d="M18781 5819c-93,102 -134,250 -106,385"/>
   <path class="fil9 str0" d="M18692 5963c32,29 73,48 116,54"/>
   <path class="fil4" d="M18874 10006c-21,37 -43,73 -66,108 -80,125 -187,256 -335,268 -112,10 -223,-58 -284,-153 -61,-95 -78,-213 -70,-325 9,-113 42,-222 74,-331 108,-355 215,-711 323,-1067 76,-252 185,-605 416,-762 135,-92 260,-4 343,112 4,5 8,10 11,16 97,141 100,359 90,522 -13,213 -66,420 -122,625 -24,87 -27,172 -55,259 -32,98 -68,194 -107,289 -63,151 -135,298 -218,439z"/>
   <path class="fil5" d="M18526 9759c3,6 8,14 15,15 8,2 16,-4 19,-12 4,-7 3,-16 2,-24 -21,-228 -103,-449 -235,-636 -12,48 -24,95 -37,142 -5,18 -16,42 -12,60 5,17 22,37 30,53 47,87 94,173 141,259 25,48 52,95 77,143z"/>
   <path class="fil6" d="M19525 8539c9,292 -54,580 -116,865 -393,2 -785,-95 -1132,-279 -25,-14 -52,-29 -63,-55 -13,-31 -2,-67 10,-98 90,-233 169,-464 270,-692 107,-243 221,-482 344,-718 6,-11 13,-23 24,-29 18,-9 41,1 59,12 152,85 308,175 412,315 139,186 186,452 192,679z"/>
   <path class="fil4" d="M17197 8914c-31,-51 -48,-92 -66,-150 -19,-65 -60,-123 -53,-195 10,-98 125,-151 212,-124 47,15 85,48 123,80 385,333 772,668 1120,1040 92,98 184,205 211,336 31,146 -31,307 -152,395 -89,65 -207,96 -308,46 -93,-46 -163,-129 -227,-209 -16,-20 -32,-39 -47,-59 -194,-246 -376,-500 -551,-760 -87,-130 -173,-261 -257,-393 -2,-2 -3,-5 -5,-7z"/>
   <path class="fil5" d="M18493 10084c63,12 116,65 128,128 -39,-40 -96,-62 -152,-59 -59,3 -106,32 -146,73 -16,-97 82,-159 170,-142z"/>
   <path class="fil3" d="M10110 10732c8,-808 -34,-932 -128,-1734 -58,-505 -137,-1010 -139,-1518 -1,-89 -11,-203 38,-279 41,-64 137,-127 196,-176 146,-121 306,-224 476,-308 339,-168 718,-260 1097,-257 363,2 723,85 1065,209 219,79 438,178 596,349 135,146 251,364 285,561 13,76 -2,152 13,228 26,125 63,248 93,371 122,496 231,995 328,1496 63,321 120,643 172,966l-4092 92z"/>
   <path class="fil14" d="M12761 9171c-845,136 -1708,172 -2559,86 -271,14 -190,-330 -233,-506 1054,232 2298,104 3222,-451 57,237 113,474 169,710 -188,89 -394,129 -599,161z"/>
   <path class="fil14" d="M10884 6766c36,849 1476,528 1478,-161 -209,-397 -1493,-337 -1478,161z"/>
   <path class="fil15" d="M12961 9133c-233,113 -472,214 -715,303 -243,89 -498,143 -739,230 9,39 45,71 62,108 25,51 39,110 53,164 27,111 40,226 38,341 -2,77 -6,165 50,218 40,39 100,46 156,51 481,45 965,64 1449,57 193,-3 387,-10 580,-21 96,-5 193,-12 289,-19 44,-4 90,-11 134,-8 15,2 58,19 71,8 28,-25 -41,-195 -52,-231 -26,-90 -53,-180 -81,-269 -57,-178 -119,-355 -187,-530 -119,-310 -295,-590 -377,-915 -96,-384 -212,-769 -410,-1116 -44,-77 -96,-156 -175,-196 -92,-47 -205,-26 -224,76 -25,135 -32,279 -39,415 -16,286 -5,574 31,858 21,160 49,319 86,476z"/>
   <path class="fil4" d="M11043 5254c-22,332 -39,664 -50,996 -6,151 -5,302 -7,452 -2,130 12,239 132,319 107,71 244,81 371,66 200,-24 390,-104 556,-217 109,-74 220,-180 232,-320 7,-80 -14,-170 -24,-250 -10,-90 -21,-180 -32,-270 -42,-361 -84,-722 -126,-1082 -11,-94 -22,-188 -33,-282 -296,197 -635,328 -986,383 -13,149 -26,298 -39,447l6 -242z"/>
   <path class="fil5" d="M11004 6527c3,47 10,98 44,130 28,26 69,35 107,31 38,-4 73,-19 108,-35 369,-175 659,-509 782,-899 35,-114 57,-235 38,-352 -4,-27 -13,-56 -37,-68 -17,-9 -37,-7 -56,-4 -221,34 -430,132 -602,275 -144,120 -309,300 -354,488 -34,140 -41,291 -30,434z"/>
   <path class="fil4" d="M10209 5007c2,199 11,399 27,598 9,115 22,234 78,335 110,197 356,276 581,284 367,13 737,-122 1010,-368 516,-465 576,-1197 325,-1816 -94,-231 -244,-453 -470,-559 -143,-66 -305,-81 -462,-74 -200,9 -401,52 -571,158 -259,160 -473,477 -496,783 -16,219 -23,439 -22,659z"/>
   <path class="fil2" d="M11273 4520c151,4 -5,-232 -25,-309 192,153 487,152 677,-3 50,92 28,203 35,307 8,126 27,251 56,373 8,35 19,71 45,94 48,43 126,24 176,-17 302,-247 309,-716 256,-1070 -8,-54 -19,-108 -33,-160 72,11 146,5 216,-17 -28,-123 -143,-220 -268,-227 38,-222 -68,-461 -258,-582 -42,118 -60,244 -52,369 -232,-364 -1442,-119 -1892,-199 -466,-78 -323,596 -3,600 -196,291 -182,708 34,985 1,-262 98,-523 269,-722 171,286 420,536 767,578z"/>
   <path class="fil5" d="M10674 5280c-12,25 -23,52 -27,80 -4,28 1,58 19,79 24,28 67,34 101,23 35,-12 63,-38 85,-67 94,-121 104,-293 88,-440 -3,-22 -7,-46 -20,-64 -13,-19 -37,-32 -59,-24 -26,9 -35,41 -41,68 -29,122 -95,231 -146,345z"/>
   <path class="fil2" d="M11308 4928c1,26 9,54 32,74 24,20 67,31 99,18 27,-11 39,-34 44,-56 11,-45 3,-92 -22,-134 -17,-29 -70,-66 -111,-33 -39,31 -44,92 -42,131z"/>
   <path class="fil9 str0" d="M11038 4673c31,-97 128,-168 230,-169 101,0 199,71 231,167"/>
   <path class="fil2" d="M10556 4942c1,26 9,54 32,74 23,20 67,31 99,18 27,-11 38,-34 44,-56 11,-45 3,-92 -22,-134 -17,-29 -70,-66 -111,-33 -39,31 -44,92 -42,131z"/>
   <path class="fil9 str0" d="M10690 4523c-48,-54 -131,-68 -199,-45 -68,24 -121,81 -153,146"/>
   <path class="fil2" d="M11025 5587c-23,4 -47,7 -72,10 -112,12 -226,6 -339,-2 3,82 -12,162 -12,243 21,9 44,16 67,22 91,-121 216,-217 356,-273z"/>
   <path class="fil10" d="M11303 5491c-7,-7 -20,-1 -28,4 -54,34 -113,58 -174,75 -25,7 -50,12 -76,17 -140,56 -265,152 -356,273 7,3 15,5 22,7 258,57 557,-82 615,-354 2,-7 3,-16 -3,-22z"/>
   <path class="fil4" d="M12456 5408c-72,33 -201,64 -249,-22 -15,-25 -20,-55 -24,-84 -21,-151 -6,-306 43,-449 38,-114 95,-273 238,-281 62,-3 121,31 160,78 39,48 60,108 73,168 24,112 22,232 -17,339 -40,108 -119,203 -224,251z"/>
   <path class="fil9 str0" d="M12440 4790c-95,115 -124,282 -73,423"/>
   <path class="fil9 str0" d="M12351 4998c41,12 84,16 126,10"/>
   <path class="fil3" d="M9020 10316c237,-168 1134,-567 1028,-869 -61,-740 -197,-1479 -187,-2223 -396,819 -890,1597 -1316,2404 -321,433 -102,1015 475,688z"/>
   <path class="fil15" d="M9593 9874c2,30 10,67 39,76 22,7 45,-8 64,-22 113,-86 223,-177 329,-272 21,-18 43,-38 52,-65 7,-23 5,-48 2,-73 -46,-371 -92,-741 -138,-1112 -11,-89 -4,-223 -41,-302 -39,15 -55,100 -68,136 -21,57 -41,114 -59,172 -37,115 -69,232 -95,350 -52,234 -82,474 -91,714 -5,133 6,265 6,398z"/>
   <path class="fil15" d="M9264 9240c3,12 15,53 31,58 32,8 36,-36 35,-57 -11,-326 -23,-652 -35,-977 -52,97 -104,194 -156,292 -14,27 -29,56 -34,87 -7,48 13,94 26,139 13,46 22,92 35,137 32,107 66,214 98,321z"/>
   <path class="fil3" d="M8177 7378c157,-35 311,-80 462,-137 123,400 246,801 369,1201 116,377 278,762 304,1157 13,201 -20,412 -132,580 -111,168 -310,286 -511,266 -268,-26 -281,-255 -336,-472 -65,-255 -122,-511 -170,-770 -97,-516 -161,-1039 -190,-1564 -5,-73 -8,-147 -11,-220 72,-11 144,-25 215,-41z"/>
   <path class="fil14" d="M7927 7676c0,17 1,36 12,49 15,20 43,21 68,21 138,-1 278,-6 413,-35 136,-29 268,-85 371,-177 -49,-125 -99,-250 -148,-375 -10,-25 -372,107 -406,120 -67,28 -132,58 -195,92 -36,19 -98,39 -116,79 -27,58 -2,164 1,226z"/>
   <path class="fil15" d="M8774 10167c48,19 87,57 121,97 7,8 14,16 24,22 9,5 22,5 30,-2 7,-6 9,-16 10,-26 4,-71 -53,-138 -122,-157 -61,-17 -191,2 -218,72 18,4 38,-9 56,-14 33,-7 67,-5 99,8z"/>
   <path class="fil4" d="M7785 7234c37,83 86,164 158,220 71,57 168,86 256,61 28,-8 55,-22 85,-27 42,-8 87,3 129,-11 36,-12 76,-11 111,-28 50,-24 81,-75 106,-124 26,-49 51,-101 95,-135 41,-31 95,-44 126,-85 22,-30 28,-70 48,-101 45,-66 140,-72 203,-121 24,-18 44,-51 32,-78 -13,-26 -46,-33 -75,-33 -110,-3 -220,28 -312,88 -25,17 -54,37 -84,31 -27,-4 -47,-28 -59,-53 -13,-24 -22,-51 -40,-72 -24,-27 -61,-40 -98,-42 -38,-3 -71,10 -108,15 -32,4 -70,-11 -102,-17 -75,-12 -151,-19 -227,-19 -89,0 -189,3 -274,29 -79,25 -62,109 -55,176 11,112 40,222 85,326z"/>
   <path class="fil5" d="M7787 6915c18,26 32,55 51,81 19,24 27,59 39,88 12,30 25,63 52,81 39,25 90,13 133,-4 9,19 29,30 50,36 20,6 41,9 59,21 33,20 47,65 82,80 32,14 70,-1 94,-26 28,-30 39,-65 59,-99 21,-37 51,-69 83,-97 32,-29 68,-54 101,-81 28,-23 61,-28 79,-63 6,-12 10,-26 8,-39 -4,-32 -35,-36 -61,-43 -42,-11 -81,-35 -111,-66 -33,-35 -56,-79 -97,-102 -47,-27 -106,-18 -157,-1 -70,24 -134,62 -204,85 -70,23 -151,30 -215,-8 -23,-14 -55,-34 -84,-27 -55,14 -8,111 9,137 10,15 20,31 30,47z"/>
   <path class="fil2" d="M9056 6552c-444,51 -1069,150 -1508,231 -38,7 -77,14 -108,36 -31,23 -52,64 -38,100 12,30 44,48 75,58 103,33 214,15 321,-3 467,-80 934,-159 1402,-239l-144 -183z"/>
   <path class="fil2" d="M9220 6411c93,-16 189,-16 282,1 51,10 102,24 145,53 35,23 77,65 83,108 6,46 -27,95 -56,127 -68,76 -192,115 -289,133 -104,18 -212,17 -315,-5 -78,-16 -165,-43 -222,-100 -20,-20 -37,-44 -40,-73 -5,-55 28,-81 71,-110 102,-69 219,-115 341,-134z"/>
   <path class="fil10" d="M9365 6453c48,-3 96,-4 143,4 47,9 94,27 130,58 13,12 25,25 28,42 6,32 -22,60 -48,79 -50,37 -104,67 -160,90 -147,60 -315,72 -464,20 -23,-8 -45,-18 -63,-33 -19,-15 -32,-38 -33,-61 0,-58 96,-104 140,-125 64,-31 134,-49 205,-61 40,-6 81,-10 122,-13z"/>
   <path class="fil8" d="M9035 6595c-1,7 -1,15 4,20 4,4 10,5 15,5 12,0 25,-3 36,-9 7,-5 15,-10 19,-18 5,-8 6,-18 3,-26 -15,-45 -73,0 -77,28z"/>
   <path class="fil8" d="M9208 6536c5,6 13,7 20,7 14,1 29,-3 42,-10 4,-3 9,-6 11,-11 3,-7 0,-16 -6,-20 -19,-16 -95,4 -67,34z"/>
   <path class="fil8" d="M9170 6622c-4,8 -6,18 -3,27 2,7 9,14 16,12 4,0 7,-3 9,-5 11,-9 20,-21 26,-33 2,-5 4,-10 4,-15 0,-5 -1,-11 -5,-14 -4,-3 -10,-4 -15,-3 -14,3 -26,19 -32,31z"/>
   <path class="fil8" d="M9069 6712c6,1 12,1 16,-3 5,-4 6,-12 4,-18 -2,-10 -8,-18 -17,-23 -11,-7 -50,-18 -48,7 2,20 28,35 45,37z"/>
   <path class="fil8" d="M9283 6697c-6,3 -13,9 -13,16 0,6 5,11 11,13 5,1 11,1 17,0 16,-2 34,-4 48,-13 4,-2 8,-6 10,-10 10,-15 -6,-29 -21,-26 -17,4 -37,12 -52,20z"/>
   <path class="fil8" d="M9326 6586c-2,2 -4,4 -4,7 0,6 7,10 13,11 8,3 17,5 27,6 5,0 11,0 16,-2 5,-3 8,-8 10,-13 3,-6 6,-12 5,-19 -2,-13 -19,-21 -31,-17 -14,5 -27,15 -36,27z"/>
   <path class="fil8" d="M9480 6548c5,5 12,8 19,7 8,-1 13,-9 15,-16 1,-8 -1,-16 -5,-22 -7,-14 -36,-41 -53,-25 -15,15 12,48 24,56z"/>
   <path class="fil8" d="M9479 6616c-9,7 -14,19 -13,30 0,3 0,6 2,8 2,3 6,4 9,5 11,1 22,-2 31,-8 8,-7 14,-18 15,-29 1,-24 -33,-16 -44,-6z"/>
   <path class="fil4" d="M7712 6563c9,-16 20,-31 34,-41 33,-23 82,-29 118,-10 17,-47 60,-83 109,-91 49,-8 102,12 134,50 19,-46 66,-79 116,-81 50,-2 100,27 123,72 -4,-28 24,-53 52,-55 29,-2 56,12 80,27 72,46 136,107 177,182 41,75 57,165 36,248 -7,31 -21,63 -48,81 -26,19 -67,19 -87,-6 -21,47 -70,82 -121,86 -52,4 -105,-22 -133,-66 -14,43 -43,84 -85,98 -43,14 -98,-8 -109,-51 0,36 -19,71 -49,90 -30,20 -70,23 -103,9 -42,-18 -68,-61 -84,-103 -17,-43 -27,-89 -50,-128 -16,-27 -38,-50 -62,-71 -25,-21 -52,-35 -82,-50 1,-43 1,-86 11,-127 4,-20 12,-43 23,-63z"/>
   <path class="fil5" d="M8404 6511c48,61 81,133 103,207 23,74 36,151 49,227 19,-70 10,-146 -14,-215 -25,-69 -64,-131 -105,-191 -18,-25 -43,-64 -73,-74 -1,9 11,14 16,19 9,9 17,18 24,27z"/>
   <path class="fil5" d="M8299 6966c12,-60 0,-123 -21,-181 -22,-57 -52,-111 -81,-166 -26,-50 -49,-109 -88,-152 7,27 30,54 43,79 17,32 32,65 45,98 28,67 50,135 70,204 11,39 22,79 32,118z"/>
   <path class="fil5" d="M8102 7020c6,-20 4,-41 -2,-62 -5,-20 -14,-39 -23,-58 -31,-69 -53,-141 -83,-210 -30,-69 -69,-136 -129,-183 49,49 81,120 111,182 32,69 59,140 85,211 14,40 27,80 41,120z"/>
   <path class="fil2" d="M9603 9418c-53,21 -87,74 -84,131 7,162 52,344 147,467 103,134 276,242 432,302 152,58 316,83 479,89 194,8 392,-13 574,-83 187,-72 417,-283 512,-460 50,-94 65,-180 45,-394 -79,-94 -206,-122 -325,-154 -573,-156 -1225,-118 -1780,102z"/>
   <path class="fil10" d="M11571 9512c0,78 -427,142 -954,142 -527,0 -954,-64 -954,-142 0,-78 427,-142 954,-142 527,0 954,64 954,142z"/>
   <path class="fil8" d="M11239 9510c0,12 11,21 22,25 21,8 46,6 65,-4 17,-8 27,-28 13,-44 -20,-21 -98,-9 -100,23z"/>
   <path class="fil8" d="M10853 9411c-9,6 -16,17 -13,27 2,8 8,14 16,17 7,3 15,3 23,4 16,2 32,3 49,4 12,1 26,2 36,-6 22,-19 0,-56 -25,-58 -12,-1 -24,2 -36,2 -18,0 -35,-1 -50,10z"/>
   <path class="fil8" d="M10312 9516c-8,6 -15,13 -18,22 -4,9 -4,20 2,28 8,11 23,12 36,10 33,-3 65,-15 92,-35 6,-5 13,-11 15,-19 9,-27 -30,-44 -51,-40 -26,4 -56,17 -76,34z"/>
   <path class="fil8" d="M9792 9512c-1,7 3,14 9,19 7,4 14,7 21,7 27,3 54,-9 78,-21 36,-17 -2,-50 -28,-50 -25,-1 -79,15 -80,45z"/>
   <path class="fil8" d="M10101 9452c-8,3 -18,8 -19,17 -1,7 3,13 8,16 5,4 12,5 18,7 25,3 50,3 74,-1 21,-4 52,-9 68,-24 13,-12 7,-26 -7,-32 -18,-9 -39,-7 -58,-4 -28,4 -57,12 -84,21z"/>
   <path class="fil8" d="M10623 9556c-9,4 -19,9 -21,18 -2,8 3,17 10,21 7,4 15,6 24,7 44,5 90,2 134,-9 14,-4 32,-17 16,-31 -10,-10 -31,-14 -44,-16 -38,-7 -82,-2 -119,10z"/>
   <path class="fil8" d="M10545 9427c-9,6 -18,16 -15,26 4,10 16,12 26,13 27,3 53,6 79,8 9,1 18,2 26,-3 26,-19 -12,-48 -30,-52 -26,-7 -62,-5 -86,8z"/>
   <path class="fil8" d="M11052 9487c-8,5 -16,12 -19,21 -2,9 3,19 10,25 7,6 17,9 26,10 21,3 42,-2 61,-12 25,-15 39,-56 2,-69 -22,-8 -62,14 -80,25z"/>
   <path class="fil8" d="M10033 9579c9,10 23,12 36,13 11,2 23,3 34,4 9,0 19,1 28,-1 9,-2 18,-9 20,-18 3,-10 -3,-21 -11,-27 -18,-14 -49,-21 -72,-20 -23,2 -56,22 -35,49z"/>
   <path class="fil8" d="M10914 9551c-8,1 -17,4 -21,12 -4,8 0,18 6,24 7,6 16,8 25,9 20,4 40,3 60,-2 3,0 6,-1 9,-3 14,-11 -5,-35 -17,-40 -17,-8 -44,-4 -62,0z"/>
   <path class="fil4" d="M11002 9624c-68,23 -48,98 11,112 91,31 207,-29 287,38 -117,88 -399,-39 -562,-59 -107,-10 -135,134 -37,172 -138,-67 -184,177 -32,165 -111,-2 -77,150 14,151 -57,85 28,140 102,167 130,46 277,55 414,58 144,3 290,-2 431,-28 113,-21 222,-55 297,-149 62,-76 97,-188 78,-286 -14,-70 -55,-133 -105,-185 -120,-124 -294,-198 -463,-225 -146,-23 -306,-10 -435,69z"/>
   <path class="fil5" d="M11014 9954c111,8 222,17 334,12 12,-1 27,-4 29,-16 3,-14 -15,-22 -28,-24 -41,-5 -82,2 -122,6 -86,9 -173,11 -259,4 -86,-7 -168,-27 -253,-43 28,29 97,37 135,43 54,10 109,14 164,18z"/>
   <path class="fil5" d="M11212 10149c36,-1 73,-5 107,-16 7,-3 16,-7 18,-15 1,-7 -4,-14 -11,-17 -7,-3 -14,-3 -22,-3 -152,3 -305,1 -458,-8 -59,-3 -119,-8 -175,-31 124,61 280,83 417,90 41,2 83,2 124,0z"/>
   <path class="fil5" d="M10689 10195c180,74 375,112 570,112 7,0 15,0 21,-4 6,-4 10,-12 6,-18 -4,-6 -12,-6 -19,-6 -205,8 -412,-24 -606,-92l28 8z"/>
   <path class="fil3" d="M14536 9724c-5,121 -30,245 -105,307 -156,128 -356,187 -553,228 -649,135 -1318,106 -1980,76 -7,-56 -82,-656 -101,-651 524,-140 1057,-250 1585,-372 -237,-384 -389,-819 -451,-1266 -21,-159 -41,-319 -45,-481 -5,-173 -7,-382 84,-536 22,-37 51,-57 80,-86 26,-24 47,-63 89,-59 29,3 53,19 76,36 229,163 413,385 562,623 150,239 267,496 384,752 180,393 331,775 368,1209 5,59 11,139 7,220z"/>
   <path class="fil14" d="M11843 10371c104,-2 208,-5 311,-8 -45,-255 -91,-509 -137,-764 0,9 -159,52 -176,58 -23,7 -53,8 -57,33 -5,26 7,67 10,94 14,124 25,249 35,374 5,71 10,142 14,213z"/>
   <path class="fil15" d="M13812 9589c24,23 55,48 86,37 22,-8 34,-34 33,-57 0,-24 -12,-46 -24,-66 -56,-89 -142,-159 -240,-196 -61,-22 -127,-32 -192,-29 -20,1 -118,4 -105,31 10,20 90,33 110,42 55,24 107,59 156,94 62,43 121,92 176,144z"/>
   <path class="fil15" d="M14200 9759c-8,53 -1,113 35,153 6,6 12,11 20,12 19,1 26,-24 26,-43 2,-57 5,-116 22,-171 17,-55 49,-108 98,-138 12,-7 25,-15 26,-28 6,-75 -127,24 -139,37 -47,48 -78,111 -88,178z"/>
   <path class="fil11" d="M12713 9595l0 0c-298,0 -540,-242 -540,-540l0 -578 1079 0 0 578c0,298 -241,540 -539,540z"/>
   <path class="fil11" d="M13154 10316l-882 0c-55,0 -99,44 -99,98l0 0 1079 0c0,-54 -44,-98 -98,-98z"/>
   <polygon class="fil11" points="12796,10330 12624,10330 12624,9042 12796,9042 "/>
   <path class="fil10" d="M12260 8823l917 0 0 234c0,253 -205,459 -458,459l0 0c-254,0 -459,-206 -459,-459l0 -234z"/>
   <path class="fil12" d="M12260 8823c-1,51 52,101 102,96 37,-3 68,-28 104,-36 50,-11 101,11 146,35 44,25 91,52 142,52 54,0 102,-30 148,-59 46,-28 97,-57 150,-51 18,2 36,8 54,11 18,3 38,3 53,-6 16,-10 18,-14 19,-47l-918 5z"/>
   <path class="fil12" d="M12566 9350c-14,4 -30,10 -36,24 -6,12 -2,28 7,38 9,11 22,18 34,23 101,46 221,44 322,0 13,-6 25,-12 34,-22 9,-11 13,-26 6,-38 -4,-8 -12,-13 -20,-17 -49,-26 -112,-31 -166,-33 -61,-2 -123,6 -181,25z"/>
   <polygon class="fil13" points="13178,8567 12260,8567 12260,8750 13178,8750 "/>
   <path class="fil8" d="M20597 11035l-20106 0c-185,0 -334,-150 -334,-334l0 0c0,-185 149,-335 334,-335l20106 0c184,0 334,150 334,335l0 0c0,184 -150,334 -334,334z"/>
   <path class="fil7" d="M19723 11491l-18009 0c-251,0 -455,-204 -455,-456l0 0 18919 0c0,252 -204,456 -455,456z"/>
   <path class="fil16" d="M6378 9716c-24,-70 -39,-146 -23,-218 16,-73 68,-140 141,-157 100,-22 192,56 266,127 16,-120 82,-233 183,-300 101,-66 237,-80 346,-28 109,52 185,170 178,291 73,-71 146,-143 236,-190 90,-48 200,-67 294,-27 94,39 160,148 131,245 99,-51 213,-103 317,-63 88,34 142,131 141,225 -1,95 -50,184 -117,249 -68,66 -153,110 -240,147 -173,72 -357,117 -544,129 -187,11 -374,-10 -560,-32 -102,-12 -204,-26 -306,-35 -57,-5 -118,1 -173,-14 -60,-16 -101,-60 -138,-107 -43,-56 -132,-168 -132,-242z"/>
   <path class="fil12" d="M6695 9623c66,-36 145,-54 218,-35 73,19 137,78 150,152 49,-31 117,-24 166,8 49,33 80,87 95,143 15,57 15,116 12,175 -1,14 -2,29 -12,38 -8,7 -20,9 -30,10 -226,25 -456,21 -681,-13 -28,-4 -58,-9 -81,-27 -82,-62 -16,-164 2,-238 22,-92 79,-166 161,-213z"/>
   <g>
    <path class="fil7" d="M6642 9248c-116,12 -234,42 -329,111 -57,42 -103,96 -149,150 -26,30 -52,63 -52,101 0,42 31,77 63,105 126,110 285,177 449,212 163,35 332,40 499,35 172,-4 350,-19 497,-108 62,-38 153,-122 90,-196 -60,-70 -137,-132 -212,-184 -158,-111 -341,-186 -532,-217 -107,-17 -216,-21 -324,-9z"/>
    <path class="fil8" d="M6350 9466c41,-31 83,-61 130,-82 100,-45 213,-48 323,-45 205,7 417,38 587,153 -135,-49 -274,-87 -416,-113 -72,-13 -146,-23 -220,-22 -111,3 -220,34 -317,88 -49,28 -94,61 -135,99 -21,19 -40,40 -58,61 -8,10 -39,46 -37,8 2,-24 46,-63 63,-79 25,-25 52,-47 80,-68z"/>
    <path class="fil8" d="M6531 9501c230,-98 505,-82 721,42 -43,-15 -86,-31 -130,-43 -251,-70 -533,-21 -746,130 -1,1 1,-16 3,-19 4,-5 12,-6 17,-10 13,-13 23,-30 38,-42 29,-25 63,-43 97,-58z"/>
    <path class="fil8" d="M6889 9541c93,-4 186,30 255,91 -9,9 -23,10 -35,6 -12,-4 -22,-12 -32,-19 -62,-41 -139,-58 -213,-50 -74,9 -144,41 -202,88 -5,4 -9,8 -15,9 -6,1 -13,-2 -14,-8 -1,-7 16,-11 21,-14 10,-8 19,-18 29,-25 19,-16 40,-29 62,-40 45,-22 94,-35 144,-38z"/>
    <path class="fil8" d="M7746 9290c123,-26 255,-35 373,8 119,43 221,146 233,272 10,105 -45,208 -124,278 -79,70 -180,111 -281,140 -176,51 -362,73 -542,43 -97,-17 -191,-48 -276,-95 -43,-24 -85,-52 -122,-84 -37,-31 -87,-60 -49,-106 124,-150 298,-269 473,-351 100,-47 206,-83 315,-105z"/>
    <path class="fil7" d="M7707 9405c81,-19 164,-32 247,-27 83,5 166,30 232,80 66,51 113,129 116,212 -28,-4 -40,-37 -51,-63 -35,-83 -110,-146 -195,-178 -85,-32 -178,-34 -268,-21 -89,13 -176,41 -261,70 -54,18 -108,37 -153,70 -29,21 -54,46 -82,67 -11,8 -86,54 -73,6 4,-15 36,-27 48,-35 19,-11 38,-22 57,-33 78,-42 160,-78 244,-107 45,-16 92,-29 139,-41z"/>
    <path class="fil7" d="M7748 9495c95,-18 197,-16 284,26 27,13 54,31 72,56 18,25 26,57 17,87 -36,-43 -75,-83 -123,-111 -91,-53 -204,-58 -305,-30 -53,15 -103,38 -150,66 -42,24 -81,65 -124,84 6,-49 93,-88 131,-108 62,-33 129,-57 198,-70z"/>
   </g>
   <path class="fil12" d="M8163 9696c-37,-16 -77,-18 -117,-17 -43,1 -88,8 -125,29 -35,20 -63,52 -77,90 -14,-37 -62,-52 -100,-41 -38,10 -68,40 -92,72 -62,80 -102,181 -93,282 223,-38 451,-49 676,-31 29,2 59,4 85,-8 81,-36 63,-144 12,-196 -60,-61 -83,-145 -169,-180z"/>
   <path class="fil17" d="M5485 10067c-83,-3 -157,-51 -226,-97 -140,-92 -288,-194 -351,-349 -19,-45 -29,-96 -14,-143 28,-85 133,-124 221,-107 88,17 162,75 232,130 -27,-82 24,-177 103,-214 78,-37 173,-24 249,17 76,42 135,109 186,179 51,70 95,145 149,213 65,-91 181,-142 291,-129 110,13 211,90 253,193 14,33 28,76 64,81 21,2 40,-9 60,-16 63,-20 134,12 178,62 44,50 67,115 88,178 -397,62 -801,56 -1203,49 -125,-2 -260,-7 -360,-81l80 34z"/>
   <path class="fil17" d="M7866 9893c78,-52 184,-58 268,-16 38,-84 78,-170 148,-231 70,-60 178,-86 255,-35 16,10 32,24 51,24 17,0 32,-11 45,-21 73,-58 144,-121 228,-160 85,-39 189,-50 269,-1 97,60 127,192 105,304 -27,136 -122,257 -247,316 -90,43 -191,54 -289,62 -222,19 -444,25 -666,15 -57,-3 -249,14 -280,-41 -37,-66 65,-183 113,-216z"/>
   <path class="fil2" d="M9236 10222l-4110 0c-45,0 -81,-36 -81,-81l0 0c0,-45 36,-82 81,-82l4110 0c45,0 82,37 82,82l0 0c0,45 -37,81 -82,81z"/>
   <path class="fil2" d="M8487 10364l-2612 0c-90,0 -162,-73 -162,-163l0 0 2937 0c0,90 -73,163 -163,163z"/>
   <path class="fil17" d="M15885 9429c24,-38 54,-78 98,-85 61,-9 113,50 175,56 53,4 100,-31 142,-65 41,-34 87,-71 140,-69 45,2 87,35 99,78 12,41 2,96 39,119 22,14 52,8 76,-3 24,-11 47,-26 73,-30 49,-8 97,28 115,74 19,46 13,98 0,145 -31,109 -102,204 -193,272 -91,67 -200,107 -312,124 -142,21 -289,4 -422,-48 -63,-25 -174,-81 -184,-159 -2,-16 7,-32 12,-48 6,-24 10,-48 17,-71 13,-48 29,-95 48,-140 22,-52 48,-102 77,-150z"/>
   <path class="fil16" d="M15911 9975c-78,17 -160,20 -240,9 -31,-5 -59,-17 -91,-16 -30,0 -62,-1 -85,-23 -21,-20 -28,-50 -30,-79 -5,-74 12,-150 50,-214 17,-30 39,-47 62,-71 24,-26 45,-52 81,-60 40,-9 80,10 115,31 34,22 68,47 109,53 48,7 95,-15 136,-42 40,-27 76,-61 119,-83 35,-19 81,-28 113,-3 24,19 33,52 58,69 32,20 74,4 109,-11 35,-16 77,-32 109,-12 31,20 36,66 20,100 -16,33 -48,56 -79,76 -66,44 -135,84 -204,123 -112,63 -226,126 -352,153z"/>
   <path class="fil7" d="M14502 9518c-9,-106 1,-217 48,-308 48,-91 139,-156 231,-142 64,10 119,56 164,108 125,147 190,358 171,562 -6,64 -22,130 -65,171 -36,36 -86,46 -133,47 -86,2 -172,-26 -246,-77 -31,-21 -62,-47 -90,-73 -27,-25 -37,-64 -47,-101 -17,-60 -28,-123 -33,-187z"/>
   <path class="fil12" d="M14606 9095c-48,41 -86,93 -116,149 -14,24 -26,50 -28,78 -3,27 6,57 28,74 24,18 59,17 86,4 28,-12 50,-34 71,-56 15,28 30,56 51,79 22,22 51,39 82,39 35,0 68,-22 87,-51 18,-29 25,-65 25,-100 27,10 47,32 71,47 24,16 58,25 81,8 26,-20 22,-61 11,-93 -32,-94 -104,-176 -197,-210 -94,-35 -207,-17 -279,52l27 -20z"/>
   <path class="fil8" d="M14099 9869c-92,-126 -144,-280 -155,-436 -5,-83 4,-176 65,-233 49,-46 123,-58 191,-52 76,6 151,33 214,76 109,75 179,193 233,314 34,77 64,157 75,240 12,84 6,171 -28,248 -33,74 -124,179 -216,139 -35,-16 -65,-47 -99,-65 -50,-28 -99,-54 -144,-90 -51,-40 -97,-88 -136,-141z"/>
   <path class="fil10" d="M13971 9195c-64,93 -82,216 -48,323 8,25 19,51 42,64 30,19 71,8 98,-15 27,-23 43,-56 58,-88 33,65 111,105 184,94 72,-12 135,-73 147,-145 33,33 73,60 117,78 15,6 34,11 48,2 17,-13 15,-39 9,-59 -28,-91 -88,-171 -165,-226 -77,-55 -171,-85 -265,-91 -45,-2 -90,1 -132,16 -42,15 -80,41 -104,79l11 -32z"/>
   <path class="fil8" d="M14961 9707c-21,-155 6,-315 71,-458 34,-76 86,-153 167,-174 66,-18 136,7 193,44 65,42 118,101 153,169 60,117 66,255 56,387 -7,84 -19,168 -48,247 -29,79 -76,153 -143,205 -64,49 -194,99 -255,19 -24,-31 -35,-71 -57,-104 -30,-48 -61,-94 -84,-147 -26,-60 -44,-124 -53,-188z"/>
   <path class="fil10" d="M14950 9440c-3,16 -6,33 -3,50 4,16 13,32 28,40 18,9 41,3 58,-9 17,-12 28,-29 39,-47 10,48 51,86 98,96 47,10 98,-7 132,-41 34,-34 51,-83 49,-131 17,25 39,49 66,65 27,16 61,22 90,12 48,-16 74,-71 71,-121 -3,-51 -30,-97 -59,-138 -37,-51 -80,-99 -134,-132 -54,-32 -119,-49 -181,-36 -79,17 -111,77 -148,141 -46,79 -89,161 -106,251z"/>
   <path class="fil2" d="M14030 9799l2736 0c69,0 115,71 88,134l-162 375c-15,36 -50,58 -88,58l-2432 0c-40,0 -76,-24 -90,-62l-142 -375c-23,-63 23,-130 90,-130z"/>
   <path class="fil12" d="M18045 9699c156,-60 351,18 424,168 51,-131 182,-231 322,-230 140,0 276,114 286,254 41,-54 86,-106 143,-142 57,-35 131,-50 193,-24 62,25 105,100 82,163 114,-44 245,-41 356,9 35,15 69,36 92,67 23,31 33,73 17,108 -26,63 -111,72 -179,72 -357,-3 -713,-5 -1070,-7 -177,-1 -355,-3 -533,-4 -88,0 -177,4 -265,-2 -58,-3 -80,-33 -84,-90 -10,-143 81,-291 216,-342z"/>
   <path class="fil10" d="M17951 9935c37,-9 68,-33 98,-56 30,-24 60,-48 97,-59 46,-13 97,-2 139,21 43,23 78,58 111,93 24,25 55,53 88,42 24,-9 36,-35 48,-57 43,-73 122,-122 206,-128 84,-6 170,33 221,99 22,29 38,61 62,89 23,27 57,49 93,44 39,-5 67,-40 87,-74 20,-35 38,-73 72,-94 52,-34 132,-5 151,53 12,36 7,82 36,104 33,25 78,2 116,-14 96,-42 213,-34 302,20 21,13 45,29 68,21 34,-13 30,-64 11,-95 -40,-63 -113,-97 -186,-108 -73,-10 -147,1 -220,11 20,-103 -72,-207 -176,-220 -105,-13 -209,50 -267,138 -68,-107 -191,-175 -317,-175 -126,-1 -250,67 -318,173 -85,-81 -205,-123 -321,-112 -109,11 -192,67 -272,136 -72,62 -31,172 71,148z"/>
   <path class="fil2" d="M20100 10237l-2464 0c-45,0 -81,-37 -81,-82l0 0c0,-45 36,-81 81,-81l2464 0c45,0 81,36 81,81l0 0c0,45 -36,82 -81,82z"/>
   <path class="fil2" d="M19778 10378l-1735 0c-83,0 -149,-66 -149,-149l0 0c0,-7 6,-13 13,-13l2006 0c8,0 14,6 14,13l0 0c0,83 -67,149 -149,149z"/>
   <path class="fil5" d="M2675 10074c63,12 116,65 128,128 -39,-40 -96,-62 -153,-59 -58,3 -105,32 -145,73 -17,-97 82,-159 170,-142z"/>
   <polygon class="fil11" points="1257,10330 1085,10330 1085,9516 1257,9516 "/>
   <path class="fil12" d="M1027 9350c-14,4 -30,10 -36,24 -6,12 -2,28 7,38 9,11 22,18 34,23 101,46 221,44 322,0 13,-6 25,-12 34,-22 9,-11 13,-26 6,-38 -4,-8 -12,-13 -20,-17 -49,-26 -112,-31 -166,-33 -61,-2 -123,6 -181,25z"/>
   <g>
    <g>
     <g>
      <path class="fil18" d="M2630 9729c30,31 123,53 216,68 119,-3 218,-5 253,-7 115,-7 316,-15 431,-16 114,-1 523,-25 523,-25l-41 -71 -475 -95 -7 -1c-650,-23 -962,81 -900,147z"/>
      <path class="fil19" d="M2208 9801c10,5 375,1 638,-4 -93,-15 -186,-37 -216,-68 -62,-66 250,-170 900,-147l-1061 -162 -8 1c0,0 5,72 9,78 3,6 -277,294 -262,302z"/>
     </g>
     <path class="fil20" d="M2469 9420c0,0 0,0 0,0l0 0 0 0z"/>
     <path class="fil21" d="M2469 9420l0 0 27 69 9 10 12 17c0,0 494,72 614,77 120,5 318,45 395,61 78,15 118,22 249,43 132,20 278,52 278,52 0,0 -1,-4 -2,-11 -38,-16 -129,-49 -254,-58 -167,-12 -294,-51 -341,-62 -47,-11 -238,-43 -370,-54 -131,-11 -484,-56 -529,-91 -20,-17 -38,-35 -51,-51 -1,0 -2,0 -3,0 -20,-1 -30,-2 -34,-2z"/>
     <path class="fil22" d="M3086 9564c132,11 323,43 370,54 47,11 174,50 341,62 125,9 216,42 254,58 -4,-17 -9,-47 -8,-54 3,-11 29,-12 3,-25 -26,-13 -174,-34 -289,-59 -116,-26 -351,-81 -457,-86 -105,-6 -202,-8 -286,-30 -84,-21 -446,-58 -508,-62 13,16 31,34 51,51 45,35 398,80 529,91z"/>
     <path class="fil21" d="M2422 9530c-22,70 -142,234 -210,174 0,0 -1,0 -1,0 0,5 -4,95 -4,95 0,0 56,-47 66,-61 10,-14 110,-100 115,-110 5,-10 34,-30 45,-56 10,-27 47,-48 46,-53 0,-4 7,-25 7,-29 0,-5 -23,-69 -23,-69 -3,-2 -12,7 -23,20 0,12 -2,39 -18,89z"/>
     <path class="fil23" d="M2422 9530c16,-50 18,-77 18,-89 -20,21 -45,54 -60,63 -24,14 -73,88 -81,107 -8,19 -86,87 -87,93 68,60 188,-104 210,-174z"/>
    </g>
    <g>
     <path class="fil24" d="M3151 9704c-435,-30 -660,-5 -758,3 23,13 62,22 120,29 147,19 1219,186 1438,110 -117,-40 -379,-114 -800,-142z"/>
     <path class="fil25" d="M2393 9707c98,-8 323,-33 758,-3 421,28 683,102 800,142 13,-4 24,-10 30,-17 -102,-45 -265,-97 -676,-148 -492,-60 -830,-29 -937,2 4,9 12,17 25,24z"/>
     <path class="fil25" d="M3226 9631c378,50 670,136 772,168 4,-14 7,-31 0,-46 -902,-270 -924,-143 -772,-122z"/>
     <path class="fil26" d="M3355 9579c-255,-30 -622,-40 -627,-1 -5,41 61,28 544,76 395,39 659,138 718,162 2,-4 5,-10 8,-17 -102,-32 -394,-118 -772,-168 -152,-21 -130,-148 772,122 -3,-6 -7,-12 -13,-17 -163,-51 -457,-138 -630,-157z"/>
     <path class="fil24" d="M2393 9601c-23,35 -35,62 -25,82 107,-31 445,-62 937,-2 411,51 574,103 676,148 3,-2 5,-5 6,-8 0,0 1,-2 3,-5 -59,-24 -323,-123 -718,-162 -483,-48 -549,-35 -544,-76 5,-39 372,-29 627,1 173,19 467,106 630,157 -4,-3 -8,-7 -14,-10 -57,-29 -384,-141 -803,-171 -456,-32 -725,-30 -775,46z"/>
     <path class="fil27" d="M3863 9749c0,0 -131,-34 -193,-46 -63,-12 -102,-30 -70,-39 30,-8 281,53 311,74 30,22 -5,25 -48,11z"/>
     <path class="fil27" d="M3447 9641c3,-10 26,-16 52,-13 26,4 45,15 43,25 -2,10 -25,16 -51,13 -27,-3 -46,-15 -44,-25z"/>
    </g>
    <g>
     <path class="fil24" d="M2583 9725c209,-78 336,-96 388,-104 -4,9 -16,19 -38,30 -57,29 -480,265 -682,274 30,-38 114,-118 332,-200z"/>
     <path class="fil25" d="M2971 9621c-52,8 -179,26 -388,104 -218,82 -302,162 -332,200 -14,0 -26,0 -38,-2 16,-38 62,-91 261,-185 225,-106 422,-135 494,-133 3,6 4,11 3,16z"/>
     <path class="fil25" d="M2473 9699c-182,88 -275,181 -305,214 -18,-5 -39,-12 -53,-20 290,-301 429,-229 358,-194z"/>
     <path class="fil26" d="M2340 9691c130,-58 336,-117 371,-95 35,22 -10,24 -243,122 -205,86 -264,180 -276,201 -6,-1 -14,-3 -24,-6 30,-33 123,-126 305,-214 71,-35 -68,-107 -358,194 -6,-3 -10,-6 -12,-10 50,-55 146,-153 237,-192z"/>
     <path class="fil24" d="M2902 9565c35,16 57,29 66,40 -72,-2 -269,27 -494,133 -199,94 -245,147 -261,185 -4,0 -8,-1 -13,-2 0,0 -3,-1 -8,-2 12,-21 71,-115 276,-201 233,-98 278,-100 243,-122 -35,-22 -241,37 -371,95 -91,39 -187,137 -237,192 -2,-2 -2,-5 -2,-7 3,-25 92,-143 333,-229 241,-85 389,-119 468,-82z"/>
     <path class="fil27" d="M2200 9866c0,0 47,-40 73,-56 27,-17 32,-33 3,-32 -30,1 -125,77 -120,92 5,16 32,11 44,-4z"/>
     <path class="fil27" d="M2348 9740c-13,-5 -34,-4 -47,2 -13,6 -13,15 -1,20 13,5 33,4 47,-2 13,-6 13,-15 1,-20z"/>
    </g>
    <g>
     <g>
      <path class="fil28" d="M2731 9637c-99,3 -210,24 -245,31 -25,35 -34,48 -34,51 0,2 947,1 947,1 0,0 -28,-19 -227,-49 -199,-30 -261,-37 -281,-46 -43,-21 -137,-100 -230,-109 0,0 0,5 -5,14 22,5 47,14 66,28 45,32 129,75 9,79z"/>
      <path class="fil29" d="M2607 9580c-50,35 -94,52 -120,87 0,0 -1,1 -1,1 35,-7 146,-28 245,-31 120,-4 36,-47 -9,-79 -19,-14 -44,-23 -66,-28 -7,12 -20,30 -49,50z"/>
      <path class="fil30" d="M3321 9706c128,33 85,-2 85,-2 0,0 -38,-15 -235,-48 -198,-33 -223,-27 -268,-47 -44,-19 -100,-79 -216,-99 0,0 -22,2 -27,6 0,0 147,54 219,109 15,11 313,48 442,81z"/>
      <path class="fil30" d="M2965 9654c0,0 -156,-6 -247,3 -92,8 -238,33 -232,27 6,-6 165,-35 245,-40 79,-4 264,-3 234,10z"/>
     </g>
     <g>
      <path class="fil28" d="M2262 9899c-68,32 -115,80 -130,96 36,32 51,44 55,46 3,2 696,-285 696,-285 0,0 -49,-5 -243,34 -194,38 -250,53 -280,52 -64,-2 -259,-30 -341,-8 0,0 8,4 19,12 24,-3 56,-4 92,0 84,9 214,14 132,53z"/>
      <path class="fil29" d="M2081 9896c19,40 13,65 50,98 0,0 1,1 1,1 15,-16 62,-64 130,-96 82,-39 -48,-44 -132,-53 -36,-4 -68,-3 -92,0 14,10 33,27 43,50z"/>
      <path class="fil30" d="M2804 9770c147,-15 59,-28 59,-28 0,0 -52,1 -248,37 -197,37 -206,49 -270,48 -64,0 -200,-26 -317,-5 0,0 -12,8 -10,12 0,0 193,-6 333,12 30,3 307,-61 453,-76z"/>
      <path class="fil30" d="M2460 9840c0,0 -123,43 -176,77 -54,34 -122,95 -128,89 -5,-6 67,-74 118,-102 50,-27 189,-82 186,-64z"/>
     </g>
     <g>
      <path class="fil28" d="M3851 9762c83,24 154,65 176,79 -18,35 -26,49 -29,51 -2,2 -824,-198 -824,-198 0,0 46,-10 254,6 208,15 270,22 298,18 62,-9 236,-58 327,-46 0,0 -6,5 -12,13 -26,0 -57,3 -90,11 -77,18 -200,38 -100,66z"/>
      <path class="fil29" d="M4025 9739c3,41 22,64 3,101 0,0 0,1 -1,1 -22,-14 -93,-55 -176,-79 -100,-28 23,-48 100,-66 33,-8 64,-11 90,-11 -8,12 -18,31 -16,54z"/>
      <path class="fil30" d="M3258 9699c-150,2 -72,-20 -72,-20 0,0 51,-5 261,8 210,13 225,23 287,15 61,-7 179,-48 304,-41 0,0 16,7 16,11 0,0 -190,16 -317,49 -27,7 -329,-23 -479,-22z"/>
      <path class="fil30" d="M3629 9728c0,0 141,28 210,55 70,26 168,78 170,71 3,-6 -103,-64 -166,-85 -64,-21 -227,-58 -214,-41z"/>
     </g>
    </g>
    <g>
     <g>
      <path class="fil31" d="M2643 9741c0,0 -142,-42 -143,-51 -1,-10 13,-40 48,-40 36,-1 67,19 75,15 9,-4 -13,-18 6,-17 20,2 44,8 60,7 16,-1 23,-11 41,-7 18,4 27,37 72,36 45,0 79,0 73,-11 -6,-11 -59,-25 -28,-31 31,-6 57,7 107,0 50,-6 92,-18 85,-11 -8,7 -42,17 -30,28 13,10 65,12 105,8 41,-3 75,-24 90,-16 14,7 7,13 18,11 11,-2 67,-26 112,-12 44,14 52,26 19,28 -32,2 -59,10 -40,15 19,5 47,1 63,-3 17,-5 31,16 51,22 20,6 95,-10 138,-4 44,5 86,27 116,33 30,7 109,-15 125,-14 17,0 -8,24 20,29 28,4 34,-17 48,-4 14,14 -16,26 22,48 37,21 75,17 121,17 47,0 67,10 79,19 12,10 -8,-5 -50,7 -42,11 -31,10 -27,20 5,11 -44,-6 -97,4 -53,10 -1279,-126 -1279,-126z"/>
      <path class="fil32" d="M3871 9900c0,0 172,-9 183,-17 11,-8 33,-37 2,-45 -31,-7 -80,4 -83,-1 -3,-5 31,-13 13,-16 -19,-3 -47,-2 -60,-6 -13,-4 -9,-14 -29,-14 -20,0 -65,27 -104,18 -39,-10 -70,-16 -52,-25 18,-9 80,-10 59,-22 -21,-11 -57,-5 -94,-20 -37,-16 -61,-35 -63,-27 -2,8 18,23 -5,30 -23,7 -70,-2 -102,-13 -32,-11 -39,-36 -60,-33 -21,4 -22,11 -29,7 -7,-4 -30,-36 -85,-33 -55,3 -75,13 -49,21 26,8 41,21 19,21 -22,1 -43,-8 -52,-15 -10,-7 -46,8 -70,10 -24,1 -73,-28 -117,-32 -45,-3 -106,8 -140,7 -34,0 -79,-35 -94,-38 -15,-3 -19,23 -50,22 -30,-1 -11,-22 -38,-13 -28,10 -15,27 -72,38 -57,11 -86,1 -127,-9 -40,-9 -70,-4 -91,2 -20,6 13,-3 37,15 24,19 17,15 1,24 -16,8 46,3 82,23 37,19 1270,141 1270,141z"/>
     </g>
     <path class="fil33" d="M4028 9883c0,0 -109,10 -119,7 -9,-3 109,-18 118,-18 10,0 17,5 1,11z"/>
     <path class="fil33" d="M3826 9857c0,0 91,-25 99,-30 8,-5 -32,-2 -36,-9 -4,-7 -26,6 -53,20 -27,13 -45,24 -10,19z"/>
     <path class="fil33" d="M3705 9811c0,0 9,-20 47,-28 37,-8 -2,-11 -21,-10 -19,1 -57,44 -26,38z"/>
     <path class="fil33" d="M3470 9786c0,0 42,-33 34,-41 -8,-9 -47,9 -48,21 0,12 0,25 14,20z"/>
     <path class="fil33" d="M3428 9762c1,-1 23,-32 11,-36 -13,-3 -42,22 -39,31 3,9 18,15 28,5z"/>
     <path class="fil33" d="M3200 9786c0,0 24,-47 10,-52 -14,-5 -32,-5 -36,19 -5,25 4,48 26,33z"/>
     <path class="fil33" d="M3047 9696c-3,1 -56,7 -83,6 -26,-2 -47,-7 -38,0 8,7 57,9 85,8 28,-2 27,16 27,17 0,2 10,10 13,-6 3,-16 11,-26 -4,-25z"/>
    </g>
    <g>
     <g>
      <path class="fil34" d="M2247 10026c0,0 -83,39 -99,38 -15,0 -61,-7 -57,-18 3,-11 38,-18 33,-21 -6,-3 -30,2 -26,-3 5,-6 18,-13 18,-17 0,-5 -14,-8 -6,-13 9,-5 62,-5 67,-18 5,-14 10,-24 -9,-23 -19,1 -47,15 -53,5 -5,-9 18,-16 14,-31 -4,-16 -18,-30 -7,-27 10,3 21,14 40,12 18,-3 27,-18 27,-31 -1,-12 -30,-24 -16,-28 14,-4 23,-1 20,-4 -2,-4 -33,-23 -5,-35 28,-12 48,-13 48,-3 -1,10 9,19 18,14 10,-6 8,-14 3,-20 -5,-5 30,-7 42,-13 12,-5 -4,-29 10,-41 14,-13 54,-23 68,-31 14,-9 -11,-34 -8,-39 3,-5 37,5 48,-3 12,-8 -22,-12 1,-15 23,-3 40,7 78,-2 39,-9 37,-21 43,-34 5,-14 24,-19 40,-22 16,-3 -8,2 5,15 13,14 11,11 29,10 17,0 -15,13 -6,30 9,16 -360,368 -360,368z"/>
      <path class="fil35" d="M2653 9676c0,0 8,-52 -4,-56 -12,-4 -55,-13 -71,-5 -16,9 -5,24 -13,25 -9,0 -17,-11 -24,-6 -6,6 -8,14 -17,18 -8,3 -23,1 -26,7 -2,6 35,22 16,32 -20,11 -33,20 -45,14 -12,-7 -8,-25 -28,-20 -21,5 -15,17 -45,26 -29,10 -63,15 -50,16 12,1 39,-3 47,4 8,8 -11,21 -33,30 -22,8 -63,8 -59,15 3,6 13,7 6,9 -7,1 -61,5 -63,22 -1,17 11,23 28,17 16,-7 38,-11 36,-4 -2,6 -18,12 -31,14 -13,2 8,14 7,22 -1,7 -53,19 -65,32 -11,12 -1,32 -6,42 -5,10 -65,20 -72,24 -7,5 34,8 29,17 -6,9 -36,1 -25,10 11,9 40,7 51,25 11,18 -10,26 -30,37 -20,11 -16,21 -9,27 7,7 -3,-4 30,-9 32,-6 25,-4 37,2 11,5 12,-13 46,-22 35,-9 383,-365 383,-365z"/>
     </g>
     <path class="fil33" d="M2645 9628c0,0 2,33 -3,36 -6,2 -16,-35 -15,-37 2,-3 10,-5 18,1z"/>
     <path class="fil33" d="M2580 9685c0,0 -30,-29 -37,-32 -7,-3 -7,9 -19,10 -11,0 8,8 25,17 18,10 34,16 31,5z"/>
     <path class="fil33" d="M2490 9717c0,0 -30,-5 -39,-17 -8,-11 -17,0 -18,6 -1,5 63,21 57,11z"/>
     <path class="fil33" d="M2422 9785c0,0 -48,-16 -62,-15 -14,2 9,15 28,17 20,1 40,2 34,-2z"/>
     <path class="fil33" d="M2379 9795c-2,-1 -49,-10 -56,-7 -7,4 29,15 44,15 14,0 25,-4 12,-8z"/>
     <path class="fil33" d="M2388 9865c0,0 -71,-12 -81,-8 -9,4 -13,9 26,13 39,3 76,3 55,-5z"/>
     <path class="fil33" d="M2227 9902c0,1 4,17 -2,25 -6,8 -17,13 -5,12 12,-2 22,-16 23,-25 1,-9 30,-7 32,-6 2,0 16,-3 -9,-5 -25,-2 -39,-6 -39,-1z"/>
    </g>
    <g>
     <g>
      <path class="fil36" d="M4024 9940c16,-26 -26,-55 -103,-79l-79 127c95,-5 165,-22 182,-48z"/>
      <path class="fil37" d="M3842 9988l79 -127c-27,-8 -58,-16 -93,-22l-93 149c38,1 74,1 107,0z"/>
      <path class="fil36" d="M3350 9865c-11,17 3,35 35,52l57 -91c-48,9 -82,22 -92,39z"/>
      <path class="fil36" d="M3617 9978c7,0 14,1 21,2 33,4 66,6 97,8l93 -149c-29,-6 -60,-11 -93,-14 -7,-1 -14,-2 -21,-2 -21,31 -70,111 -97,155z"/>
      <path class="fil37" d="M3617 9978c27,-44 76,-124 97,-155 -105,-11 -204,-8 -272,3l-57 91c46,25 129,47 232,61z"/>
      <g>
       <path class="fil38" d="M3625 10001c186,21 359,3 385,-40 27,-43 -102,-95 -288,-115 -186,-21 -359,-3 -386,39 -26,43 103,95 289,116zm98 -146l0 0c163,18 276,63 252,101 -23,37 -174,53 -336,35 -163,-19 -276,-64 -252,-101 23,-38 174,-53 336,-35z"/>
       <path class="fil39" d="M3639 9991c162,18 313,2 336,-35 24,-38 -89,-83 -252,-101 -162,-18 -313,-3 -336,35 -24,37 89,82 252,101z"/>
       <path class="fil38" d="M3748 9960c0,0 -6,23 -70,17 -64,-5 -66,-25 -63,-30 0,0 -130,9 -160,-18 -33,-31 71,-26 71,-26 0,0 -30,-25 31,-30 61,-4 153,28 153,28 0,0 88,-13 143,-1 55,13 -4,31 -4,31 0,0 122,9 79,32 -42,24 -180,-3 -180,-3z"/>
       <g>
        <path class="fil40" d="M3727 9943c0,0 32,2 23,6 -9,4 -23,-6 -23,-6z"/>
        <path class="fil40" d="M3731 9916c0,0 19,-6 27,-1 7,5 -27,1 -27,1z"/>
        <path class="fil40" d="M3750 9931c0,0 28,-3 29,2 0,5 -29,-2 -29,-2z"/>
       </g>
       <g>
        <path class="fil40" d="M3665 9912c0,0 -31,-3 -22,-7 8,-3 22,7 22,7z"/>
        <path class="fil40" d="M3662 9938c0,0 -20,7 -27,2 -8,-5 27,-2 27,-2z"/>
        <path class="fil40" d="M3642 9924c0,0 -27,3 -28,-2 -1,-5 28,2 28,2z"/>
       </g>
      </g>
     </g>
     <g>
      <path class="fil36" d="M3648 9859c16,-26 -26,-56 -103,-79l-79 126c95,-4 165,-21 182,-47z"/>
      <path class="fil37" d="M3466 9906l79 -126c-27,-9 -58,-16 -93,-23l-93 149c38,2 74,2 107,0z"/>
      <path class="fil36" d="M2974 9783c-11,17 3,36 35,53l57 -91c-48,8 -82,21 -92,38z"/>
      <path class="fil36" d="M3241 9896c7,1 14,2 21,3 33,4 66,6 97,7l93 -149c-29,-5 -60,-10 -93,-14 -7,0 -14,-1 -21,-2 -21,32 -70,112 -97,155z"/>
      <path class="fil37" d="M3241 9896c27,-43 76,-123 97,-155 -105,-10 -204,-8 -272,4l-57 91c46,25 129,47 232,60z"/>
      <g>
       <path class="fil38" d="M3249 9920c186,21 359,3 385,-40 27,-43 -102,-95 -288,-116 -186,-21 -359,-3 -386,40 -27,43 103,95 289,116zm98 -146l0 0c163,18 275,63 252,100 -23,38 -174,53 -337,35 -162,-18 -275,-63 -251,-101 23,-37 174,-53 336,-34z"/>
       <path class="fil41" d="M3262 9909c163,18 314,3 337,-35 23,-37 -89,-82 -252,-100 -162,-19 -313,-3 -336,34 -24,38 89,83 251,101z"/>
       <path class="fil38" d="M3372 9879c0,0 -6,23 -70,17 -64,-6 -66,-25 -63,-30 0,0 -130,9 -160,-19 -33,-31 71,-26 71,-26 0,0 -30,-24 31,-29 61,-5 153,28 153,28 0,0 88,-13 143,-1 55,12 -4,31 -4,31 0,0 121,9 79,32 -42,23 -180,-3 -180,-3z"/>
       <g>
        <path class="fil40" d="M3351 9861c0,0 32,3 23,7 -9,4 -23,-7 -23,-7z"/>
        <path class="fil40" d="M3355 9835c0,0 19,-6 26,-1 8,4 -26,1 -26,1z"/>
        <path class="fil40" d="M3374 9849c0,0 28,-2 28,3 1,5 -28,-3 -28,-3z"/>
       </g>
       <g>
        <path class="fil40" d="M3289 9831c0,0 -31,-3 -23,-7 9,-4 23,7 23,7z"/>
        <path class="fil40" d="M3285 9857c0,0 -19,6 -26,1 -8,-5 26,-1 26,-1z"/>
        <path class="fil40" d="M3266 9842c0,0 -27,3 -28,-2 -1,-5 28,2 28,2z"/>
       </g>
      </g>
     </g>
     <g>
      <path class="fil36" d="M3163 9814c17,-26 -25,-55 -102,-79l-79 127c95,-5 165,-21 181,-48z"/>
      <path class="fil37" d="M2982 9862l79 -127c-27,-8 -58,-16 -93,-22l-93 149c38,1 74,1 107,0z"/>
      <path class="fil36" d="M2489 9739c-10,17 4,35 36,52l56 -90c-48,8 -81,21 -92,38z"/>
      <path class="fil36" d="M2757 9852c7,1 14,2 21,2 33,4 65,6 97,8l93 -149c-29,-6 -60,-10 -93,-14 -7,-1 -14,-2 -22,-2 -20,31 -69,112 -96,155z"/>
      <path class="fil37" d="M2757 9852c27,-43 76,-124 96,-155 -104,-10 -203,-8 -272,4l-56 90c46,25 129,48 232,61z"/>
      <g>
       <path class="fil38" d="M2765 9875c186,21 358,3 385,-40 27,-43 -102,-94 -288,-115 -186,-21 -359,-3 -386,40 -27,43 102,94 289,115zm98 -146l0 0c163,18 275,63 252,101 -24,37 -174,53 -337,35 -162,-18 -275,-64 -251,-101 23,-38 174,-53 336,-35z"/>
       <path class="fil42" d="M2778 9865c163,18 313,2 337,-35 23,-38 -89,-83 -252,-101 -162,-18 -313,-3 -336,35 -24,37 89,83 251,101z"/>
       <path class="fil38" d="M2888 9835c0,0 -6,22 -70,17 -64,-6 -66,-25 -63,-30 0,0 -131,8 -160,-19 -33,-31 71,-26 71,-26 0,0 -30,-24 31,-29 61,-5 153,28 153,28 0,0 88,-14 143,-1 55,12 -4,30 -4,30 0,0 121,9 79,32 -42,24 -180,-2 -180,-2z"/>
       <g>
        <path class="fil40" d="M2867 9817c0,0 31,3 23,6 -9,4 -23,-6 -23,-6z"/>
        <path class="fil40" d="M2871 9791c0,0 19,-7 26,-2 8,5 -26,2 -26,2z"/>
        <path class="fil40" d="M2890 9805c0,0 27,-3 28,2 1,5 -28,-2 -28,-2z"/>
       </g>
       <g>
        <path class="fil40" d="M2805 9786c0,0 -31,-3 -23,-6 9,-4 23,6 23,6z"/>
        <path class="fil40" d="M2801 9812c0,0 -19,7 -26,2 -8,-5 26,-2 26,-2z"/>
        <path class="fil40" d="M2782 9798c0,0 -27,3 -28,-2 -1,-5 28,2 28,2z"/>
       </g>
      </g>
     </g>
    </g>
    <g>
     <g>
      <path class="fil18" d="M2630 10039c30,31 123,53 216,68 119,-3 218,-5 253,-7 115,-7 316,-15 431,-16 114,-1 523,-25 523,-25l-41 -71 -475 -95 -7 -1c-650,-24 -962,81 -900,147z"/>
      <path class="fil19" d="M2208 10110c10,5 375,2 638,-3 -93,-15 -186,-37 -216,-68 -62,-66 250,-171 900,-147l-1061 -162 -8 1c0,0 5,72 9,78 3,6 -277,294 -262,301z"/>
     </g>
     <path class="fil20" d="M2469 9730c0,0 0,0 0,0l0 0 0 0z"/>
     <path class="fil21" d="M2469 9730l0 0 27 69 9 10 12 16c0,0 494,73 614,78 120,5 318,45 395,61 78,15 118,22 249,43 132,20 278,52 278,52 0,0 -1,-4 -2,-11 -38,-16 -129,-49 -254,-58 -167,-12 -294,-51 -341,-62 -47,-11 -238,-43 -370,-54 -131,-11 -484,-56 -529,-92 -20,-16 -38,-34 -51,-50 -1,0 -2,0 -3,0 -20,-1 -30,-2 -34,-2z"/>
     <path class="fil22" d="M3086 9874c132,11 323,43 370,54 47,11 174,50 341,62 125,9 216,42 254,58 -4,-17 -9,-47 -8,-54 3,-11 29,-12 3,-25 -26,-13 -174,-34 -289,-60 -116,-25 -351,-80 -457,-85 -105,-6 -202,-8 -286,-30 -84,-22 -446,-58 -508,-62 13,16 31,34 51,50 45,36 398,81 529,92z"/>
     <path class="fil21" d="M2422 9840c-22,70 -142,234 -210,174 0,0 -1,0 -1,0 0,5 -4,95 -4,95 0,0 56,-47 66,-61 10,-15 110,-100 115,-110 5,-10 34,-30 45,-57 10,-26 47,-47 46,-52 0,-4 7,-25 7,-29 0,-5 -23,-69 -23,-69 -3,-2 -12,7 -23,19 0,13 -2,39 -18,90z"/>
     <path class="fil23" d="M2422 9840c16,-51 18,-77 18,-90 -20,22 -45,55 -60,64 -24,14 -73,88 -81,107 -8,19 -86,87 -87,93 68,60 188,-104 210,-174z"/>
    </g>
   </g>
   <path class="fil2" d="M4282 10226l-2464 0c-45,0 -82,-36 -82,-81l1 0c0,-45 36,-81 81,-81l2464 0c44,0 81,36 81,81l0 0c0,45 -37,81 -81,81z"/>
   <path class="fil2" d="M3960 10368l-1736 0c-82,0 -149,-67 -149,-149l0 0c0,-8 6,-14 14,-14l2006 0c7,0 14,6 14,14l0 0c0,82 -67,149 -149,149z"/>
   <path class="fil43" d="M17310 7740c-4,17 -6,34 -8,51 -21,155 0,318 75,454 18,32 45,66 82,66 31,0 56,-26 75,-51 39,-52 68,-110 86,-173 7,-25 20,-57 46,-54 16,2 26,17 33,31 23,49 25,105 33,159 8,53 26,110 70,141 60,42 142,22 211,-5 137,-53 268,-129 371,-234 52,-53 86,-113 127,-172 46,-66 84,-139 106,-216 53,-179 17,-392 -120,-519 -9,18 -18,35 -27,52 -93,171 -217,324 -363,451 -73,64 -151,122 -234,172 -56,33 -178,127 -240,62 -21,-22 -30,-54 -36,-84 -42,-198 -35,-403 -28,-606 -39,24 -81,54 -112,88 -32,34 -50,88 -68,131 -35,82 -63,168 -79,256z"/>
   <path class="fil4" d="M17469 8408c-1,-31 -5,-61 -12,-91 -23,-94 -82,-179 -89,-276 -1,-22 0,-44 -6,-65 -5,-21 -18,-41 -39,-47 -17,-5 -36,1 -50,11 -14,11 -24,26 -32,42 -43,78 -42,154 -33,239 2,16 1,36 -13,43 -13,6 -28,-3 -40,-12 -32,-26 -65,-52 -98,-78 -26,-21 -49,-47 -75,-66 -67,-46 -135,-90 -203,-135 -17,-12 -39,-24 -59,-17 -17,7 -27,26 -31,44 -12,44 -9,91 7,133 -20,-2 -39,12 -49,31 -10,18 -12,39 -15,59 -2,20 -4,40 -1,60 2,20 11,40 26,52 -38,18 -52,56 -54,95 -1,19 5,35 16,50 5,8 31,39 42,35 -67,22 -73,115 -30,161 18,19 41,32 63,45 189,105 378,210 583,280 0,-79 47,-150 88,-218 64,-106 108,-245 104,-375z"/>
   <path class="fil5" d="M16979 8363c45,30 90,58 141,75 3,-14 -10,-27 -21,-36 -30,-26 -59,-51 -90,-75 -50,-39 -101,-75 -155,-107 -51,-32 -106,-68 -163,-88 34,44 88,80 131,115 50,41 103,80 157,116z"/>
   <path class="fil5" d="M16929 8540c27,14 55,29 86,28 1,-23 -22,-38 -43,-49 -69,-37 -139,-74 -209,-111 -31,-17 -60,-38 -91,-55 -2,18 32,41 45,51 22,19 44,36 68,52 46,31 95,58 144,84z"/>
   <path class="fil5" d="M16984 8725c1,-12 -6,-23 -15,-31 -9,-8 -20,-13 -31,-18 -51,-22 -101,-47 -148,-75 -25,-14 -49,-29 -72,-45 -18,-11 -37,-31 -56,-38 10,35 62,67 90,87 45,34 93,62 144,86 29,13 58,24 88,34z"/>
  </g>
 </g>
</svg>
