<?xml version="1.0" encoding="UTF-8"?>
<!DOCTYPE svg PUBLIC "-//W3C//DTD SVG 1.1//EN" "http://www.w3.org/Graphics/SVG/1.1/DTD/svg11.dtd">
<!-- Creator: CorelDRAW X7 -->
<svg xmlns="http://www.w3.org/2000/svg" xml:space="preserve" width="151.278mm" height="139.567mm" version="1.1" style="shape-rendering:geometricPrecision; text-rendering:geometricPrecision; image-rendering:optimizeQuality; fill-rule:evenodd; clip-rule:evenodd"
viewBox="0 0 18646 17203"
 xmlns:xlink="http://www.w3.org/1999/xlink">
 <defs>
  <style type="text/css">
   <![CDATA[
    .fil35 {fill:#FEFEFE}
    .fil21 {fill:#0F0F0F}
    .fil16 {fill:#161917}
    .fil12 {fill:#24211C}
    .fil0 {fill:#249431}
    .fil27 {fill:#29201D}
    .fil1 {fill:#2FBF40}
    .fil23 {fill:#303633}
    .fil30 {fill:#3E3525}
    .fil25 {fill:#43433B}
    .fil4 {fill:#4D483D}
    .fil17 {fill:#798EA0}
    .fil19 {fill:#879B9D}
    .fil20 {fill:#93A8AA}
    .fil22 {fill:#9FA335}
    .fil18 {fill:#9FB8CE}
    .fil15 {fill:#9FBFD4}
    .fil29 {fill:#AE854C}
    .fil31 {fill:#B57536}
    .fil13 {fill:#C2BEC1}
    .fil28 {fill:#D9B67E}
    .fil5 {fill:#D9CFBD}
    .fil24 {fill:#DFECF5}
    .fil33 {fill:#E6E6E6}
    .fil8 {fill:#E8E8E8}
    .fil6 {fill:#EBE0CC}
    .fil10 {fill:#F77B16}
    .fil7 {fill:#F99746}
    .fil2 {fill:#FCA465}
    .fil11 {fill:#FF6430}
    .fil9 {fill:#FFAB66}
    .fil32 {fill:#FFC59C}
    .fil34 {fill:#FFC59C}
    .fil26 {fill:#FFDA40}
    .fil14 {fill:#FFF6F8}
    .fil3 {fill:white}
   ]]>
  </style>
 </defs>
 <g id="Layer_x0020_1">
  <metadata id="CorelCorpID_0Corel-Layer"/>
  <g id="_539888736">
   <path class="fil0" d="M12787 9560c-202,-281 73,-808 103,-865 158,-302 301,-297 342,-508 70,-360 -315,-517 -254,-826 66,-339 554,-282 770,-722 157,-322 -47,-470 103,-866 98,-260 379,-704 770,-682 399,22 733,519 667,857 -66,338 -506,393 -516,714 -8,249 253,300 254,548 1,382 -616,532 -588,850 21,230 353,231 421,484 100,373 -471,943 -1087,1119 -92,26 -761,208 -985,-103z"/>
   <path class="fil1" d="M14661 5534c0,0 -6,9 -16,26 -68,120 -346,636 -393,1121 -28,284 -86,418 -150,540 -64,122 -133,232 -192,488 -59,254 -59,490 -85,704 -26,214 -79,407 -249,564 -157,146 -288,387 -377,592 -45,103 -80,196 -103,263 -12,34 -21,61 -27,80 -6,19 -9,29 -9,29l-53 -16c0,0 50,-170 141,-378 91,-208 222,-455 390,-611 156,-145 206,-320 232,-530 25,-208 25,-448 85,-710 60,-261 135,-381 197,-501 63,-120 116,-240 144,-519 57,-573 416,-1169 417,-1171l48 29z"/>
   <path class="fil0" d="M4276 8041c-324,-121 -388,-712 -395,-776 -37,-339 84,-414 1,-612 -142,-338 -549,-255 -670,-545 -134,-319 304,-543 238,-1029 -49,-355 -300,-364 -396,-776 -63,-272 -76,-796 261,-996 344,-204 898,24 1031,342 133,317 -202,608 -32,880 132,211 377,108 516,314 213,318 -216,785 -16,1033 145,180 422,-4 619,169 291,254 133,1045 -281,1535 -62,72 -517,596 -876,461z"/>
   <path class="fil1" d="M3594 3653c0,0 1,10 2,30 10,138 66,722 296,1151 135,252 162,395 176,532 15,138 19,267 112,512 81,213 191,390 283,560 91,169 164,332 164,516 0,53 -6,107 -19,164 -20,82 -28,174 -28,269 0,194 34,399 67,556 17,78 34,144 47,190 6,23 11,42 15,54 4,13 6,19 6,19l-53 17c-1,-2 -137,-436 -138,-836 0,-98 9,-194 29,-282 13,-52 19,-102 19,-151 0,-168 -68,-322 -158,-490 -91,-167 -203,-347 -287,-566 -95,-250 -100,-391 -114,-526 -15,-134 -38,-264 -170,-512 -271,-507 -304,-1202 -305,-1204l56 -3z"/>
   <path class="fil1" d="M11907 13125c40,-520 868,-860 959,-897 475,-194 634,-50 887,-254 429,-346 139,-901 508,-1198 406,-326 913,214 1589,-85 494,-218 402,-586 959,-896 367,-205 1120,-444 1550,-40 439,414 340,1310 -64,1636 -404,325 -965,-38 -1288,322 -250,279 1,591 -239,878 -370,441 -1226,15 -1502,408 -200,286 183,609 15,967 -247,527 -1458,630 -2340,234 -131,-59 -1078,-499 -1034,-1075z"/>
   <path class="fil0" d="M17970 10291c0,0 -15,5 -43,16 -196,72 -1018,397 -1547,913 -307,299 -500,395 -693,473 -192,79 -380,140 -697,377 -317,238 -547,511 -783,731 -237,220 -482,388 -825,404 -327,16 -713,168 -1016,318 -151,74 -282,148 -375,203 -46,28 -83,50 -108,66 -26,16 -39,25 -39,25l-31 -46c1,-1 223,-147 529,-298 306,-151 696,-307 1037,-323 325,-16 556,-173 790,-390 233,-217 465,-492 787,-734 321,-241 521,-307 710,-384 189,-78 371,-166 675,-462 618,-602 1610,-941 1611,-942l18 53z"/>
   <path class="fil0" d="M12941 14200c-31,-14 -110,-51 -211,-106 523,-15 1781,35 2135,-614 161,-295 37,-555 281,-749 309,-246 681,34 1137,-241 225,-136 353,-337 428,-454 254,-401 128,-590 321,-776 248,-241 559,-23 1109,-174 184,-50 335,-125 457,-203 -57,209 -161,394 -303,508 -404,325 -965,-38 -1288,322 -250,279 1,591 -239,878 -370,441 -1226,15 -1502,408 -200,286 183,609 15,967 -247,527 -1458,630 -2340,234z"/>
   <path class="fil1" d="M12265 12000c-195,-484 395,-1157 460,-1230 339,-386 545,-327 681,-622 231,-501 -276,-869 -77,-1299 218,-472 913,-215 1385,-783 345,-415 99,-703 460,-1230 238,-346 806,-895 1371,-724 577,175 887,1022 670,1493 -217,471 -881,395 -1010,862 -101,361 264,528 176,892 -135,560 -1091,559 -1163,1034 -52,345 434,464 443,859 13,582 -1026,1213 -1992,1250 -143,6 -1188,33 -1404,-502z"/>
   <path class="fil0" d="M16435 6765c0,0 -11,11 -32,33 -143,152 -735,809 -980,1506 -141,404 -272,576 -409,732 -137,156 -279,294 -457,648 -178,353 -263,700 -377,1003 -113,302 -259,562 -559,729 -286,159 -563,467 -768,735 -102,135 -187,259 -245,349 -30,46 -53,83 -68,108 -16,26 -24,40 -24,40l-48 -28c0,-1 134,-231 341,-502 207,-272 487,-585 785,-751 284,-158 422,-402 534,-700 113,-298 198,-648 379,-1008 180,-359 330,-506 465,-660 135,-153 258,-314 399,-714 286,-814 1023,-1558 1024,-1559l40 39z"/>
   <path class="fil0" d="M13669 12502c-34,1 -121,4 -237,0 463,-247 1611,-762 1640,-1500 13,-336 -214,-513 -81,-796 167,-358 625,-272 911,-721 141,-222 166,-459 181,-598 49,-472 -147,-585 -58,-837 116,-326 491,-269 917,-649 142,-127 244,-261 318,-386 42,213 31,425 -45,590 -217,471 -881,395 -1010,862 -101,361 264,528 176,892 -135,560 -1091,559 -1163,1034 -52,345 434,464 443,859 13,582 -1026,1213 -1992,1250z"/>
   <path class="fil1" d="M3297 9818c-539,-98 -804,-1000 -833,-1099 -152,-517 16,-668 -170,-954 -315,-486 -926,-243 -1196,-661 -297,-458 322,-930 83,-1669 -175,-539 -569,-483 -833,-1099 -175,-405 -343,-1218 126,-1624 480,-414 1406,-213 1702,244 296,457 -144,1004 197,1381 265,292 618,62 892,345 421,434 -117,1282 264,1613 277,240 656,-125 1011,89 525,316 501,1592 -8,2470 -76,130 -638,1073 -1235,964z"/>
   <path class="fil0" d="M991 3177c0,0 4,16 11,47 55,213 305,1107 787,1716 280,353 359,565 420,774 61,209 104,413 318,770 208,345 459,610 660,873 201,262 354,525 354,864 0,22 -1,44 -2,65 -1,26 -2,51 -2,77 0,341 118,741 237,1055 60,157 119,293 164,389 22,48 41,87 54,113 13,26 20,40 20,40l-49 26c-1,-1 -121,-231 -241,-548 -120,-317 -241,-722 -241,-1075 0,-27 1,-53 2,-80 1,-21 2,-41 2,-62 0,-321 -143,-571 -342,-831 -199,-259 -452,-526 -663,-877 -218,-362 -264,-577 -325,-783 -60,-206 -133,-406 -410,-756 -561,-710 -808,-1783 -809,-1784l55 -13z"/>
   <path class="fil0" d="M4532 8854c-19,32 -65,110 -134,210 41,-549 229,-1857 -410,-2298 -291,-200 -576,-98 -752,-374 -224,-350 109,-708 -129,-1214 -118,-251 -314,-405 -429,-496 -391,-310 -601,-198 -775,-420 -225,-286 36,-586 -62,-1178 -32,-197 -94,-363 -163,-499 213,82 394,211 498,371 296,457 -144,1004 197,1381 265,292 618,62 892,345 421,434 -117,1282 264,1613 277,240 656,-125 1011,89 525,316 501,1592 -8,2470z"/>
   <path class="fil2" d="M4185 6754c78,46 113,123 67,219 -125,262 -347,1374 -515,1504 -190,149 -855,123 -1175,122l-74 -185c0,0 800,-229 995,-210 0,0 241,-1724 702,-1450z"/>
   <path class="fil3" d="M3583 7107c-107,309 -96,652 -96,652 0,0 416,171 632,94l181 -892c63,-158 -328,-18 -328,-18 -170,-122 -320,-34 -389,164z"/>
   <path class="fil2" d="M2261 8394c0,0 -402,71 -405,106 -3,35 -11,367 -11,367 0,0 97,15 177,-275 0,0 381,111 636,7l-113 -194 -284 -11z"/>
   <path class="fil4" d="M4463 17092l9183 0c132,0 239,-107 239,-238l0 -16615c0,-132 -107,-239 -239,-239l-9183 0c-132,0 -239,107 -239,239l0 16615c0,131 107,238 239,238z"/>
   <polygon class="fil5" points="4669,15994 13441,15994 13441,584 4669,584 "/>
   <polygon class="fil6" points="12828,11150 10659,11509 11200,9542 11983,9859 12744,8976 "/>
   <polygon class="fil6" points="12490,8750 11792,9361 10143,8659 10672,7911 12511,7640 "/>
   <polygon class="fil6" points="10629,9542 9192,8795 8663,10426 10338,11324 "/>
   <path class="fil6" d="M9616 8640l760 -1317 -1438 -1382c0,0 -1251,2105 -1187,2105 63,0 1865,594 1865,594z"/>
   <polygon class="fil6" points="10904,7368 12511,7209 12934,6190 11475,5964 10418,6213 "/>
   <polygon class="fil6" points="8726,8727 8325,10267 7521,10675 6654,10765 7373,8432 "/>
   <polygon class="fil6" points="9678,5941 11243,5578 12976,5782 12828,4287 10714,4650 9044,5533 "/>
   <polygon class="fil6" points="9772,4604 8778,5321 6482,4276 "/>
   <polygon class="fil6" points="8318,5935 7430,7985 6828,8066 6329,10484 5143,9603 5430,4132 "/>
   <polygon class="fil6" points="12814,11427 10748,11898 11983,14419 12926,14603 "/>
   <path class="fil6" d="M10403 12001c77,102 1129,2561 1129,2561 0,0 -3462,-102 -3290,-451 172,-348 402,-3278 402,-3278l1759 1168z"/>
   <polygon class="fil6" points="12926,15054 12909,15546 9657,15546 10639,14869 12003,14828 "/>
   <path class="fil6" d="M8299 10956l-440 2295 -2027 -656c0,0 -479,-1434 -421,-1455 57,-20 2888,-184 2888,-184z"/>
   <polygon class="fil6" points="7630,13947 7400,15464 5507,15546 5353,12984 "/>
   <polygon class="fil6" points="8012,15097 8185,15832 9638,15430 10136,14871 "/>
   <polygon class="fil3" points="13932,1183 12534,1183 12551,3361 13956,3361 "/>
   <polygon class="fil7" points="12534,1183 11136,1183 11146,3361 12551,3361 "/>
   <polygon class="fil3" points="11136,1183 9738,1183 9741,3361 11146,3361 "/>
   <polygon class="fil7" points="9738,1183 8340,1183 8336,3361 9741,3361 "/>
   <polygon class="fil3" points="8340,1183 6942,1183 6931,3361 8336,3361 "/>
   <polygon class="fil7" points="6942,1183 5544,1183 5526,3361 6931,3361 "/>
   <polygon class="fil3" points="5544,1183 4146,1183 4121,3361 5526,3361 "/>
   <polygon class="fil8" points="13465,559 12200,559 12534,1183 13932,1183 "/>
   <polygon class="fil9" points="12200,559 10936,559 11136,1183 12534,1183 "/>
   <polygon class="fil8" points="10936,559 9671,559 9738,1183 11136,1183 "/>
   <polygon class="fil9" points="9671,559 8406,559 8340,1183 9738,1183 "/>
   <polygon class="fil8" points="8406,559 7142,559 6942,1183 8340,1183 "/>
   <polygon class="fil9" points="7142,559 5877,559 5544,1183 6942,1183 "/>
   <polygon class="fil8" points="5877,559 4612,559 4146,1183 5544,1183 "/>
   <path class="fil8" d="M13254 4063c-388,0 -703,-314 -703,-702l1405 0c0,388 -314,702 -702,702z"/>
   <path class="fil10" d="M11849 4063c-388,0 -703,-314 -703,-702l1405 0c0,388 -314,702 -702,702z"/>
   <path class="fil8" d="M10444 4063c-388,0 -703,-314 -703,-702l1405 0c0,388 -314,702 -702,702z"/>
   <path class="fil10" d="M9032 4057c-388,0 -702,-315 -702,-703l1405 0c0,388 -315,703 -703,703z"/>
   <path class="fil8" d="M7627 4057c-388,0 -702,-315 -702,-703l1405 0c0,388 -315,703 -703,703z"/>
   <path class="fil10" d="M6229 4063c-388,0 -703,-314 -703,-702l1405 0c0,388 -314,702 -702,702z"/>
   <path class="fil8" d="M4824 4063c-388,0 -703,-314 -703,-702l1405 0c0,388 -314,702 -702,702z"/>
   <path class="fil11" d="M12144 12457c148,0 267,-120 267,-268 0,-148 -119,-268 -267,-268 -148,0 -268,120 -268,268 0,148 120,268 268,268zm0 -884c355,0 642,288 642,643 0,355 -642,1084 -642,1084 0,0 -643,-729 -643,-1084 0,-355 288,-643 643,-643z"/>
   <path class="fil11" d="M7579 5610c148,0 268,-120 268,-268 0,-148 -120,-268 -268,-268 -148,0 -268,120 -268,268 0,148 120,268 268,268zm0 -884c355,0 643,288 643,643 0,355 -643,1084 -643,1084 0,0 -642,-729 -642,-1084 -1,-355 287,-643 642,-643z"/>
   <path class="fil11" d="M11920 10713c-11,-56 -22,-110 -33,-163l54 -12c12,53 23,108 33,164l-54 11z"/>
   <path class="fil11" d="M11805 10215c-32,-117 -67,-226 -103,-327l52 -19c37,103 72,213 105,332l-54 14zm-233 -644c-52,-112 -107,-211 -163,-301l48 -30c57,92 112,194 165,307l-50 24zm-365 -575c-81,-94 -164,-171 -246,-234l34 -44c85,66 171,145 254,241l-42 37zm-536 -409c-107,-49 -214,-83 -321,-107l12 -54c111,24 222,59 333,110l-24 51zm-659 -154c-114,-9 -228,-13 -344,-17l2 -56c116,5 231,8 346,17l-4 56zm-690 -40c-114,-12 -229,-31 -344,-63l15 -54c112,31 223,50 335,62l-6 55zm-671 -190c-60,-31 -121,-67 -183,-109 -38,-26 -75,-53 -110,-82l34 -43c35,27 71,54 108,79 59,41 118,75 177,106l-26 49zm-546 -434c-79,-91 -147,-187 -206,-282l47 -29c58,93 124,186 202,275l-43 36z"/>
   <path class="fil11" d="M7735 7175c-24,-55 -45,-107 -64,-157l52 -19c19,48 39,100 63,153l-51 23z"/>
   <path class="fil12" d="M29 15902c166,821 994,1347 1848,1175 854,-172 1412,-977 1246,-1798 -166,-821 -993,-1347 -1847,-1175 -855,172 -1413,977 -1247,1798z"/>
   <path class="fil13" d="M573 15792c108,533 644,874 1198,762 554,-111 916,-633 808,-1165 -107,-533 -644,-874 -1198,-762 -554,111 -915,633 -808,1165z"/>
   <path class="fil14" d="M1083 15690c53,261 317,429 589,374 272,-55 450,-311 397,-573 -53,-261 -316,-429 -589,-374 -272,55 -450,311 -397,573z"/>
   <path class="fil15" d="M3097 15535c0,0 0,0 0,0 0,0 0,0 0,0zm0 -3c0,0 0,0 0,-1 0,1 0,1 0,1zm-1 -4c0,0 0,0 0,0l0 0zm-1 -2c0,-1 0,-1 0,-2 0,1 0,1 0,2zm0 -3c0,-1 0,-1 0,-2 0,1 0,1 0,2zm-1 -3c0,-1 0,-1 0,-1 0,0 0,0 0,1zm0 -4c0,0 0,-1 -1,-1 1,0 1,1 1,1zm-1 -3c0,-1 0,-1 0,-1 0,0 0,0 0,1zm0 -3c-1,0 -1,-1 -1,-1 0,0 1,1 1,1z"/>
   <path class="fil16" d="M3073 16046c79,-232 102,-484 56,-739 0,0 0,0 0,0 -1,-1 -1,-2 -1,-3 0,0 0,0 0,0 0,-1 0,-2 -1,-3l0 0c0,-1 0,-2 0,-3 0,0 0,-1 0,-1 0,-1 0,-1 -1,-2 0,0 0,-1 0,-1 0,-1 0,-1 0,-2 0,0 0,0 0,-1 -1,-1 -1,-1 -1,-2 0,-1 0,-1 0,-2 0,0 0,-1 0,-1 0,-1 -1,-1 -1,-1 0,-1 0,-2 0,-2 0,0 0,-1 0,-1 0,-1 -1,-2 -1,-3 -4,-20 -8,-39 -13,-59l-64 13 -147 -171 -17 9 -16 -48 -515 -601 -1195 -289c-647,181 -1099,733 -1151,1359l549 99c7,-457 344,-867 827,-964 554,-112 1091,229 1198,762 39,193 16,386 -55,557l549 100z"/>
   <path class="fil17" d="M2524 15946c71,-171 95,-364 55,-557 -107,-533 -644,-874 -1198,-762 -483,97 -820,507 -827,964l529 95c-51,-260 126,-515 397,-569 273,-55 536,113 589,374 26,129 -4,257 -74,360l529 95z"/>
   <path class="fil18" d="M1995 15851c70,-103 100,-231 74,-360 -53,-261 -316,-429 -589,-374 -271,54 -448,309 -397,569l912 165z"/>
   <path class="fil12" d="M7027 15849c166,836 994,1438 1848,1344 854,-94 1412,-848 1246,-1684 -166,-836 -993,-1438 -1847,-1344 -855,94 -1413,848 -1247,1684z"/>
   <path class="fil13" d="M7571 15855c108,539 644,915 1198,840 554,-75 916,-573 808,-1112 -107,-539 -644,-916 -1198,-841 -554,75 -915,573 -808,1113z"/>
   <path class="fil14" d="M8081 15786c53,265 317,450 589,413 272,-37 450,-282 397,-547 -53,-265 -316,-450 -588,-413 -273,37 -451,281 -398,547z"/>
   <path class="fil19" d="M10146 15683c-3,-45 -8,-90 -15,-135l-2 0c7,45 13,90 17,135zm-88 -401l4 -4c-26,-73 -58,-146 -96,-217l-5 6c37,69 70,141 97,215zm-191 -383c-38,-54 -79,-106 -122,-155l-15 2c45,49 87,100 126,155l11 -2z"/>
   <path class="fil20" d="M10129 15548l2 0c-15,-91 -38,-181 -69,-270l-4 4c26,73 48,149 63,227 3,13 5,26 8,39z"/>
   <path class="fil20" d="M9961 15067l5 -6c-21,-39 -44,-78 -68,-116 -10,-15 -21,-31 -31,-46l-11 2c38,53 73,109 105,166z"/>
   <path class="fil19" d="M7036 15969c-3,-14 -6,-27 -9,-41 -1,-8 -3,-17 -5,-25l0 0c4,22 9,44 14,66z"/>
   <path class="fil17" d="M9596 15757c-1,-58 -7,-116 -19,-174 -65,-328 -289,-595 -578,-738 -218,-109 -450,-138 -699,-89 -200,44 -351,130 -467,247 -219,212 -327,524 -262,852 11,51 25,101 43,149l526 -65c-28,-47 -48,-99 -59,-153 -53,-266 125,-510 398,-547 272,-37 535,148 588,413 12,58 13,116 3,170l526 -65z"/>
   <path class="fil18" d="M9070 15822c10,-54 9,-112 -3,-170 -53,-265 -316,-450 -588,-413 -273,37 -451,281 -398,547 11,54 31,106 59,153l930 -117z"/>
   <polygon class="fil21" points="1907,9911 2168,9017 2423,9123 2317,9994 "/>
   <path class="fil7" d="M1836 9878l-409 1682c-141,482 -214,906 -641,1144 -552,308 -322,967 -322,967l1856 822 694 951 3400 0 482 -1380 2973 0 536 0 0 -974c0,-2065 -1674,-2359 -3739,-2359l-703 0 -836 0 0 3489c-613,272 -1907,493 -1907,493l-1035 -1992c-122,-235 -160,-504 -108,-762l319 -1989c12,-80 -43,-154 -123,-164l-280 -36c-72,-9 -139,37 -157,108z"/>
   <polygon class="fil4" points="6570,11249 6570,14031 2851,15249 2834,15196 6514,13991 6514,11249 "/>
   <polygon class="fil4" points="6560,13380 5111,13380 5111,13325 6560,13325 "/>
   <path class="fil12" d="M4728 15021l1087 -780c61,-44 77,-126 36,-185 -42,-58 -126,-70 -187,-26l-1087 780c-62,44 -78,127 -36,185 42,59 126,70 187,26z"/>
   <path class="fil3" d="M6123 14690l4267 0c105,0 190,-85 190,-190 0,-1085 -880,-1966 -1966,-1966l-714 0c-1086,0 -1966,881 -1966,1966 0,105 85,190 189,190z"/>
   <polygon class="fil19" points="5125,11472 5127,11472 5127,11239 5125,11239 "/>
   <polygon class="fil22" points="5127,11472 6514,11472 6514,11249 6570,11249 6570,11472 8277,11472 8277,10879 8277,11239 5127,11239 "/>
   <polygon class="fil23" points="6514,11472 6570,11472 6570,11249 6514,11249 "/>
   <polygon class="fil3" points="4027,11239 8277,11239 8277,10646 4027,10646 "/>
   <polygon class="fil4" points="4027,10887 8277,10887 8277,10646 4027,10646 "/>
   <polygon class="fil4" points="7364,14075 9638,14075 9638,13979 7364,13979 "/>
   <polygon class="fil4" points="7364,13809 9638,13809 9638,13714 7364,13714 "/>
   <polygon class="fil4" points="7364,13544 9638,13544 9638,13448 7364,13448 "/>
   <polygon class="fil4" points="5412,12506 6159,12506 6159,12410 5412,12410 "/>
   <polygon class="fil4" points="5412,12240 6159,12240 6159,12145 5412,12145 "/>
   <polygon class="fil4" points="5412,11975 6159,11975 6159,11879 5412,11879 "/>
   <polygon class="fil21" points="1236,12378 1467,12378 1467,11822 1236,11822 "/>
   <polygon class="fil11" points="1009,12378 1241,12378 1241,11822 1009,11822 "/>
   <path class="fil24" d="M4027 11239l197 0 429 0c147,-50 309,-109 488,-173 181,-66 343,-124 484,-179l-1598 0 0 352z"/>
   <path class="fil25" d="M4027 10887l0 0 1598 0c232,-89 408,-166 521,-241l-477 0c-633,96 -1190,158 -1642,183l0 58z"/>
   <path class="fil26" d="M2633 9134c0,0 135,-488 -485,-606l-113 580 598 26z"/>
   <path class="fil26" d="M1973 9138c0,199 161,361 361,361 200,0 361,-162 361,-361 0,-200 -161,-362 -361,-362 -200,0 -361,162 -361,362z"/>
   <path class="fil4" d="M1988 8362c17,2 79,9 96,11 65,8 101,165 80,351 -21,187 -91,332 -156,325 -17,-2 -78,-9 -95,-11 -66,-7 -102,-164 -81,-351 21,-187 91,-332 156,-325z"/>
   <path class="fil6" d="M1832 8687c-21,187 4,343 55,349 52,5 111,-141 132,-328 21,-187 -4,-343 -56,-348 -51,-6 -110,140 -131,327z"/>
   <path class="fil12" d="M5816 8563c0,0 -1919,1011 -2820,1719 -810,637 549,701 2844,338 456,-73 521,-1089 294,-1492l-318 -565z"/>
   <polygon class="fil2" points="5377,13785 5208,13507 4899,13723 5017,13885 5186,14087 "/>
   <path class="fil11" d="M5350 13748c0,0 255,164 318,331 0,0 -399,305 -683,572 -284,268 -578,211 -417,-18 160,-228 449,-748 449,-748 0,0 174,195 333,-137z"/>
   <path class="fil27" d="M5013 14113l6 -6c-74,-67 -138,-29 -139,-29l4 8c3,-2 61,-35 129,27z"/>
   <path class="fil27" d="M4938 14213l6 -6c-74,-67 -139,-29 -140,-29l5 7c2,-1 60,-34 129,28z"/>
   <path class="fil27" d="M5079 14018l6 -7c-74,-67 -139,-29 -139,-29l4 8c3,-2 60,-35 129,28z"/>
   <path class="fil16" d="M5096 9499c84,0 173,-11 253,-34 396,-116 558,-652 481,-749 -10,-13 -25,-18 -44,-18 -99,0 -313,160 -546,276 -139,100 -296,213 -461,333 -17,27 -25,53 -20,74 15,73 166,118 337,118z"/>
   <path class="fil14" d="M4590 14601c78,21 149,92 199,120 91,52 636,-573 636,-573 15,-110 57,-205 92,-269 62,58 124,128 151,200 0,0 -399,305 -683,572 -284,268 -578,211 -417,-18 7,-10 15,-21 22,-32z"/>
   <path class="fil12" d="M3921 10760c0,0 226,422 712,1190 627,991 854,1438 854,1438l-512 433c0,0 -1048,-1092 -1479,-1818 0,0 -590,-849 -712,-1275 -110,-385 251,-103 545,-311l592 343z"/>
   <polygon class="fil28" points="6331,9779 8940,9778 8938,8903 6329,8904 "/>
   <polygon class="fil28" points="6224,9418 9045,9417 9044,8907 6223,8909 "/>
   <polygon class="fil4" points="7689,8900 7689,9773 7661,9773 7661,8900 "/>
   <path class="fil4" d="M7669 8904c0,0 -10,-31 -27,-79 -25,-71 -68,-178 -120,-266 -25,-45 -53,-84 -82,-112 -29,-28 -57,-43 -83,-43 -28,0 -48,11 -63,30 -15,19 -24,48 -24,83 0,121 111,316 417,427l37 13 -37 13c-1,0 -144,50 -321,50 -117,0 -248,-22 -364,-94l15 -23c109,68 236,89 349,89 86,0 164,-12 221,-24 28,-6 51,-12 67,-17 15,-4 24,-7 24,-7l4 13 -4 13c-314,-114 -436,-315 -436,-453 0,-40 10,-75 30,-100 20,-26 50,-41 85,-41 50,1 93,36 133,85 118,148 205,434 206,435l-27 8z"/>
   <path class="fil4" d="M7662 8896c0,0 39,-128 100,-257 30,-64 66,-129 106,-178 39,-49 83,-84 133,-85 35,0 65,15 85,41 19,25 30,60 30,100 -1,138 -122,339 -436,453l-5 -13 5 -13c0,0 8,3 24,7 47,14 159,41 288,41 113,0 240,-21 349,-89l15 23c-116,72 -248,94 -364,94 -178,0 -320,-50 -321,-50l-37 -13 37 -13c306,-111 417,-306 417,-427 0,-35 -9,-64 -24,-83 -15,-19 -36,-30 -63,-30 -35,0 -74,28 -112,75 -56,69 -106,176 -143,265 -18,45 -32,85 -42,114 -10,29 -15,46 -15,46l-27 -8z"/>
   <polygon class="fil4" points="8938,9431 6335,9431 6335,9403 8938,9403 "/>
   <polygon class="fil28" points="6499,10648 9108,10648 9106,9773 6497,9773 "/>
   <polygon class="fil28" points="6395,10287 9215,10286 9214,9773 6393,9774 "/>
   <polygon class="fil4" points="7857,9774 7857,10643 7830,10643 7829,9774 "/>
   <polygon class="fil4" points="9106,10301 6503,10301 6503,10273 9106,10273 "/>
   <polygon class="fil29" points="6403,9774 6497,9774 6497,9773 7632,9773 6391,9773 "/>
   <polygon class="fil29" points="6497,9774 8303,9773 7632,9773 6497,9773 "/>
   <polygon class="fil29" points="9213,9989 9212,9773 8303,9773 6497,9774 6403,9774 7829,9883 7829,9774 7857,9774 7857,9885 "/>
   <polygon class="fil30" points="7857,9885 7857,9774 7829,9774 7829,9883 "/>
   <path class="fil4" d="M1976 9177c0,134 110,244 245,244 135,0 244,-110 244,-244 0,-135 -109,-245 -244,-245 -135,0 -245,110 -245,245z"/>
   <polygon class="fil4" points="2226,9108 2431,8163 2391,8112 2186,9056 "/>
   <path class="fil4" d="M2336 8132c0,238 75,431 168,431 93,0 169,-193 169,-431 0,-238 -76,-431 -169,-431 -93,0 -168,193 -168,431z"/>
   <path class="fil22" d="M2221 9421c135,0 244,-110 244,-244l0 0c0,134 -109,244 -244,244 -1,0 -1,0 -2,0 1,0 1,0 2,0zm-2 0c0,0 -1,0 -1,0 0,0 1,0 1,0zm-2 0c0,0 0,0 -1,0 1,0 1,0 1,0zm-1 0c-1,0 -1,0 -1,0 0,0 0,0 1,0zm-2 0c0,0 0,0 -1,0 1,0 1,0 1,0zm251 -244c0,-1 0,-1 0,-2 0,1 0,1 0,2zm0 -2c0,-1 0,-1 0,-2 0,1 0,1 0,2zm0 -2c0,0 0,-1 0,-1 0,1 0,1 0,1zm0 -1c0,-1 0,-1 0,-1 0,0 0,0 0,1zm0 -2c0,0 0,-1 0,-1 0,0 0,1 0,1z"/>
   <path class="fil23" d="M2221 9421c135,0 244,-110 244,-244l0 0c0,-1 0,-1 0,-2 0,0 0,0 0,0 0,-1 0,-1 0,-2 0,0 0,0 0,0 0,0 0,0 0,-1 0,0 0,0 0,0 0,-1 0,-1 0,-1 0,-1 0,-1 0,-1 0,0 0,-1 0,-1 -2,-84 -48,-157 -115,-199 23,37 37,81 37,129 0,135 -109,244 -244,244 -48,0 -92,-14 -129,-38 42,68 115,113 199,116 1,0 1,0 1,0 0,0 0,0 1,0 0,0 0,0 1,0 0,0 0,0 0,0 1,0 1,0 1,0 0,0 1,0 1,0 0,0 1,0 1,0 0,0 0,0 0,0 1,0 1,0 2,0z"/>
   <path class="fil3" d="M2622 8132c0,-200 -54,-367 -129,-416 15,-10 30,-15 46,-15 96,0 174,193 174,431 0,238 -78,431 -174,431 -16,0 -31,-6 -46,-15 75,-50 129,-217 129,-416z"/>
   <path class="fil4" d="M2336 8132c0,238 75,431 168,431 93,0 169,-193 169,-431 0,-238 -76,-431 -169,-431 -93,0 -168,193 -168,431z"/>
   <path class="fil2" d="M3625 7283c0,0 0,-449 -28,-521 -69,-176 -148,-353 -269,-449l-93 -669c0,0 392,331 747,737 112,129 222,137 289,136 146,-4 307,796 -427,798l-9 0c-148,-1 -23,67 -210,-32z"/>
   <path class="fil31" d="M3611 6822l-3 -11c-1,-17 -5,-34 -11,-49 -26,-67 -54,-134 -85,-196l132 -317c0,0 157,364 -33,573z"/>
   <path class="fil3" d="M3629 7522c0,0 -48,-559 -6,-626 314,-182 393,-482 393,-482 195,-60 611,255 659,297 543,467 1047,1791 1328,2026 21,17 -768,742 -1374,727 -171,-5 -249,-104 -249,-104 -151,-422 -239,-571 -397,-827 -316,-512 -354,-1011 -354,-1011z"/>
   <path class="fil32" d="M2846 5919c0,0 1,883 392,823 482,-73 604,-777 599,-1160 -2,-183 -175,-232 -353,-275 -276,-68 -646,110 -638,612z"/>
   <path class="fil12" d="M2949 5460c98,-180 364,-306 646,-284 282,23 463,223 486,485 38,426 -294,509 -294,509 0,0 -305,33 -477,-489 -404,116 -460,-41 -361,-221z"/>
   <path class="fil32" d="M2861 5954c0,0 -31,200 -60,273 -29,72 -1,126 130,120l-70 -393z"/>
   <path class="fil27" d="M3053 6397c91,0 161,-97 162,-98l-7 -5c-1,1 -89,123 -193,88l-3 8c14,5 28,7 41,7z"/>
   <path class="fil2" d="M3859 6223c-54,82 -148,115 -211,74 -63,-41 -70,-141 -17,-223 54,-82 149,-115 211,-74 63,41 71,141 17,223z"/>
   <path class="fil2" d="M4658 6913c90,54 133,146 79,259 -149,309 -410,1619 -608,1773 -225,175 -1008,144 -1386,144l-87 -219c0,0 944,-269 1173,-247 0,0 284,-2033 829,-1710z"/>
   <path class="fil3" d="M4180 6984c-127,365 -346,1115 -346,1115 0,0 490,201 746,111l212 -1052c75,-187 -153,-366 -153,-366 -201,-144 -378,-41 -459,192z"/>
   <path class="fil3" d="M2853 6013c0,0 48,183 135,246 88,63 221,-4 287,68 0,0 1,379 -202,368 -474,-25 -220,-682 -220,-682z"/>
   <path class="fil33" d="M3052 6561c130,7 176,-145 193,-256 11,5 21,12 30,22 0,0 1,379 -202,368 -224,-12 -285,-165 -287,-323 32,101 108,180 266,189z"/>
   <path class="fil3" d="M3170 6351c293,-80 542,-349 545,-352l-20 -17c-2,3 -246,266 -532,344l7 25z"/>
   <path class="fil2" d="M2388 8847c0,0 -473,84 -477,125 -4,41 -13,432 -13,432 0,0 115,18 209,-324 0,0 449,132 749,8l-132 -227 -336 -14z"/>
   <path class="fil7" d="M2816 5532c49,-99 265,-397 680,-397 389,0 576,186 609,515 55,535 -314,628 -314,628 0,0 -148,-45 -355,-703 -448,134 -733,182 -620,-43z"/>
   <path class="fil9" d="M3421 5473c0,0 -786,197 -812,277 -48,142 342,-56 827,-175l-15 -102z"/>
   <path class="fil26" d="M3711 5781c-49,77 -25,179 52,227 77,48 178,25 226,-52 49,-77 25,-179 -52,-227 -77,-48 -178,-25 -226,52z"/>
   <path class="fil27" d="M3711 5781l5 4c-16,26 -24,55 -24,83 0,53 27,104 75,134 25,16 54,24 83,24 52,0 104,-26 134,-74 16,-26 24,-55 24,-83 0,-53 -27,-104 -75,-134 -26,-16 -54,-24 -83,-24 -52,0 -104,26 -134,74l-5 -4 -6 -3c32,-52 88,-81 145,-81 31,0 63,8 91,26 52,33 80,88 80,146 0,31 -8,62 -26,90 -32,52 -88,81 -145,81 -31,0 -63,-9 -91,-26 -52,-33 -80,-89 -80,-146 0,-31 8,-62 26,-90l6 3z"/>
   <path class="fil9" d="M3478 5303c18,55 -10,115 -64,137 -423,167 -538,174 -556,142 -23,-42 110,-163 188,-220 109,-80 222,-116 308,-133 54,-10 107,22 124,74z"/>
   <polygon class="fil3" points="2612,15046 437,13671 402,13430 2084,13388 2311,13629 2931,15060 "/>
   <polygon class="fil4" points="9836,14684 10650,14684 10650,13976 9836,13976 "/>
   <path class="fil4" d="M1592 10149c31,4 142,16 173,19 118,14 184,298 146,636 -38,338 -165,601 -284,588 -30,-4 -141,-16 -172,-20 -119,-13 -184,-298 -146,-635 38,-338 164,-601 283,-588z"/>
   <path class="fil6" d="M1309 10737c-38,337 7,620 100,630 93,11 200,-255 238,-592 38,-338 -7,-621 -101,-631 -93,-11 -199,255 -237,593z"/>
   <path class="fil27" d="M4841 7220l-256 996 -5 1c0,0 -70,9 -173,9 -141,0 -342,-17 -510,-95l-5 -2 277 -1203 14 3 -277 1197 -6 -1 3 -7c165,77 365,94 504,94 51,0 94,-3 124,-5 30,-2 48,-4 48,-4l1 7 -7 -2 255 -992 13 4z"/>
   <path class="fil34" d="M7243 12194c0,124 428,223 956,223 529,0 957,-99 957,-223 0,-123 -428,-223 -957,-223 -528,0 -956,100 -956,223z"/>
   <path class="fil35" d="M553 13280c64,57 213,-7 332,-142 120,-135 164,-291 99,-348 -64,-57 -213,7 -332,142 -120,135 -164,291 -99,348z"/>
   <path class="fil3" d="M1374 10582c-22,191 4,350 56,356 53,6 113,-144 135,-334 21,-191 -4,-350 -57,-356 -53,-6 -113,143 -134,334z"/>
   <path class="fil3" d="M1853 8654c-11,101 2,185 30,188 28,4 60,-76 71,-176 11,-101 -2,-186 -30,-189 -28,-3 -59,76 -71,177z"/>
   <path class="fil3" d="M1450 11053c-8,72 2,132 22,134 19,3 42,-54 50,-126 8,-71 -1,-131 -21,-133 -20,-3 -43,54 -51,125z"/>
   <path class="fil27" d="M3637 7173c0,0 3,94 11,219 7,125 19,282 36,409l-14 2c-34,-255 -47,-629 -47,-629l14 -1z"/>
  </g>
 </g>
</svg>
