<?xml version="1.0" encoding="UTF-8"?>
<!DOCTYPE svg PUBLIC "-//W3C//DTD SVG 1.1//EN" "http://www.w3.org/Graphics/SVG/1.1/DTD/svg11.dtd">
<!-- Creator: CorelDRAW X7 -->
<svg xmlns="http://www.w3.org/2000/svg" xml:space="preserve" width="334.927mm" height="157.446mm" version="1.1" style="shape-rendering:geometricPrecision; text-rendering:geometricPrecision; image-rendering:optimizeQuality; fill-rule:evenodd; clip-rule:evenodd"
viewBox="0 0 33913 15942"
 xmlns:xlink="http://www.w3.org/1999/xlink">
 <defs>
  <style type="text/css">
   <![CDATA[
    .fil17 {fill:#2B2A29}
    .fil12 {fill:#2E3552}
    .fil15 {fill:#699FF0}
    .fil13 {fill:#A8D29F}
    .fil5 {fill:#ADC9E0}
    .fil11 {fill:#B6CFE5}
    .fil1 {fill:#C4D9ED}
    .fil10 {fill:#C6DBEE}
    .fil4 {fill:#C7DCEF}
    .fil9 {fill:#CEE1F3}
    .fil2 {fill:#D5E7F7}
    .fil3 {fill:#DCEAF9}
    .fil8 {fill:#DDE9F8}
    .fil16 {fill:#E5BCA1}
    .fil7 {fill:#E7F0F8}
    .fil6 {fill:#EBF2F9}
    .fil0 {fill:#EDF4FF}
    .fil14 {fill:#F99746}
   ]]>
  </style>
 </defs>
 <g id="Layer_x0020_1">
  <metadata id="CorelCorpID_0Corel-Layer"/>
  <g id="_536330080">
   <g>
    <path class="fil0" d="M33768 11683c-2,71 -3,142 -7,211 -3,70 -6,138 -12,207 -20,298 -56,588 -104,864 -15,82 -29,163 -45,243 -3,19 -7,37 -10,55l-3 10c-10,49 -20,97 -30,146 -19,85 -39,171 -60,253 -4,16 -8,31 -11,47 -55,217 -115,421 -177,612 -10,31 -20,63 -30,95 -28,84 -55,164 -83,242 -20,56 -40,110 -59,162 -105,280 -208,513 -291,690 -76,163 -141,301 -175,370 -14,31 -23,48 -23,48 0,0 -16041,3 -24895,4 -3375,0 -5706,0 -5706,0 0,-1 -2,-1 -2,-1 -20,-16 -39,-31 -57,-46 -2,0 -2,0 -2,0 -9,-8 -17,-13 -25,-21l-421 -455c-92,-132 -167,-272 -225,-418 -112,-273 -165,-568 -165,-876 0,-14 0,-30 1,-46 0,-28 2,-57 2,-84 1,-25 3,-49 4,-74 7,-90 17,-179 32,-269 0,-3 1,-6 1,-9 3,-14 6,-30 8,-46 2,-19 7,-38 11,-56 13,-67 29,-134 46,-201 3,-16 8,-32 12,-48 6,-19 10,-38 17,-57 16,-59 37,-118 57,-179 39,-116 85,-232 137,-349 3,-8 7,-18 12,-27 48,-106 100,-210 156,-316 85,-159 182,-316 288,-473 23,-33 46,-66 69,-98 118,-167 246,-330 387,-491 169,-195 354,-387 554,-572 45,-42 90,-83 134,-123 11,-9 21,-18 31,-28 26,-22 52,-45 78,-67 110,-95 217,-185 323,-272 53,-43 105,-85 157,-127 103,-82 203,-163 298,-242 294,-241 554,-468 760,-724 71,-87 134,-178 191,-272 103,-173 182,-359 234,-570 12,-54 23,-109 32,-165 26,-154 39,-320 35,-502 -2,-144 -13,-298 -35,-463 -4,-35 -10,-71 -16,-109 -30,-204 -77,-425 -139,-667 -17,-68 -36,-137 -56,-208 -35,-123 -62,-245 -84,-363 -42,-230 -59,-452 -57,-667 2,-196 21,-385 57,-567l0 -3c32,-174 78,-342 134,-504 693,-1970 3052,-3135 3678,-3395 893,-372 1951,-581 3049,-657 89,-6 179,-12 269,-16 253,-13 509,-19 764,-19 104,0 207,1 309,3 172,4 343,10 515,20 159,9 317,19 475,32 654,55 1292,148 1885,272 540,113 1026,255 1468,418 0,0 0,0 2,2 1045,386 1835,891 2465,1416 146,121 285,245 416,367 17,16 36,34 53,51 41,38 80,75 119,114 17,18 36,35 53,53 115,114 224,228 329,339 52,57 104,113 154,168 275,304 518,588 750,832 29,32 58,61 87,91 398,405 767,680 1218,711 284,19 615,-29 987,-102 37,-7 73,-14 111,-23 572,-114 1237,-276 1976,-344 955,-88 2036,-19 3202,511 38,17 74,34 112,52 170,82 343,173 516,276 36,20 72,42 109,64 176,108 355,228 536,361 5,3 9,6 13,11 79,56 157,117 235,179 91,72 184,148 276,227 223,193 450,404 677,638 165,169 318,340 457,514 97,118 188,239 272,359 16,21 31,43 47,65 144,212 275,427 390,642 13,26 28,54 42,80 152,298 278,597 378,895 9,26 17,51 26,76 43,134 81,269 116,403 46,184 84,366 114,548 78,465 106,922 97,1362z"/>
    <path class="fil1" d="M7213 4594l0 9877 -2031 0 0 -6331c26,-154 39,-320 35,-502 -2,-144 -13,-298 -35,-463l0 -2581 2031 0z"/>
    <path class="fil2" d="M6756 4594l0 9877 -2031 0 0 -5324c71,-87 134,-178 191,-272 103,-173 182,-359 234,-570 12,-54 23,-109 32,-165 26,-154 39,-320 35,-502 -2,-144 -13,-298 -35,-463 -4,-35 -10,-71 -16,-109 -30,-204 -77,-425 -139,-667 -17,-68 -36,-137 -56,-208 -35,-123 -62,-245 -84,-363 -42,-230 -59,-452 -57,-667 2,-196 21,-385 57,-567l1869 0z"/>
    <path class="fil1" d="M4887 4594c-36,182 -55,371 -57,567l352 0 1574 0 0 -567 0 -3 -1869 0 0 3z"/>
    <path class="fil1" d="M6756 5828l0 571 -1729 0c-17,-68 -36,-137 -56,-208 -35,-123 -62,-245 -84,-363l1869 0z"/>
    <path class="fil1" d="M6756 7066l0 572 -1539 0c-2,-144 -13,-298 -35,-463 -4,-35 -10,-71 -16,-109l1590 0z"/>
    <path class="fil1" d="M6756 8305l0 570 -1840 0c103,-173 182,-359 234,-570l1606 0z"/>
    <polygon class="fil1" points="6756,10113 4725,10113 4725,9542 6756,9542 "/>
    <polygon class="fil1" points="6756,11351 4725,11351 4725,10780 6756,10780 "/>
    <polygon class="fil1" points="6756,12589 4725,12589 4725,12018 6756,12018 "/>
    <polygon class="fil1" points="6756,13827 4725,13827 4725,13256 6756,13256 "/>
    <path class="fil1" d="M3965 9871l0 4600 -2031 0 0 -2580c23,-33 46,-66 69,-98 118,-167 246,-330 387,-491 169,-195 354,-387 554,-572 45,-42 90,-83 134,-123 11,-9 21,-18 31,-28 26,-22 52,-45 78,-67 110,-95 217,-185 323,-272 53,-43 105,-85 157,-127 103,-82 203,-163 298,-242z"/>
    <path class="fil2" d="M3510 10240l0 4231 -2032 0 0 -1764c3,-8 7,-18 12,-27 48,-106 100,-210 156,-316 85,-159 182,-316 288,-473 23,-33 46,-66 69,-98 118,-167 246,-330 387,-491 169,-195 354,-387 554,-572 45,-42 90,-83 134,-123 11,-9 21,-18 31,-28 26,-22 52,-45 78,-67 110,-95 217,-185 323,-272z"/>
    <path class="fil1" d="M3510 10240l0 490 -566 0c45,-42 90,-83 134,-123 11,-9 21,-18 31,-28 26,-22 52,-45 78,-67 110,-95 217,-185 323,-272z"/>
    <path class="fil1" d="M3510 11302l0 491 -1507 0c118,-167 246,-330 387,-491l1120 0z"/>
    <path class="fil1" d="M3510 12364l0 491 -2032 0 0 -148c3,-8 7,-18 12,-27 48,-106 100,-210 156,-316l1864 0z"/>
    <polygon class="fil1" points="3509,13918 1478,13918 1478,13428 3509,13428 "/>
    <polygon class="fil3" points="8312,15408 7462,15408 7462,14168 8312,14168 "/>
    <polygon class="fil2" points="19976,9238 19976,8472 19744,8472 19744,7154 18497,7154 18497,8472 17331,8472 17331,6325 16045,6325 16045,7719 15752,7719 15752,6055 14465,6055 14465,9174 12839,9174 12839,10993 12231,10993 12231,11451 10834,11451 10834,10662 10033,10662 10033,8518 9043,8518 9043,12476 8052,12476 8052,15919 9043,15919 9891,15919 10033,15919 10834,15919 11288,15919 12013,15919 12231,15919 12839,15919 13410,15919 14465,15919 14789,15919 15432,15919 15752,15919 16045,15919 16718,15919 17177,15919 17331,15919 18497,15919 19723,15919 19744,15919 19976,15919 20970,15919 20970,9238 "/>
    <polygon class="fil1" points="15752,6584 14465,6584 14465,6266 15752,6266 "/>
    <polygon class="fil1" points="15752,7181 14465,7181 14465,6863 15752,6863 "/>
    <polygon class="fil1" points="15752,7718 14465,7718 14465,7400 15752,7400 "/>
    <polygon class="fil1" points="17331,7718 16044,7718 16044,7400 17331,7400 "/>
    <polygon class="fil1" points="17331,7181 16044,7181 16044,6863 17331,6863 "/>
    <polygon class="fil1" points="17331,6644 16044,6644 16044,6326 17331,6326 "/>
    <polygon class="fil1" points="17331,8238 14465,8238 14465,7921 17331,7921 "/>
    <polygon class="fil1" points="17331,8759 14465,8759 14465,8441 17331,8441 "/>
    <polygon class="fil1" points="10042,9009 9043,9009 9043,8518 10042,8518 "/>
    <polygon class="fil1" points="10042,9738 9043,9738 9043,9248 10042,9248 "/>
    <polygon class="fil1" points="10042,10468 9043,10468 9043,9977 10042,9977 "/>
    <polygon class="fil1" points="10042,11232 9043,11232 9043,10742 10042,10742 "/>
    <polygon class="fil1" points="10042,11973 9043,11973 9043,11483 10042,11483 "/>
    <polygon class="fil1" points="10042,12714 9043,12714 9043,12224 10042,12224 "/>
    <polygon class="fil1" points="10042,13490 9043,13490 9043,12999 10042,12999 "/>
    <polygon class="fil1" points="17331,9152 14465,9152 14465,8950 17331,8950 "/>
    <polygon class="fil1" points="10028,8518 10028,10662 10397,10662 10397,8518 "/>
    <polygon class="fil1" points="10834,10662 11575,10662 11575,11451 10834,11451 "/>
    <polygon class="fil1" points="17331,6326 17587,6326 17587,8472 17331,8472 "/>
    <polygon class="fil1" points="15752,6055 15909,6055 15909,7718 15752,7718 "/>
    <polygon class="fil4" points="13104,9487 13323,9487 13323,9794 13104,9794 "/>
    <polygon class="fil4" points="13730,9794 13512,9794 13512,9487 13730,9487 "/>
    <polygon class="fil4" points="14129,9794 13911,9794 13911,9487 14129,9487 "/>
    <polygon class="fil4" points="14507,9794 14289,9794 14289,9487 14507,9487 "/>
    <polygon class="fil4" points="14892,9794 14674,9794 14674,9487 14892,9487 "/>
    <polygon class="fil4" points="15282,9794 15064,9794 15064,9487 15282,9487 "/>
    <polygon class="fil4" points="15690,9794 15472,9794 15472,9487 15690,9487 "/>
    <polygon class="fil4" points="16088,9794 15870,9794 15870,9487 16088,9487 "/>
    <polygon class="fil4" points="16466,9794 16248,9794 16248,9487 16466,9487 "/>
    <polygon class="fil4" points="16851,9794 16633,9794 16633,9487 16851,9487 "/>
    <polygon class="fil4" points="17253,9794 17035,9794 17035,9487 17253,9487 "/>
    <polygon class="fil4" points="17661,9794 17443,9794 17443,9487 17661,9487 "/>
    <polygon class="fil4" points="18059,9794 17841,9794 17841,9487 18059,9487 "/>
    <polygon class="fil4" points="18437,9794 18219,9794 18219,9487 18437,9487 "/>
    <polygon class="fil4" points="18823,9794 18605,9794 18605,9487 18823,9487 "/>
    <polygon class="fil4" points="19212,9794 18994,9794 18994,9487 19212,9487 "/>
    <polygon class="fil4" points="19620,9794 19402,9794 19402,9487 19620,9487 "/>
    <polygon class="fil4" points="20019,9794 19801,9794 19801,9487 20019,9487 "/>
    <polygon class="fil4" points="20397,9794 20179,9794 20179,9487 20397,9487 "/>
    <polygon class="fil4" points="20782,9794 20564,9794 20564,9487 20782,9487 "/>
    <polygon class="fil4" points="13323,10337 13104,10337 13104,10029 13323,10029 "/>
    <polygon class="fil4" points="13730,10337 13512,10337 13512,10029 13730,10029 "/>
    <polygon class="fil4" points="14129,10337 13911,10337 13911,10029 14129,10029 "/>
    <polygon class="fil4" points="14507,10337 14289,10337 14289,10029 14507,10029 "/>
    <polygon class="fil4" points="14892,10337 14674,10337 14674,10029 14892,10029 "/>
    <polygon class="fil4" points="15282,10337 15064,10337 15064,10029 15282,10029 "/>
    <polygon class="fil4" points="15690,10337 15472,10337 15472,10029 15690,10029 "/>
    <polygon class="fil4" points="16088,10337 15870,10337 15870,10029 16088,10029 "/>
    <polygon class="fil4" points="16466,10337 16248,10337 16248,10029 16466,10029 "/>
    <polygon class="fil4" points="16851,10337 16633,10337 16633,10029 16851,10029 "/>
    <polygon class="fil4" points="17253,10337 17035,10337 17035,10029 17253,10029 "/>
    <polygon class="fil4" points="17661,10337 17443,10337 17443,10029 17661,10029 "/>
    <polygon class="fil4" points="18059,10337 17841,10337 17841,10029 18059,10029 "/>
    <polygon class="fil4" points="18437,10337 18219,10337 18219,10029 18437,10029 "/>
    <polygon class="fil4" points="18823,10337 18605,10337 18605,10029 18823,10029 "/>
    <polygon class="fil4" points="19212,10337 18994,10337 18994,10029 19212,10029 "/>
    <polygon class="fil4" points="19620,10337 19402,10337 19402,10029 19620,10029 "/>
    <polygon class="fil4" points="20019,10337 19801,10337 19801,10029 20019,10029 "/>
    <polygon class="fil4" points="20397,10337 20179,10337 20179,10029 20397,10029 "/>
    <polygon class="fil4" points="20782,10337 20564,10337 20564,10029 20782,10029 "/>
    <polygon class="fil4" points="13323,10871 13104,10871 13104,10563 13323,10563 "/>
    <polygon class="fil4" points="13730,10871 13512,10871 13512,10563 13730,10563 "/>
    <polygon class="fil4" points="14129,10871 13911,10871 13911,10563 14129,10563 "/>
    <polygon class="fil4" points="14507,10871 14289,10871 14289,10563 14507,10563 "/>
    <polygon class="fil4" points="14892,10871 14674,10871 14674,10563 14892,10563 "/>
    <polygon class="fil4" points="15282,10871 15064,10871 15064,10563 15282,10563 "/>
    <polygon class="fil4" points="15690,10871 15472,10871 15472,10563 15690,10563 "/>
    <polygon class="fil4" points="16088,10871 15870,10871 15870,10563 16088,10563 "/>
    <polygon class="fil4" points="16466,10871 16248,10871 16248,10563 16466,10563 "/>
    <polygon class="fil4" points="16851,10871 16633,10871 16633,10563 16851,10563 "/>
    <polygon class="fil4" points="17253,10871 17035,10871 17035,10563 17253,10563 "/>
    <polygon class="fil4" points="17661,10871 17443,10871 17443,10563 17661,10563 "/>
    <polygon class="fil4" points="18059,10871 17841,10871 17841,10563 18059,10563 "/>
    <polygon class="fil4" points="18437,10871 18219,10871 18219,10563 18437,10563 "/>
    <polygon class="fil4" points="18823,10871 18605,10871 18605,10563 18823,10563 "/>
    <polygon class="fil4" points="19212,10871 18994,10871 18994,10563 19212,10563 "/>
    <polygon class="fil4" points="19620,10871 19402,10871 19402,10563 19620,10563 "/>
    <polygon class="fil4" points="20019,10871 19801,10871 19801,10563 20019,10563 "/>
    <polygon class="fil4" points="20397,10871 20179,10871 20179,10563 20397,10563 "/>
    <polygon class="fil4" points="20782,10871 20564,10871 20564,10563 20782,10563 "/>
    <polygon class="fil4" points="13323,11438 13104,11438 13104,11131 13323,11131 "/>
    <polygon class="fil4" points="13730,11438 13512,11438 13512,11131 13730,11131 "/>
    <polygon class="fil4" points="14129,11438 13911,11438 13911,11131 14129,11131 "/>
    <polygon class="fil4" points="14507,11438 14289,11438 14289,11131 14507,11131 "/>
    <polygon class="fil4" points="14892,11438 14674,11438 14674,11131 14892,11131 "/>
    <polygon class="fil4" points="15282,11438 15064,11438 15064,11131 15282,11131 "/>
    <polygon class="fil4" points="15690,11438 15472,11438 15472,11131 15690,11131 "/>
    <polygon class="fil4" points="16088,11438 15870,11438 15870,11131 16088,11131 "/>
    <polygon class="fil4" points="16466,11438 16248,11438 16248,11131 16466,11131 "/>
    <polygon class="fil4" points="16851,11438 16633,11438 16633,11131 16851,11131 "/>
    <polygon class="fil4" points="17253,11438 17035,11438 17035,11131 17253,11131 "/>
    <polygon class="fil4" points="17661,11438 17443,11438 17443,11131 17661,11131 "/>
    <polygon class="fil4" points="18059,11438 17841,11438 17841,11131 18059,11131 "/>
    <polygon class="fil4" points="18437,11438 18219,11438 18219,11131 18437,11131 "/>
    <polygon class="fil4" points="18823,11438 18605,11438 18605,11131 18823,11131 "/>
    <polygon class="fil4" points="19212,11438 18994,11438 18994,11131 19212,11131 "/>
    <polygon class="fil4" points="19620,11438 19402,11438 19402,11131 19620,11131 "/>
    <polygon class="fil4" points="20019,11438 19801,11438 19801,11131 20019,11131 "/>
    <polygon class="fil4" points="20397,11438 20179,11438 20179,11131 20397,11131 "/>
    <polygon class="fil4" points="20782,11438 20564,11438 20564,11131 20782,11131 "/>
    <polygon class="fil4" points="13323,11981 13104,11981 13104,11673 13323,11673 "/>
    <polygon class="fil4" points="13730,11981 13512,11981 13512,11673 13730,11673 "/>
    <polygon class="fil4" points="14129,11981 13911,11981 13911,11673 14129,11673 "/>
    <polygon class="fil4" points="14507,11981 14289,11981 14289,11673 14507,11673 "/>
    <polygon class="fil4" points="14892,11981 14674,11981 14674,11673 14892,11673 "/>
    <polygon class="fil4" points="15282,11981 15064,11981 15064,11673 15282,11673 "/>
    <polygon class="fil4" points="15690,11981 15472,11981 15472,11673 15690,11673 "/>
    <polygon class="fil4" points="16088,11981 15870,11981 15870,11673 16088,11673 "/>
    <polygon class="fil4" points="16466,11981 16248,11981 16248,11673 16466,11673 "/>
    <polygon class="fil4" points="16851,11981 16633,11981 16633,11673 16851,11673 "/>
    <polygon class="fil4" points="17253,11981 17035,11981 17035,11673 17253,11673 "/>
    <polygon class="fil4" points="17661,11981 17443,11981 17443,11673 17661,11673 "/>
    <polygon class="fil4" points="18059,11981 17841,11981 17841,11673 18059,11673 "/>
    <polygon class="fil4" points="18437,11981 18219,11981 18219,11673 18437,11673 "/>
    <polygon class="fil4" points="18823,11981 18605,11981 18605,11673 18823,11673 "/>
    <polygon class="fil4" points="19212,11981 18994,11981 18994,11673 19212,11673 "/>
    <polygon class="fil4" points="19620,11981 19402,11981 19402,11673 19620,11673 "/>
    <polygon class="fil4" points="20019,11981 19801,11981 19801,11673 20019,11673 "/>
    <polygon class="fil4" points="20397,11981 20179,11981 20179,11673 20397,11673 "/>
    <polygon class="fil4" points="20782,11981 20564,11981 20564,11673 20782,11673 "/>
    <polygon class="fil4" points="13323,12515 13104,12515 13104,12207 13323,12207 "/>
    <polygon class="fil4" points="13730,12515 13512,12515 13512,12207 13730,12207 "/>
    <polygon class="fil4" points="14129,12515 13911,12515 13911,12207 14129,12207 "/>
    <polygon class="fil4" points="14507,12515 14289,12515 14289,12207 14507,12207 "/>
    <polygon class="fil4" points="14892,12515 14674,12515 14674,12207 14892,12207 "/>
    <polygon class="fil4" points="15282,12515 15064,12515 15064,12207 15282,12207 "/>
    <polygon class="fil4" points="15690,12515 15472,12515 15472,12207 15690,12207 "/>
    <polygon class="fil4" points="16088,12515 15870,12515 15870,12207 16088,12207 "/>
    <polygon class="fil4" points="16466,12515 16248,12515 16248,12207 16466,12207 "/>
    <polygon class="fil4" points="16851,12515 16633,12515 16633,12207 16851,12207 "/>
    <polygon class="fil4" points="17253,12515 17035,12515 17035,12207 17253,12207 "/>
    <polygon class="fil4" points="17661,12515 17443,12515 17443,12207 17661,12207 "/>
    <path class="fil4" d="M17944 12515l-103 0 0 -308 218 0 0 282c-38,9 -77,17 -115,26z"/>
    <path class="fil4" d="M18219 12450l0 -243 218 0 0 189c-73,18 -145,37 -218,54z"/>
    <path class="fil4" d="M18605 12353l0 -146 218 0 0 91c-73,18 -146,37 -218,55z"/>
    <path class="fil4" d="M18994 12257l0 -50 218 0 0 3c-72,15 -145,31 -218,47z"/>
    <path class="fil4" d="M20782 12257c-44,-18 -88,-35 -133,-50l133 0 0 50z"/>
    <polygon class="fil1" points="16630,15897 11575,15897 11575,13170 16630,13170 "/>
    <polygon class="fil1" points="12797,15897 7743,15897 7743,14534 12797,14534 "/>
    <polygon class="fil1" points="22089,15897 17035,15897 17035,13595 22089,13595 "/>
    <polygon class="fil2" points="12855,13995 11913,13995 11913,13490 12855,13490 "/>
    <polygon class="fil2" points="14063,13995 13122,13995 13122,13490 14063,13490 "/>
    <polygon class="fil2" points="15249,13995 14308,13995 14308,13490 15249,13490 "/>
    <polygon class="fil2" points="16412,13995 15471,13995 15471,13490 16412,13490 "/>
    <polygon class="fil5" points="17062,15920 16577,15920 16577,13170 17062,13170 "/>
    <polygon class="fil5" points="23080,15920 22595,15920 22595,12638 23080,12638 "/>
    <polygon class="fil5" points="22610,15875 22089,15875 22089,13595 22610,13595 "/>
    <path class="fil3" d="M21699 13731c-14,36 -46,57 -73,47 -27,-10 -38,-47 -25,-84 14,-36 113,-152 113,-152 0,0 -2,152 -15,189z"/>
    <path class="fil3" d="M21434 12840c-14,36 -46,57 -73,47 -27,-10 -38,-47 -25,-83 14,-36 113,-153 113,-153 0,0 -2,153 -15,189z"/>
    <path class="fil3" d="M20418 14183c-14,36 -46,57 -73,47 -27,-10 -38,-47 -24,-83 13,-36 112,-152 112,-152 0,0 -1,152 -15,188z"/>
    <path class="fil6" d="M21257 15654c0,0 -94,202 88,217 183,15 291,-59 335,-148 0,0 -226,94 -192,-20 35,-113 123,-295 123,-295 0,0 -192,345 -287,328 -43,-7 -67,-82 -67,-82z"/>
    <polygon class="fil3" points="9268,8518 9242,8518 9242,8305 9268,8305 "/>
    <polygon class="fil3" points="10212,8518 10186,8518 10186,8305 10212,8305 "/>
    <polygon class="fil2" points="19828,15875 22610,15875 22610,12630 19828,12630 "/>
    <polygon class="fil2" points="22423,12638 22372,12638 22372,11981 22423,11981 "/>
    <polygon class="fil2" points="19828,15875 23298,15875 23298,13541 19828,13541 "/>
    <polygon class="fil1" points="19828,13995 23298,13995 23298,13236 19828,13236 "/>
    <polygon class="fil1" points="20243,14471 20064,14471 20064,14219 20243,14219 "/>
    <polygon class="fil1" points="20576,14471 20398,14471 20398,14219 20576,14219 "/>
    <polygon class="fil1" points="20902,14471 20723,14471 20723,14219 20902,14219 "/>
    <polygon class="fil1" points="21211,14471 21032,14471 21032,14219 21211,14219 "/>
    <polygon class="fil1" points="21526,14471 21347,14471 21347,14219 21526,14219 "/>
    <polygon class="fil1" points="21844,14471 21666,14471 21666,14219 21844,14219 "/>
    <polygon class="fil1" points="22177,14471 21999,14471 21999,14219 22177,14219 "/>
    <polygon class="fil1" points="22503,14471 22325,14471 22325,14219 22503,14219 "/>
    <polygon class="fil1" points="22812,14471 22634,14471 22634,14219 22812,14219 "/>
    <polygon class="fil1" points="23127,14471 22949,14471 22949,14219 23127,14219 "/>
    <polygon class="fil1" points="20243,14914 20064,14914 20064,14663 20243,14663 "/>
    <polygon class="fil1" points="20576,14914 20398,14914 20398,14663 20576,14663 "/>
    <polygon class="fil1" points="20902,14914 20723,14914 20723,14663 20902,14663 "/>
    <polygon class="fil1" points="21211,14914 21032,14914 21032,14663 21211,14663 "/>
    <polygon class="fil1" points="21526,14914 21347,14914 21347,14663 21526,14663 "/>
    <polygon class="fil1" points="21844,14914 21666,14914 21666,14663 21844,14663 "/>
    <polygon class="fil1" points="22177,14914 21999,14914 21999,14663 22177,14663 "/>
    <polygon class="fil1" points="22503,14914 22325,14914 22325,14663 22503,14663 "/>
    <polygon class="fil1" points="22812,14914 22634,14914 22634,14663 22812,14663 "/>
    <polygon class="fil1" points="23127,14914 22949,14914 22949,14663 23127,14663 "/>
    <polygon class="fil1" points="20243,15350 20064,15350 20064,15099 20243,15099 "/>
    <polygon class="fil1" points="20576,15350 20398,15350 20398,15099 20576,15099 "/>
    <polygon class="fil1" points="20902,15350 20723,15350 20723,15099 20902,15099 "/>
    <polygon class="fil1" points="21211,15350 21032,15350 21032,15099 21211,15099 "/>
    <polygon class="fil1" points="21526,15350 21347,15350 21347,15099 21526,15099 "/>
    <polygon class="fil1" points="21844,15350 21666,15350 21666,15099 21844,15099 "/>
    <polygon class="fil1" points="22177,15350 21999,15350 21999,15099 22177,15099 "/>
    <polygon class="fil1" points="22503,15350 22325,15350 22325,15099 22503,15099 "/>
    <polygon class="fil1" points="22812,15350 22634,15350 22634,15099 22812,15099 "/>
    <polygon class="fil1" points="23127,15350 22949,15350 22949,15099 23127,15099 "/>
    <polygon class="fil5" points="20243,13708 20093,13708 20093,13449 20243,13449 "/>
    <polygon class="fil5" points="21730,13708 21580,13708 21580,13449 21730,13449 "/>
    <polygon class="fil5" points="22912,13708 22763,13708 22763,13449 22912,13449 "/>
    <polygon class="fil2" points="5229,15875 8700,15875 8700,13541 5229,13541 "/>
    <polygon class="fil1" points="5229,13995 8700,13995 8700,13236 5229,13236 "/>
    <polygon class="fil1" points="5644,14471 5466,14471 5466,14219 5644,14219 "/>
    <polygon class="fil1" points="5977,14471 5799,14471 5799,14219 5977,14219 "/>
    <polygon class="fil1" points="6303,14471 6125,14471 6125,14219 6303,14219 "/>
    <polygon class="fil1" points="6612,14471 6434,14471 6434,14219 6612,14219 "/>
    <polygon class="fil1" points="6927,14471 6749,14471 6749,14219 6927,14219 "/>
    <polygon class="fil1" points="7245,14471 7067,14471 7067,14219 7245,14219 "/>
    <polygon class="fil1" points="7579,14471 7400,14471 7400,14219 7579,14219 "/>
    <polygon class="fil1" points="7904,14471 7726,14471 7726,14219 7904,14219 "/>
    <polygon class="fil1" points="8213,14471 8035,14471 8035,14219 8213,14219 "/>
    <polygon class="fil1" points="8528,14471 8350,14471 8350,14219 8528,14219 "/>
    <polygon class="fil1" points="5644,14914 5466,14914 5466,14663 5644,14663 "/>
    <polygon class="fil1" points="5977,14914 5799,14914 5799,14663 5977,14663 "/>
    <polygon class="fil1" points="6303,14914 6125,14914 6125,14663 6303,14663 "/>
    <polygon class="fil1" points="6612,14914 6434,14914 6434,14663 6612,14663 "/>
    <polygon class="fil1" points="6927,14914 6749,14914 6749,14663 6927,14663 "/>
    <polygon class="fil1" points="7245,14914 7067,14914 7067,14663 7245,14663 "/>
    <polygon class="fil1" points="7579,14914 7400,14914 7400,14663 7579,14663 "/>
    <polygon class="fil1" points="7904,14914 7726,14914 7726,14663 7904,14663 "/>
    <polygon class="fil1" points="8213,14914 8035,14914 8035,14663 8213,14663 "/>
    <polygon class="fil1" points="8528,14914 8350,14914 8350,14663 8528,14663 "/>
    <polygon class="fil1" points="5644,15350 5466,15350 5466,15099 5644,15099 "/>
    <polygon class="fil1" points="5977,15350 5799,15350 5799,15099 5977,15099 "/>
    <polygon class="fil1" points="6303,15350 6125,15350 6125,15099 6303,15099 "/>
    <polygon class="fil1" points="6612,15350 6434,15350 6434,15099 6612,15099 "/>
    <polygon class="fil1" points="6927,15350 6749,15350 6749,15099 6927,15099 "/>
    <polygon class="fil1" points="7245,15350 7067,15350 7067,15099 7245,15099 "/>
    <polygon class="fil1" points="7579,15350 7400,15350 7400,15099 7579,15099 "/>
    <polygon class="fil1" points="7904,15350 7726,15350 7726,15099 7904,15099 "/>
    <polygon class="fil1" points="8213,15350 8035,15350 8035,15099 8213,15099 "/>
    <polygon class="fil1" points="8528,15350 8350,15350 8350,15099 8528,15099 "/>
    <polygon class="fil5" points="5644,13708 5494,13708 5494,13449 5644,13449 "/>
    <polygon class="fil5" points="7131,13708 6981,13708 6981,13449 7131,13449 "/>
    <polygon class="fil5" points="8314,13708 8164,13708 8164,13449 8314,13449 "/>
    <polygon class="fil2" points="5011,13541 5011,15874 1961,15874 1540,15419 1540,13541 "/>
    <polygon class="fil1" points="1541,13995 5011,13995 5011,13236 1541,13236 "/>
    <polygon class="fil1" points="1956,14471 1777,14471 1777,14219 1956,14219 "/>
    <polygon class="fil1" points="2289,14471 2111,14471 2111,14219 2289,14219 "/>
    <polygon class="fil1" points="2615,14471 2437,14471 2437,14219 2615,14219 "/>
    <polygon class="fil1" points="2924,14471 2745,14471 2745,14219 2924,14219 "/>
    <polygon class="fil1" points="3239,14471 3060,14471 3060,14219 3239,14219 "/>
    <polygon class="fil1" points="3557,14471 3379,14471 3379,14219 3557,14219 "/>
    <polygon class="fil1" points="3890,14471 3712,14471 3712,14219 3890,14219 "/>
    <polygon class="fil1" points="4216,14471 4038,14471 4038,14219 4216,14219 "/>
    <polygon class="fil1" points="4525,14471 4347,14471 4347,14219 4525,14219 "/>
    <polygon class="fil1" points="4840,14471 4662,14471 4662,14219 4840,14219 "/>
    <polygon class="fil1" points="1956,14914 1777,14914 1777,14663 1956,14663 "/>
    <polygon class="fil1" points="2289,14914 2111,14914 2111,14663 2289,14663 "/>
    <polygon class="fil1" points="2615,14914 2437,14914 2437,14663 2615,14663 "/>
    <polygon class="fil1" points="2924,14914 2745,14914 2745,14663 2924,14663 "/>
    <polygon class="fil1" points="3239,14914 3060,14914 3060,14663 3239,14663 "/>
    <polygon class="fil1" points="3557,14914 3379,14914 3379,14663 3557,14663 "/>
    <polygon class="fil1" points="3890,14914 3712,14914 3712,14663 3890,14663 "/>
    <polygon class="fil1" points="4216,14914 4038,14914 4038,14663 4216,14663 "/>
    <polygon class="fil1" points="4525,14914 4347,14914 4347,14663 4525,14663 "/>
    <polygon class="fil1" points="4840,14914 4662,14914 4662,14663 4840,14663 "/>
    <polygon class="fil1" points="1956,15350 1777,15350 1777,15099 1956,15099 "/>
    <polygon class="fil1" points="2289,15350 2111,15350 2111,15099 2289,15099 "/>
    <polygon class="fil1" points="2615,15350 2437,15350 2437,15099 2615,15099 "/>
    <polygon class="fil1" points="2924,15350 2745,15350 2745,15099 2924,15099 "/>
    <polygon class="fil1" points="3239,15350 3060,15350 3060,15099 3239,15099 "/>
    <polygon class="fil1" points="3557,15350 3379,15350 3379,15099 3557,15099 "/>
    <polygon class="fil1" points="3890,15350 3712,15350 3712,15099 3890,15099 "/>
    <polygon class="fil1" points="4216,15350 4038,15350 4038,15099 4216,15099 "/>
    <polygon class="fil1" points="4525,15350 4347,15350 4347,15099 4525,15099 "/>
    <polygon class="fil1" points="4840,15350 4662,15350 4662,15099 4840,15099 "/>
    <polygon class="fil5" points="1956,13708 1806,13708 1806,13449 1956,13449 "/>
    <polygon class="fil5" points="3443,13708 3293,13708 3293,13449 3443,13449 "/>
    <polygon class="fil5" points="4625,13708 4476,13708 4476,13449 4625,13449 "/>
    <path class="fil2" d="M1315 13541l0 1460c-112,-273 -165,-568 -165,-876 0,-14 0,-30 1,-46 0,-28 2,-57 2,-84 1,-25 3,-49 4,-74 7,-90 17,-179 32,-269 0,-3 1,-6 1,-9 3,-14 6,-30 8,-46 2,-19 7,-38 11,-56l106 0z"/>
    <path class="fil1" d="M1315 13235l0 760 -162 0c1,-25 3,-49 4,-74 7,-90 17,-179 32,-269 0,-3 1,-6 1,-9 3,-14 6,-30 8,-46 2,-19 7,-38 11,-56 13,-67 29,-134 46,-201 3,-16 8,-32 12,-48 6,-19 10,-38 17,-57l31 0z"/>
    <path class="fil7" d="M32690 15850l0 0c37,-76 93,-194 157,-330 42,-91 90,-196 140,-315 -51,119 -98,224 -141,315 -64,136 -119,254 -156,330zm565 -1352c8,-24 16,-48 24,-72 10,-32 20,-64 30,-95 24,-75 48,-151 71,-229 -23,78 -46,155 -70,229 -10,32 -20,64 -31,95 -8,24 -16,48 -24,72l0 0zm232 -786c2,-9 4,-18 7,-27 -2,9 -5,18 -7,27l0 0zm78 -331c7,-36 15,-72 22,-108l1 -3 -1 3c-7,36 -15,72 -22,108l0 0zm35 -170c0,-1 0,-2 0,-3 13,-65 25,-130 37,-197 -12,67 -24,133 -37,197 0,1 0,2 0,3l0 0z"/>
    <path class="fil8" d="M32671 15890l-9591 0 0 -15 218 0 0 -1880 0 -584c852,308 1794,545 2689,545 657,0 1289,-128 1841,-449 1096,-638 2459,-890 3652,-890 866,0 1644,132 2165,347 -3,16 -6,32 -8,47 -12,67 -24,132 -37,197 0,1 0,2 0,3 -4,17 -7,35 -11,52l-1 7 -1 3c-7,36 -15,72 -22,108 -3,12 -6,25 -9,37 -19,87 -39,172 -59,255 -1,4 -2,8 -3,12 -3,9 -5,18 -7,27 0,2 -1,4 -1,6 -34,133 -69,261 -106,384 -23,78 -47,154 -71,229 -10,31 -20,63 -30,95 -8,24 -16,48 -24,72 -20,58 -39,115 -59,170 -20,56 -40,109 -60,162 -51,136 -101,262 -149,375 -51,119 -98,224 -141,315 -64,136 -119,254 -156,330 -7,15 -13,29 -19,40zm-10076 0l-506 0 0 -15 506 0 0 15zm-1086 -3260l-539 0 0 -279c155,82 336,177 539,279z"/>
    <path class="fil9" d="M19828 13595l-2766 0 0 -425 -102 0 0 -555c53,4 107,6 161,6 261,0 538,-44 823,-106l115 0 0 -26c53,-13 107,-25 160,-39l0 65 218 0 0 -119c37,-9 73,-19 110,-28 19,-5 38,-10 58,-15l0 162 218 0 0 -217c57,-14 114,-27 171,-41l0 258 218 0 0 -305c274,-56 546,-95 808,-95 217,0 428,27 629,92l-85 0 0 308 218 0 0 -258c42,18 84,38 126,60 20,11 41,22 62,34l0 279 -1142 0 0 965zm351 -1388l0 308 218 0 0 -308 -218 0zm-378 0l0 308 218 0 0 -308 -218 0zm-399 0l0 308 218 0 0 -308 -218 0z"/>
    <path class="fil10" d="M18059 12515l-115 0c38,-9 77,-17 115,-26l0 26z"/>
    <path class="fil10" d="M18437 12515l-218 0 0 -65c73,-17 145,-36 218,-54l0 119z"/>
    <path class="fil10" d="M18823 12515l-218 0 0 -162c72,-18 145,-37 218,-55l0 217z"/>
    <path class="fil10" d="M19212 12515l-218 0 0 -258c73,-16 146,-32 218,-47l0 305z"/>
    <polygon class="fil10" points="19620,12515 19402,12515 19402,12207 19620,12207 "/>
    <polygon class="fil10" points="20019,12515 19801,12515 19801,12207 20019,12207 "/>
    <polygon class="fil10" points="20397,12515 20179,12515 20179,12207 20397,12207 "/>
    <path class="fil10" d="M20782 12515l-218 0 0 -308 85 0c45,15 89,32 133,50l0 258z"/>
    <polygon class="fil1" points="22089,15890 17062,15890 17062,13595 19828,13595 19828,15875 22089,15875 "/>
    <polygon class="fil11" points="17062,15890 16960,15890 16960,13170 17062,13170 17062,13595 "/>
    <path class="fil11" d="M23080 15890l-485 0 0 -15 485 0 0 15zm-241 -2654l-229 0 0 -94c75,31 152,63 229,94z"/>
    <path class="fil9" d="M19828 15875l0 0 0 -2280 0 -965 1142 0 539 0c320,162 693,340 1101,512l0 94 -2782 0 0 305 0 2334z"/>
    <path class="fil9" d="M23298 15875l-218 0 -485 0 -506 0 -2261 0 0 -2334 0 454 3470 0 0 1880zm-349 -776l0 251 178 0 0 -251 -178 0zm-315 0l0 251 178 0 0 -251 -178 0zm-309 0l0 251 178 0 0 -251 -178 0zm-326 0l0 251 178 0 0 -251 -178 0zm-333 0l0 251 178 0 0 -251 -178 0zm-319 0l0 251 179 0 0 -251 -179 0zm-315 0l0 251 179 0 0 -251 -179 0zm-309 0l0 251 179 0 0 -251 -179 0zm-325 0l0 251 178 0 0 -251 -178 0zm-334 0l0 251 179 0 0 -251 -179 0zm2885 -436l0 251 178 0 0 -251 -178 0zm-315 0l0 251 178 0 0 -251 -178 0zm-309 0l0 251 178 0 0 -251 -178 0zm-326 0l0 251 178 0 0 -251 -178 0zm-333 0l0 251 178 0 0 -251 -178 0zm-319 0l0 251 179 0 0 -251 -179 0zm-315 0l0 251 179 0 0 -251 -179 0zm-309 0l0 251 179 0 0 -251 -179 0zm-325 0l0 251 178 0 0 -251 -178 0zm-334 0l0 251 179 0 0 -251 -179 0zm2885 -444l0 252 178 0 0 -252 -178 0zm-315 0l0 252 178 0 0 -252 -178 0zm-309 0l0 252 178 0 0 -252 -178 0zm-326 0l0 252 178 0 0 -252 -178 0zm-333 0l0 252 178 0 0 -252 -178 0zm-319 0l0 252 179 0 0 -252 -179 0zm-315 0l0 252 179 0 0 -252 -179 0zm-309 0l0 252 179 0 0 -252 -179 0zm-325 0l0 252 178 0 0 -252 -178 0zm-334 0l0 252 179 0 0 -252 -179 0z"/>
    <path class="fil1" d="M23298 13995l0 0 -3470 0 0 -454 0 -305 2782 0 229 0c150,60 303,119 459,175l0 584zm-535 -546l0 259 149 0 0 -259 -149 0zm-1183 0l0 259 150 0 0 -259 -150 0zm-1487 0l0 259 150 0 0 -259 -150 0z"/>
    <polygon class="fil1" points="20243,14471 20064,14471 20064,14219 20243,14219 "/>
    <polygon class="fil1" points="20576,14471 20398,14471 20398,14219 20576,14219 "/>
    <polygon class="fil1" points="20902,14471 20723,14471 20723,14219 20902,14219 "/>
    <polygon class="fil1" points="21211,14471 21032,14471 21032,14219 21211,14219 "/>
    <polygon class="fil1" points="21526,14471 21347,14471 21347,14219 21526,14219 "/>
    <polygon class="fil1" points="21844,14471 21666,14471 21666,14219 21844,14219 "/>
    <polygon class="fil1" points="22177,14471 21999,14471 21999,14219 22177,14219 "/>
    <polygon class="fil1" points="22503,14471 22325,14471 22325,14219 22503,14219 "/>
    <polygon class="fil1" points="22812,14471 22634,14471 22634,14219 22812,14219 "/>
    <polygon class="fil1" points="23127,14471 22949,14471 22949,14219 23127,14219 "/>
    <polygon class="fil1" points="20243,14914 20064,14914 20064,14663 20243,14663 "/>
    <polygon class="fil1" points="20576,14914 20398,14914 20398,14663 20576,14663 "/>
    <polygon class="fil1" points="20902,14914 20723,14914 20723,14663 20902,14663 "/>
    <polygon class="fil1" points="21211,14914 21032,14914 21032,14663 21211,14663 "/>
    <polygon class="fil1" points="21526,14914 21347,14914 21347,14663 21526,14663 "/>
    <polygon class="fil1" points="21844,14914 21666,14914 21666,14663 21844,14663 "/>
    <polygon class="fil1" points="22177,14914 21999,14914 21999,14663 22177,14663 "/>
    <polygon class="fil1" points="22503,14914 22325,14914 22325,14663 22503,14663 "/>
    <polygon class="fil1" points="22812,14914 22634,14914 22634,14663 22812,14663 "/>
    <polygon class="fil1" points="23127,14914 22949,14914 22949,14663 23127,14663 "/>
    <polygon class="fil1" points="20243,15350 20064,15350 20064,15099 20243,15099 "/>
    <polygon class="fil1" points="20576,15350 20398,15350 20398,15099 20576,15099 "/>
    <polygon class="fil1" points="20902,15350 20723,15350 20723,15099 20902,15099 "/>
    <polygon class="fil1" points="21211,15350 21032,15350 21032,15099 21211,15099 "/>
    <polygon class="fil1" points="21526,15350 21347,15350 21347,15099 21526,15099 "/>
    <polygon class="fil1" points="21844,15350 21666,15350 21666,15099 21844,15099 "/>
    <polygon class="fil1" points="22177,15350 21999,15350 21999,15099 22177,15099 "/>
    <polygon class="fil1" points="22503,15350 22325,15350 22325,15099 22503,15099 "/>
    <polygon class="fil1" points="22812,15350 22634,15350 22634,15099 22812,15099 "/>
    <polygon class="fil1" points="23127,15350 22949,15350 22949,15099 23127,15099 "/>
    <polygon class="fil11" points="20243,13708 20093,13708 20093,13449 20243,13449 "/>
    <polygon class="fil11" points="21730,13708 21580,13708 21580,13449 21730,13449 "/>
    <polygon class="fil11" points="22912,13708 22763,13708 22763,13449 22912,13449 "/>
    <path class="fil12" d="M33875 15942l-33837 0c-21,0 -38,-17 -38,-39l0 -13c0,-21 17,-38 38,-38l33837 0c21,0 38,17 38,38l0 13c0,22 -17,39 -38,39z"/>
    <path class="fil13" d="M31014 15852l-1115 0c-60,-51 41,-166 147,-174 46,-3 104,7 170,21 16,-204 103,-1120 433,-1084 372,42 0,404 -104,618 -78,159 -160,387 -198,495 30,6 62,12 93,18 50,-151 233,-659 466,-629 273,34 163,238 -30,359 -143,89 -317,215 -400,276 70,12 143,20 218,18 191,-5 284,52 320,82z"/>
    <path class="fil13" d="M3355 15805c-53,-82 -210,-296 -420,-267 -229,30 252,181 400,268 -33,0 -61,-2 -82,-10 -98,-35 -267,32 -321,56l938 0c-7,-22 -23,-59 -67,-86 -16,-9 -46,-11 -86,-8 55,-65 94,-275 -61,-221 -114,39 -113,168 -102,244 -24,3 -49,7 -73,11 -47,-238 -212,-936 -547,-954 -339,-19 288,723 497,960 -27,3 -52,6 -76,7z"/>
    <path class="fil14" d="M30825 12607c-210,0 -380,-170 -380,-380 0,-209 170,-380 380,-380 210,0 380,171 380,380 0,210 -170,380 -380,380zm0 -1184c-449,0 -813,364 -813,813 0,449 813,1447 813,1447 0,0 813,-998 813,-1447 0,-449 -364,-813 -813,-813z"/>
    <path class="fil15" d="M3890 12995c-115,0 -208,-93 -208,-208 0,-115 93,-208 208,-208 115,0 208,93 208,208 0,115 -93,208 -208,208zm0 -649c-246,0 -445,200 -445,445 0,246 445,793 445,793 0,0 445,-547 445,-793 0,-245 -199,-445 -445,-445z"/>
    <path class="fil13" d="M8418 15852c0,0 319,-952 1233,-1136 914,-183 1591,533 2405,254 815,-279 2099,-1756 3626,-677 1528,1079 1428,1387 2392,1135 963,-252 1184,424 1184,424l-10840 0z"/>
    <path class="fil13" d="M9356 14956c0,0 -666,-699 -1007,-512 -341,188 1007,512 1007,512z"/>
    <path class="fil13" d="M9186 15133c0,0 -614,-200 -768,-100 -154,100 768,100 768,100z"/>
    <path class="fil13" d="M11142 15069c0,0 422,-948 568,-775 147,172 -568,775 -568,775z"/>
    <path class="fil13" d="M11038 15005c0,0 172,-694 -86,-651 -259,43 86,651 86,651z"/>
    <polygon class="fil16" points="25325,8995 25325,8995 25325,9155 "/>
    <path class="fil0" d="M22515 15852c0,0 1213,-306 1555,-675 342,-370 638,49 416,283 -222,234 -1971,392 -1971,392z"/>
    <path class="fil0" d="M27331 15030l-1700 0c-41,0 -76,-34 -76,-76 0,-42 35,-76 76,-76l1700 0c42,0 77,34 77,76 0,42 -35,76 -77,76z"/>
    <path class="fil0" d="M26521 14690l-924 0c-23,0 -42,-18 -42,-41 0,-23 19,-41 42,-41l924 0c23,0 42,18 42,41 0,23 -19,41 -42,41z"/>
   </g>
   <circle class="fil17" cx="17624" cy="6663" r="25"/>
  </g>
 </g>
</svg>
