<?xml version="1.0" encoding="UTF-8"?>
<!DOCTYPE svg PUBLIC "-//W3C//DTD SVG 1.1//EN" "http://www.w3.org/Graphics/SVG/1.1/DTD/svg11.dtd">
<!-- Creator: CorelDRAW X7 -->
<svg xmlns="http://www.w3.org/2000/svg" xml:space="preserve" width="334.927mm" height="157.586mm" version="1.1" style="shape-rendering:geometricPrecision; text-rendering:geometricPrecision; image-rendering:optimizeQuality; fill-rule:evenodd; clip-rule:evenodd"
viewBox="0 0 33913 15956"
 xmlns:xlink="http://www.w3.org/1999/xlink">
 <defs>
  <style type="text/css">
   <![CDATA[
    .fil52 {fill:#FEFEFE}
    .fil17 {fill:#2B2A29}
    .fil38 {fill:#0F0F0F}
    .fil33 {fill:#161917}
    .fil29 {fill:#24211C}
    .fil18 {fill:#249431}
    .fil44 {fill:#29201D}
    .fil12 {fill:#2E3552}
    .fil19 {fill:#2FBF40}
    .fil40 {fill:#303633}
    .fil47 {fill:#3E3525}
    .fil42 {fill:#43433B}
    .fil22 {fill:#4D483D}
    .fil15 {fill:#699FF0}
    .fil34 {fill:#798EA0}
    .fil36 {fill:#879B9D}
    .fil37 {fill:#93A8AA}
    .fil39 {fill:#9FA335}
    .fil35 {fill:#9FB8CE}
    .fil32 {fill:#9FBFD4}
    .fil13 {fill:#A8D29F}
    .fil5 {fill:#ADC9E0}
    .fil46 {fill:#AE854C}
    .fil48 {fill:#B57536}
    .fil11 {fill:#B6CFE5}
    .fil30 {fill:#C2BEC1}
    .fil1 {fill:#C4D9ED}
    .fil10 {fill:#C6DBEE}
    .fil4 {fill:#C7DCEF}
    .fil9 {fill:#CEE1F3}
    .fil2 {fill:#D5E7F7}
    .fil45 {fill:#D9B67E}
    .fil23 {fill:#D9CFBD}
    .fil3 {fill:#DCEAF9}
    .fil8 {fill:#DDE9F8}
    .fil41 {fill:#DFECF5}
    .fil16 {fill:#E5BCA1}
    .fil50 {fill:#E6E6E6}
    .fil7 {fill:#E7F0F8}
    .fil25 {fill:#E8E8E8}
    .fil24 {fill:#EBE0CC}
    .fil6 {fill:#EBF2F9}
    .fil0 {fill:#EDF4FF}
    .fil27 {fill:#F77B16}
    .fil14 {fill:#F99746}
    .fil20 {fill:#FCA465}
    .fil28 {fill:#FF6430}
    .fil26 {fill:#FFAB66}
    .fil49 {fill:#FFC59C}
    .fil51 {fill:#FFC59C}
    .fil43 {fill:#FFDA40}
    .fil31 {fill:#FFF6F8}
    .fil21 {fill:white}
   ]]>
  </style>
 </defs>
 <g id="Layer_x0020_1">
  <metadata id="CorelCorpID_0Corel-Layer"/>
  <g id="_536307496">
   <g>
    <g>
     <path class="fil0" d="M33768 11683c-2,71 -3,142 -7,211 -3,70 -6,138 -12,207 -20,298 -56,588 -104,864 -15,82 -29,163 -45,243 -3,19 -7,37 -10,55l-3 10c-10,49 -20,97 -30,146 -19,85 -39,171 -60,253 -4,16 -8,31 -11,47 -55,217 -115,421 -177,612 -10,31 -20,63 -30,95 -28,84 -55,164 -83,242 -20,56 -40,110 -59,162 -105,280 -208,513 -291,690 -76,163 -141,301 -175,370 -14,31 -23,48 -23,48 0,0 -16041,3 -24895,4 -3375,0 -5706,0 -5706,0 0,-1 -2,-1 -2,-1 -20,-16 -39,-31 -57,-46 -2,0 -2,0 -2,0 -9,-8 -17,-13 -25,-21l-421 -455c-92,-132 -167,-272 -225,-418 -112,-273 -165,-568 -165,-876 0,-14 0,-30 1,-46 0,-28 2,-57 2,-84 1,-25 3,-49 4,-74 7,-90 17,-179 32,-269 0,-3 1,-6 1,-9 3,-14 6,-30 8,-46 2,-19 7,-38 11,-56 13,-67 29,-134 46,-201 3,-16 8,-32 12,-48 6,-19 10,-38 17,-57 16,-59 37,-118 57,-179 39,-116 85,-232 137,-349 3,-8 7,-18 12,-27 48,-106 100,-210 156,-316 85,-159 182,-316 288,-473 23,-33 46,-66 69,-98 118,-167 246,-330 387,-491 169,-195 354,-387 554,-572 45,-42 90,-83 134,-123 11,-9 21,-18 31,-28 26,-22 52,-45 78,-67 110,-95 217,-185 323,-272 53,-43 105,-85 157,-127 103,-82 203,-163 298,-242 294,-241 554,-468 760,-724 71,-87 134,-178 191,-272 103,-173 182,-359 234,-570 12,-54 23,-109 32,-165 26,-154 39,-320 35,-502 -2,-144 -13,-298 -35,-463 -4,-35 -10,-71 -16,-109 -30,-204 -77,-425 -139,-667 -17,-68 -36,-137 -56,-208 -35,-123 -62,-245 -84,-363 -42,-230 -59,-452 -57,-667 2,-196 21,-385 57,-567l0 -3c32,-174 78,-342 134,-504 693,-1970 3052,-3135 3678,-3395 893,-372 1951,-581 3049,-657 89,-6 179,-12 269,-16 253,-13 509,-19 764,-19 104,0 207,1 309,3 172,4 343,10 515,20 159,9 317,19 475,32 654,55 1292,148 1885,272 540,113 1026,255 1468,418 0,0 0,0 2,2 1045,386 1835,891 2465,1416 146,121 285,245 416,367 17,16 36,34 53,51 41,38 80,75 119,114 17,18 36,35 53,53 115,114 224,228 329,339 52,57 104,113 154,168 275,304 518,588 750,832 29,32 58,61 87,91 398,405 767,680 1218,711 284,19 615,-29 987,-102 37,-7 73,-14 111,-23 572,-114 1237,-276 1976,-344 955,-88 2036,-19 3202,511 38,17 74,34 112,52 170,82 343,173 516,276 36,20 72,42 109,64 176,108 355,228 536,361 5,3 9,6 13,11 79,56 157,117 235,179 91,72 184,148 276,227 223,193 450,404 677,638 165,169 318,340 457,514 97,118 188,239 272,359 16,21 31,43 47,65 144,212 275,427 390,642 13,26 28,54 42,80 152,298 278,597 378,895 9,26 17,51 26,76 43,134 81,269 116,403 46,184 84,366 114,548 78,465 106,922 97,1362z"/>
     <path class="fil1" d="M7213 4594l0 9877 -2031 0 0 -6331c26,-154 39,-320 35,-502 -2,-144 -13,-298 -35,-463l0 -2581 2031 0z"/>
     <path class="fil2" d="M6756 4594l0 9877 -2031 0 0 -5324c71,-87 134,-178 191,-272 103,-173 182,-359 234,-570 12,-54 23,-109 32,-165 26,-154 39,-320 35,-502 -2,-144 -13,-298 -35,-463 -4,-35 -10,-71 -16,-109 -30,-204 -77,-425 -139,-667 -17,-68 -36,-137 -56,-208 -35,-123 -62,-245 -84,-363 -42,-230 -59,-452 -57,-667 2,-196 21,-385 57,-567l1869 0z"/>
     <path class="fil1" d="M4887 4594c-36,182 -55,371 -57,567l352 0 1574 0 0 -567 0 -3 -1869 0 0 3z"/>
     <path class="fil1" d="M6756 5828l0 571 -1729 0c-17,-68 -36,-137 -56,-208 -35,-123 -62,-245 -84,-363l1869 0z"/>
     <path class="fil1" d="M6756 7066l0 572 -1539 0c-2,-144 -13,-298 -35,-463 -4,-35 -10,-71 -16,-109l1590 0z"/>
     <path class="fil1" d="M6756 8305l0 570 -1840 0c103,-173 182,-359 234,-570l1606 0z"/>
     <polygon class="fil1" points="6756,10113 4725,10113 4725,9542 6756,9542 "/>
     <polygon class="fil1" points="6756,11351 4725,11351 4725,10780 6756,10780 "/>
     <polygon class="fil1" points="6756,12589 4725,12589 4725,12018 6756,12018 "/>
     <polygon class="fil1" points="6756,13827 4725,13827 4725,13256 6756,13256 "/>
     <path class="fil1" d="M3965 9871l0 4600 -2031 0 0 -2580c23,-33 46,-66 69,-98 118,-167 246,-330 387,-491 169,-195 354,-387 554,-572 45,-42 90,-83 134,-123 11,-9 21,-18 31,-28 26,-22 52,-45 78,-67 110,-95 217,-185 323,-272 53,-43 105,-85 157,-127 103,-82 203,-163 298,-242z"/>
     <path class="fil2" d="M3510 10240l0 4231 -2032 0 0 -1764c3,-8 7,-18 12,-27 48,-106 100,-210 156,-316 85,-159 182,-316 288,-473 23,-33 46,-66 69,-98 118,-167 246,-330 387,-491 169,-195 354,-387 554,-572 45,-42 90,-83 134,-123 11,-9 21,-18 31,-28 26,-22 52,-45 78,-67 110,-95 217,-185 323,-272z"/>
     <path class="fil1" d="M3510 10240l0 490 -566 0c45,-42 90,-83 134,-123 11,-9 21,-18 31,-28 26,-22 52,-45 78,-67 110,-95 217,-185 323,-272z"/>
     <path class="fil1" d="M3510 11302l0 491 -1507 0c118,-167 246,-330 387,-491l1120 0z"/>
     <path class="fil1" d="M3510 12364l0 491 -2032 0 0 -148c3,-8 7,-18 12,-27 48,-106 100,-210 156,-316l1864 0z"/>
     <polygon class="fil1" points="3509,13918 1478,13918 1478,13428 3509,13428 "/>
     <polygon class="fil3" points="8312,15408 7462,15408 7462,14168 8312,14168 "/>
     <polygon class="fil2" points="19976,9238 19976,8472 19744,8472 19744,7154 18497,7154 18497,8472 17331,8472 17331,6325 16045,6325 16045,7719 15752,7719 15752,6055 14465,6055 14465,9174 12839,9174 12839,10993 12231,10993 12231,11451 10834,11451 10834,10662 10033,10662 10033,8518 9043,8518 9043,12476 8052,12476 8052,15919 9043,15919 9891,15919 10033,15919 10834,15919 11288,15919 12013,15919 12231,15919 12839,15919 13410,15919 14465,15919 14789,15919 15432,15919 15752,15919 16045,15919 16718,15919 17177,15919 17331,15919 18497,15919 19723,15919 19744,15919 19976,15919 20970,15919 20970,9238 "/>
     <polygon class="fil1" points="15752,6584 14465,6584 14465,6266 15752,6266 "/>
     <polygon class="fil1" points="15752,7181 14465,7181 14465,6863 15752,6863 "/>
     <polygon class="fil1" points="15752,7718 14465,7718 14465,7400 15752,7400 "/>
     <polygon class="fil1" points="17331,7718 16044,7718 16044,7400 17331,7400 "/>
     <polygon class="fil1" points="17331,7181 16044,7181 16044,6863 17331,6863 "/>
     <polygon class="fil1" points="17331,6644 16044,6644 16044,6326 17331,6326 "/>
     <polygon class="fil1" points="17331,8238 14465,8238 14465,7921 17331,7921 "/>
     <polygon class="fil1" points="17331,8759 14465,8759 14465,8441 17331,8441 "/>
     <polygon class="fil1" points="10042,9009 9043,9009 9043,8518 10042,8518 "/>
     <polygon class="fil1" points="10042,9738 9043,9738 9043,9248 10042,9248 "/>
     <polygon class="fil1" points="10042,10468 9043,10468 9043,9977 10042,9977 "/>
     <polygon class="fil1" points="10042,11232 9043,11232 9043,10742 10042,10742 "/>
     <polygon class="fil1" points="10042,11973 9043,11973 9043,11483 10042,11483 "/>
     <polygon class="fil1" points="10042,12714 9043,12714 9043,12224 10042,12224 "/>
     <polygon class="fil1" points="10042,13490 9043,13490 9043,12999 10042,12999 "/>
     <polygon class="fil1" points="17331,9152 14465,9152 14465,8950 17331,8950 "/>
     <polygon class="fil1" points="10028,8518 10028,10662 10397,10662 10397,8518 "/>
     <polygon class="fil1" points="10834,10662 11575,10662 11575,11451 10834,11451 "/>
     <polygon class="fil1" points="17331,6326 17587,6326 17587,8472 17331,8472 "/>
     <polygon class="fil1" points="15752,6055 15909,6055 15909,7718 15752,7718 "/>
     <polygon class="fil4" points="13104,9487 13323,9487 13323,9794 13104,9794 "/>
     <polygon class="fil4" points="13730,9794 13512,9794 13512,9487 13730,9487 "/>
     <polygon class="fil4" points="14129,9794 13911,9794 13911,9487 14129,9487 "/>
     <polygon class="fil4" points="14507,9794 14289,9794 14289,9487 14507,9487 "/>
     <polygon class="fil4" points="14892,9794 14674,9794 14674,9487 14892,9487 "/>
     <polygon class="fil4" points="15282,9794 15064,9794 15064,9487 15282,9487 "/>
     <polygon class="fil4" points="15690,9794 15472,9794 15472,9487 15690,9487 "/>
     <polygon class="fil4" points="16088,9794 15870,9794 15870,9487 16088,9487 "/>
     <polygon class="fil4" points="16466,9794 16248,9794 16248,9487 16466,9487 "/>
     <polygon class="fil4" points="16851,9794 16633,9794 16633,9487 16851,9487 "/>
     <polygon class="fil4" points="17253,9794 17035,9794 17035,9487 17253,9487 "/>
     <polygon class="fil4" points="17661,9794 17443,9794 17443,9487 17661,9487 "/>
     <polygon class="fil4" points="18059,9794 17841,9794 17841,9487 18059,9487 "/>
     <polygon class="fil4" points="18437,9794 18219,9794 18219,9487 18437,9487 "/>
     <polygon class="fil4" points="18823,9794 18605,9794 18605,9487 18823,9487 "/>
     <polygon class="fil4" points="19212,9794 18994,9794 18994,9487 19212,9487 "/>
     <polygon class="fil4" points="19620,9794 19402,9794 19402,9487 19620,9487 "/>
     <polygon class="fil4" points="20019,9794 19801,9794 19801,9487 20019,9487 "/>
     <polygon class="fil4" points="20397,9794 20179,9794 20179,9487 20397,9487 "/>
     <polygon class="fil4" points="20782,9794 20564,9794 20564,9487 20782,9487 "/>
     <polygon class="fil4" points="13323,10337 13104,10337 13104,10029 13323,10029 "/>
     <polygon class="fil4" points="13730,10337 13512,10337 13512,10029 13730,10029 "/>
     <polygon class="fil4" points="14129,10337 13911,10337 13911,10029 14129,10029 "/>
     <polygon class="fil4" points="14507,10337 14289,10337 14289,10029 14507,10029 "/>
     <polygon class="fil4" points="14892,10337 14674,10337 14674,10029 14892,10029 "/>
     <polygon class="fil4" points="15282,10337 15064,10337 15064,10029 15282,10029 "/>
     <polygon class="fil4" points="15690,10337 15472,10337 15472,10029 15690,10029 "/>
     <polygon class="fil4" points="16088,10337 15870,10337 15870,10029 16088,10029 "/>
     <polygon class="fil4" points="16466,10337 16248,10337 16248,10029 16466,10029 "/>
     <polygon class="fil4" points="16851,10337 16633,10337 16633,10029 16851,10029 "/>
     <polygon class="fil4" points="17253,10337 17035,10337 17035,10029 17253,10029 "/>
     <polygon class="fil4" points="17661,10337 17443,10337 17443,10029 17661,10029 "/>
     <polygon class="fil4" points="18059,10337 17841,10337 17841,10029 18059,10029 "/>
     <polygon class="fil4" points="18437,10337 18219,10337 18219,10029 18437,10029 "/>
     <polygon class="fil4" points="18823,10337 18605,10337 18605,10029 18823,10029 "/>
     <polygon class="fil4" points="19212,10337 18994,10337 18994,10029 19212,10029 "/>
     <polygon class="fil4" points="19620,10337 19402,10337 19402,10029 19620,10029 "/>
     <polygon class="fil4" points="20019,10337 19801,10337 19801,10029 20019,10029 "/>
     <polygon class="fil4" points="20397,10337 20179,10337 20179,10029 20397,10029 "/>
     <polygon class="fil4" points="20782,10337 20564,10337 20564,10029 20782,10029 "/>
     <polygon class="fil4" points="13323,10871 13104,10871 13104,10563 13323,10563 "/>
     <polygon class="fil4" points="13730,10871 13512,10871 13512,10563 13730,10563 "/>
     <polygon class="fil4" points="14129,10871 13911,10871 13911,10563 14129,10563 "/>
     <polygon class="fil4" points="14507,10871 14289,10871 14289,10563 14507,10563 "/>
     <polygon class="fil4" points="14892,10871 14674,10871 14674,10563 14892,10563 "/>
     <polygon class="fil4" points="15282,10871 15064,10871 15064,10563 15282,10563 "/>
     <polygon class="fil4" points="15690,10871 15472,10871 15472,10563 15690,10563 "/>
     <polygon class="fil4" points="16088,10871 15870,10871 15870,10563 16088,10563 "/>
     <polygon class="fil4" points="16466,10871 16248,10871 16248,10563 16466,10563 "/>
     <polygon class="fil4" points="16851,10871 16633,10871 16633,10563 16851,10563 "/>
     <polygon class="fil4" points="17253,10871 17035,10871 17035,10563 17253,10563 "/>
     <polygon class="fil4" points="17661,10871 17443,10871 17443,10563 17661,10563 "/>
     <polygon class="fil4" points="18059,10871 17841,10871 17841,10563 18059,10563 "/>
     <polygon class="fil4" points="18437,10871 18219,10871 18219,10563 18437,10563 "/>
     <polygon class="fil4" points="18823,10871 18605,10871 18605,10563 18823,10563 "/>
     <polygon class="fil4" points="19212,10871 18994,10871 18994,10563 19212,10563 "/>
     <polygon class="fil4" points="19620,10871 19402,10871 19402,10563 19620,10563 "/>
     <polygon class="fil4" points="20019,10871 19801,10871 19801,10563 20019,10563 "/>
     <polygon class="fil4" points="20397,10871 20179,10871 20179,10563 20397,10563 "/>
     <polygon class="fil4" points="20782,10871 20564,10871 20564,10563 20782,10563 "/>
     <polygon class="fil4" points="13323,11438 13104,11438 13104,11131 13323,11131 "/>
     <polygon class="fil4" points="13730,11438 13512,11438 13512,11131 13730,11131 "/>
     <polygon class="fil4" points="14129,11438 13911,11438 13911,11131 14129,11131 "/>
     <polygon class="fil4" points="14507,11438 14289,11438 14289,11131 14507,11131 "/>
     <polygon class="fil4" points="14892,11438 14674,11438 14674,11131 14892,11131 "/>
     <polygon class="fil4" points="15282,11438 15064,11438 15064,11131 15282,11131 "/>
     <polygon class="fil4" points="15690,11438 15472,11438 15472,11131 15690,11131 "/>
     <polygon class="fil4" points="16088,11438 15870,11438 15870,11131 16088,11131 "/>
     <polygon class="fil4" points="16466,11438 16248,11438 16248,11131 16466,11131 "/>
     <polygon class="fil4" points="16851,11438 16633,11438 16633,11131 16851,11131 "/>
     <polygon class="fil4" points="17253,11438 17035,11438 17035,11131 17253,11131 "/>
     <polygon class="fil4" points="17661,11438 17443,11438 17443,11131 17661,11131 "/>
     <polygon class="fil4" points="18059,11438 17841,11438 17841,11131 18059,11131 "/>
     <polygon class="fil4" points="18437,11438 18219,11438 18219,11131 18437,11131 "/>
     <polygon class="fil4" points="18823,11438 18605,11438 18605,11131 18823,11131 "/>
     <polygon class="fil4" points="19212,11438 18994,11438 18994,11131 19212,11131 "/>
     <polygon class="fil4" points="19620,11438 19402,11438 19402,11131 19620,11131 "/>
     <polygon class="fil4" points="20019,11438 19801,11438 19801,11131 20019,11131 "/>
     <polygon class="fil4" points="20397,11438 20179,11438 20179,11131 20397,11131 "/>
     <polygon class="fil4" points="20782,11438 20564,11438 20564,11131 20782,11131 "/>
     <polygon class="fil4" points="13323,11981 13104,11981 13104,11673 13323,11673 "/>
     <polygon class="fil4" points="13730,11981 13512,11981 13512,11673 13730,11673 "/>
     <polygon class="fil4" points="14129,11981 13911,11981 13911,11673 14129,11673 "/>
     <polygon class="fil4" points="14507,11981 14289,11981 14289,11673 14507,11673 "/>
     <polygon class="fil4" points="14892,11981 14674,11981 14674,11673 14892,11673 "/>
     <polygon class="fil4" points="15282,11981 15064,11981 15064,11673 15282,11673 "/>
     <polygon class="fil4" points="15690,11981 15472,11981 15472,11673 15690,11673 "/>
     <polygon class="fil4" points="16088,11981 15870,11981 15870,11673 16088,11673 "/>
     <polygon class="fil4" points="16466,11981 16248,11981 16248,11673 16466,11673 "/>
     <polygon class="fil4" points="16851,11981 16633,11981 16633,11673 16851,11673 "/>
     <polygon class="fil4" points="17253,11981 17035,11981 17035,11673 17253,11673 "/>
     <polygon class="fil4" points="17661,11981 17443,11981 17443,11673 17661,11673 "/>
     <polygon class="fil4" points="18059,11981 17841,11981 17841,11673 18059,11673 "/>
     <polygon class="fil4" points="18437,11981 18219,11981 18219,11673 18437,11673 "/>
     <polygon class="fil4" points="18823,11981 18605,11981 18605,11673 18823,11673 "/>
     <polygon class="fil4" points="19212,11981 18994,11981 18994,11673 19212,11673 "/>
     <polygon class="fil4" points="19620,11981 19402,11981 19402,11673 19620,11673 "/>
     <polygon class="fil4" points="20019,11981 19801,11981 19801,11673 20019,11673 "/>
     <polygon class="fil4" points="20397,11981 20179,11981 20179,11673 20397,11673 "/>
     <polygon class="fil4" points="20782,11981 20564,11981 20564,11673 20782,11673 "/>
     <polygon class="fil4" points="13323,12515 13104,12515 13104,12207 13323,12207 "/>
     <polygon class="fil4" points="13730,12515 13512,12515 13512,12207 13730,12207 "/>
     <polygon class="fil4" points="14129,12515 13911,12515 13911,12207 14129,12207 "/>
     <polygon class="fil4" points="14507,12515 14289,12515 14289,12207 14507,12207 "/>
     <polygon class="fil4" points="14892,12515 14674,12515 14674,12207 14892,12207 "/>
     <polygon class="fil4" points="15282,12515 15064,12515 15064,12207 15282,12207 "/>
     <polygon class="fil4" points="15690,12515 15472,12515 15472,12207 15690,12207 "/>
     <polygon class="fil4" points="16088,12515 15870,12515 15870,12207 16088,12207 "/>
     <polygon class="fil4" points="16466,12515 16248,12515 16248,12207 16466,12207 "/>
     <polygon class="fil4" points="16851,12515 16633,12515 16633,12207 16851,12207 "/>
     <polygon class="fil4" points="17253,12515 17035,12515 17035,12207 17253,12207 "/>
     <polygon class="fil4" points="17661,12515 17443,12515 17443,12207 17661,12207 "/>
     <path class="fil4" d="M17944 12515l-103 0 0 -308 218 0 0 282c-38,9 -77,17 -115,26z"/>
     <path class="fil4" d="M18219 12450l0 -243 218 0 0 189c-73,18 -145,37 -218,54z"/>
     <path class="fil4" d="M18605 12353l0 -146 218 0 0 91c-73,18 -146,37 -218,55z"/>
     <path class="fil4" d="M18994 12257l0 -50 218 0 0 3c-72,15 -145,31 -218,47z"/>
     <path class="fil4" d="M20782 12257c-44,-18 -88,-35 -133,-50l133 0 0 50z"/>
     <polygon class="fil1" points="16630,15897 11575,15897 11575,13170 16630,13170 "/>
     <polygon class="fil1" points="12797,15897 7743,15897 7743,14534 12797,14534 "/>
     <polygon class="fil1" points="22089,15897 17035,15897 17035,13595 22089,13595 "/>
     <polygon class="fil2" points="12855,13995 11913,13995 11913,13490 12855,13490 "/>
     <polygon class="fil2" points="14063,13995 13122,13995 13122,13490 14063,13490 "/>
     <polygon class="fil2" points="15249,13995 14308,13995 14308,13490 15249,13490 "/>
     <polygon class="fil2" points="16412,13995 15471,13995 15471,13490 16412,13490 "/>
     <polygon class="fil5" points="17062,15920 16577,15920 16577,13170 17062,13170 "/>
     <polygon class="fil5" points="23080,15920 22595,15920 22595,12638 23080,12638 "/>
     <polygon class="fil5" points="22610,15875 22089,15875 22089,13595 22610,13595 "/>
     <path class="fil3" d="M21699 13731c-14,36 -46,57 -73,47 -27,-10 -38,-47 -25,-84 14,-36 113,-152 113,-152 0,0 -2,152 -15,189z"/>
     <path class="fil3" d="M21434 12840c-14,36 -46,57 -73,47 -27,-10 -38,-47 -25,-83 14,-36 113,-153 113,-153 0,0 -2,153 -15,189z"/>
     <path class="fil3" d="M20418 14183c-14,36 -46,57 -73,47 -27,-10 -38,-47 -24,-83 13,-36 112,-152 112,-152 0,0 -1,152 -15,188z"/>
     <path class="fil6" d="M21257 15654c0,0 -94,202 88,217 183,15 291,-59 335,-148 0,0 -226,94 -192,-20 35,-113 123,-295 123,-295 0,0 -192,345 -287,328 -43,-7 -67,-82 -67,-82z"/>
     <polygon class="fil3" points="9268,8518 9242,8518 9242,8305 9268,8305 "/>
     <polygon class="fil3" points="10212,8518 10186,8518 10186,8305 10212,8305 "/>
     <polygon class="fil2" points="19828,15875 22610,15875 22610,12630 19828,12630 "/>
     <polygon class="fil2" points="22423,12638 22372,12638 22372,11981 22423,11981 "/>
     <polygon class="fil2" points="19828,15875 23298,15875 23298,13541 19828,13541 "/>
     <polygon class="fil1" points="19828,13995 23298,13995 23298,13236 19828,13236 "/>
     <polygon class="fil1" points="20243,14471 20064,14471 20064,14219 20243,14219 "/>
     <polygon class="fil1" points="20576,14471 20398,14471 20398,14219 20576,14219 "/>
     <polygon class="fil1" points="20902,14471 20723,14471 20723,14219 20902,14219 "/>
     <polygon class="fil1" points="21211,14471 21032,14471 21032,14219 21211,14219 "/>
     <polygon class="fil1" points="21526,14471 21347,14471 21347,14219 21526,14219 "/>
     <polygon class="fil1" points="21844,14471 21666,14471 21666,14219 21844,14219 "/>
     <polygon class="fil1" points="22177,14471 21999,14471 21999,14219 22177,14219 "/>
     <polygon class="fil1" points="22503,14471 22325,14471 22325,14219 22503,14219 "/>
     <polygon class="fil1" points="22812,14471 22634,14471 22634,14219 22812,14219 "/>
     <polygon class="fil1" points="23127,14471 22949,14471 22949,14219 23127,14219 "/>
     <polygon class="fil1" points="20243,14914 20064,14914 20064,14663 20243,14663 "/>
     <polygon class="fil1" points="20576,14914 20398,14914 20398,14663 20576,14663 "/>
     <polygon class="fil1" points="20902,14914 20723,14914 20723,14663 20902,14663 "/>
     <polygon class="fil1" points="21211,14914 21032,14914 21032,14663 21211,14663 "/>
     <polygon class="fil1" points="21526,14914 21347,14914 21347,14663 21526,14663 "/>
     <polygon class="fil1" points="21844,14914 21666,14914 21666,14663 21844,14663 "/>
     <polygon class="fil1" points="22177,14914 21999,14914 21999,14663 22177,14663 "/>
     <polygon class="fil1" points="22503,14914 22325,14914 22325,14663 22503,14663 "/>
     <polygon class="fil1" points="22812,14914 22634,14914 22634,14663 22812,14663 "/>
     <polygon class="fil1" points="23127,14914 22949,14914 22949,14663 23127,14663 "/>
     <polygon class="fil1" points="20243,15350 20064,15350 20064,15099 20243,15099 "/>
     <polygon class="fil1" points="20576,15350 20398,15350 20398,15099 20576,15099 "/>
     <polygon class="fil1" points="20902,15350 20723,15350 20723,15099 20902,15099 "/>
     <polygon class="fil1" points="21211,15350 21032,15350 21032,15099 21211,15099 "/>
     <polygon class="fil1" points="21526,15350 21347,15350 21347,15099 21526,15099 "/>
     <polygon class="fil1" points="21844,15350 21666,15350 21666,15099 21844,15099 "/>
     <polygon class="fil1" points="22177,15350 21999,15350 21999,15099 22177,15099 "/>
     <polygon class="fil1" points="22503,15350 22325,15350 22325,15099 22503,15099 "/>
     <polygon class="fil1" points="22812,15350 22634,15350 22634,15099 22812,15099 "/>
     <polygon class="fil1" points="23127,15350 22949,15350 22949,15099 23127,15099 "/>
     <polygon class="fil5" points="20243,13708 20093,13708 20093,13449 20243,13449 "/>
     <polygon class="fil5" points="21730,13708 21580,13708 21580,13449 21730,13449 "/>
     <polygon class="fil5" points="22912,13708 22763,13708 22763,13449 22912,13449 "/>
     <polygon class="fil2" points="5229,15875 8700,15875 8700,13541 5229,13541 "/>
     <polygon class="fil1" points="5229,13995 8700,13995 8700,13236 5229,13236 "/>
     <polygon class="fil1" points="5644,14471 5466,14471 5466,14219 5644,14219 "/>
     <polygon class="fil1" points="5977,14471 5799,14471 5799,14219 5977,14219 "/>
     <polygon class="fil1" points="6303,14471 6125,14471 6125,14219 6303,14219 "/>
     <polygon class="fil1" points="6612,14471 6434,14471 6434,14219 6612,14219 "/>
     <polygon class="fil1" points="6927,14471 6749,14471 6749,14219 6927,14219 "/>
     <polygon class="fil1" points="7245,14471 7067,14471 7067,14219 7245,14219 "/>
     <polygon class="fil1" points="7579,14471 7400,14471 7400,14219 7579,14219 "/>
     <polygon class="fil1" points="7904,14471 7726,14471 7726,14219 7904,14219 "/>
     <polygon class="fil1" points="8213,14471 8035,14471 8035,14219 8213,14219 "/>
     <polygon class="fil1" points="8528,14471 8350,14471 8350,14219 8528,14219 "/>
     <polygon class="fil1" points="5644,14914 5466,14914 5466,14663 5644,14663 "/>
     <polygon class="fil1" points="5977,14914 5799,14914 5799,14663 5977,14663 "/>
     <polygon class="fil1" points="6303,14914 6125,14914 6125,14663 6303,14663 "/>
     <polygon class="fil1" points="6612,14914 6434,14914 6434,14663 6612,14663 "/>
     <polygon class="fil1" points="6927,14914 6749,14914 6749,14663 6927,14663 "/>
     <polygon class="fil1" points="7245,14914 7067,14914 7067,14663 7245,14663 "/>
     <polygon class="fil1" points="7579,14914 7400,14914 7400,14663 7579,14663 "/>
     <polygon class="fil1" points="7904,14914 7726,14914 7726,14663 7904,14663 "/>
     <polygon class="fil1" points="8213,14914 8035,14914 8035,14663 8213,14663 "/>
     <polygon class="fil1" points="8528,14914 8350,14914 8350,14663 8528,14663 "/>
     <polygon class="fil1" points="5644,15350 5466,15350 5466,15099 5644,15099 "/>
     <polygon class="fil1" points="5977,15350 5799,15350 5799,15099 5977,15099 "/>
     <polygon class="fil1" points="6303,15350 6125,15350 6125,15099 6303,15099 "/>
     <polygon class="fil1" points="6612,15350 6434,15350 6434,15099 6612,15099 "/>
     <polygon class="fil1" points="6927,15350 6749,15350 6749,15099 6927,15099 "/>
     <polygon class="fil1" points="7245,15350 7067,15350 7067,15099 7245,15099 "/>
     <polygon class="fil1" points="7579,15350 7400,15350 7400,15099 7579,15099 "/>
     <polygon class="fil1" points="7904,15350 7726,15350 7726,15099 7904,15099 "/>
     <polygon class="fil1" points="8213,15350 8035,15350 8035,15099 8213,15099 "/>
     <polygon class="fil1" points="8528,15350 8350,15350 8350,15099 8528,15099 "/>
     <polygon class="fil5" points="5644,13708 5494,13708 5494,13449 5644,13449 "/>
     <polygon class="fil5" points="7131,13708 6981,13708 6981,13449 7131,13449 "/>
     <polygon class="fil5" points="8314,13708 8164,13708 8164,13449 8314,13449 "/>
     <polygon class="fil2" points="5011,13541 5011,15874 1961,15874 1540,15419 1540,13541 "/>
     <polygon class="fil1" points="1541,13995 5011,13995 5011,13236 1541,13236 "/>
     <polygon class="fil1" points="1956,14471 1777,14471 1777,14219 1956,14219 "/>
     <polygon class="fil1" points="2289,14471 2111,14471 2111,14219 2289,14219 "/>
     <polygon class="fil1" points="2615,14471 2437,14471 2437,14219 2615,14219 "/>
     <polygon class="fil1" points="2924,14471 2745,14471 2745,14219 2924,14219 "/>
     <polygon class="fil1" points="3239,14471 3060,14471 3060,14219 3239,14219 "/>
     <polygon class="fil1" points="3557,14471 3379,14471 3379,14219 3557,14219 "/>
     <polygon class="fil1" points="3890,14471 3712,14471 3712,14219 3890,14219 "/>
     <polygon class="fil1" points="4216,14471 4038,14471 4038,14219 4216,14219 "/>
     <polygon class="fil1" points="4525,14471 4347,14471 4347,14219 4525,14219 "/>
     <polygon class="fil1" points="4840,14471 4662,14471 4662,14219 4840,14219 "/>
     <polygon class="fil1" points="1956,14914 1777,14914 1777,14663 1956,14663 "/>
     <polygon class="fil1" points="2289,14914 2111,14914 2111,14663 2289,14663 "/>
     <polygon class="fil1" points="2615,14914 2437,14914 2437,14663 2615,14663 "/>
     <polygon class="fil1" points="2924,14914 2745,14914 2745,14663 2924,14663 "/>
     <polygon class="fil1" points="3239,14914 3060,14914 3060,14663 3239,14663 "/>
     <polygon class="fil1" points="3557,14914 3379,14914 3379,14663 3557,14663 "/>
     <polygon class="fil1" points="3890,14914 3712,14914 3712,14663 3890,14663 "/>
     <polygon class="fil1" points="4216,14914 4038,14914 4038,14663 4216,14663 "/>
     <polygon class="fil1" points="4525,14914 4347,14914 4347,14663 4525,14663 "/>
     <polygon class="fil1" points="4840,14914 4662,14914 4662,14663 4840,14663 "/>
     <polygon class="fil1" points="1956,15350 1777,15350 1777,15099 1956,15099 "/>
     <polygon class="fil1" points="2289,15350 2111,15350 2111,15099 2289,15099 "/>
     <polygon class="fil1" points="2615,15350 2437,15350 2437,15099 2615,15099 "/>
     <polygon class="fil1" points="2924,15350 2745,15350 2745,15099 2924,15099 "/>
     <polygon class="fil1" points="3239,15350 3060,15350 3060,15099 3239,15099 "/>
     <polygon class="fil1" points="3557,15350 3379,15350 3379,15099 3557,15099 "/>
     <polygon class="fil1" points="3890,15350 3712,15350 3712,15099 3890,15099 "/>
     <polygon class="fil1" points="4216,15350 4038,15350 4038,15099 4216,15099 "/>
     <polygon class="fil1" points="4525,15350 4347,15350 4347,15099 4525,15099 "/>
     <polygon class="fil1" points="4840,15350 4662,15350 4662,15099 4840,15099 "/>
     <polygon class="fil5" points="1956,13708 1806,13708 1806,13449 1956,13449 "/>
     <polygon class="fil5" points="3443,13708 3293,13708 3293,13449 3443,13449 "/>
     <polygon class="fil5" points="4625,13708 4476,13708 4476,13449 4625,13449 "/>
     <path class="fil2" d="M1315 13541l0 1460c-112,-273 -165,-568 -165,-876 0,-14 0,-30 1,-46 0,-28 2,-57 2,-84 1,-25 3,-49 4,-74 7,-90 17,-179 32,-269 0,-3 1,-6 1,-9 3,-14 6,-30 8,-46 2,-19 7,-38 11,-56l106 0z"/>
     <path class="fil1" d="M1315 13235l0 760 -162 0c1,-25 3,-49 4,-74 7,-90 17,-179 32,-269 0,-3 1,-6 1,-9 3,-14 6,-30 8,-46 2,-19 7,-38 11,-56 13,-67 29,-134 46,-201 3,-16 8,-32 12,-48 6,-19 10,-38 17,-57l31 0z"/>
     <path class="fil7" d="M32690 15850l0 0c37,-76 93,-194 157,-330 42,-91 90,-196 140,-315 -51,119 -98,224 -141,315 -64,136 -119,254 -156,330zm565 -1352c8,-24 16,-48 24,-72 10,-32 20,-64 30,-95 24,-75 48,-151 71,-229 -23,78 -46,155 -70,229 -10,32 -20,64 -31,95 -8,24 -16,48 -24,72l0 0zm232 -786c2,-9 4,-18 7,-27 -2,9 -5,18 -7,27l0 0zm78 -331c7,-36 15,-72 22,-108l1 -3 -1 3c-7,36 -15,72 -22,108l0 0zm35 -170c0,-1 0,-2 0,-3 13,-65 25,-130 37,-197 -12,67 -24,133 -37,197 0,1 0,2 0,3l0 0z"/>
     <path class="fil8" d="M32671 15890l-9591 0 0 -15 218 0 0 -1880 0 -584c852,308 1794,545 2689,545 657,0 1289,-128 1841,-449 1096,-638 2459,-890 3652,-890 866,0 1644,132 2165,347 -3,16 -6,32 -8,47 -12,67 -24,132 -37,197 0,1 0,2 0,3 -4,17 -7,35 -11,52l-1 7 -1 3c-7,36 -15,72 -22,108 -3,12 -6,25 -9,37 -19,87 -39,172 -59,255 -1,4 -2,8 -3,12 -3,9 -5,18 -7,27 0,2 -1,4 -1,6 -34,133 -69,261 -106,384 -23,78 -47,154 -71,229 -10,31 -20,63 -30,95 -8,24 -16,48 -24,72 -20,58 -39,115 -59,170 -20,56 -40,109 -60,162 -51,136 -101,262 -149,375 -51,119 -98,224 -141,315 -64,136 -119,254 -156,330 -7,15 -13,29 -19,40zm-10076 0l-506 0 0 -15 506 0 0 15zm-1086 -3260l-539 0 0 -279c155,82 336,177 539,279z"/>
     <path class="fil9" d="M19828 13595l-2766 0 0 -425 -102 0 0 -555c53,4 107,6 161,6 261,0 538,-44 823,-106l115 0 0 -26c53,-13 107,-25 160,-39l0 65 218 0 0 -119c37,-9 73,-19 110,-28 19,-5 38,-10 58,-15l0 162 218 0 0 -217c57,-14 114,-27 171,-41l0 258 218 0 0 -305c274,-56 546,-95 808,-95 217,0 428,27 629,92l-85 0 0 308 218 0 0 -258c42,18 84,38 126,60 20,11 41,22 62,34l0 279 -1142 0 0 965zm351 -1388l0 308 218 0 0 -308 -218 0zm-378 0l0 308 218 0 0 -308 -218 0zm-399 0l0 308 218 0 0 -308 -218 0z"/>
     <path class="fil10" d="M18059 12515l-115 0c38,-9 77,-17 115,-26l0 26z"/>
     <path class="fil10" d="M18437 12515l-218 0 0 -65c73,-17 145,-36 218,-54l0 119z"/>
     <path class="fil10" d="M18823 12515l-218 0 0 -162c72,-18 145,-37 218,-55l0 217z"/>
     <path class="fil10" d="M19212 12515l-218 0 0 -258c73,-16 146,-32 218,-47l0 305z"/>
     <polygon class="fil10" points="19620,12515 19402,12515 19402,12207 19620,12207 "/>
     <polygon class="fil10" points="20019,12515 19801,12515 19801,12207 20019,12207 "/>
     <polygon class="fil10" points="20397,12515 20179,12515 20179,12207 20397,12207 "/>
     <path class="fil10" d="M20782 12515l-218 0 0 -308 85 0c45,15 89,32 133,50l0 258z"/>
     <polygon class="fil1" points="22089,15890 17062,15890 17062,13595 19828,13595 19828,15875 22089,15875 "/>
     <polygon class="fil11" points="17062,15890 16960,15890 16960,13170 17062,13170 17062,13595 "/>
     <path class="fil11" d="M23080 15890l-485 0 0 -15 485 0 0 15zm-241 -2654l-229 0 0 -94c75,31 152,63 229,94z"/>
     <path class="fil9" d="M19828 15875l0 0 0 -2280 0 -965 1142 0 539 0c320,162 693,340 1101,512l0 94 -2782 0 0 305 0 2334z"/>
     <path class="fil9" d="M23298 15875l-218 0 -485 0 -506 0 -2261 0 0 -2334 0 454 3470 0 0 1880zm-349 -776l0 251 178 0 0 -251 -178 0zm-315 0l0 251 178 0 0 -251 -178 0zm-309 0l0 251 178 0 0 -251 -178 0zm-326 0l0 251 178 0 0 -251 -178 0zm-333 0l0 251 178 0 0 -251 -178 0zm-319 0l0 251 179 0 0 -251 -179 0zm-315 0l0 251 179 0 0 -251 -179 0zm-309 0l0 251 179 0 0 -251 -179 0zm-325 0l0 251 178 0 0 -251 -178 0zm-334 0l0 251 179 0 0 -251 -179 0zm2885 -436l0 251 178 0 0 -251 -178 0zm-315 0l0 251 178 0 0 -251 -178 0zm-309 0l0 251 178 0 0 -251 -178 0zm-326 0l0 251 178 0 0 -251 -178 0zm-333 0l0 251 178 0 0 -251 -178 0zm-319 0l0 251 179 0 0 -251 -179 0zm-315 0l0 251 179 0 0 -251 -179 0zm-309 0l0 251 179 0 0 -251 -179 0zm-325 0l0 251 178 0 0 -251 -178 0zm-334 0l0 251 179 0 0 -251 -179 0zm2885 -444l0 252 178 0 0 -252 -178 0zm-315 0l0 252 178 0 0 -252 -178 0zm-309 0l0 252 178 0 0 -252 -178 0zm-326 0l0 252 178 0 0 -252 -178 0zm-333 0l0 252 178 0 0 -252 -178 0zm-319 0l0 252 179 0 0 -252 -179 0zm-315 0l0 252 179 0 0 -252 -179 0zm-309 0l0 252 179 0 0 -252 -179 0zm-325 0l0 252 178 0 0 -252 -178 0zm-334 0l0 252 179 0 0 -252 -179 0z"/>
     <path class="fil1" d="M23298 13995l0 0 -3470 0 0 -454 0 -305 2782 0 229 0c150,60 303,119 459,175l0 584zm-535 -546l0 259 149 0 0 -259 -149 0zm-1183 0l0 259 150 0 0 -259 -150 0zm-1487 0l0 259 150 0 0 -259 -150 0z"/>
     <polygon class="fil1" points="20243,14471 20064,14471 20064,14219 20243,14219 "/>
     <polygon class="fil1" points="20576,14471 20398,14471 20398,14219 20576,14219 "/>
     <polygon class="fil1" points="20902,14471 20723,14471 20723,14219 20902,14219 "/>
     <polygon class="fil1" points="21211,14471 21032,14471 21032,14219 21211,14219 "/>
     <polygon class="fil1" points="21526,14471 21347,14471 21347,14219 21526,14219 "/>
     <polygon class="fil1" points="21844,14471 21666,14471 21666,14219 21844,14219 "/>
     <polygon class="fil1" points="22177,14471 21999,14471 21999,14219 22177,14219 "/>
     <polygon class="fil1" points="22503,14471 22325,14471 22325,14219 22503,14219 "/>
     <polygon class="fil1" points="22812,14471 22634,14471 22634,14219 22812,14219 "/>
     <polygon class="fil1" points="23127,14471 22949,14471 22949,14219 23127,14219 "/>
     <polygon class="fil1" points="20243,14914 20064,14914 20064,14663 20243,14663 "/>
     <polygon class="fil1" points="20576,14914 20398,14914 20398,14663 20576,14663 "/>
     <polygon class="fil1" points="20902,14914 20723,14914 20723,14663 20902,14663 "/>
     <polygon class="fil1" points="21211,14914 21032,14914 21032,14663 21211,14663 "/>
     <polygon class="fil1" points="21526,14914 21347,14914 21347,14663 21526,14663 "/>
     <polygon class="fil1" points="21844,14914 21666,14914 21666,14663 21844,14663 "/>
     <polygon class="fil1" points="22177,14914 21999,14914 21999,14663 22177,14663 "/>
     <polygon class="fil1" points="22503,14914 22325,14914 22325,14663 22503,14663 "/>
     <polygon class="fil1" points="22812,14914 22634,14914 22634,14663 22812,14663 "/>
     <polygon class="fil1" points="23127,14914 22949,14914 22949,14663 23127,14663 "/>
     <polygon class="fil1" points="20243,15350 20064,15350 20064,15099 20243,15099 "/>
     <polygon class="fil1" points="20576,15350 20398,15350 20398,15099 20576,15099 "/>
     <polygon class="fil1" points="20902,15350 20723,15350 20723,15099 20902,15099 "/>
     <polygon class="fil1" points="21211,15350 21032,15350 21032,15099 21211,15099 "/>
     <polygon class="fil1" points="21526,15350 21347,15350 21347,15099 21526,15099 "/>
     <polygon class="fil1" points="21844,15350 21666,15350 21666,15099 21844,15099 "/>
     <polygon class="fil1" points="22177,15350 21999,15350 21999,15099 22177,15099 "/>
     <polygon class="fil1" points="22503,15350 22325,15350 22325,15099 22503,15099 "/>
     <polygon class="fil1" points="22812,15350 22634,15350 22634,15099 22812,15099 "/>
     <polygon class="fil1" points="23127,15350 22949,15350 22949,15099 23127,15099 "/>
     <polygon class="fil11" points="20243,13708 20093,13708 20093,13449 20243,13449 "/>
     <polygon class="fil11" points="21730,13708 21580,13708 21580,13449 21730,13449 "/>
     <polygon class="fil11" points="22912,13708 22763,13708 22763,13449 22912,13449 "/>
     <path class="fil12" d="M33875 15942l-33837 0c-21,0 -38,-17 -38,-39l0 -13c0,-21 17,-38 38,-38l33837 0c21,0 38,17 38,38l0 13c0,22 -17,39 -38,39z"/>
     <path class="fil13" d="M31014 15852l-1115 0c-60,-51 41,-166 147,-174 46,-3 104,7 170,21 16,-204 103,-1120 433,-1084 372,42 0,404 -104,618 -78,159 -160,387 -198,495 30,6 62,12 93,18 50,-151 233,-659 466,-629 273,34 163,238 -30,359 -143,89 -317,215 -400,276 70,12 143,20 218,18 191,-5 284,52 320,82z"/>
     <path class="fil13" d="M3355 15805c-53,-82 -210,-296 -420,-267 -229,30 252,181 400,268 -33,0 -61,-2 -82,-10 -98,-35 -267,32 -321,56l938 0c-7,-22 -23,-59 -67,-86 -16,-9 -46,-11 -86,-8 55,-65 94,-275 -61,-221 -114,39 -113,168 -102,244 -24,3 -49,7 -73,11 -47,-238 -212,-936 -547,-954 -339,-19 288,723 497,960 -27,3 -52,6 -76,7z"/>
     <path class="fil14" d="M30825 12607c-210,0 -380,-170 -380,-380 0,-209 170,-380 380,-380 210,0 380,171 380,380 0,210 -170,380 -380,380zm0 -1184c-449,0 -813,364 -813,813 0,449 813,1447 813,1447 0,0 813,-998 813,-1447 0,-449 -364,-813 -813,-813z"/>
     <path class="fil15" d="M3890 12995c-115,0 -208,-93 -208,-208 0,-115 93,-208 208,-208 115,0 208,93 208,208 0,115 -93,208 -208,208zm0 -649c-246,0 -445,200 -445,445 0,246 445,793 445,793 0,0 445,-547 445,-793 0,-245 -199,-445 -445,-445z"/>
     <path class="fil13" d="M8418 15852c0,0 319,-952 1233,-1136 914,-183 1591,533 2405,254 815,-279 2099,-1756 3626,-677 1528,1079 1428,1387 2392,1135 963,-252 1184,424 1184,424l-10840 0z"/>
     <path class="fil13" d="M9356 14956c0,0 -666,-699 -1007,-512 -341,188 1007,512 1007,512z"/>
     <path class="fil13" d="M9186 15133c0,0 -614,-200 -768,-100 -154,100 768,100 768,100z"/>
     <path class="fil13" d="M11142 15069c0,0 422,-948 568,-775 147,172 -568,775 -568,775z"/>
     <path class="fil13" d="M11038 15005c0,0 172,-694 -86,-651 -259,43 86,651 86,651z"/>
     <polygon class="fil16" points="25325,8995 25325,8995 25325,9155 "/>
     <path class="fil0" d="M22515 15852c0,0 1213,-306 1555,-675 342,-370 638,49 416,283 -222,234 -1971,392 -1971,392z"/>
     <path class="fil0" d="M27331 15030l-1700 0c-41,0 -76,-34 -76,-76 0,-42 35,-76 76,-76l1700 0c42,0 77,34 77,76 0,42 -35,76 -77,76z"/>
     <path class="fil0" d="M26521 14690l-924 0c-23,0 -42,-18 -42,-41 0,-23 19,-41 42,-41l924 0c23,0 42,18 42,41 0,23 -19,41 -42,41z"/>
    </g>
    <circle class="fil17" cx="17624" cy="6663" r="25"/>
   </g>
   <g>
    <path class="fil18" d="M24703 9678c-166,-231 60,-664 85,-711 130,-248 247,-244 281,-417 57,-296 -259,-425 -209,-678 54,-279 456,-232 632,-594 129,-265 -38,-385 85,-711 81,-214 311,-578 633,-561 328,18 602,427 547,705 -54,277 -415,323 -423,587 -7,204 208,245 208,450 1,314 -506,436 -482,697 17,190 290,190 345,398 83,307 -386,775 -893,920 -75,21 -625,171 -809,-85z"/>
    <path class="fil19" d="M26242 6370c0,0 -4,8 -12,22 -56,98 -285,522 -324,921 -22,233 -70,343 -123,444 -52,100 -109,190 -157,400 -49,209 -49,403 -70,579 -21,175 -65,334 -205,463 -129,120 -236,318 -310,486 -36,85 -65,161 -84,216 -10,28 -17,51 -22,66 -5,15 -7,24 -7,24l-44 -13c0,-1 41,-140 116,-311 74,-171 182,-373 320,-502 129,-118 169,-263 190,-435 21,-171 21,-368 71,-583 49,-215 110,-313 162,-412 51,-98 95,-197 118,-427 47,-470 341,-960 342,-961l39 23z"/>
    <path class="fil18" d="M17712 8430c-267,-99 -319,-584 -325,-638 -30,-278 69,-339 1,-502 -117,-278 -451,-210 -551,-448 -109,-262 250,-446 196,-845 -40,-292 -246,-299 -325,-638 -52,-223 -63,-654 214,-818 283,-167 737,20 847,281 109,260 -166,499 -26,723 108,174 310,89 424,258 175,261 -178,645 -13,849 119,148 346,-4 508,138 239,209 109,859 -231,1261 -51,60 -424,490 -719,379z"/>
    <path class="fil19" d="M17151 4825c0,0 1,9 2,25 8,113 54,593 243,946 111,206 133,324 145,437 12,113 15,219 91,420 67,176 158,321 233,460 75,139 135,273 135,424 0,44 -5,88 -16,135 -16,67 -23,143 -23,221 0,159 28,328 56,456 14,65 27,119 38,157 5,19 9,34 12,44 3,10 5,16 5,16l-44 13c0,-1 -112,-358 -112,-686 0,-81 6,-160 23,-232 11,-43 15,-84 15,-124 0,-138 -55,-265 -129,-402 -75,-137 -167,-285 -235,-465 -79,-206 -83,-322 -95,-432 -12,-111 -30,-217 -139,-421 -223,-417 -250,-988 -250,-989l45 -3z"/>
    <path class="fil19" d="M23980 12607c33,-428 714,-707 788,-737 390,-160 521,-42 729,-209 353,-284 114,-740 417,-984 333,-268 750,176 1305,-70 406,-179 331,-481 788,-736 301,-169 920,-365 1274,-33 360,340 279,1076 -53,1344 -332,267 -792,-31 -1058,265 -206,229 1,485 -197,721 -303,362 -1007,12 -1233,335 -164,235 150,500 12,794 -203,434 -1198,518 -1922,192 -108,-48 -886,-409 -850,-882z"/>
    <path class="fil18" d="M28961 10279c0,0 -12,4 -35,12 -161,60 -837,327 -1271,750 -253,246 -411,325 -569,389 -158,65 -313,115 -573,310 -260,195 -449,419 -644,600 -194,181 -396,319 -677,332 -269,13 -586,138 -834,261 -125,61 -232,122 -308,167 -39,23 -69,42 -90,55 -20,13 -31,20 -31,20l-26 -38c1,0 183,-121 434,-245 252,-124 572,-252 852,-265 267,-13 457,-142 649,-320 192,-178 383,-405 647,-603 264,-199 428,-252 583,-316 156,-64 305,-137 555,-380 507,-494 1322,-772 1323,-773l15 44z"/>
    <path class="fil18" d="M24830 13489c-26,-11 -91,-41 -174,-86 430,-13 1463,28 1754,-505 133,-242 31,-456 231,-615 254,-202 560,28 934,-198 185,-112 290,-277 351,-373 209,-330 106,-485 264,-638 204,-197 459,-19 912,-142 151,-42 274,-103 374,-168 -46,172 -132,324 -248,418 -332,267 -792,-32 -1058,265 -206,229 1,485 -197,721 -303,362 -1007,12 -1233,335 -164,235 150,500 12,794 -203,434 -1198,518 -1922,192z"/>
    <path class="fil19" d="M24274 11682c-160,-398 325,-950 378,-1010 279,-317 448,-269 560,-511 189,-412 -227,-714 -64,-1067 180,-388 750,-177 1138,-643 284,-341 82,-578 378,-1010 195,-285 662,-736 1126,-596 475,144 729,840 551,1227 -178,387 -724,324 -830,708 -83,296 217,434 145,733 -111,460 -897,459 -956,849 -43,283 357,382 364,706 11,478 -843,996 -1636,1027 -118,4 -976,27 -1154,-413z"/>
    <path class="fil18" d="M27700 7382c0,0 -9,9 -26,27 -118,125 -604,664 -805,1237 -117,332 -224,474 -336,601 -113,128 -230,242 -376,533 -146,290 -216,575 -309,823 -94,249 -213,462 -460,599 -234,131 -463,384 -631,605 -84,110 -153,212 -201,286 -24,38 -43,68 -56,89 -13,21 -19,32 -19,32l-40 -23c0,0 110,-189 280,-412 170,-223 400,-480 645,-617 234,-130 346,-330 439,-575 92,-244 163,-532 311,-828 148,-295 271,-416 382,-542 111,-126 212,-258 328,-586 235,-669 841,-1280 841,-1282l33 33z"/>
    <path class="fil18" d="M25428 12095c-29,1 -100,3 -195,-1 380,-202 1324,-625 1347,-1232 11,-276 -175,-421 -67,-653 138,-294 514,-224 749,-593 116,-182 137,-377 149,-491 40,-388 -121,-480 -48,-688 95,-267 403,-221 753,-533 117,-104 201,-214 262,-316 34,174 25,348 -37,484 -178,387 -724,324 -830,708 -83,296 217,434 145,733 -111,460 -897,459 -956,849 -43,283 357,381 364,706 11,478 -843,996 -1636,1027z"/>
    <path class="fil19" d="M16907 9890c-443,-81 -660,-822 -684,-903 -125,-425 13,-548 -139,-783 -260,-400 -761,-200 -983,-543 -244,-377 264,-765 68,-1371 -144,-444 -467,-398 -685,-903 -143,-333 -281,-1001 105,-1334 393,-341 1154,-176 1398,200 243,375 -119,825 162,1134 217,240 507,52 732,284 346,356 -96,1053 217,1325 227,197 539,-103 831,73 431,259 411,1308 -7,2029 -63,107 -524,881 -1015,792z"/>
    <path class="fil18" d="M15013 4434c0,0 3,14 9,39 45,175 251,910 646,1409 230,291 295,465 345,637 51,171 86,339 262,632 170,284 377,501 542,717 165,215 291,432 291,710 0,18 -1,36 -2,54 -1,20 -2,41 -2,63 0,280 98,609 195,867 49,129 98,240 135,319 18,39 33,71 44,92 11,22 17,33 17,33l-41 22c0,-1 -99,-190 -197,-450 -99,-261 -198,-593 -198,-883 0,-22 0,-44 1,-66 1,-17 2,-34 2,-51 0,-264 -118,-469 -281,-682 -163,-213 -372,-433 -545,-721 -179,-297 -217,-474 -267,-643 -49,-170 -109,-334 -336,-621 -462,-584 -664,-1465 -665,-1466l45 -11z"/>
    <path class="fil18" d="M17922 9098c-15,26 -54,91 -110,172 34,-450 188,-1525 -337,-1887 -239,-165 -473,-81 -618,-308 -184,-287 90,-581 -106,-997 -96,-206 -257,-333 -352,-408 -321,-254 -494,-162 -637,-344 -184,-235 30,-482 -51,-968 -26,-162 -77,-298 -134,-410 175,68 324,173 410,305 243,375 -119,825 162,1134 217,240 507,52 732,284 346,356 -96,1053 217,1325 227,197 539,-103 831,73 431,259 411,1308 -7,2029z"/>
    <path class="fil20" d="M17637 7373c64,37 93,101 55,180 -103,215 -285,1128 -423,1236 -157,121 -703,100 -966,100l-60 -153c0,0 657,-187 817,-172 0,0 198,-1416 577,-1191z"/>
    <path class="fil21" d="M17142 7662c-88,255 -79,537 -79,537 0,0 342,140 520,77l148 -733c52,-130 -269,-14 -269,-14 -140,-101 -263,-29 -320,133z"/>
    <path class="fil20" d="M16056 8720c0,0 -330,59 -333,87 -2,29 -9,301 -9,301 0,0 81,13 146,-226 0,0 313,92 522,6l-92 -159 -234 -9z"/>
    <path class="fil22" d="M17865 15865l7544 0c108,0 196,-87 196,-196l0 -13648c0,-109 -88,-196 -196,-196l-7544 0c-108,0 -196,87 -196,196l0 13648c0,109 88,196 196,196z"/>
    <polygon class="fil23" points="18034,14963 25240,14963 25240,2304 18034,2304 "/>
    <polygon class="fil24" points="24737,10984 22955,11279 23400,9663 24042,9924 24668,9198 "/>
    <polygon class="fil24" points="24459,9012 23886,9515 22531,8938 22966,8324 24477,8100 "/>
    <polygon class="fil24" points="22931,9663 21750,9049 21315,10389 22692,11127 "/>
    <path class="fil24" d="M22098 8922l624 -1082 -1181 -1135c0,0 -1027,1729 -975,1729 52,0 1532,488 1532,488z"/>
    <polygon class="fil24" points="23157,7877 24477,7747 24824,6910 23626,6723 22757,6928 "/>
    <polygon class="fil24" points="21367,8994 21037,10259 20377,10594 19665,10668 20256,8752 "/>
    <polygon class="fil24" points="22149,6705 23435,6407 24859,6575 24737,5347 23000,5644 21628,6370 "/>
    <polygon class="fil24" points="22227,5606 21409,6195 19524,5337 "/>
    <polygon class="fil24" points="21032,6700 20302,8384 19808,8451 19398,10437 18424,9713 18660,5219 "/>
    <polygon class="fil24" points="24725,11212 23028,11599 24043,13669 24817,13821 "/>
    <path class="fil24" d="M22745 11683c63,84 927,2104 927,2104 0,0 -2844,-84 -2703,-370 142,-286 330,-2694 330,-2694l1446 960z"/>
    <polygon class="fil24" points="24817,14191 24804,14595 22132,14595 22939,14039 24059,14006 "/>
    <path class="fil24" d="M21017 10824l-362 1886 -1665 -539c0,0 -393,-1178 -346,-1195 47,-17 2373,-152 2373,-152z"/>
    <polygon class="fil24" points="20467,13282 20278,14528 18722,14595 18597,12491 "/>
    <polygon class="fil24" points="20781,14226 20922,14830 22117,14500 22525,14041 "/>
    <polygon class="fil21" points="25643,2796 24495,2796 24510,4585 25664,4585 "/>
    <polygon class="fil14" points="24495,2796 23347,2796 23355,4585 24510,4585 "/>
    <polygon class="fil21" points="23347,2796 22198,2796 22201,4585 23355,4585 "/>
    <polygon class="fil14" points="22198,2796 21050,2796 21047,4585 22201,4585 "/>
    <polygon class="fil21" points="21050,2796 19901,2796 19893,4585 21047,4585 "/>
    <polygon class="fil14" points="19901,2796 18753,2796 18739,4585 19893,4585 "/>
    <polygon class="fil21" points="18753,2796 17605,2796 17584,4585 18739,4585 "/>
    <polygon class="fil25" points="25260,2284 24221,2284 24495,2796 25643,2796 "/>
    <polygon class="fil26" points="24221,2284 23182,2284 23347,2796 24495,2796 "/>
    <polygon class="fil25" points="23182,2284 22143,2284 22198,2796 23347,2796 "/>
    <polygon class="fil26" points="22143,2284 21105,2284 21050,2796 22198,2796 "/>
    <polygon class="fil25" points="21105,2284 20066,2284 19901,2796 21050,2796 "/>
    <polygon class="fil26" points="20066,2284 19027,2284 18753,2796 19901,2796 "/>
    <polygon class="fil25" points="19027,2284 17988,2284 17605,2796 18753,2796 "/>
    <path class="fil25" d="M25087 5162c-319,0 -577,-258 -577,-577l1154 0c0,319 -259,577 -577,577z"/>
    <path class="fil27" d="M23932 5162c-318,0 -577,-258 -577,-577l1155 0c0,319 -259,577 -578,577z"/>
    <path class="fil25" d="M22778 5162c-318,0 -577,-258 -577,-577l1154 0c0,319 -258,577 -577,577z"/>
    <path class="fil27" d="M21619 5157c-319,0 -577,-258 -577,-577l1154 0c0,319 -259,577 -577,577z"/>
    <path class="fil25" d="M20465 5157c-319,0 -578,-258 -578,-577l1155 0c0,319 -259,577 -577,577z"/>
    <path class="fil27" d="M19316 5162c-319,0 -577,-258 -577,-577l1154 0c0,319 -259,577 -577,577z"/>
    <path class="fil25" d="M18161 5162c-318,0 -577,-258 -577,-577l1155 0c0,319 -259,577 -578,577z"/>
    <path class="fil28" d="M24175 12058c121,0 220,-99 220,-220 0,-122 -99,-220 -220,-220 -122,0 -220,98 -220,220 0,121 98,220 220,220zm0 -726c291,0 528,236 528,528 0,291 -528,890 -528,890 0,0 -528,-599 -528,-890 0,-292 236,-528 528,-528z"/>
    <path class="fil28" d="M20425 6433c121,0 220,-99 220,-220 0,-122 -99,-220 -220,-220 -121,0 -220,99 -220,220 0,121 99,220 220,220zm0 -726c291,0 528,236 528,528 0,292 -528,891 -528,891 0,0 -528,-599 -528,-891 0,-292 236,-528 528,-528z"/>
    <path class="fil28" d="M23991 10625c-9,-46 -18,-91 -27,-134l44 -10c10,44 19,89 28,135l-45 9z"/>
    <path class="fil28" d="M23897 10216c-27,-96 -55,-185 -85,-269l43 -15c30,84 59,175 86,272l-44 12zm-192 -529c-43,-92 -87,-174 -133,-247l38 -25c47,76 93,159 137,252l-42 20zm-299 -473c-67,-77 -135,-140 -203,-192l28 -36c70,54 140,119 209,198l-34 30zm-441 -335c-88,-41 -175,-69 -264,-88l10 -45c91,20 182,49 273,91l-19 42zm-541 -127c-94,-7 -188,-10 -283,-14l2 -46c95,4 189,7 284,14l-3 46zm-567 -33c-94,-10 -188,-25 -283,-51l12 -45c92,26 184,41 275,51l-4 45zm-551 -156c-50,-25 -100,-55 -150,-89 -32,-22 -62,-44 -91,-67l28 -36c28,22 58,44 88,65 49,33 98,62 146,87l-21 40zm-449 -356c-65,-75 -121,-154 -169,-232l39 -24c47,76 101,153 165,226l-35 30z"/>
    <path class="fil28" d="M20553 7718c-20,-44 -37,-87 -52,-128l42 -16c15,40 32,82 52,126l-42 18z"/>
    <path class="fil29" d="M14223 14888c136,674 816,1106 1518,965 702,-141 1160,-803 1024,-1477 -137,-674 -816,-1107 -1518,-965 -702,141 -1161,802 -1024,1477z"/>
    <path class="fil30" d="M14670 14798c88,437 529,717 984,626 455,-92 752,-521 664,-958 -89,-437 -529,-718 -984,-626 -455,92 -753,520 -664,958z"/>
    <path class="fil31" d="M15089 14713c43,215 260,353 483,308 224,-45 370,-256 327,-471 -44,-215 -260,-352 -484,-307 -224,45 -370,255 -326,470z"/>
    <path class="fil32" d="M16743 14586c0,0 0,0 0,0 0,0 0,0 0,0zm0 -2c0,0 0,-1 0,-1 0,1 0,1 0,1zm-1 -3c0,0 0,0 0,0l0 0zm0 -2c0,-1 0,-1 0,-1 0,0 0,0 0,1zm-1 -3c0,0 0,-1 0,-1 0,0 0,1 0,1zm0 -2c0,-1 0,-1 0,-1 0,0 0,0 0,1zm-1 -3c0,-1 0,-1 0,-1 0,0 0,0 0,1zm0 -3c0,0 0,-1 0,-1 0,0 0,1 0,1zm-1 -2c0,-1 0,-1 0,-1 0,0 0,0 0,1z"/>
    <path class="fil33" d="M16723 15006c65,-191 84,-398 46,-607 0,0 0,0 0,0 0,-1 0,-2 0,-2 0,-1 0,-1 0,-1 -1,-1 -1,-1 -1,-2l0 0c0,-1 0,-2 0,-2 0,-1 0,-1 -1,-1 0,-1 0,-1 0,-2 0,0 0,0 0,-1 0,0 0,-1 0,-1 0,0 0,-1 0,-1 -1,-1 -1,-1 -1,-2 0,0 0,-1 0,-1 0,-1 0,-1 0,-1 0,-1 0,-1 0,-1 -1,-1 -1,-1 -1,-2 0,0 0,0 0,-1 0,0 0,-1 0,-2 -4,-16 -7,-32 -11,-49l-53 11 -120 -140 -14 7 -14 -40 -422 -493 -983 -238c-531,149 -903,603 -945,1117l451 81c5,-375 282,-712 680,-792 455,-92 895,189 984,626 32,159 13,317 -46,458l451 82z"/>
    <path class="fil34" d="M16272 14924c59,-141 78,-299 46,-458 -89,-437 -529,-718 -984,-626 -398,80 -675,417 -680,792l434 78c-41,-213 104,-423 327,-467 224,-45 440,92 484,307 21,106 -3,211 -61,296l434 78z"/>
    <path class="fil35" d="M15838 14846c58,-85 82,-190 61,-296 -44,-215 -260,-352 -484,-307 -223,44 -368,254 -327,467l750 136z"/>
    <path class="fil29" d="M19972 14844c136,687 816,1182 1518,1104 702,-77 1160,-696 1023,-1383 -136,-687 -816,-1181 -1517,-1104 -702,77 -1161,697 -1024,1383z"/>
    <path class="fil30" d="M20419 14849c88,443 529,752 984,691 455,-62 752,-471 664,-914 -89,-443 -529,-753 -985,-691 -455,62 -752,471 -663,914z"/>
    <path class="fil31" d="M20838 14792c43,218 260,370 483,340 224,-31 370,-232 327,-450 -44,-217 -260,-369 -484,-339 -224,30 -370,231 -326,449z"/>
    <path class="fil36" d="M22534 14708c-3,-37 -7,-74 -13,-111l-2 0c7,37 12,74 15,111zm-73 -330l4 -3c-22,-60 -48,-119 -79,-178l-5 5c31,57 58,115 80,176zm-157 -314c-31,-45 -64,-87 -100,-127l-12 1c37,40 71,83 103,127l9 -1z"/>
    <path class="fil37" d="M22519 14597l2 0c-12,-75 -31,-149 -56,-222l-4 3c22,61 40,123 52,187 3,11 5,21 6,32z"/>
    <path class="fil37" d="M22381 14202l5 -5c-17,-32 -36,-64 -56,-95 -9,-13 -17,-26 -26,-38l-9 1c32,44 60,90 86,137z"/>
    <path class="fil36" d="M19979 14943c-3,-11 -5,-22 -7,-34 -2,-7 -3,-13 -4,-20l-1 0c4,18 8,36 12,54z"/>
    <path class="fil34" d="M22082 14768c-1,-47 -6,-94 -15,-142 -54,-269 -238,-489 -476,-606 -178,-90 -370,-114 -573,-74 -165,36 -289,107 -385,203 -180,174 -268,431 -214,700 8,42 20,83 34,123l432 -54c-22,-39 -38,-81 -47,-126 -44,-218 102,-419 326,-449 224,-30 440,122 484,339 9,48 10,96 2,140l432 -54z"/>
    <path class="fil35" d="M21650 14822c8,-44 7,-92 -2,-140 -44,-217 -260,-369 -484,-339 -224,30 -370,231 -326,449 9,45 25,87 47,126l765 -96z"/>
    <polygon class="fil38" points="15766,9967 15980,9232 16189,9319 16102,10034 "/>
    <path class="fil14" d="M15708 9939l-337 1382c-116,396 -175,744 -526,940 -454,253 -265,794 -265,794l1525 675 570 782 2793 0 396 -1134 2442 0 441 0 0 -800c0,-1697 -1376,-1938 -3072,-1938l-577 0 -687 0 0 2866c-504,224 -1567,405 -1567,405l-851 -1637c-99,-192 -131,-413 -88,-626l262 -1634c10,-65 -35,-126 -100,-134l-231 -30c-59,-7 -114,31 -128,89z"/>
    <polygon class="fil22" points="19596,11065 19596,13351 16541,14351 16527,14308 19550,13318 19550,11065 "/>
    <polygon class="fil22" points="19587,12816 18397,12816 18397,12770 19587,12770 "/>
    <path class="fil29" d="M18083 14164l893 -640c50,-37 63,-105 29,-152 -34,-48 -103,-58 -153,-22l-893 641c-51,36 -64,104 -30,152 35,48 103,57 154,21z"/>
    <path class="fil21" d="M19229 13892l3506 0c85,0 155,-70 155,-156 0,-892 -723,-1615 -1615,-1615l-587 0c-891,0 -1615,723 -1615,1615 0,86 70,156 156,156z"/>
    <polygon class="fil36" points="18409,11248 18411,11248 18411,11057 18409,11057 "/>
    <polygon class="fil39" points="18411,11248 19550,11248 19550,11065 19596,11065 19596,11248 20999,11248 20999,10762 20999,11057 18411,11057 "/>
    <polygon class="fil40" points="19550,11248 19596,11248 19596,11065 19550,11065 "/>
    <polygon class="fil21" points="17507,11057 20999,11057 20999,10570 17507,10570 "/>
    <polygon class="fil22" points="17507,10768 20999,10768 20999,10570 17507,10570 "/>
    <polygon class="fil22" points="20248,13387 22116,13387 22116,13308 20248,13308 "/>
    <polygon class="fil22" points="20248,13169 22116,13169 22116,13090 20248,13090 "/>
    <polygon class="fil22" points="20248,12951 22116,12951 22116,12872 20248,12872 "/>
    <polygon class="fil22" points="18645,12098 19259,12098 19259,12019 18645,12019 "/>
    <polygon class="fil22" points="18645,11880 19259,11880 19259,11801 18645,11801 "/>
    <polygon class="fil22" points="18645,11662 19259,11662 19259,11583 18645,11583 "/>
    <polygon class="fil38" points="15214,11993 15404,11993 15404,11536 15214,11536 "/>
    <polygon class="fil28" points="15028,11993 15218,11993 15218,11536 15028,11536 "/>
    <path class="fil41" d="M17507 11057l162 0 352 0c121,-41 254,-89 401,-142 149,-54 282,-102 398,-147l-1313 0 0 289z"/>
    <path class="fil42" d="M17507 10768l0 0 1313 0c190,-73 335,-136 427,-198l-391 0c-520,79 -978,130 -1349,150l0 48z"/>
    <path class="fil43" d="M16362 9328c0,0 111,-401 -398,-498l-94 476 492 22z"/>
    <path class="fil43" d="M15820 9331c0,164 132,297 296,297 164,0 297,-133 297,-297 0,-164 -133,-297 -297,-297 -164,0 -296,133 -296,297z"/>
    <path class="fil22" d="M15832 8694c14,2 65,7 79,9 54,6 83,135 66,288 -17,154 -75,273 -129,267 -14,-1 -64,-7 -78,-9 -54,-6 -83,-135 -66,-288 17,-153 75,-273 128,-267z"/>
    <path class="fil24" d="M15704 8961c-17,153 3,281 45,286 43,5 91,-116 108,-269 17,-153 -3,-281 -45,-286 -43,-5 -91,116 -108,269z"/>
    <path class="fil29" d="M18977 8859c0,0 -1577,830 -2317,1412 -666,523 451,576 2336,277 375,-59 428,-894 242,-1225l-261 -464z"/>
    <polygon class="fil20" points="18616,13149 18477,12920 18223,13098 18320,13231 18459,13397 "/>
    <path class="fil28" d="M18594 13118c0,0 209,135 261,272 0,0 -327,251 -561,470 -233,220 -474,173 -343,-14 132,-188 369,-615 369,-615 0,0 143,160 274,-113z"/>
    <path class="fil44" d="M18317 13418l5 -5c-60,-55 -114,-24 -114,-24l3 7c2,-2 50,-29 106,22z"/>
    <path class="fil44" d="M18255 13500l5 -5c-61,-55 -114,-24 -115,-24l4 7c2,-2 50,-29 106,22z"/>
    <path class="fil44" d="M18372 13340l4 -5c-60,-55 -114,-24 -114,-24l3 6c2,-1 50,-28 107,23z"/>
    <path class="fil33" d="M18385 9628c69,0 142,-9 208,-28 326,-95 459,-536 395,-615 -8,-11 -20,-15 -36,-15 -82,0 -257,131 -449,227 -114,82 -242,174 -378,273 -14,22 -21,43 -17,61 13,60 136,97 277,97z"/>
    <path class="fil31" d="M17970 13819c64,17 122,76 163,99 75,42 522,-471 522,-471 13,-90 47,-168 76,-221 51,47 102,105 124,164 0,0 -327,251 -561,470 -233,220 -474,173 -343,-14 6,-9 12,-18 19,-27z"/>
    <path class="fil29" d="M17420 10664c0,0 185,346 585,977 515,815 701,1182 701,1182l-420 355c0,0 -861,-897 -1215,-1493 0,0 -485,-697 -585,-1048 -91,-316 206,-84 447,-255l487 282z"/>
    <polygon class="fil45" points="19400,9858 21543,9857 21541,9138 19398,9139 "/>
    <polygon class="fil45" points="19312,9561 21629,9560 21628,9142 19311,9143 "/>
    <polygon class="fil22" points="20515,9136 20515,9853 20493,9853 20493,9136 "/>
    <path class="fil22" d="M20499 9139c0,0 -8,-26 -22,-65 -21,-58 -56,-146 -99,-219 -21,-36 -44,-68 -67,-91 -24,-23 -47,-36 -69,-36 -22,1 -39,9 -51,25 -13,16 -20,39 -20,68 0,100 91,260 343,351l30 11 -30 10c-1,1 -118,41 -264,41 -96,0 -204,-17 -299,-77l12 -19c90,56 194,73 287,73 71,0 135,-10 181,-20 24,-5 42,-9 55,-13 13,-4 20,-6 20,-6l4 11 -4 10c-258,-93 -358,-259 -358,-372 0,-33 8,-61 25,-82 16,-21 40,-34 69,-33 41,0 77,29 110,69 97,121 168,357 169,358l-22 6z"/>
    <path class="fil22" d="M20493 9133c0,-1 32,-106 82,-211 25,-53 54,-106 87,-147 33,-40 69,-69 110,-69 28,-1 53,12 69,33 16,21 25,49 25,82 -1,113 -100,279 -358,372l-4 -10 4 -11c0,0 7,2 20,6 38,11 130,33 236,33 93,0 197,-17 287,-73l12 19c-95,60 -203,77 -299,77 -146,0 -263,-40 -264,-41l-30 -10 30 -11c252,-91 343,-251 343,-351 0,-29 -8,-52 -20,-68 -12,-16 -29,-24 -51,-25 -29,0 -61,23 -92,62 -46,57 -88,145 -118,218 -14,36 -26,69 -34,93 -9,24 -13,38 -13,38l-22 -6z"/>
    <polygon class="fil22" points="21541,9572 19403,9572 19403,9549 21541,9549 "/>
    <polygon class="fil45" points="19538,10572 21681,10572 21679,9853 19536,9853 "/>
    <polygon class="fil45" points="19452,10275 21769,10274 21768,9853 19451,9854 "/>
    <polygon class="fil22" points="20653,9853 20654,10568 20631,10568 20630,9853 "/>
    <polygon class="fil22" points="21679,10287 19541,10287 19541,10264 21679,10264 "/>
    <polygon class="fil46" points="19459,9854 19536,9854 19536,9853 20468,9853 19449,9853 "/>
    <polygon class="fil46" points="19536,9854 21019,9853 20468,9853 19536,9853 "/>
    <polygon class="fil46" points="21767,10031 21766,9853 21019,9853 19536,9854 19459,9854 20630,9943 20630,9853 20653,9853 20653,9945 "/>
    <polygon class="fil47" points="20653,9945 20653,9853 20630,9853 20630,9943 "/>
    <path class="fil22" d="M15822 9363c0,111 90,201 201,201 111,0 201,-90 201,-201 0,-111 -90,-201 -201,-201 -111,0 -201,90 -201,201z"/>
    <polygon class="fil22" points="16028,9306 16196,8530 16163,8488 15995,9264 "/>
    <path class="fil22" d="M16118 8505c0,195 61,354 138,354 76,0 138,-159 138,-354 0,-196 -62,-355 -138,-355 -77,0 -138,159 -138,355z"/>
    <path class="fil39" d="M16023 9564c111,0 201,-90 201,-201l0 0c0,111 -90,201 -201,201 0,0 -1,0 -1,0 0,0 1,0 1,0zm-1 0c-1,0 -1,0 -1,0 0,0 0,0 1,0zm-2 0c0,0 0,0 0,0 0,0 0,0 0,0zm-1 0c0,0 0,0 -1,0 1,0 1,0 1,0zm-2 0c0,0 0,0 0,0 0,0 0,0 0,0zm207 -201c0,0 0,-1 0,-1 0,0 0,1 0,1zm0 -2c0,0 0,0 0,-1 0,1 0,1 0,1zm0 -1c0,0 0,0 0,-1 0,1 0,1 0,1zm0 -1c0,0 0,-1 0,-1 0,0 0,1 0,1zm0 -2c0,0 0,0 0,0 0,0 0,0 0,0z"/>
    <path class="fil40" d="M16023 9564c111,0 201,-90 201,-201l0 0c0,0 0,-1 0,-1 0,0 0,0 0,-1 0,0 0,0 0,-1 0,0 0,0 0,0 0,0 0,0 0,-1 0,0 0,0 0,0 0,0 0,-1 0,-1 0,0 0,0 0,-1 0,0 0,0 0,0 -2,-69 -40,-130 -95,-164 19,31 31,67 31,106 0,111 -90,201 -201,201 -39,0 -75,-12 -106,-31 35,55 95,93 164,95 0,0 0,0 0,0 1,0 1,0 1,0 1,0 1,0 1,0 0,0 0,0 1,0 0,0 0,0 0,0 0,0 1,0 1,0 0,0 0,0 1,0 0,0 0,0 0,0 0,0 1,0 1,0z"/>
    <path class="fil21" d="M16353 8505c0,-164 -45,-301 -106,-342 12,-8 25,-13 37,-13 80,0 144,159 144,355 0,195 -64,354 -144,354 -12,0 -25,-5 -37,-13 61,-40 106,-178 106,-341z"/>
    <path class="fil22" d="M16118 8505c0,195 61,354 138,354 76,0 138,-159 138,-354 0,-196 -62,-355 -138,-355 -77,0 -138,159 -138,355z"/>
    <path class="fil20" d="M17177 7807c0,0 0,-369 -23,-428 -57,-144 -122,-290 -221,-369l-77 -549c0,0 322,272 614,606 92,105 183,112 238,111 119,-3 251,654 -351,656l-8 0c-121,-1 -19,54 -172,-27z"/>
    <path class="fil48" d="M17165 7429l-2 -9c-1,-14 -4,-28 -9,-41 -22,-55 -44,-109 -70,-161l108 -260c0,0 129,299 -27,471z"/>
    <path class="fil21" d="M17180 8003c0,0 -40,-459 -5,-514 258,-149 323,-396 323,-396 160,-49 502,210 542,245 446,383 860,1471 1091,1664 16,14 -631,609 -1129,597 -141,-4 -205,-85 -205,-85 -124,-347 -196,-470 -326,-680 -260,-421 -291,-830 -291,-831z"/>
    <path class="fil49" d="M16537 6687c0,0 1,725 322,676 396,-60 496,-638 492,-953 -2,-150 -144,-191 -290,-226 -227,-55 -531,90 -524,503z"/>
    <path class="fil29" d="M16621 6310c81,-148 299,-252 531,-233 231,18 380,182 399,398 31,350 -241,418 -241,418 0,0 -251,27 -392,-401 -332,95 -378,-34 -297,-182z"/>
    <path class="fil49" d="M16550 6716c0,0 -26,164 -50,224 -24,59 -1,103 106,98l-56 -322z"/>
    <path class="fil44" d="M16707 7079c75,0 132,-79 133,-80l-6 -4c-1,1 -73,101 -158,72l-3 7c12,4 23,5 34,5z"/>
    <path class="fil20" d="M17369 6937c-44,67 -122,94 -173,61 -52,-34 -58,-116 -14,-183 44,-68 122,-95 173,-62 52,34 58,116 14,184z"/>
    <path class="fil20" d="M18025 7504c75,44 109,119 65,212 -122,254 -337,1330 -499,1457 -185,143 -828,118 -1139,118l-71 -180c0,0 775,-221 963,-203 0,0 234,-1670 681,-1404z"/>
    <path class="fil21" d="M17633 7562c-104,300 -285,915 -285,915 0,0 403,166 613,92l175 -865c61,-153 -126,-300 -126,-300 -165,-118 -311,-34 -377,158z"/>
    <path class="fil21" d="M16542 6764c0,0 40,150 112,202 72,52 181,-3 235,56 0,0 1,312 -166,303 -389,-22 -181,-561 -181,-561z"/>
    <path class="fil50" d="M16706 7214c107,6 145,-119 159,-210 9,4 17,10 24,18 0,0 1,312 -166,303 -184,-10 -234,-136 -236,-266 27,83 90,148 219,155z"/>
    <path class="fil21" d="M16803 7042c241,-66 445,-287 447,-289l-15 -14c-2,2 -203,218 -438,283l6 20z"/>
    <path class="fil20" d="M16161 9092c0,0 -389,69 -392,103 -3,33 -11,355 -11,355 0,0 95,14 172,-267 0,0 369,109 615,8l-108 -188 -276 -11z"/>
    <path class="fil14" d="M16512 6369c41,-82 218,-326 559,-326 320,0 473,153 500,423 45,439 -258,516 -258,516 0,0 -121,-37 -292,-577 -367,109 -601,149 -509,-36z"/>
    <path class="fil26" d="M17010 6321c0,0 -646,161 -668,227 -39,117 281,-46 679,-143l-11 -84z"/>
    <path class="fil43" d="M17247 6574c-40,63 -20,146 43,186 63,39 147,20 186,-43 40,-63 21,-147 -43,-186 -63,-40 -146,-21 -186,43z"/>
    <path class="fil44" d="M17247 6574l5 3c-13,21 -20,45 -20,68 0,43 22,85 61,110 21,13 45,20 68,20 44,0 86,-22 110,-61 14,-21 20,-45 20,-69 0,-43 -22,-85 -61,-109 -21,-14 -45,-20 -68,-20 -43,0 -86,22 -110,61l-5 -3 -5 -3c27,-43 73,-66 120,-66 25,-1 51,6 74,21 43,27 66,73 66,119 0,26 -7,52 -21,75 -27,43 -73,66 -120,66 -25,0 -51,-7 -74,-21 -43,-27 -66,-73 -66,-120 0,-25 7,-51 21,-74l5 3z"/>
    <path class="fil26" d="M17056 6181c15,45 -8,94 -53,112 -347,138 -441,143 -456,117 -19,-35 90,-134 154,-181 90,-65 182,-95 253,-109 44,-8 88,18 102,61z"/>
    <polygon class="fil21" points="16345,14184 14558,13055 14529,12857 15911,12822 16097,13020 16607,14196 "/>
    <polygon class="fil22" points="22279,13887 22948,13887 22948,13305 22279,13305 "/>
    <path class="fil22" d="M15507 10162c25,3 116,13 142,16 97,11 151,245 119,522 -31,278 -135,494 -232,483 -25,-3 -117,-13 -142,-16 -97,-11 -151,-245 -120,-522 31,-278 135,-494 233,-483z"/>
    <path class="fil24" d="M15274 10645c-31,277 6,509 82,518 77,8 165,-210 196,-487 31,-278 -6,-510 -83,-518 -76,-9 -164,209 -195,487z"/>
    <path class="fil44" d="M18176 7755l-210 819 -4 0c0,0 -58,8 -143,8 -115,0 -280,-14 -419,-78l-4 -2 228 -988 11 3 -227 983 -6 -1 3 -5c136,63 300,76 414,76 42,0 77,-2 102,-3 25,-2 39,-4 39,-4l1 6 -6 -2 210 -815 11 3z"/>
    <path class="fil51" d="M20149 11842c0,101 352,183 786,183 434,0 785,-82 785,-183 0,-101 -351,-183 -785,-183 -434,0 -786,82 -786,183z"/>
    <path class="fil52" d="M14653 12733c53,47 175,-5 273,-116 98,-111 135,-239 82,-286 -53,-46 -176,6 -274,117 -98,111 -134,239 -81,285z"/>
    <path class="fil21" d="M15327 10518c-17,156 4,287 47,292 43,5 93,-118 110,-275 18,-156 -3,-287 -46,-292 -44,-5 -93,118 -111,275z"/>
    <path class="fil21" d="M15721 8934c-9,83 2,152 25,155 23,2 49,-63 58,-146 9,-83 -2,-152 -24,-154 -23,-3 -49,62 -59,145z"/>
    <path class="fil21" d="M15390 10905c-6,59 2,108 18,110 16,2 35,-45 41,-104 7,-59 -1,-108 -17,-110 -17,-2 -35,45 -42,104z"/>
    <path class="fil44" d="M17187 7717c0,0 2,77 8,180 7,103 16,232 30,336l-11 2c-28,-210 -39,-517 -39,-517l12 -1z"/>
   </g>
  </g>
 </g>
</svg>
