<svg xmlns="http://www.w3.org/2000/svg" width="54.415" height="94.933" viewBox="0 0 54.415 94.933">
  <path id="Shape_14" data-name="Shape 14" d="M28.509,90.657V87.4h8.228v3.257a3.988,3.988,0,0,1-3.9,4.284,4.336,4.336,0,0,1-4.328-4.284Zm-10.971,0V87.4h8.23v3.257A4.04,4.04,0,0,1,21.8,94.941a4.279,4.279,0,0,1-4.262-4.284Zm10.971-5.27V64.071H25.77V85.386H10.048V44.367a2.985,2.985,0,0,1-.722.1,3.179,3.179,0,0,1-2.674-1.512L.583,33.34a3.72,3.72,0,0,1,.8-4.9s10.685-8.107,12-9.045a12.478,12.478,0,0,1,6.951-2.527c.933-.022,12.808-.022,13.74,0A12.478,12.478,0,0,1,41.026,19.4c1.319.939,12.005,9.045,12.005,9.045a3.723,3.723,0,0,1,.794,4.9l-6.058,9.592a3.183,3.183,0,0,1-2.673,1.512,3.075,3.075,0,0,1-1.856-.634,3.717,3.717,0,0,1-.809-4.907l4.212-6.716-8.27-6.324a1.425,1.425,0,0,0-1.408-.03,1.729,1.729,0,0,0-.817,1.509l1.232,15.012H16.94l1.324-15.012a1.729,1.729,0,0,0-.817-1.509,1.425,1.425,0,0,0-1.409.03l-8.27,6.321,4.223,6.737a3.719,3.719,0,0,1-.81,4.909,3.159,3.159,0,0,1-1.094.523h5.732v.016H40.2v-.016h3.947V85.387ZM17.4,11.319a18.573,18.573,0,0,1-3.764-6.6s2.717,1.233,4.837.409A9.4,9.4,0,0,0,21.61,2.494,7.285,7.285,0,0,1,24.05.664a7.43,7.43,0,0,1,9.858,3.8,7.569,7.569,0,0,1-3.356,9.816l-.013.008a8.632,8.632,0,0,1-4.262,1.029C23.88,15.322,20.734,14.469,17.4,11.319Z" transform="translate(0.003 -0.009)"/>
</svg>
